<?xml version="1.0" encoding="UTF-8" standalone="no"?>
<svg
   xmlns:dc="http://purl.org/dc/elements/1.1/"
   xmlns:cc="http://creativecommons.org/ns#"
   xmlns:rdf="http://www.w3.org/1999/02/22-rdf-syntax-ns#"
   xmlns:svg="http://www.w3.org/2000/svg"
   xmlns="http://www.w3.org/2000/svg"
   xmlns:sodipodi="http://sodipodi.sourceforge.net/DTD/sodipodi-0.dtd"
   xmlns:inkscape="http://www.inkscape.org/namespaces/inkscape"
   sodipodi:docname="iqx.svg"
   inkscape:version="1.0beta1 (32d4812, 2019-09-19)"
   id="svg8"
   version="1.1"
   viewBox="0 0 172 97"
   height="97mm"
   width="172mm">
  <defs
     id="defs2" />
  <sodipodi:namedview
     inkscape:window-maximized="0"
     inkscape:window-y="23"
     inkscape:window-x="0"
     inkscape:window-height="855"
     inkscape:window-width="1440"
     showgrid="false"
     inkscape:document-rotation="0"
     inkscape:current-layer="layer1"
     inkscape:document-units="mm"
     inkscape:cy="509.9291"
     inkscape:cx="58.985886"
     inkscape:zoom="0.51692281"
     inkscape:pageshadow="2"
     inkscape:pageopacity="0.0"
     borderopacity="1.0"
     bordercolor="#666666"
     pagecolor="#ffffff"
     id="base" />
  <metadata
     id="metadata5">
    <rdf:RDF>
      <cc:Work
         rdf:about="">
        <dc:format>image/svg+xml</dc:format>
        <dc:type
           rdf:resource="http://purl.org/dc/dcmitype/StillImage" />
        <dc:title></dc:title>
      </cc:Work>
    </rdf:RDF>
  </metadata>
  <g
     id="layer1"
     inkscape:groupmode="layer"
     inkscape:label="Layer 1">
    <path
       sodipodi:nodetypes="csscscccccscccccsscccsccccscccsccscscccccccscscsccsssssc"
       inkscape:connector-curvature="0"
       d="M 59.906419,0.70847853 C 51.892883,0.72535853 45.468562,2.6635085 40.076621,6.6765922 32.925307,11.999121 28.459897,20.325802 26.281598,32.400599 c -0.642893,3.563681 -0.693962,4.410239 -0.71365,11.906253 -0.02291,8.727384 0.21178,11.197694 1.607653,16.923501 4.00058,16.410158 14.154822,25.541205 29.690176,26.698612 4.483063,0.33399 9.413306,-0.0491 13.33097,-1.035587 l 1.223698,-0.308 4.006472,3.136247 c 2.203622,1.72493 4.856322,3.820847 5.895252,4.657587 1.03892,0.83675 2.13916,1.52136 2.44481,1.52136 0.552,0 2.042587,-1.53459 5.081857,-5.232757 2.067727,-2.51602 2.037967,-2.61191 -1.82521,-5.912297 -1.76773,-1.51019 -3.523897,-3.002747 -3.902607,-3.317107 l -0.68884,-0.57154 1.8681,-1.942 C 91.693233,71.238817 95.47354,58.003073 94.905823,41.793312 94.240603,22.799365 87.625546,9.6695713 75.840328,3.9516932 71.228334,1.7140725 67.648823,0.90810953 61.530609,0.73070153 c -0.548526,-0.0159 -1.089954,-0.02334 -1.62419,-0.02222 z M 11.77189,1.1797675 c -6.8608377,0 -10.1946487,0.09068 -10.3120317,0.280604 -0.0954,0.154371 -0.238723,1.9365727 -0.318844,3.9604817 l -0.145727,3.6798774 0.71727,0.272851 c 0.394689,0.1500717 1.365049,0.2728517 2.155938,0.2728517 H 5.306651 V 44.306852 78.967241 H 3.7692773 c -2.396332,0 -2.465338,0.10997 -2.630329,4.178037 -0.10518,2.59325 -0.05605,3.58463 0.19327,3.88504 0.289256,0.34853 1.710373,0.40359 10.4603417,0.40359 8.262339,0 10.150967,-0.0658 10.262941,-0.3576 0.07545,-0.19668 0.222919,-1.966 0.32711,-3.93206 0.15377,-2.901647 0.120689,-3.618897 -0.175184,-3.809587 -0.200474,-0.12921 -1.197755,-0.29462 -2.216401,-0.36742 l -1.852083,-0.13229 V 44.306852 9.7787253 l 1.809707,-0.155546 c 1.050656,-0.09022 1.899357,-0.2999477 2.023134,-0.5002267 0.117271,-0.1897507 0.298379,-1.8776754 0.402558,-3.7506744 0.141762,-2.5486807 0.107024,-3.5041437 -0.137459,-3.7987337 -0.278772,-0.335912 -1.81312,-0.393777 -10.464993,-0.393777 z m 48.568094,9.9616675 c 6.248233,0.03679 10.933895,2.121733 14.488522,6.446633 1.76231,2.144199 4.015536,6.745722 4.921143,10.050031 2.82087,10.292482 2.59324,25.592957 -0.519347,34.924991 -2.63417,7.897717 -7.145993,12.617584 -13.625007,14.253904 -5.345504,1.350047 -11.289424,0.635897 -15.531351,-1.86604 -2.093735,-1.23491 -4.873461,-4.120027 -6.278171,-6.516397 -3.50203,-5.974297 -4.995359,-13.235961 -4.989358,-24.259995 0.0038,-6.902036 0.37692,-10.528508 1.577681,-15.321549 2.959679,-11.81408 9.672963,-17.772179 19.955888,-17.711578 z"
       style="fill:#241e20;fill-opacity:1;stroke-width:0.264583"
       id="path178" />
    <path
       sodipodi:nodetypes="cccccccccccccccccccsccccccccscsccscccscccscccccccscccccccccsccccccccccccccccccccscccccccccccccc"
       inkscape:connector-curvature="0"
       id="path178-3"
       style="fill:#3ac3d6;fill-opacity:1;stroke-width:0.264583"
       d="m 157.03484,1.1456675 c -5.10456,-0.0085 -10.17201,0.110466 -10.37301,0.364833 -0.37533,0.475012 -0.67355,6.7053087 -0.34985,7.3101494 0.2005,0.3746307 0.70389,0.5343067 2.12545,0.6743774 l 1.86294,0.183451 -0.72864,0.9751327 c -0.40082,0.53618 -1.11731,1.511294 -1.59215,2.166794 -0.47483,0.655489 -0.9606,1.313659 -1.07952,1.462961 -0.11892,0.14928 -0.44111,0.625551 -0.71572,1.058333 -0.27461,0.43276 -1.46339,2.096717 -2.6417,3.697446 -1.1783,1.600732 -3.23393,4.458232 -4.5682,6.35 -1.33428,1.891771 -2.61595,3.677711 -2.8484,3.96875 -0.23244,0.291042 -0.97882,1.334463 -1.6583,2.318724 -0.73471,1.064278 -1.39592,1.760307 -1.63194,1.717207 -0.21829,-0.03989 -1.23032,-1.295924 -2.24896,-2.791045 -1.93912,-2.846149 -2.73778,-4.004061 -7.244,-10.505302 -1.51298,-2.18281 -3.74154,-5.415606 -4.95267,-7.184057 l -2.20245,-3.2153067 1.8309,-0.18397 c 1.00678,-0.1011077 1.94875,-0.3264317 2.09341,-0.5007417 0.14466,-0.1743097 0.34538,-1.8758844 0.44597,-3.7811654 0.17589,-3.3316697 0.16186,-3.4754477 -0.36691,-3.7584267 -0.83011,-0.44427 -20.53637,-0.40966 -20.89122,0.03669 -0.14461,0.181902 -0.34472,1.8879897 -0.44442,3.7915007 -0.1415,2.701451 -0.10497,3.5241807 0.16485,3.7480924 0.19012,0.157768 1.18363,0.369316 2.20813,0.4702537 1.7904,0.176411 1.88435,0.221157 2.42259,1.1472177 0.30799,0.52991 1.19648,1.824704 1.97404,2.877343 0.77757,1.05264 1.92364,2.659976 2.54713,3.571875 2.78514,4.07347 6.45632,9.365192 6.74842,9.727571 0.17602,0.21835 1.12851,1.587568 2.11667,3.042708 0.98816,1.455142 2.39178,3.479279 3.11919,4.497917 2.93591,4.11136 5.31265,7.842702 5.18832,8.145752 -0.0724,0.17656 -0.94693,1.40271 -1.94304,2.7249 -5.25662,6.977384 -7.92557,10.537254 -11.27011,15.031121 -1.4191,1.906747 -2.98871,4.002737 -3.48764,4.657587 -4.39989,5.774837 -6.70492,8.967494 -6.57118,9.101244 0.0876,0.0875 0.031,0.15916 -0.12557,0.15916 -0.15653,0 -1.03941,1.06113 -1.96215,2.358 l -1.67794,2.357997 -1.91099,0.18603 c -1.0511,0.1023 -2.034907,0.33523 -2.186427,0.5178 -0.15152,0.18257 -0.3528,1.85331 -0.447,3.712437 -0.15707,3.09915 -0.1301,3.40962 0.31936,3.73827 0.73588,0.53807 20.821847,0.52681 21.268977,-0.0119 0.43092,-0.51923 0.92813,-6.618817 0.58911,-7.226947 -0.19127,-0.3431 -0.80576,-0.54473 -2.24534,-0.73691 l -1.98179,-0.26458 1.8588,-2.513537 c 1.02237,-1.38245 1.94088,-2.57303 2.04122,-2.64583 0.10034,-0.0728 0.46896,-0.54901 0.81907,-1.05834 0.67187,-0.977417 7.04728,-9.640504 7.59385,-10.318734 0.31655,-0.39282 1.31879,-1.746717 6.12624,-8.275464 1.36172,-1.84927 2.58017,-3.297797 2.70785,-3.21892 0.12768,0.0789 0.79518,0.94113 1.48363,1.91616 0.68846,0.97503 1.32325,1.83251 1.41025,1.90531 0.14765,0.12345 1.4843,1.969547 5.65237,7.805204 0.93543,1.30968 1.97942,2.76342 2.31975,3.23081 0.34032,0.46738 1.27341,1.751027 2.07378,2.852017 0.80036,1.101 2.22911,3.05197 3.175,4.335647 1.97985,2.68688 2.32254,3.16747 3.41478,4.795057 l 0.79891,1.19062 -0.98236,0.18345 c -0.54021,0.10074 -1.36463,0.19044 -1.83245,0.19844 -0.5318,0.01 -0.93971,0.18852 -1.08831,0.47801 -0.13072,0.25466 -0.31302,1.83698 -0.40462,3.516057 -0.13745,2.5207 -0.095,3.15488 0.24339,3.63802 l 0.41031,0.58498 h 10.25881 10.2588 l 0.28991,-0.59531 c 0.41695,-0.85622 0.68713,-6.408427 0.34313,-7.051247 -0.22568,-0.42167 -0.67722,-0.55368 -2.40451,-0.70435 -1.79118,-0.15624 -2.17249,-0.27425 -2.41949,-0.74621 -0.27647,-0.52834 -2.78471,-4.093337 -6.44353,-9.159124 -1.44731,-2.00385 -5.58867,-7.858954 -7.57938,-10.715614 -0.40564,-0.58209 -1.33051,-1.89177 -2.05517,-2.910417 -0.72468,-1.01865 -2.06088,-2.92365 -2.96933,-4.23333 -0.90846,-1.309687 -1.79431,-2.526697 -1.96835,-2.704737 -0.17406,-0.17805 -0.5921,-0.77336 -0.92915,-1.32292 -0.33706,-0.54956 -0.71204,-1.11849 -0.83302,-1.26401 -0.12098,-0.14552 -0.8628,-1.157547 -1.649,-2.248957 -1.20595,-1.67418 -1.37993,-2.05517 -1.11156,-2.43706 0.17494,-0.24895 1.74656,-2.427274 3.49281,-4.841044 1.74625,-2.413781 4.69358,-6.496812 6.54947,-9.07283 1.85589,-2.57601 4.35621,-6.038331 5.55625,-7.694623 1.20005,-1.656281 2.65854,-3.687056 3.24063,-4.512384 0.58208,-0.825331 1.70991,-2.401705 2.50683,-3.503147 l 1.449,-2.0024617 1.96371,-0.16588 c 1.07989,-0.09129 2.11121,-0.2888137 2.29185,-0.4387317 0.37675,-0.3126817 0.6247,-2.1185844 0.7028,-5.1164834 0.0462,-1.7741897 -0.0198,-2.1357667 -0.44597,-2.4473957 -0.34912,-0.255275 -5.49065,-0.391477 -10.59522,-0.399976 z" />
  </g>
</svg>
