<?xml version="1.0" encoding="utf-8"?>
<!-- Generator: Adobe Illustrator 24.0.0, SVG Export Plug-In . SVG Version: 6.00 Build 0)  -->
<svg version="1.1" id="Layer_1" xmlns="http://www.w3.org/2000/svg" xmlns:xlink="http://www.w3.org/1999/xlink" x="0px" y="0px"
	 viewBox="0 0 120 120" style="enable-background:new 0 0 120 120;" xml:space="preserve">
<style type="text/css">
	.st0{fill:#298FC2;}
	.st1{fill:#FF8200;} 
	.st2{fill:#9EA2A2;}
</style>
<g id="Logo">
	<path class="st0" d="M58.9,56.6c0-0.2-0.2-0.2-0.4-0.2l0,0H24.6C14,56.4,5.2,65,5.2,75.8C5.2,86.4,14,95,24.8,95l0,0h1.4
		c6.2-0.4,12-3.8,15.2-9.2L59.1,57C59.1,57,59.1,56.8,58.9,56.6z"/>
	<path class="st1" d="M110.7,65.6L76.5,10.1c-3.6-5.8-9.8-9.2-16.6-9.2c-9.2,0-15,6-16.4,8.4L32.1,27.9c0,0.2,0,0.4,0,0.4
		c0,0.2,0.2,0.2,0.4,0.2l0,0h9.4l35.4,57.3c3.6,5.8,9.8,9.2,16.6,9.2c3.6,0,7-1,10.2-2.8c4.4-2.6,7.6-7,8.8-12
		C114.4,75.2,113.5,70,110.7,65.6z"/>
</g>
<g id="Wordmark">
	<g id="WA_TM">
		<g id="TM">
			<polygon id="M" class="st2" points="111.5,101.5 112.1,102.6 112.2,102.6 112.8,101.5 112.8,102.9 112.9,102.9 112.9,101.4 
				112.8,101.4 112.2,102.5 111.6,101.4 111.5,101.4 111.5,102.9 111.6,102.9 111.6,101.5 			"/>
			<polygon id="T" class="st2" points="110.6,102.9 110.8,102.9 110.8,101.5 111.2,101.5 111.2,101.4 110.3,101.4 110.3,101.5 
				110.7,101.5 110.7,102.9 			"/>
		</g>
		<g id="WA">
			<path id="A" class="st2" d="M111.4,109.8c-0.6-1.7-1.1-3.2-1.7-4.8c0-0.1-0.1-0.1-0.2-0.1h-1.1c-0.1,0-0.2,0.1-0.2,0.1l-3.4,9.7
				c0,0.1,0,0.2,0,0.2c0,0.1,0.1,0.1,0.2,0.1h0.8c0.1,0,0.2-0.1,0.2-0.1l1.1-3.1h3.9l1.1,3.1c0,0.1,0.1,0.1,0.2,0.1h0.8
				c0.1,0,0.1,0,0.2-0.1c0.1-0.1,0.1-0.1,0.1-0.2C112.6,113.1,112,111.5,111.4,109.8z M107.3,110.7l1.5-4.4l1.5,4.4H107.3z"/>
			<path id="W" class="st2" d="M104.7,104.9l-0.7,0c-0.1,0-0.2,0.1-0.2,0.1l-2.2,8.4l-2.2-7.1c0-0.1-0.1-0.1-0.2-0.1h-0.7
				c-0.1,0-0.2,0.1-0.2,0.1c-0.4,1.3-0.9,2.7-1.3,4.2c-0.3,1-0.6,2-0.9,2.9l-2.3-8.5c0-0.1-0.1-0.1-0.2-0.1h-0.7
				c-0.1,0-0.1,0-0.2,0.1c-0.1,0.1-0.1,0.1-0.1,0.2c0.4,1.6,0.9,3.2,1.4,4.9c0.4,1.7,0.9,3.2,1.4,4.8c0,0.1,0.1,0.1,0.2,0.1h1.1
				c0.1,0,0.2-0.1,0.2-0.1l1.9-6.5l1.9,6.5c0,0.1,0.1,0.1,0.2,0.1h1.1c0.1,0,0.2-0.1,0.2-0.1c0.5-1.9,1.1-3.9,1.6-5.8
				c0.4-1.3,1.1-3.9,1.1-3.9c0-0.1,0-0.2,0-0.2C104.8,104.9,104.8,104.9,104.7,104.9z"/>
		</g>
	</g>
	<g id="Anglicare">
		<path class="st0" d="M86.7,104.7c-3.4,0-5.2,2.7-5.2,5.2c0,1.4,0.5,2.9,1.5,3.8c0.9,0.9,2.2,1.4,3.7,1.4c1.6,0,2.9-0.6,4-1.9
			c0.1-0.1,0.1-0.1,0.1-0.1c0-0.1-0.1-0.1-0.1-0.1l-1.5-1.3c-0.1-0.1-0.2-0.1-0.3,0c-0.6,0.5-1.4,0.8-2.1,0.8c-1,0-1.8-0.5-2.2-1.2
			h6.7c0.1,0,0.2,0,0.2-0.2s0.1-1,0.1-1.4C91.7,106.9,89.5,104.7,86.7,104.7z M84.6,108.8c0.3-1,1.3-1.4,2-1.4
			c0.4,0,1.6,0.1,1.9,1.4H84.6z"/>
		<path class="st0" d="M81.5,105.7c-0.6-0.6-1.4-0.9-2.3-0.9s-1.6,0.3-2.2,0.9c0,0-0.1-0.5-0.1-0.6c0-0.1-0.1-0.2-0.2-0.2h-2.2
			c-0.1,0-0.2,0.1-0.2,0.2v9.7c0,0.1,0.1,0.2,0.2,0.2h2.6c0.1,0,0.2-0.1,0.2-0.2v-6c0-0.9,0.7-1.3,1.4-1.3c0.4,0,0.9,0.1,1.3,0.4
			c0.1,0,0.2,0,0.2,0s0.1-0.1,0.1-0.1c0,0,1.1-1.9,1.1-1.9C81.5,105.8,81.5,105.7,81.5,105.7z"/>
		<path class="st0" d="M71.9,105.5c-0.9-0.4-2.4-0.7-4.1-0.7c-2.9,0-5.2,2.4-5.2,5.3c0,1.4,0.5,2.7,1.5,3.7c1,1,2.3,1.5,3.8,1.5
			c0.6,0,1.2,0,2-0.1h1.9c0.1,0,0.2-0.1,0.2-0.2v-9.2C72.1,105.6,72,105.5,71.9,105.5z M69,112.4c-0.4,0.1-0.7,0.1-1,0.1h-0.1
			c-0.6,0-1.1-0.2-1.5-0.6c-0.4-0.4-0.7-1.1-0.7-1.8c0-1.4,1.1-2.5,2.4-2.5c0.2,0,0.6,0.1,0.9,0.1V112.4z"/>
		<path class="st0" d="M60.9,111.6c-0.1-0.1-0.1-0.1-0.1-0.1c-0.1,0-0.1,0-0.1,0.1c-0.6,0.6-1.2,0.9-1.9,0.9c-0.6,0-1.2-0.3-1.7-0.7
			c-0.4-0.4-0.7-1.1-0.7-1.8c0-1.8,1.2-2.6,2.4-2.6c0.7,0,1.4,0.3,1.9,0.8c0.1,0.1,0.1,0.1,0.1,0.1c0.1,0,0.2-0.1,0.1-0.1
			c0,0,1.4-1.6,1.4-1.6c0.1-0.1,0.1-0.2,0-0.3c-1.1-1.1-2.2-1.6-3.8-1.6c-3.4,0-5.3,2.7-5.3,5.3c0,2.6,1.8,5.2,5.3,5.2
			c1.7,0,2.9-0.6,3.9-1.8c0.1-0.1,0.1-0.2,0-0.3L60.9,111.6z"/>
		<path class="st0" d="M51.2,104.9h-2.6c-0.1,0-0.2,0.1-0.2,0.2v9.7c0,0.1,0.1,0.2,0.2,0.2h2.6c0.1,0,0.2-0.1,0.2-0.2
			c0,0,0-9.6,0-9.7S51.3,104.9,51.2,104.9z"/>
		<circle class="st0" cx="49.8" cy="102.6" r="1.7"/>
		<path class="st0" d="M47.1,112.5c-0.7,0.1-1.1-0.1-1.1-0.7v-10.3c0-0.1-0.1-0.2-0.2-0.2h-2.6c-0.1,0-0.2,0.1-0.2,0.2v10.3
			c0,2.2,1.1,3.4,3.2,3.4c0.3,0,0.6,0,1-0.1c0.1,0,0.2-0.1,0.2-0.2c0,0,0-1.8,0-2.1C47.4,112.5,47.4,112.5,47.1,112.5z"/>
		<path class="st0" d="M40.6,105.4c-1.6-0.6-2.9-0.6-4-0.6c-3.4,0-5.3,2.7-5.3,5.2c0,2.9,2.3,5.3,5.2,5.3c0.4,0,0.7-0.1,1.1-0.1
			c0,0.3,0,0.5,0,0.5c-0.1,0.8-0.4,1.1-1.2,1.2c-1.1,0-2.2-0.4-3.2-1.1c-0.1-0.1-0.1-0.1-0.1-0.1c-0.1,0-0.1,0.1-0.1,0.1l-1.3,1.6
			c-0.1,0.1-0.1,0.2,0,0.3c1.3,1.3,2.9,1.9,4.5,1.9h0.1c2.6-0.1,4.3-1.5,4.5-4v-9.9C40.8,105.5,40.7,105.5,40.6,105.4z M37.7,112.2
			c-0.3,0.1-0.6,0.1-0.9,0.1c-1.4,0-2.4-1.1-2.4-2.5c0-0.6,0.3-1.4,0.7-1.8c0.4-0.4,0.9-0.6,1.5-0.6h0.1c0.3,0,0.6,0,1,0.1V112.2z"
			/>
		<path class="st0" d="M25,104.7c-1.3,0-2.7,0.3-4,0.7c-0.1,0-0.1,0.1-0.1,0.2v9.1c0,0.1,0.1,0.2,0.2,0.2h2.7c0.1,0,0.2-0.1,0.2-0.2
			v-7.2c0.4-0.1,0.8-0.2,1.2-0.2c0.6,0,1.2,0.2,1.6,0.6c0.4,0.4,0.5,0.8,0.5,1.4v5.5c0,0.1,0.1,0.2,0.2,0.2H30
			c0.1,0,0.2-0.1,0.2-0.2v-5.5C30.2,106.4,28.3,104.7,25,104.7z"/>
		<path class="st0" d="M15.3,101.4c0-0.1-0.1-0.1-0.2-0.1h-3.6c-0.1,0-0.2,0.1-0.2,0.1c0,0-4.6,13.2-4.6,13.4
			c-0.1,0.2,0.1,0.3,0.2,0.3c0.1,0,2.9,0,2.9,0c0.1,0,0.2-0.1,0.2-0.1l1.1-3.4c0.6,0.2,1.4,0.3,2.2,0.3c0.7,0,1.4-0.1,2.1-0.3
			l1.1,3.4c0,0.1,0.1,0.1,0.2,0.1h2.9c0.3,0,0.3-0.2,0.2-0.4C19.8,114.4,15.3,101.4,15.3,101.4z M13.3,108.8c-0.4,0-0.9-0.1-1.2-0.2
			l0.9-3l0.2-1.4l0.2,1.4l0.9,3C14.2,108.8,13.8,108.8,13.3,108.8z"/>
	</g>
</g>
</svg>
