<svg xmlns="http://www.w3.org/2000/svg" id="Layer_1" x="0" y="0" version="1.1" viewBox="0 0 120 120" xml:space="preserve"><style>.st0{fill:#298fc2}.st2{fill:#9ea2a2}</style><g id="Logo"><path d="M58.9 56.6c0-.2-.2-.2-.4-.2H24.6C14 56.4 5.2 65 5.2 75.8 5.2 86.4 14 95 24.8 95h1.4c6.2-.4 12-3.8 15.2-9.2L59.1 57s0-.2-.2-.4z" class="st0"/><path fill="#ff8200" d="M110.7 65.6L76.5 10.1C72.9 4.3 66.7.9 59.9.9c-9.2 0-15 6-16.4 8.4L32.1 27.9v.4c0 .2.2.2.4.2h9.4l35.4 57.3c3.6 5.8 9.8 9.2 16.6 9.2 3.6 0 7-1 10.2-2.8 4.4-2.6 7.6-7 8.8-12 1.5-5 .6-10.2-2.2-14.6z"/></g><g id="Wordmark"><g id="WA_TM"><g id="TM"><path id="M" d="M111.5 101.5l.6 1.1h.1l.6-1.1v1.4h.1v-1.5h-.1l-.6 1.1-.6-1.1h-.1v1.5h.1v-1.4z" class="st2"/><path id="T" d="M110.6 102.9h.2v-1.4h.4v-.1h-.9v.1h.4v1.4z" class="st2"/></g><g id="WA"><path id="A" d="M111.4 109.8c-.6-1.7-1.1-3.2-1.7-4.8 0-.1-.1-.1-.2-.1h-1.1c-.1 0-.2.1-.2.1l-3.4 9.7v.2c0 .1.1.1.2.1h.8c.1 0 .2-.1.2-.1l1.1-3.1h3.9l1.1 3.1c0 .1.1.1.2.1h.8c.1 0 .1 0 .2-.1s.1-.1.1-.2c-.8-1.6-1.4-3.2-2-4.9zm-4.1.9l1.5-4.4 1.5 4.4h-3z" class="st2"/><path id="W" d="M104.7 104.9h-.7c-.1 0-.2.1-.2.1l-2.2 8.4-2.2-7.1c0-.1-.1-.1-.2-.1h-.7c-.1 0-.2.1-.2.1-.4 1.3-.9 2.7-1.3 4.2-.3 1-.6 2-.9 2.9l-2.3-8.5c0-.1-.1-.1-.2-.1h-.7c-.1 0-.1 0-.2.1s-.1.1-.1.2c.4 1.6.9 3.2 1.4 4.9.4 1.7.9 3.2 1.4 4.8 0 .1.1.1.2.1h1.1c.1 0 .2-.1.2-.1l1.9-6.5 1.9 6.5c0 .1.1.1.2.1h1.1c.1 0 .2-.1.2-.1.5-1.9 1.1-3.9 1.6-5.8.4-1.3 1.1-3.9 1.1-3.9v-.2h-.2z" class="st2"/></g></g><g id="Anglicare"><path d="M86.7 104.7c-3.4 0-5.2 2.7-5.2 5.2 0 1.4.5 2.9 1.5 3.8.9.9 2.2 1.4 3.7 1.4 1.6 0 2.9-.6 4-1.9l.1-.1c0-.1-.1-.1-.1-.1l-1.5-1.3c-.1-.1-.2-.1-.3 0-.6.5-1.4.8-2.1.8-1 0-1.8-.5-2.2-1.2h6.7c.1 0 .2 0 .2-.2s.1-1 .1-1.4c.1-2.8-2.1-5-4.9-5zm-2.1 4.1c.3-1 1.3-1.4 2-1.4.4 0 1.6.1 1.9 1.4h-3.9zM81.5 105.7c-.6-.6-1.4-.9-2.3-.9s-1.6.3-2.2.9c0 0-.1-.5-.1-.6 0-.1-.1-.2-.2-.2h-2.2c-.1 0-.2.1-.2.2v9.7c0 .1.1.2.2.2h2.6c.1 0 .2-.1.2-.2v-6c0-.9.7-1.3 1.4-1.3.4 0 .9.1 1.3.4h.2l.1-.1 1.1-1.9c.1-.1.1-.2.1-.2zM71.9 105.5c-.9-.4-2.4-.7-4.1-.7-2.9 0-5.2 2.4-5.2 5.3 0 1.4.5 2.7 1.5 3.7s2.3 1.5 3.8 1.5c.6 0 1.2 0 2-.1h1.9c.1 0 .2-.1.2-.2v-9.2c.1-.2 0-.3-.1-.3zm-2.9 6.9c-.4.1-.7.1-1 .1h-.1c-.6 0-1.1-.2-1.5-.6-.4-.4-.7-1.1-.7-1.8 0-1.4 1.1-2.5 2.4-2.5.2 0 .6.1.9.1v4.7zM60.9 111.6l-.1-.1c-.1 0-.1 0-.1.1-.6.6-1.2.9-1.9.9-.6 0-1.2-.3-1.7-.7-.4-.4-.7-1.1-.7-1.8 0-1.8 1.2-2.6 2.4-2.6.7 0 1.4.3 1.9.8l.1.1c.1 0 .2-.1.1-.1l1.4-1.6c.1-.1.1-.2 0-.3-1.1-1.1-2.2-1.6-3.8-1.6-3.4 0-5.3 2.7-5.3 5.3 0 2.6 1.8 5.2 5.3 5.2 1.7 0 2.9-.6 3.9-1.8.1-.1.1-.2 0-.3l-1.5-1.5zM51.2 104.9h-2.6c-.1 0-.2.1-.2.2v9.7c0 .1.1.2.2.2h2.6c.1 0 .2-.1.2-.2v-9.7c0-.1-.1-.2-.2-.2z" class="st0"/><circle cx="49.8" cy="102.6" r="1.7" class="st0"/><path d="M47.1 112.5c-.7.1-1.1-.1-1.1-.7v-10.3c0-.1-.1-.2-.2-.2h-2.6c-.1 0-.2.1-.2.2v10.3c0 2.2 1.1 3.4 3.2 3.4.3 0 .6 0 1-.1.1 0 .2-.1.2-.2v-2.1c0-.3 0-.3-.3-.3zM40.6 105.4c-1.6-.6-2.9-.6-4-.6-3.4 0-5.3 2.7-5.3 5.2 0 2.9 2.3 5.3 5.2 5.3.4 0 .7-.1 1.1-.1v.5c-.1.8-.4 1.1-1.2 1.2-1.1 0-2.2-.4-3.2-1.1l-.1-.1c-.1 0-.1.1-.1.1l-1.3 1.6c-.1.1-.1.2 0 .3 1.3 1.3 2.9 1.9 4.5 1.9h.1c2.6-.1 4.3-1.5 4.5-4v-9.9c0-.2-.1-.2-.2-.3zm-2.9 6.8c-.3.1-.6.1-.9.1-1.4 0-2.4-1.1-2.4-2.5 0-.6.3-1.4.7-1.8.4-.4.9-.6 1.5-.6h.1c.3 0 .6 0 1 .1v4.7zM25 104.7c-1.3 0-2.7.3-4 .7-.1 0-.1.1-.1.2v9.1c0 .1.1.2.2.2h2.7c.1 0 .2-.1.2-.2v-7.2c.4-.1.8-.2 1.2-.2.6 0 1.2.2 1.6.6.4.4.5.8.5 1.4v5.5c0 .1.1.2.2.2H30c.1 0 .2-.1.2-.2v-5.5c0-2.9-1.9-4.6-5.2-4.6zM15.3 101.4c0-.1-.1-.1-.2-.1h-3.6c-.1 0-.2.1-.2.1s-4.6 13.2-4.6 13.4c-.1.2.1.3.2.3h2.9c.1 0 .2-.1.2-.1l1.1-3.4c.6.2 1.4.3 2.2.3.7 0 1.4-.1 2.1-.3l1.1 3.4c0 .1.1.1.2.1h2.9c.3 0 .3-.2.2-.4 0-.3-4.5-13.3-4.5-13.3zm-2 7.4c-.4 0-.9-.1-1.2-.2l.9-3 .2-1.4.2 1.4.9 3c-.1.2-.5.2-1 .2z" class="st0"/></g></g></svg>