<svg xmlns="http://www.w3.org/2000/svg" xml:space="preserve" id="Layer_1" x="0" y="0" version="1.1" viewBox="0 0 379 221.2"><style>.st0{fill:#293d9b}.st1{fill:#daac06}.st2{fill:#fff}.st3{fill:#231f20}</style><g id="g10" transform="matrix(1.25 0 0 -1.25 0 303.6)"><g id="g12" transform="scale(.24)"><path id="path14" d="M644.4 1001.3c2.9 0 4.3-2.1 4-5.8l-1.1-18.2c0-1.1-.8-2.6-3-3l-10.5-.7h-1V823c0-73.6-28.9-108.6-102.5-108.6-70.2 0-100.9 23.7-100.9 108.6v150.7l-11.3.8c-2.5 0-3.6 2.5-3.2 5.8l1 18.2c0 1.8 1.2 3 3 3h62.3c2.9 0 4.3-2.2 4-5.9l-1.1-18.2c0-1.1-.8-2.6-3-3l-10.5-.7v-158c0-45.2 13.5-69.6 59.4-69.6 51 0 62.6 31.4 62.6 69.6v158l-11.3.8c-2.5 0-3.6 2.5-3.2 5.8l1 18.2c0 1.8 1.2 3 3 3h62.3" class="st0"/><path id="path16" d="M1021.4 1001.3c2.9 0 4.3-2.1 4-5.8l-1.1-18.2c0-1.1-.8-2.6-3-3l-10.1-.7-61.6-242.2c-2.1-8-8.7-12.7-16.7-12.7l-28.4 1c-4 0-5.5 2.6-6.6 6.6l-49.5 213.1h-.4l-48.8-203.6c-1.8-7.3-6.6-17.5-19.3-17.1l-27.4 1c-3.2 0-5.4 1.9-6.5 6.6l-59.7 247.3-11 .8c-2.5 0-3.6 2.5-3.2 5.8l1 18.2c0 1.8 1.2 3 3 3h60c3 0 4.4-2.3 4-5.9l-1-18.2c0-1.1-.7-2.6-3-3l-10.1-.6 46.6-212.4h.3L825 984.6c3 12.7 9.1 17.2 17.9 16.8l20.7-1.1c3.7-.4 5.1-2.2 6.2-7l52.8-232h.4l48.8 212.4-11 .7c-2.5 0-3.6 2.5-3.2 5.8l1.1 18.2c0 1.9 1 3 3 3h59.7" class="st0"/><path id="path18" d="m1172.2 820.3-47.4 134.4h-.4l-44.8-134.4h92.6zm79.7-74.7c2.6 0 3.7-2.5 3.3-5.8l-1-18.2c0-1.8-1.2-3-2.6-3h-63.8c-2.9 0-4.3 2.2-4 5.9l1.1 18.2c0 1.1.7 2.6 3 3l10.1.7-14.2 40.4h-115.5l-13.4-40.4 11.3-.8c2.5 0 3.6-2.5 3.2-5.8l-1-18.2c0-1.8-1.1-3-3-3H1004c-3 0-4.4 2.2-4 5.9l1 18.2c0 1.1.8 2.6 3 3l10.2.7 81.6 227.2-11 .8c-2.5 0-3.6 2.5-3.2 5.8l1 18.2c0 1.8 1.2 3 3 3h57.9l97.6-255 11-.8" class="st0"/><path id="path20" d="M441.2 647c5.4 0 9.6 2 9.6 9 0 5.4-2.6 8.6-9.5 8.6h-6V647h5.9zm0 22.7c11.6 0 16.2-4.3 16.2-13.5 0-11.4-8.2-14.5-15.6-14.5h-6.4v-12.6l1.8-.1c.4 0 .6-.4.5-1l-.1-2.9c0-.2-.2-.4-.5-.4h-10c-.4 0-.6.4-.6 1l.2 2.8c0 .2 0 .4.4.5l1.7.1v36.3H427c-.4 0-.5.5-.5 1l.2 3c0 .2.1.4.4.4h14.2" class="st0"/><path id="path22" d="M510.2 632.3c.3 0 .5-.2.5-.5v-7h-28.2c-.5 0-.7.3-.6.8l.1 3c0 .1.2.4.5.4l1.7.2v36.2h-1.8c-.4 0-.6.5-.5 1l.1 3c0 .2.2.4.5.4h27.2v-7.1c0-.4-.4-.7-1-.7l-2.9.2c-.1 0-.4.1-.4.4l-.1 1.7h-14.5v-13.7h16.4v-5.3h-16.4V630h15.4l.2 1.8c0 .4.4.6.9.5l2.9-.1" class="st0"/><path id="path24" d="M549.7 647.3c6.2 0 9.8 2.7 9.8 9 0 6-3.4 8.4-9.3 8.4h-5.6v-17.4h5zm17.9-18.3c.4 0 .5-.4.5-1l-.2-2.8c0-.3-.1-.5-.4-.5h-6.6l-9.9 17.4h-6.4v-13l1.8-.1c.4 0 .6-.4.5-1l-.1-2.8c0-.3-.2-.5-.5-.5h-10c-.4 0-.6.4-.6 1l.2 2.9c0 .1 0 .4.4.4l1.7.2v36.2h-1.7c-.5 0-.6.5-.6 1l.2 3c0 .2.1.4.5.4h13c11.4 0 16.7-4.3 16.7-13.5 0-5.9-3-10.9-8.6-13l8.2-14.2 1.9-.1" class="st0"/><path id="path26" d="M623.3 669.7v-7c0-.5-.3-.7-1-.7l-2.8.2c-.2 0-.4 0-.5.4l-.1 1.7H610v-35.2l1.7-.1c.4 0 .6-.4.6-1l-.2-2.9c0-.2-.1-.4-.5-.4h-10c-.4 0-.6.4-.6 1l.2 2.8c0 .2.1.4.5.5l1.7.1v35.3h-8.2l-.1-1.8c0-.4-.4-.5-1-.5l-2.8.2c-.3 0-.5.1-.5.4v7h32.4" class="st0"/><path id="path28" d="M685.8 629c.4 0 .6-.4.5-1l-.1-2.8c0-.3-.2-.5-.5-.5h-10c-.4 0-.6.4-.6 1l.2 2.9c0 .1 0 .4.4.4l1.7.2v15.5h-20.2v-15.6l1.8-.1c.4 0 .6-.4.5-1l-.1-2.8c0-.3-.2-.5-.5-.5h-10c-.4 0-.6.4-.6 1l.2 2.8c0 .2.1.5.5.5l1.7.1v36.3h-1.8c-.4 0-.6.5-.5 1l.1 3c0 .2.2.4.5.4h10c.4 0 .6-.4.6-1l-.2-2.9c0-.1 0-.4-.4-.5h-1.7V650h20.2v15.2l-1.8.1c-.4 0-.6.4-.5 1l.1 2.9c0 .3.2.4.5.4h10c.4 0 .6-.3.6-1l-.2-2.8c0-.2 0-.4-.5-.5l-1.7-.1V629l1.8-.1" class="st0"/><path id="path30" d="M723.3 650.4c.8-.8 1.2-1.7 1.2-2.8 0-1.1-.4-2-1.2-2.8-.7-.8-1.7-1.2-2.8-1.2s-2 .4-2.7 1.2-1.2 1.7-1.2 2.8c0 1 .4 2 1.2 2.8.7.8 1.7 1.1 2.7 1.1s2.1-.3 2.8-1.1" class="st0"/><path id="path32" d="m779 641-7.5 21.3-7.2-21.4H779zm12.8-12c.4 0 .5-.4.5-1l-.2-2.8c0-.3-.1-.5-.4-.5h-10.1c-.4 0-.7.4-.7 1l.2 2.9c0 .1.1.4.4.4l1.7.2-2.3 6.4h-18.4l-2.1-6.4 1.7-.2c.4 0 .6-.4.6-.9l-.2-3c0-.2-.1-.3-.5-.3h-9.8c-.5 0-.7.3-.6.9l.1 2.9c0 .1.1.4.5.5h1.6l13 36.3-1.7.1c-.4 0-.6.4-.5 1l.1 2.9c0 .2.2.4.5.4h9.2l15.6-40.6 1.8-.2" class="st0"/><path id="path34" d="M850.7 669.7c.5 0 .7-.3.7-1l-.2-2.8c0-.2-.1-.4-.4-.5l-1.7-.1h-.2v-24c0-11.7-4.6-17.3-16.3-17.3-11.2 0-16.1 3.8-16.1 17.3v24l-1.8.1c-.4 0-.6.4-.5 1l.1 2.9c0 .3.2.4.5.4h10c.4 0 .6-.3.6-1l-.2-2.8c0-.2-.1-.4-.5-.5l-1.7-.1V640c0-7.1 2.2-11 9.5-11 8.1 0 10 5 10 11v25.2l-1.8.1c-.4 0-.6.4-.5 1l.1 2.9c0 .3.2.4.5.4h10" class="st0"/><path id="path36" d="M905.5 637c0-7.2-5.4-12.6-15.5-12.6a34 34 0 0 0-13 2.5v7c0 .6.4.9 1.1.8l3.5-.2c.3 0 .5-.1.6-.5l.1-3.2a39 39 0 0 1 7.3-1c5.3 0 9.4 1.8 9.4 6.7 0 5.1-2 6.2-10.9 9.4-6.5 2.4-11 5.7-11 12.2 0 7.3 5.6 12 15.4 12 3.6 0 7-.3 10.3-1v-7.7c0-.5-.4-.8-1.1-.8l-3.5.3c-.2 0-.5.1-.6.5v3.2l-4.7.2c-5.4 0-9-2.5-9-6.5 0-4.1 2.5-5.7 10.5-8.5 8.2-3 11.1-7 11.1-12.7" class="st0"/><path id="path38" d="M961.8 669.7v-7c0-.5-.4-.7-1-.7l-2.8.2c-.2 0-.5 0-.5.4l-.1 1.7h-8.8v-35.2l1.8-.1c.4 0 .5-.4.5-1l-.2-2.9c0-.2-.1-.4-.4-.4h-10c-.4 0-.6.4-.6 1l.2 2.8c0 .2 0 .4.4.5l1.7.1v35.3h-8.2v-1.8c0-.4-.5-.5-1-.5l-3 .2c-.2 0-.4.1-.4.4v7h32.4" class="st0"/><path id="path40" d="M1002 647.3c6.2 0 9.8 2.7 9.8 9 0 6-3.4 8.4-9.3 8.4h-5.6v-17.4h5zm17.9-18.3c.4 0 .6-.4.5-1l-.1-2.8c0-.3-.2-.5-.5-.5h-6.6l-9.9 17.4H997v-13l1.7-.1c.4 0 .6-.4.6-1l-.2-2.8c0-.3-.2-.5-.4-.5h-10c-.4 0-.7.4-.6 1l.1 2.9c0 .1.2.4.5.4l1.7.2v36.2h-1.8c-.4 0-.6.5-.5 1l.1 3c0 .2.2.4.5.4h13.1c11.3 0 16.7-4.3 16.7-13.5 0-5.8-3.1-10.9-8.6-13l8.2-14.1 1.8-.2" class="st0"/><path id="path42" d="m1072.1 641-7.5 21.3-7.2-21.4h14.7zm12.7-12c.4 0 .6-.4.5-1l-.1-2.8c0-.3-.2-.5-.4-.5h-10.2c-.4 0-.6.4-.6 1l.2 2.9c0 .1 0 .4.4.4l1.7.2-2.3 6.4h-18.4l-2.1-6.4 1.8-.2c.4 0 .5-.4.5-.9l-.2-3c0-.2-.1-.3-.4-.3h-9.8c-.4 0-.7.3-.7.9l.2 2.9c0 .1.1.4.4.5h1.7l13 36.3-1.8.1c-.4 0-.5.4-.5 1l.2 2.9c0 .2.1.4.4.4h9.2l15.6-40.6 1.7-.2" class="st0"/><path id="path44" d="M1140.2 632.3c.3 0 .4-.2.4-.5v-7h-28.1c-.4 0-.7.3-.7.8l.2 3c0 .1.1.4.4.4l1.7.2v36.2h-1.7c-.4 0-.6.5-.6 1l.2 3c0 .2.1.4.4.4h10c.4 0 .7-.4.6-1l-.1-2.9c0-.1-.2-.4-.5-.5h-1.7V630h15.5l.1 1.8c0 .4.4.6 1 .5l2.9-.1" class="st0"/><path id="path46" d="M1177.6 629c.4 0 .5-.4.5-1l-.2-2.8c0-.3-.1-.5-.4-.5h-10c-.4 0-.6.4-.6 1l.2 2.9c0 .1 0 .4.4.4l1.7.2v36.2h-1.8c-.4 0-.5.5-.5 1l.2 3c0 .2.1.4.4.4h10c.4 0 .6-.4.6-1l-.2-2.9c0-.1-.1-.4-.4-.5h-1.7V629l1.8-.1" class="st0"/><path id="path48" d="m1229.7 641-7.5 21.3-7.2-21.4h14.7zm12.7-12c.4 0 .6-.4.6-1l-.2-2.8c0-.3-.2-.5-.4-.5h-10.1c-.5 0-.7.4-.7 1l.2 2.9c0 .1 0 .4.4.4l1.6.2-2.2 6.4h-18.4l-2.2-6.4 1.8-.2c.4 0 .6-.4.5-.9l-.1-3c0-.2-.2-.3-.4-.3h-9.9c-.4 0-.7.3-.6.9l.1 2.9c0 .1.2.4.5.5h1.6l13 36.3-1.7.1c-.4 0-.6.4-.6 1l.2 2.9c0 .2.2.4.4.4h9.2l15.6-40.6 1.8-.2" class="st0"/><path id="path50" d="M334.1 726.4c-30.6-50.3-84-80.3-142.7-80.3s-112.1 30-142.8 80.2l-32-29.7a210.5 210.5 0 0 1 279.8-65.5 224 224 0 0 1 69.1 66.2l-31.4 29" class="st0"/><path id="path52" d="M52.2 1001.5h278.3v10.6H52.2v-10.6z" class="st1"/><path id="path54" d="M330.5 900.7c-.5-31 6.8-154.2-139.1-240.4-146 86.2-138.6 209.4-139.2 240.4v100.8h278.4V900.7" class="st0"/><path id="path56" d="M70.6 792.5c17.7-43.3 52.4-91.8 120.8-132.2 68.4 40.4 103 88.9 120.7 132.2L191.4 904.2 70.6 792.5" class="st1"/><path id="path58" d="M168.7 974v-53.7a47.2 47.2 0 0 1-41-5.7v53.2c8 7.9 27.2 11.4 41 6.2" class="st2"/><path id="path60" d="M82.7 973.8v-53.6c14.4 5.3 31.8 1 41-5.7v53.2c-8 7.8-27.2 11.4-41 6.1" class="st2"/><path id="path62" d="m181 931.3-4.8.4v17.5l4.6-.4h.2c4.2-.2 4.7 1.9 4.7 1.9-.9 2.2-3 3.1-4.7 3.3l-4.8.4v14.8h-3.6v-54c-19.8 4.3-34.8 2.1-46.9-6.7-12 8.8-27 11-46.9 6.7v54h-3.6v-14.8l-3-.2v.5c0 .4-.4.8-.9.8l-5-.6a.8.8 0 0 1-.6-.7v-6.4c0-.4.3-.7.8-.7l5 .5c.3 0 .6.3.6.7v.6l3 .3v-17.5l-3-.3v.6c0 .4-.3.7-.8.7l-5-.5a.8.8 0 0 1-.6-.8v-6.3c0-.4.3-.7.8-.7l5 .5c.3 0 .6.4.6.7v.6l3 .3v-15.8l2.3.5c20.4 4.8 35.4 2.7 47.2-6.5l1.1-.9 1.1 1c11.8 9.1 26.8 11.2 47.2 6.4l2.2-.5v15.8l4.6-.4h.2c4.1-.2 4.7 1.9 4.7 1.9-.9 2.2-3 3.1-4.7 3.3" class="st2"/><path id="path64" d="M78.1 656c-2-2.5-5.2-2.9-8.7-.2a13 13 0 0 0-3.8 4.3l1.8 2.4c.1.2.4.2.6 0l1.1-1c.1 0 .2-.2.1-.3l-.8-1.2c.8-1 1.6-1.8 2.3-2.3 1.8-1.4 3.7-1.9 5-.2 1.3 1.8 1 2.7-1.3 6.1-1.6 2.6-2.2 5-.5 7.1 2 2.5 5.1 2.7 8.5.1 1.2-1 2.3-2 3.2-3.1l-2-2.7H83l-1.1 1c0 .2-.2.2 0 .4l.7 1.1-1.5 1.4c-1.8 1.4-3.7 1.5-4.8 0-1.1-1.4-.7-2.5 1.3-5.6 2-3.1 2-5.3.5-7.3" class="st2"/><path id="path66" d="M97.5 641.3v-.3l-1.5-2.6-10.6 6.2c-.1.1-.2.3 0 .5l.7 1h.3l.7-.2 8 13.6-.7.4c-.1 0-.1.3 0 .4l.7 1c.1.2.2.2.3.2l10.2-6-1.6-2.7c0-.2-.2-.2-.4 0l-1.1.7s-.1 0 0 .2l.2.7-5.4 3.2-3-5.2 6.1-3.6-1.1-2-6.2 3.6-3.3-5.7 5.8-3.4.4.6c0 .2.3.1.4 0l1.1-.6" class="st2"/><path id="path68" d="M119.6 631c.1 0 .2-.1.1-.3l-1.2-2.8-11.2 4.9c-.2 0-.2.2-.1.4l.6 1.2h.3l.6-.2 6.3 14.5-.7.4c-.1 0-.1.2 0 .4l.5 1.1c0 .2.2.2.3.2L126 646l-1.2-2.9c-.1-.2-.3-.2-.5 0l-1.1.5c-.1 0-.2.1-.1.3l.2.7-5.8 2.5-2.5-5.5 6.5-2.9-.9-2.1-6.5 2.8-2.7-6 6.2-2.7.4.7c0 .1.2.1.4 0l1.2-.5" class="st2"/><path id="path70" d="M149.6 638.6c.2 0 .2-.2.1-.4l-.4-1.2s0-.2-.2-.1l-.8.1-7.9-4.7L144 622l.7-.2c.2 0 .2-.3.2-.5l-.4-1.2-.3-.1-2.6.7-3.4 10.3-2.2-1.2-1.5-5.1.7-.3c.2 0 .2-.2.2-.4l-.4-1.2c0-.2-.2-.2-.3-.2l-4.1 1.2c-.2 0-.3.2-.2.4l.4 1.2c0 .1 0 .2.2.2l.8-.2 4.3 15.2-.8.2c-.1 0-.2.2-.1.4l.4 1.2c0 .2.1.2.2.2l4.2-1.2c.2 0 .2-.2.2-.5l-.4-1.2s-.1-.2-.3-.1l-.7.1-2-6.7 8.4 5-.7.2c-.2 0-.2.2-.2.4l.4 1.2c0 .1.1.2.3.1l4.7-1.2" class="st2"/><path id="path72" d="M194 633.5c.3 0 .3-.2.3-.4l-.2-1.3-.2-.2h-.7l-5.1-16.6c-.2-.5-.7-.8-1.2-.8l-2 .2c-.3 0-.4.2-.5.5l-2.6 15-4.2-14c-.1-.5-.5-1.2-1.4-1.1l-1.9.1c-.2 0-.4.2-.4.5l-3.3 17.3-.7.1c-.2 0-.3.2-.2.4l.1 1.3.2.2 4.2-.2c.2 0 .3-.2.2-.4l-.1-1.3-.2-.2h-.8l2.5-14.9 4.5 15.3c.2 1 .6 1.2 1.2 1.1l1.5-.1c.2 0 .4-.2.4-.5l2.8-16.3 4.2 14.6h-.8l-.2.5.2 1.2c0 .1 0 .2.2.2l4.3-.2" class="st2"/><path id="path74" d="M209.9 617c.2 0 .3-.2.2-.4v-1.3l-.1-.2-4.3-.3c-.2 0-.3 0-.3.3v1.3l.1.2.8.1-1.4 15.7h-.7c-.2 0-.3.2-.3.4v1.2c0 .1 0 .2.2.2l4.3.4c.2 0 .3-.1.3-.4V633c0-.1 0-.2-.2-.2l-.7-.1 1.3-15.8h.8" class="st2"/><path id="path76" d="M233.7 624.3c.7-3.1-1.2-5.9-5.6-6.7-2.3-.4-4.3-.3-5.7 0l-.6 3c0 .2.1.3.4.4l1.5.2s.2 0 .3-.2l.3-1.3c1.2 0 2.4 0 3.2.2 2.3.4 3.9 1.5 3.5 3.6-.4 2.2-1.4 2.5-5.5 3-3 .6-5.2 1.6-5.7 4.4-.6 3 1.4 5.6 5.6 6.4 1.5.3 3 .5 4.4.4l.7-3.3c0-.2-.1-.3-.4-.4l-1.5-.2s-.2 0-.3.2l-.3 1.3c-.7 0-1.4 0-2-.2-2.3-.4-3.6-1.8-3.3-3.5.4-1.8 1.5-2.2 5.2-2.8 3.8-.6 5.4-2 5.8-4.5" class="st2"/><path id="path78" d="M252.3 626.3c5 1.7 5 5.6 3.8 9.4-1.4 4.2-3.4 6.7-8.9 4.8l-2-.7 4.7-14.3 2.4.8zm-5.8 16.4c7.4 2.5 10.6-.4 12.5-6 2.3-7-.2-10.6-6.7-12.8l-5-1.7c-.3 0-.4 0-.5.3l-.3 1.2.1.3.7.3-5 14.9-.7-.2c-.2 0-.3 0-.4.3l-.3 1.2v.3l5.6 1.9" class="st2"/><path id="path80" d="M271.2 641.9c1.5-3 4-6.5 7.8-4.6 3 1.5 3 4.8 1 9-1.6 3-4.1 6.4-7.8 4.6-3.7-2-2.5-6.1-1-9zm11.4 5.7c3-6 1.9-10.2-2.6-12.4-4.3-2.2-8.6-.6-11.5 5.3-2.1 4.2-2.9 9.7 2.6 12.5 4.8 2.3 9-.2 11.5-5.4" class="st2"/><path id="path82" d="M313 658.3c.2 0 .4 0 .5-.2l.7-1.1v-.3l-3.6-2.5c-.1-.1-.3 0-.4.2l-.7 1v.3l.6.5-7.2 9.7 2.6-12.2c.1-.4.1-.8-.2-1l-.8-.6h-.6l-11 6.7 6.7-10 .7.3c.2.2.3 0 .4-.2l.7-1v-.3l-3.4-2.4c-.2-.1-.3 0-.5.1l-.7 1.1v.3l.7.5-8.7 13.2-.7-.4c-.1-.1-.3 0-.4.2l-.7 1v.4l2.5 1.7h.4l13-7.8-3.3 14.6c0 .2 0 .3.2.5l2.6 1.8c.2.2.4 0 .5-.1l.7-1.1v-.3l-.7-.4 9.6-12.6.6.4" class="st2"/><path id="path84" d="M24.4 711.2 44.8 730l4.7 4.3 2.6-4.3c4.4-7.4 9.4-14.3 14.8-20.8l7 6.3a147 147 0 0 0-28.2 53.9l-11-28.6-23.6-3.3.2-.3 13-26.1" class="st0"/><path id="path86" d="M300.2 974v-53.7a47.2 47.2 0 0 1-41-5.7v53.2c8 7.9 27.2 11.4 41 6.2" class="st2"/><path id="path88" d="M214.2 973.8v-53.6c14.4 5.3 31.8 1 41-5.7v53.2c-8 7.8-27.2 11.4-41 6.1" class="st2"/><path id="path90" d="m312.5 931.3-4.8.4v17.5l4.6-.4h.2c4.2-.2 4.7 1.9 4.7 1.9-.9 2.2-3 3.1-4.7 3.3l-4.8.4v14.8h-3.6v-54c-19.8 4.3-34.8 2.1-46.9-6.7-12 8.8-27 11-46.9 6.7v54h-3.6v-14.8l-3-.2v.5c0 .4-.4.8-.9.8l-5-.6a.8.8 0 0 1-.6-.7v-6.4c0-.4.3-.7.8-.7l5 .5c.3 0 .6.3.6.7v.6l3.1.3v-17.5l-3-.3v.6c0 .4-.4.7-.9.7l-5-.5a.8.8 0 0 1-.6-.8v-6.3c0-.4.3-.7.8-.7l5 .5c.3 0 .6.4.6.7v.6l3.1.3v-15.8l2.2.5c20.4 4.8 35.4 2.7 47.2-6.5l1.1-.9 1.1 1c11.8 9.1 26.8 11.2 47.2 6.4l2.2-.5v15.8l4.6-.4h.2c4.1-.2 4.7 1.9 4.7 1.9-1 2.2-3 3.1-4.7 3.3" class="st2"/><path id="path92" d="M358.2 711.2 337.7 730l-4.6 4.3-2.6-4.3c-4.5-7.4-9.5-14.3-14.8-20.8l-7 6.3a144.7 144.7 0 0 1 28.1 53.9l11.1-28.6 23.5-3.2v-.3l-13.2-26.2" class="st0"/><path id="path94" d="M198.5 749.6a44 44 0 0 1 19.5-5.8h.6c1.4 0 3.3.5 4.7 1.3 1.3.8 2.1 1.6 2.9 2.7a6.7 6.7 0 0 1 1.2 3.6l-1.5-.5-.6-.1c-4.8-.8-10.8-.1-19 2.1-1.3-1.5-4.1-2.3-7-1.6-.4-.6-.6-1.1-.8-1.7" class="st2"/><path id="path96" d="M210.1 794.7a12 12 0 0 0-5.3-6V787c3.6 1.6 7.1 3.3 10.7 5.2 13.3 7.2 22.6 15 25.5 20.7l.4.6c.8 1.5 1.5 3.6 1.5 5.5 0 3.3-1.4 6.1-3.5 7.6a66.9 66.9 0 0 0-14.6-20.3 85.9 85.9 0 0 0-14.7-11.6" class="st2"/><path id="path98" d="M208.3 761.3a8.7 8.7 0 0 0-5.5-2.7h-1.4l-.4-1.5c11.9-3.3 21.8-4 27-2.4l.5.2a12 12 0 0 1 4.5 2.6c1 1.1 1.8 2.1 2.3 3.4.5 1.5.3 2.7.3 2.7a20 20 0 0 0-3-1.1c-4.6-1.7-12.6-2-24.3-1.2" class="st2"/><path id="path100" d="M242 792.2c-4.5-4.9-15.8-10.2-30.8-13.8-1-1.6-2.8-3-5-3.8l-2-.6-.1-1.5 3.5.2c15 .8 26.9 4 31.9 8l.5.3c1.4 1 3 2.7 3.7 4.4.8 1.6 1 3 1 4.4a8 8 0 0 1-1 4.3l-1.2-1.5-.6-.4" class="st2"/><path id="path102" d="M216 739.9c-4.8.1-11.6 2.3-19.6 6.2l-1-1.8a71.8 71.8 0 0 1 16-6.4l-.7-.7c-1-1-2-1.5-3.3-2a10.8 10.8 0 0 0-5.5 0 30 30 0 0 0-10.3 4.5l-1.4-1.3c4.2-2.8 8-4.7 11-5.4a7 7 0 0 0-2.7-1.3 9.4 9.4 0 0 0-4.6.1c-2 .4-4.7 1.8-7.6 3.8l-2-.8a17 17 0 0 0-4.5-.8c-4 0-7.7 1.8-11 5-.2.2-1.2-.8-1-1 3.3-3.6 7.6-5.6 12-5.6 1.4 0 4.8.4 6 1.2 3.6-2.5 6.4-3.6 8.8-4l.5-.1c1.3-.2 3-.2 4.5.2a7.6 7.6 0 0 1 4 2.8 13 13 0 0 1 4.8.3c1.5.6 2.6 1.2 3.7 2.2.8.8 1.7 1.5 2 2.4 2.4-.1 4.2.2 4.2.2a5 5 0 0 1 2.8 1.2c.6.5 1 1 1.2 1.7a19.3 19.3 0 0 0-6.4-.6" class="st2"/><path id="path104" d="M223.5 793a89.6 89.6 0 0 0-11.5-6l-1.6-2.2a11.4 11.4 0 0 0-5.6-3.5l-.1-1.6c2.2.4 4.4 1 6.7 1.6 14.5 4 25.3 9.5 29.4 14.4l.5.5a13 13 0 0 1 2.7 5c.7 3.2.2 5.8-1.5 7.7a67 67 0 0 0-19-16" class="st2"/><path id="path106" d="M240.8 778.3a5 5 0 0 0-.6-.4c-4.8-3.7-15.5-6.7-29.3-7.9-1-.9-2.1-2-3.5-2.6-1.4-.7-3-1-4.3-1.2 0-.5-.2-.8-.3-1.3h.3c15-1.9 27-.8 32.7 2.2l.6.3c1.5.8 3.3 2.1 4.5 3.7a9.5 9.5 0 0 1 1.4 8.5c-.5-.5-1-1-1.5-1.3" class="st2"/><path id="path108" d="M210.5 806.7a12 12 0 0 0-1.7-5.8 11.6 11.6 0 0 0-4.5-4.5l.1-1.7a83 83 0 0 1 17.8 13.3 64.8 64.8 0 0 1 14.3 19.9 16 16 0 0 1 1 6c-.4 4.6-2.7 8.3-5.7 9.5 0-.8 0-1.8-.2-2.6-.6-6.3-6.5-17.1-16.2-28.6a85.6 85.6 0 0 0-5-5.5" class="st2"/><path id="path110" d="M212.9 813.8c9.6 11.5 15.3 22.4 16 28.7.4 4-.6 7.6-2.8 8.9-.2-5.6-7.8-19.3-20-34.7 1.2-2 .7-5.7-1.1-8.8-.6-1-1-1.4-2-2.5l.3-2.1a156 156 0 0 1 9.6 10.5" class="st2"/><path id="path112" d="m136.6 807.2-.9.3c.2-1.3.2-2.7.2-4.2a45 45 0 0 0-1.3-10.2c-.2-.8.2-1.5.8-1.8h.7a66 66 0 0 0 4.5 8.7l1 1.7a8.3 8.3 0 0 1-5 5.5" class="st3"/><path id="path114" d="m240 781-.5-.4c-5-3.8-16.8-7-31.9-7.9l-3.5-.1.1 1.5a5 5 0 0 1 2 .5c2.2.8 4 2.2 5 3.8 15 3.6 26.3 9 30.7 13.8l.5.5 1.2 1.5a7.6 7.6 0 0 0 1-4.3 10 10 0 0 0-1-4.4 12 12 0 0 0-3.6-4.5zm1.3 32.5-.3-.6c-2.9-5.7-12.2-13.6-25.5-20.6a118 118 0 0 0-10.7-5.3v1.7a11.5 11.5 0 0 1 5.3 6 81.7 81.7 0 0 1 29.3 31.9c2-1.5 3.4-4.3 3.4-7.6 0-1.9-.7-4-1.5-5.5zm2.7-12.2a13.6 13.6 0 0 0-3.1-5.6c-4.1-4.8-15-10.4-29.5-14.4l-6.7-1.6v1.6c2 .4 4 1.6 5.7 3.5.7.7 1.2 1.5 1.6 2.2 3.9 1.6 7.7 3.6 11.5 6 8.2 5 14.9 10.4 19 16 1.7-2 2.2-4.5 1.5-7.7zm-12.2 42.1c3-1.2 5.3-5 5.7-9.5.1-2.2-.2-4.3-1-6a65.8 65.8 0 0 0-14.3-19.9 82.4 82.4 0 0 0-17.8-13.3l-.1 1.7c1.7.8 3.3 2.4 4.5 4.5 1.1 2 1.7 4 1.7 5.8l4.9 5.5c9.8 11.5 15.6 22.3 16.2 28.6.2.9.2 1.7.2 2.6zm-3-.9c-.6-6.3-6.2-17.2-16-28.7a143 143 0 0 0-9.5-10.5l-.4 2c1 1.1 1.4 1.5 2 2.6 1.9 3.1 2.4 6.7 1.2 8.8 12.1 15.3 19.8 29 20 34.6 2.2-1.2 3.2-4.8 2.7-8.8zm-10.3-98.7h-.5a44.6 44.6 0 0 0-19.5 5.9l.7 1.6c3-.7 5.8.1 7.1 1.7a47.4 47.4 0 0 1 19-2.2l.6.1 1.5.5c0-1.3-.4-2.3-1.2-3.6a10.5 10.5 0 0 0-7.6-4zm-.2-6.1s-1.8-.4-4.1-.3a7.5 7.5 0 0 0-2.1-2.4 9 9 0 0 0-3.7-2.1 12 12 0 0 0-4.9-.4l-.9-1a7.5 7.5 0 0 0-3-1.7 10 10 0 0 0-4.5-.3h-.5c-2.3.5-5.2 1.7-8.8 4.1-1.3-.7-4.6-1.2-6-1.2-4.4 0-8.7 2-12 5.7-.2.1.8 1.1 1 1a16 16 0 0 1 11-5 13 13 0 0 1 6.4 1.6 23.8 23.8 0 0 1 8.2-4 9 9 0 0 1 4 0c1.1.3 2 .7 2.7 1.3a39 39 0 0 0-11 5.4l1.5 1.3a30 30 0 0 1 10.2-4.6h.6a11 11 0 0 1 5 .1c1.4.5 2.4 1.1 3.3 2l.7.7c-4.5 1-10 3.2-16.1 6.4l1.1 1.8c8-4 14.8-6 19.5-6.2h.9c1.7 0 3.7.1 5.5.7-.2-.7-.6-1.2-1.2-1.7-.9-.8-1.9-1-2.8-1.2zm17 23.2a9.1 9.1 0 0 0-2.3-3.4 12 12 0 0 0-4.5-2.6l-.6-.2c-5-1.6-15-1-27 2.4l.5 1.4h1.4a9 9 0 0 1 5.5 2.7c11.6-.8 19.6-.5 24.3 1.3l3 1c0 .1.2-1.1-.4-2.6zm7.3 14.4a11 11 0 0 0-6.2-7.9l-.6-.3c-5.6-3-17.8-4-32.8-2.3h-.3l.4 1.4c1.3.2 2.8.6 4.3 1.2 1.3.7 2.5 1.7 3.4 2.6 13.8 1.2 24.5 4.2 29.4 7.9l.6.4 1.4 1.2a7 7 0 0 0 .4-4.3zm6.1 14.9c-.2 2.3-.9 4.5-2 6.3 1.4 2 2.1 4.6 2 7.6 0 3.2-1.3 6.1-3 8.3a14 14 0 0 1 1.6 7.2c-.1 4.8-2.4 9-5.8 11.1.1 1 .2 1.9.1 2.8-.2 7.2-3.3 11.8-8.3 13.7a22 22 0 0 1-7.6 12.3c-3.8-16-15.7-31.4-20-37.5-7-9.8-8.5-19.1-12.4-30.3-4.5-13.3-7.7-27.3-19.8-35.7 0 1.3 0 2.7.2 4 2 18.2 16.6 47.5 11.3 64.7l-1 3c-5.3 11.8-17.1 13.6-29.2 8.1-7.6-3.4-15.4-6.2-19-14.5-1.5-3.3-2-6.7-1.6-9.6 0-.7.4-1.2 1-1.4.7-.2 1.5.2 2 1 .3.6.6 1.4.6 2.3v.1l.1.6c.4 1 1.4 1.4 2.3 1 .8-.3 1.2-1.3.9-2.3l-.3-.4-.6-1c-.5-.9-.8-1.7-.9-2.4-.1-1 .4-2 1.3-2.3l.3-.1c3.4-1.4 7.5.4 10 4a37 37 0 0 1 2.4 4.5c1.2 2.6 1.2 5.3 3.1 7.6 3.4 3.8 13 6.4 17.2 1.2 8.2-9.9-.9-22.7-6.6-31.2-7.1-10.6-17-22.7-22-34.7-13-31.3 9.2-62 45.1-62 22.8 0 37 10 45.1 21.8-15.6 1.3-24 11.3-24 11.3s3.1.4 5.1 3.7l2.8.4c3.1.4 6 2 7.2 5.5 1 3 1.1 4.8 1.1 4.8s2.1 1 3.3 3.7c.7 1.7.9 2.4.9 4 3.6 1.3 6.3 4.4 7.9 8.3.8 2.1 1 3 .7 5.1 4 2 7.2 7.8 7 12.5 0 1.6-.4 3-1 4.4 1.8 2.1 2.7 5 2.5 8.5" class="st3"/><path id="path116" d="M229 948.8h-8v12.6h7.8V959h-5v-2.7h4.2v-2.2h-4.3V951h5.2l.1-1.1v-1.2" class="st0"/><path id="path118" d="M234.8 959.3h-1.2v-3.8h1c1.5 0 2.1.6 2.1 2 0 1.3-.6 1.8-1.9 1.8zm5.4-10.5h-3l-2.5 4.5h-1.1v-4.5h-1.4a7 7 0 0 0-1.2 0v12.5l3.7.1c3.1 0 4.7-1.1 4.7-4 0-1.5-1-3-2.2-3.6l3-5" class="st0"/><path id="path120" d="M249.3 948.8h-7.8v12.6h7.7l.1-1.2-.1-1.1h-5v-2.7h4.2v-2.2H244V951h5.2l.1-1.1v-1.2" class="st0"/><path id="path122" d="M225 942h-1.2v-3.8h1c1.5 0 2.3.4 2.3 2 0 1.2-.7 1.8-2.1 1.8zm0-6h-1.3v-4.5a11.3 11.3 0 0 0-2.6 0V944l3.7.1c2.8 0 5-1 5-3.9s-1.9-4.2-4.8-4.2" class="st0"/><path id="path124" d="M239.2 931.5h-7.8v12.6h7.6l.2-1.2c0-.4 0-.7-.2-1.1h-5v-2.7h4.3v-2.2H234v-3.1h5.2l.1-1.1-.1-1.2" class="st0"/><path id="path126" d="M244.9 942h-1.2v-3.8h1c1.5 0 2.1.6 2.1 2s-.7 1.8-1.9 1.8zm5.4-10.4-1.6-.1h-1.4l-2.5 4.5h-1.1v-4.5h-1.4a7 7 0 0 0-1.2 0v12.6h3.7c3.1 0 4.7-1 4.7-4 0-1.5-1-3-2.2-3.6l3-5" class="st0"/><path id="path128" d="m275.8 953.6-1 3.5-.4 1.5-.4-1.5-1-3.5h2.8zm4.4-4.8a10.6 10.6 0 0 0-2.7 0l-1 2.6h-4.4l-.9-2.6a14 14 0 0 0-2.7 0l4.4 12.6a11.1 11.1 0 0 0 2.6 0l4.7-12.6" class="st0"/><path id="path130" d="M285.2 959.3H284v-3.8h1c1.5 0 2 .6 2 2 0 1.3-.6 1.8-1.8 1.8zm5.4-10.5h-3l-2.5 4.5H284v-4.5h-1.3a7 7 0 0 0-1.3 0v12.5l3.7.1c3.1 0 4.7-1.1 4.7-4 0-1.5-1-3-2.2-3.6l3-5" class="st0"/><path id="path132" d="M274.6 941.8h-3.3v-10.3h-2.6v10.3h-3.3a4.9 4.9 0 0 0 0 2.3h9.3v-1.2l-.1-1.1" class="st0"/><path id="path134" d="M284 931.5h-8v12.6h7.7l.1-1.2v-1.1h-5v-2.7h4.1l.2-1.1c0-.4 0-.7-.2-1.1h-4.2v-3.1h5.2l.1-1.1-.1-1.2" class="st0"/><path id="path136" d="M289.5 931.4c-1.4 0-2.8.2-3.9.7v.9c0 .4 0 .9.2 1.4a9 9 0 0 1 3.6-.8c1.4 0 2 .6 2 1.5 0 1-.5 1.3-2.3 1.8-2 .7-3.5 1.6-3.5 3.8 0 2.3 2 3.5 4.6 3.5 1.2 0 2.3-.2 3-.4v-2.2c-1 .2-2 .4-2.9.4-1.3 0-2.1-.5-2.1-1.3s.7-1.2 2.3-1.7c2-.6 3.5-1.6 3.5-3.8 0-2.4-2-3.8-4.5-3.8" class="st0"/><path id="path138" d="m95 954.3.7-2.4.7 2.4 1.4 4c.4 1 .6 2 .6 3a13.2 13.2 0 0 0 2.6 0c0-1.2-.3-2.4-.7-3.7l-3.4-8.8a8.4 8.4 0 0 0-2.4 0l-3.3 8.7a11 11 0 0 0-.8 3.8 10.7 10.7 0 0 0 2.7 0c0-1.1.2-2 .5-3l1.4-4" class="st0"/><path id="path140" d="M105.2 948.8a11.3 11.3 0 0 0-2.6 0v12.6a13.2 13.2 0 0 0 2.6 0v-12.6" class="st0"/><path id="path142" d="M116.2 959h-3.3v-10.2a12.5 12.5 0 0 0-2.7 0V959h-3.3a4.9 4.9 0 0 0 0 2.2h9.3l.2-1.1-.2-1.1" class="st0"/><path id="path144" d="m96.7 936.3-1.1 3.6-.4 1.5c0-.6-.2-1.1-.4-1.5l-1-3.6h2.9zm4.4-4.8a10.6 10.6 0 0 0-2.7 0l-1 2.6H93l-.9-2.6a14 14 0 0 0-2.7 0l4.4 12.6a11.1 11.1 0 0 0 2.6 0l4.7-12.6" class="st0"/><path id="path146" d="M115.2 931.5a8.8 8.8 0 0 0-2.5 0l-.2 7.6-2.8-6.4-.9-.1h-1l-2.7 6.4-.2-7.5a10.2 10.2 0 0 0-2.5 0l.6 12.5 1 .1h1.1l3.7-8.6 3.7 8.5a10 10 0 0 0 2.2 0l.5-12.5" class="st0"/><path id="path148" d="M142.3 948.8h-7.9v12.6h7.7l.1-1.2v-1.1h-5v-2.7h4.2v-2.2H137V951h5.2l.1-1.1-.1-1.2" class="st0"/><path id="path150" d="m145.2 952.2 2.4 3.2-2.2 3c-.7 1-1.1 2-1.3 3a11.7 11.7 0 0 0 2.6 0c.1-.9.6-1.5 1-2.2l1.4-2 1.3 2c.4.6.9 1.3 1 2.2a12.5 12.5 0 0 0 2.5 0 7.1 7.1 0 0 0-1.4-3.2l-2-2.7 2.4-3.3a6.2 6.2 0 0 0 1.3-3.4 11.9 11.9 0 0 0-2.6 0 4 4 0 0 1-.8 2.3l-1.8 2.7-1.7-2.6c-.5-.7-.7-1.5-.7-2.3a12.5 12.5 0 0 0-2.6 0c0 1 .3 2 1.2 3.3" class="st0"/><path id="path152" d="M163.6 958.7c-.9.3-2 .5-2.8.5-2.2 0-3.5-1.5-3.5-4.2 0-2.5 1-4 3.4-4 1 0 2 .1 2.8.4.2-.4.2-.9.2-1.3v-.9c-1-.4-2.1-.6-3.2-.6-4 0-6 2.4-6 6.3 0 3.8 2.2 6.6 6.1 6.6 1 0 2.3-.3 3.1-.7l.1-.8-.2-1.3" class="st0"/><path id="path154" d="M138.6 942c-1.5 0-2.5-1.3-2.5-4.2 0-3 1-4.2 2.5-4.2 1.6 0 2.5 1.3 2.5 4.2s-.9 4.2-2.5 4.2zm0-10.6c-3.4 0-5.2 2.4-5.2 6.4s1.8 6.5 5.2 6.5c3.5 0 5.3-2.4 5.3-6.5 0-4-1.8-6.4-5.3-6.4" class="st0"/><path id="path156" d="M153 931.5h-7.6v12.6a12.4 12.4 0 0 0 2.6 0v-10.3h5l.1-1.1v-1.2" class="st0"/><path id="path158" d="M163.6 936.3c0-3.2-1.2-5-4.8-5-3.6 0-4.7 1.9-4.7 5v7.8a12.4 12.4 0 0 0 2.6 0v-8c0-1.7.5-2.7 2.1-2.7 1.7 0 2.2 1 2.2 2.7v8a12.5 12.5 0 0 0 2.6 0v-7.8" class="st0"/></g></g><path d="M.3 147.4h378.2v8.1H.3zM2 178.9h14.4v4.7h-9v9.1h7v4.7h-7v14.4H2v-33zm17 0h8c2.8 0 4.9.6 6.2 1.8a8.1 8.1 0 0 1 1.9 5.7v2c0 3.5-1.2 5.6-3.6 6.5v.1c1.3.4 2.3 1.2 2.8 2.3.6 1.2.8 2.7.8 4.7v5.8l.1 2.2.5 1.8h-5.5l-.4-1.5v-8.6c0-1.5-.3-2.6-.9-3.1-.5-.6-1.3-1-2.6-1h-1.9v14.2H19v-33zm7.4 14c1 0 1.9-.2 2.4-.7s.9-1.5.9-2.7v-2.6c0-1.1-.3-2-.7-2.5-.5-.6-1.2-.8-2.1-.8h-2.5v9.4h2zm12.5-14h5.4v32.9H39v-33zm9.5 0h14.8v4.7h-9.4v8.7h7.4v4.7h-7.4v10h9.4v4.8H48.4v-33zm17.9 0H73l5.3 19.7v-19.7h4.9v32.9h-5.6l-6.5-24v24h-5v-33zm21 0h8.3c2.7 0 4.8.7 6.1 2 1.4 1.4 2 3.4 2 6v16.7c0 2.7-.6 4.7-2 6-1.3 1.5-3.4 2.2-6 2.2h-8.4v-33zm8.2 28.2c1 0 1.6-.3 2-.8.6-.5.8-1.3.8-2.4v-17.1c0-1.2-.2-2-.7-2.5-.5-.5-1.2-.7-2-.7h-2.8V207h2.7zm13 2.9c-1.4-1.3-2-3.4-2-6v-2h5v2.3c0 2.2 1 3.2 2.9 3.2 1 0 1.6-.2 2-.7.6-.6.8-1.4.8-2.6 0-1.3-.3-2.6-1-3.6-.6-1-1.9-2.3-3.6-3.8a21.1 21.1 0 0 1-4.7-5 10 10 0 0 1-1.4-5.2c0-2.6.7-4.6 2.1-6 1.4-1.5 3.4-2.2 6-2.2s4.6.7 6 2.1 2 3.5 2 6.2v1.3h-5.2v-1.7c0-1.1-.2-2-.7-2.4-.5-.6-1.1-.8-2-.8-1.8 0-2.7 1-2.7 3.1a6 6 0 0 0 1 3.4c.7 1 1.9 2.3 3.7 3.7 2.2 2 3.8 3.6 4.6 5.2a11 11 0 0 1 1.3 5.4 9 9 0 0 1-2 6.2 8.6 8.6 0 0 1-6.2 2.1c-2.6 0-4.6-.7-6-2.1zm26.9 0a8.4 8.4 0 0 1-2.2-6v-17.3c0-2.7.7-4.7 2.2-6.1 1.4-1.5 3.4-2.2 6-2.2 2.7 0 4.8.7 6.2 2.2a8.4 8.4 0 0 1 2.1 6V204c0 2.6-.7 4.6-2.1 6-1.4 1.5-3.5 2.2-6.1 2.2-2.7 0-4.7-.7-6.1-2.1zm8.9-5.7v-18c0-2.1-1-3.2-2.8-3.2-1.9 0-2.8 1-2.8 3.2v18c0 2.1 1 3.2 2.8 3.2 1.9 0 2.8-1 2.8-3.2zm9.1-25.4h14.3v4.7h-8.9v9.1h7v4.7h-7v14.4h-5.4v-33zm29.1 4.7h-5.7v-4.7h16.8v4.7h-5.7v28.2h-5.4v-28.2zm13.7-4.7h5.4v13.4h5.9v-13.4h5.4v32.9h-5.4V197h-5.9v14.8h-5.4v-33zm20.8 0h14.7v4.7h-9.3v8.7h7.4v4.7h-7.4v10h9.3v4.8H217v-33zm27.4 31.1c-1.4-1.3-2-3.4-2-6v-17.3c0-2.7.6-4.7 2-6.2 1.4-1.4 3.4-2.1 6-2.1 2.7 0 4.7.7 6 2.1s2.1 3.5 2.1 6.2v2.8h-5v-3.2c0-2.1-1-3.2-3-3.2-1.8 0-2.7 1-2.7 3.2v18c0 2.2 1 3.2 2.8 3.2 1.9 0 2.8-1 2.8-3.2V198h-2.7v-4.7h7.8V204c0 2.6-.7 4.7-2 6-1.4 1.5-3.4 2.2-6 2.2-2.7 0-4.7-.7-6-2.1zm17.6-31.1h8c2.9 0 5 .6 6.2 1.8 1.3 1.3 2 3.2 2 5.7v2c0 3.5-1.3 5.6-3.6 6.5v.1c1.3.4 2.2 1.2 2.8 2.3s.8 2.7.8 4.7v8l.6 1.8h-5.6l-.4-1.5v-8.6c0-1.5-.3-2.6-.8-3.1-.5-.6-1.4-1-2.7-1h-1.8v14.2H262v-33zm7.4 14c1.1 0 2-.2 2.5-.7s.8-1.5.8-2.7v-2.6c0-1.1-.2-2-.7-2.5-.4-.6-1.1-.8-2-.8h-2.5v9.4h2zm14.3 17.1a8.4 8.4 0 0 1-2.2-6v-17.3c0-2.7.7-4.7 2.2-6.1s3.4-2.2 6-2.2 4.8.7 6.2 2.2 2.1 3.4 2.1 6V204c0 2.6-.7 4.6-2.1 6-1.4 1.5-3.5 2.2-6.1 2.2s-4.7-.7-6.1-2.1zm8.9-5.7v-18c0-2.1-1-3.2-2.8-3.2-1.9 0-2.8 1-2.8 3.2v18c0 2.1.9 3.2 2.8 3.2s2.8-1 2.8-3.2zm10.9 5.7c-1.3-1.3-2-3.4-2-6v-25.1h5.4v25.4c0 1.2.2 2 .7 2.5.5.5 1.2.7 2 .7 1 0 1.6-.2 2.1-.7.5-.5.7-1.3.7-2.5V179h5.3v25c0 2.7-.7 4.8-2.1 6.2-1.4 1.4-3.4 2.1-6 2.1s-4.7-.7-6-2.1zm18-31.1h6.8l5.3 19.7h.1v-19.7h4.8v32.9H333l-6.6-24v24h-4.9v-33zm21.1 0h8.3c2.7 0 4.7.7 6 2 1.4 1.4 2 3.4 2 6v16.7c0 2.7-.6 4.7-2 6s-3.3 2.2-6 2.2h-8.3v-33zm8.2 28.2c.9 0 1.5-.3 2-.8s.7-1.3.7-2.4v-17.1c0-1.2-.2-2-.7-2.5-.5-.5-1.1-.7-2-.7H348V207h2.8zm12.9 2.9c-1.3-1.3-2-3.4-2-6v-2h5.1v2.3c0 2.2 1 3.2 2.8 3.2 1 0 1.6-.2 2.1-.7.5-.6.7-1.4.7-2.6 0-1.3-.3-2.6-1-3.6a17 17 0 0 0-3.6-3.8 21.1 21.1 0 0 1-4.7-5 10 10 0 0 1-1.3-5.2c0-2.6.7-4.6 2-6s3.4-2.2 6-2.2c2.7 0 4.6.7 6 2.1a9 9 0 0 1 2 6.2v1.3h-5.2v-1.7c0-1.1-.2-2-.7-2.4-.4-.6-1-.8-2-.8-1.8 0-2.7 1-2.7 3.1a6 6 0 0 0 1 3.4c.7 1 2 2.3 3.7 3.7 2.3 2 3.8 3.6 4.7 5.2s1.3 3.3 1.3 5.4c0 2.7-.7 4.7-2.1 6.2-1.4 1.4-3.5 2.1-6.1 2.1-2.7 0-4.7-.7-6-2.1z" class="st0"/></svg>