<svg xmlns="http://www.w3.org/2000/svg" viewBox="0 0 142 102"><g fill="#5B2868" fill-rule="evenodd"><path d="M109.92 101.05c.84 0 1.58.03 2.23.11.14.02.33.03.59.03.49 0 1.52-.05 1.54-.06l1.6-.04a853.2 853.2 0 0 0 2.15-.08c.56-.08 1.17-.11 1.9-.11l.96.01.9.02c.5 0 .92-.03 1.3-.08.64-.08 1.33-.12 2.1-.13h1.02l2.74-.03a6.58 6.58 0 0 0 2.33-.42s1.65-.67 2.24-1.24c.06-.06.27-.2.3-.23l.08-.06c.14-.12.28-.24.4-.37a16.7 16.7 0 0 0 2.43-3.51c.24-.46.66-1.54.66-1.54.13-.32.18-.66.17-1.04 0-.33.07-1.15.07-1.23.02-.24.12-1.3.13-1.6l.01-.36c0-.2 0-.4.03-.59.16-1 .16-2.04.16-3.04v-2.1c0-1.27-.01-2.44-.03-3.58 0-.4-.02-.78-.03-1.18-.03-.79-.05-1.6-.02-2.4.04-.86 0-1.73-.02-2.58l-.04-1.36a1632 1632 0 0 1-.04-4.43c0-.05 0-.21.03-.52l.08-1.26.03-1.77.02-.89.07-.05c.5-.31.95-.39 1.41-.44l.37-.03.2-.01c.58-.04 1.09-.3 1.54-.77.21-.2.3-.48.28-.81v-.06a1.72 1.72 0 0 0-.08-.45 12 12 0 0 1-.53-2.22l-.11-.52c-.06-.25-.12-.5-.15-.77a2 2 0 0 0-.12-.5 14.1 14.1 0 0 1-.54-1.8l-.28-1.02c-.12-.4-.24-.79-.32-1.19l-.11-.54c-.19-.94-.39-1.9-.67-2.83-.07-.24-.15-.5-.17-.77-.01-.2-.06-.4-.1-.61l-.08-.4c-.05-.3-.15-.58-.25-.88l-.17-.53-.01-.04c-.37-1.32-.75-2.7-1.1-4.05a8.06 8.06 0 0 0-.66-1.72c-.36-.7-.86-1.2-1.37-1.38l-.09-.03c-.28-.1-.36-.13-1.06-.2l-.28-.03c-.42 0-.82.2-1.25.64-.46.47-.72.97-.78 1.55-.05.49-.19.94-.32 1.32l-.14.47-.06.24-.15.52c-.1.4-.22.8-.35 1.2-.19.54-.42 1.22-.57 1.88a37.9 37.9 0 0 1-.94 3.36l-.29.96c-.22.76-.45 1.54-.8 2.27l-.1.3-.19.61a772.8 772.8 0 0 0-1.01 3.38 6.7 6.7 0 0 0-.16.72l-.1.6c-.09.54-.18 1.09-.3 1.63-.16.69-.09 1.33.21 1.9.17.31.37.48.66.53l.44.1c.47.1.9.2 1.37.17h.21c.2 0 .47.01.72.17l.03.02.03.04c.15.29.15.6.14.87v.13l.02 1.09c.03.76.06 1.54-.03 2.31-.04.35-.04.7-.04 1.05l-.01.54-.01.36a52.1 52.1 0 0 0-.03 2.17c.02 2.19.01 4.36 0 6.78 0 .44-.02.88-.04 1.32l-.04.75-.01.3c-.04.94-.07 1.92.02 2.87.06.66.09 1.28.08 1.9l-.01.63a16.83 16.83 0 0 1-.3 3.67l-.04.22c-.05.26-.14.5-.27.67-.23.32-.5.65-.86 1.03a1.3 1.3 0 0 1-.53.35l-.15.05a7.8 7.8 0 0 1-2.46.55c-.5.01-.96.04-1.39.1-.87.11-1.73.14-2.46.15-.44 0-1 .01-1.59.05-.67.05-1.33.1-2 .1-.47 0-.9-.02-1.32-.07-.26-.03-.54-.04-.8-.06l-.32-.01-.6-.03a23.1 23.1 0 0 1-1.28-.08c-.98-.1-1.99-.11-2.98-.05a34.08 34.08 0 0 1-3.5.04h-.36l-.49-.03-.64-.05-.67-.06-1.22-.08c-.2 0-.38-.02-.56-.03l-.2-.01-.36-.02-.44-.01-2.57-.07h-2.07c-.56 0-1.14 0-1.7-.06a44.65 44.65 0 0 0-7.22-.13c-.79.05-1.52.05-2.18 0-.95-.06-1.9-.06-2.83-.07h-2a64.55 64.55 0 0 1-4.74-.1H75.6a57.3 57.3 0 0 1-2.16-.01c-.74 0-1.5 0-2.26-.08a9.29 9.29 0 0 0-.9-.04l-.6.01h-.65c-.43 0-.85.04-1.25.07l-.24.02c-1.21.08-2.2.08-3.13 0-.68-.07-1.36-.07-2.04-.03l-.26.02c-.28.02-.58.04-.88.04h-2.45a7.1 7.1 0 0 1-.87-.05 4.87 4.87 0 0 0-1.53.04 6.5 6.5 0 0 1-1.55.08l-.31-.02c-.33-.02-.66-.05-.99-.05h-1.17l-4 .01c-.43 0-.85.02-1.28.03l-1.52.02h-.37c-.88 0-1.79 0-2.68-.06-.96-.08-1.96-.1-3-.07-.05 0-.5.02-.66.01a22.33 22.33 0 0 0-3.64.05c-.22.02-.37.02-.51 0a3.2 3.2 0 0 0-.63 0l-.68.02-1.93.03c-.92 0-1.68-.03-2.4-.1-.11-.01-.47.02-.53.02l-1 .05c-.75.05-1.52.1-2.3.11a14.97 14.97 0 0 1-1.8-.07l-.73-.06-.77.02c-.81 0-1.63-.04-2.43-.08l-.66-.03a23 23 0 0 1-4.15-.44c-.4-.1-.72-.19-1-.49l-.26-.25a3.32 3.32 0 0 1-1.04-1.97c-.1-.66-.24-1.38-.42-2.2a5.6 5.6 0 0 1-.13-1.25v-2.17l.02-1.66a268.2 268.2 0 0 0 .02-4.52 301.15 301.15 0 0 1 .02-4.77c0-.85-.02-1.74.1-2.62.01-.1.02-.22.01-.34a6.6 6.6 0 0 1 0-.83l.04-.62v-.04c.02-.08.04-.6.04-.77v-3.16c0-.15-.01-.3-.04-.44-.02-.15-.2-.32-.37-.34a1.27 1.27 0 0 0-.98.35s-.56.52-.91.63a5.1 5.1 0 0 1-1.45.24c-.41 0-.79-.07-1.15-.22-.33-.13-.66-.28-.97-.43l-.72-.33c-.2-.1-.42-.2-.63-.28-.31-.12-.64.03-.8.35-.1.24-.14.44-.1.62.1.39.09.78.07 1.15l-.01.3-.03.87a37.6 37.6 0 0 0-.05 2.6v1.18a152.68 152.68 0 0 1-.05 2.92 118.72 118.72 0 0 0 0 1.98v7.62l.02.58c0 .53.01 1.07-.04 1.6-.1 1.05-.08 3.53-.05 3.7.03.18.02.46.06.63.09.36.13.5.17.88.07.71.25 1.42.43 2.08a11.1 11.1 0 0 0 2.96 5.15 14.8 14.8 0 0 0 2.18 1.74c.11.07 1.1.42 1.44.47l.32.06a19.85 19.85 0 0 0 3.76.35 16 16 0 0 1 1.42.08 19 19 0 0 0 1 .06h.02c.79-.02 1.6 0 2.37.03.76.02 2.4.03 2.4.03.18 0 1.06.08 1.42.03.65-.08 1.35-.1 2.1-.05.41.03 1.59.04 1.59.04.42 0 .86 0 1.29-.06.74-.1 1.48-.11 2.2-.05.3.03 1.34.03 1.55 0 .48-.09 1-.13 1.68-.13l.98.02c.27 0 .55.03.82.06.45.03.92.07 1.32.03.39-.03.85-.07 1.33-.07.5 0 .93.04 1.34.12.09.02.34.02.34.02h1.63c.55 0 1.2 0 1.85-.04a26.2 26.2 0 0 1 2.46 0l1.09.01c.62 0 1.17-.02 1.7-.07.42-.04.92-.08 1.43-.08h.2l4.13.03c.2 0 .41.02.61.04l.52.03c.65.02 1.97-.03 2.79-.06l.75-.03s1.7.05 2.47.1h.2c.92.06 1.87.11 2.8.11l.84-.01c.89-.04 1.8-.04 2.67-.05h2.89c.83 0 2.23.05 3.37.08l1.7.05.53-.05c.38-.03.78-.06 1.17-.05 1.03.03 2.11.04 3.47 0 .72 0 1.44.02 2.1.08a23.53 23.53 0 0 0 3.25.1l.26-.02a12.15 12.15 0 0 1 1.65-.03c.63.07 1.32.1 2.17.1.43 0 .86 0 1.3-.02h.56l1.24-.02c.9 0 1.6.04 2.26.13l.55.02.62.04.88.04a176.02 176.02 0 0 0 2.83.13 121.44 121.44 0 0 0 4.16.14c.41 0 .74-.03 1.05-.09.26-.05.6-.03.9 0 .87.1 2.55.12 2.55.12M16.45.21c-.55 0-1.09.02-1.6.05a9.5 9.5 0 0 0-2.99.55c-1.07.42-2.12.98-3.11 1.66-.1.07-.23.16-.34.27-.76.76-1.62 1.7-2.3 2.8-.36.62-.7 1.25-1 1.8-.08.15-.33.9-.44 1.25l-.08.24a5.3 5.3 0 0 0-.3 1.96l.05 1.55.02 2.6c0 .48-.02.95-.03 1.42-.01.52-.03 1.06-.03 1.6 0 .53.02 1.07.04 1.63l.02.8-.04 1.32-.12 3.4c-.02.76 0 1.33.03 1.87a17.2 17.2 0 0 1-.02 2.2c-.01.2-.03.42-.02.62 0 .22.02.45.04.67l.04.74.04 4.15c0 .16 0 .34.02.53 0 .32.02.65 0 .93-.01.4-.23.7-.62.87 0 0-.2.1-.3.11a4.5 4.5 0 0 1-.83.07l-.54.04c-.5.06-.96.22-1.43.5-.2.12-.41.27-.44.47a5.09 5.09 0 0 0 .29 2.94c.1.23.3.9.3.9l.9 3.08c.36 1.27.75 2.61 1.3 3.9a192.54 192.54 0 0 1 .49 1.77l.27 1.07a24.43 24.43 0 0 0 .3 1.09l.14.55c.19.74.38 1.52.55 2.29l.25 1.1c.1.41.21.84.3 1.28.14.71.45 1.4.87 1.98.19.26.45.48.7.7l.16.12c.16.14.38.23.68.27a3.3 3.3 0 0 0 1.91-.37 1.8 1.8 0 0 0 1.04-1.1c.05-.16.11-.3.18-.46l.16-.41a69.11 69.11 0 0 0 1.48-5.2l.18-.67a161.26 161.26 0 0 0 .63-2.55 80.08 80.08 0 0 0 .87-3.37c.17-.75.38-1.62.7-2.46l.17-.45.29-.77c.28-.85.54-1.7.8-2.54 0 0 .15-.5.16-.65 0-.2.03-.4.05-.59.03-.23.06-.75.06-.75.04-.18-.25-.74-.35-.88a2.07 2.07 0 0 0-1.61-.91c-.14-.02-.3-.02-.43-.02l-.36-.02c-.23-.01-.48-.02-.72-.05a.55.55 0 0 1-.47-.56l-.02-.61c0-.42-.01-.85-.05-1.27a7.9 7.9 0 0 1-.01-1.24c.01-.19 0-.37-.01-.58a3.05 3.05 0 0 1 0-.74c.13-1.05.1-2.13.05-3.17l-.01-.37-.02-.48c0-.43-.01-.87-.07-1.28a7.72 7.72 0 0 1-.06-1.35v-.55c-.02-.24 0-.48 0-.71l.01-.42.02-2 .04-3.37c0-.1.02-.19.03-.28l.02-.2.05-.68c.04-.57.08-1.17.1-1.75v-.7c.02-.67.03-1.35.1-2.04a300.76 300.76 0 0 0 .24-2.72c.07-.47.3-.82.66-1.04l.27-.18c.23-.15.53-.35.83-.48.96-.35 1.76-.36 2.69-.38l.8-.02h1.15l1.52-.1.92-.05c.2-.02.47-.04.64-.04.63-.02.81.03 1.59-.04.43-.05.88-.12 1.39-.12h.33c.86.03 1.58.05 2.25.05l.62-.01c.27 0 .53-.02.8 0l1.34.01h.57l1.19.01.62.04c.42.02.87.05 1.51.03.35-.08.7-.09.98-.09h.17c1.92.02 3.85.21 5.65.4.68.08 1.3.12 1.91.12h.13l.53-.02c.38-.01.77-.02 1.09 0a14.52 14.52 0 0 0 1.62.04h.45c.39 0 .85 0 1.32.05.68.06 1.4.1 2.11.1h.06c1.23 0 2.53.07 4.21.23.43.04.72.05 1.02.04.73-.02 1.47 0 2.19.02l1.48.02c.34 0 .65 0 .94-.02l1.24-.02c.36 0 .74 0 1.11-.02.45-.01.9-.04 1.34-.07l.72-.04.2-.01 1.03-.05 1.5-.02 2.45-.05c.36-.01.72-.04 1.07-.06.6-.05 1.24-.1 1.86-.06l1 .02H74l1.36-.01c.84-.01 1.67-.02 2.5 0 1.38 0 2.78.05 4.14.09l.8.02c.55.01 1.11.03 1.66.09.18.02.4.03.66.03L86.1 9l.62-.02c.49.03.81.05 1.08.05.22 0 .42-.01.65-.04 1.09-.11 2.23-.1 3.7.06.59.06 1.22.1 1.87.1h4.2A152.32 152.32 0 0 0 105.4 9c1.42-.05 2.88-.1 4.32-.2.88-.05 1.64-.06 2.37-.02 1.17.06 2.3.06 3.37 0 1-.07 1.8-.06 2.57.01 0 0 1.3.12 1.86.14.62.03 1.24.04 1.85.05l.97.02a11.1 11.1 0 0 0 1.01.04h.6l.67-.01c.86 0 1.63.13 1.63.13l.17.08c.1.03.2.07.34.15.71.3 1.28.63 1.73 1.02.93.82 1.33 1.64 1.3 2.65-.03.97-.02 1.97 0 2.93v1.91c0 .55 0 1.11-.06 1.67-.05.46-.08.95-.1 1.58l-.03 2.01v.98c.06 1.01.07 2.06 0 3.13v1.11l.01.38.02.34c0 .17.02.34.01.52L130 31.2c0 1.05 0 1.95-.18 3.26l.02.74c.01.59.03 1.2.06 1.78.02.34.17.48.54.48h.04c.18 0 .31-.05.42-.15l.12-.1c.1-.1.21-.18.33-.27a4.84 4.84 0 0 1 1.82-.89c.28-.06.57-.08.88-.07 1.22.04 1.24.04 2.3.63l.74.39c.14.07.29.1.44.07.2-.03.27-.13.3-.2.14-.43.17-.87.09-1.31-.07-.4-.08-.81-.08-1.2v-.24a25.8 25.8 0 0 0-.06-1.5 46.2 46.2 0 0 1-.05-1.56c0-.25 0-.5.02-.77l.05-.99c.03-.66.06-1.34.07-2.01l.03-2.9v-1.52l.02-.68v-1.81c-.02-.64-.03-1.3 0-1.95.06-.96.04-1.95.01-2.9a188.68 188.68 0 0 1-.04-2.26c.03-.87 0-1.58-.1-2.23-.04-.34-.14-.68-.23-1.01l-.14-.52a15.7 15.7 0 0 0-1.52-3.7 5.43 5.43 0 0 0-1.25-1.66 3.28 3.28 0 0 1-.38-.4l-.16-.17c-.42-.46-.9-.93-1.45-1.22-.9-.47-1.9-.82-2.96-1.06h-.08c-.03 0-1.98-.22-3.2-.22a49.37 49.37 0 0 0-1.6 0h-.33c-.14 0-.25 0-.35.03-.26.05-.55.07-.9.07l-.53-.01h-.2a27.7 27.7 0 0 1-1.98-.13l-.87-.07c-.65-.05-1.33-.1-2-.1-.59 0-1.64.13-1.67.13l-.86.02-1.83.02c-.6 0-1.21 0-1.8-.02L109.4 1l-1.5-.01-1.5-.01c-1.07 0-1.9.02-2.69.06-.2.02-.43.02-.67.01l-.63-.01-1.75-.03c-.54 0-1.02.01-1.46.04a19 19 0 0 1-.98.02h-.92l-1.24-.05C95.47 1 94.87.98 94.28.98h-.9L85.87 1h-1.18l-.6.03-.33.02-.26.02c-.22.01-1.28.03-1.52.02h-.7c-.6 0-1.31.01-2.03.07-.48.03-1.06.07-1.62.05-.39-.02-.78-.02-1.17-.02a17.1 17.1 0 0 1-2.48-.12h-1.16a170.36 170.36 0 0 1-2.43-.01h-.82c-.2 0-1.35-.08-2.03-.13h-1.37c-.8 0-1.64 0-2.45-.02-2.67-.04-5.37-.12-8-.23L53.35.6l-.64-.02h-.27L51.38.6l-2.52.04h-.97c-.22 0-.51 0-.8.03-.69.07-1.4.07-2.1 0-.74-.1-1.49-.1-2.2-.1h-2.45c-.25 0-.51 0-.78.02-.63.04-3.43-.26-4.05-.3-1.25-.06-2.53-.1-3.77-.15l-.7-.03a8.12 8.12 0 0 0-1.05 0 20.44 20.44 0 0 1-2.73 0l-.8.04-1.37.05h-2.41c-.78.01-1.59.02-2.37.08-.47.03-.99.05-1.43.02-.89-.05-1.68-.08-2.43-.08"/><path d="M74.28 52.08c-.55 0-1.02.1-1.44.29-.6.27-.9.61-.98 1.13-.03.19-.08.37-.12.55l-.06.22a14.4 14.4 0 0 0-.22 1.97c0 .56.02 1.13-.02 1.7a46.4 46.4 0 0 0-.12 3.82c-.03.43-.03.86-.03 1.3 0 .44 0 .9-.03 1.34-.04.53-.04 1.07-.04 1.6v.98l-.05.83-.04.9v.2a65.93 65.93 0 0 0-.02 3.51c0 .53 0 1.1.05 1.62.02.15-.01.3-.02.43-.01.5-.04 1-.04 1.5 0 .3 0 .62-.02.93-.02.2.02.48.02.73 0 .36.09.7.1 1.03l.02.28c.06.89.28 1.5.7 1.97.39.43.84.83 1.5.91.37.04.73.1 1.09.15l.83.13c.27.03.56.05.9.05l.85-.02.23-.01a1.5 1.5 0 0 0 1.44-1.04l.02-.06c.1-.24.18-.46.17-.7l.01-.44.02-.35-.04-2.67-.04-3.63c0-.34.01-.7.05-1.14a2.83 2.83 0 0 1 .21-.76c.01-.01.17-.18.29-.18.08 0 .16.03.22.07.26.2.36.48.45.74l.21.64c.17.49.33 1 .48 1.5.27.96.64 1.89.99 2.75.38.94.81 2.05 1.17 3.18.22.72.7 1.21 1.47 1.51.6.23 1.2.33 1.82.3.75-.05 1.32-.07 1.85-.08a7 7 0 0 0 1.28-.12c.37-.07.7-.22 1.02-.47a.95.95 0 0 0 .4-.6l.33-1.95v-.07l.05-.99.11-2.37.02-.35c.02-.42.04-.86.09-1.3.05-.42.04-.87.03-1.3v-2.12a225.89 225.89 0 0 1 .09-6.44c.01-.6-.01-.96-.02-1.55 0-.48 0-.68.02-1.14.02-.74-.05-.88-.03-1.29a32.12 32.12 0 0 0-.09-4.33 16.3 16.3 0 0 0-.1-1.36c-.09-.56-.4-.98-.9-1.19a6.09 6.09 0 0 0-1.39-.41c-.86-.13-1.52-.2-2.16-.21-.7-.01-1.39.08-2.11.3a1.1 1.1 0 0 0-.45.25 2.2 2.2 0 0 0-.67 1.17c-.06.36-.1.75-.09 1.26l.03 1.21.03.75c0 1.12.03 1.69.01 2.89v.5c0 .65-.02 1.31-.04 1.98 0 .16-.13.34-.3.34a.21.21 0 0 1-.1-.03.63.63 0 0 1-.2-.15l-.18-.33c-.22-.39-.44-.8-.64-1.2-.2-.4-.38-.84-.54-1.3l-.3-.85c-.16-.5-.34-1-.53-1.5a6.73 6.73 0 0 1-.35-1c-.16-.73-.45-1.43-.72-2.1l-.26-.65a2.28 2.28 0 0 0-2-1.55l-.5-.02-2.67-.1m31.47 20.28c.47 0 .85.2 1.12.59l.01.02c.15.22.3.44.4.7.15.42.37.84.58 1.23l.24.46c.53 1.05.74 2.19.63 3.38-.08.86.06 1.65.41 2.44.14.28.31.45.57.55.3.1 1 .25 1 .25.4.09.8.1 1.23.1.2 0 .38 0 .57.02l.47.01c.76 0 1.5-.09 2.21-.18.91-.13 1.5-.64 1.69-1.5.1-.49.17-.9.15-1.33-.03-.4-.02-.82 0-1.22V77a18.3 18.3 0 0 0-.5-3.74 5.95 5.95 0 0 0-.56-1.58c-.14-.25-.26-.5-.38-.75-.11-.24-.23-.5-.36-.73a4.61 4.61 0 0 0-1.34-1.7c-.12-.07-.34-.33-.34-.33-.54-.61-.57-.86-.2-1.58.05-.12.13-.22.2-.32l.1-.13a14.53 14.53 0 0 0 2.26-5.06c.01-.08.1-.3.11-.34a12.6 12.6 0 0 0 .25-6.91c-.1-.43-.33-.7-.7-.86a6.11 6.11 0 0 0-1.97-.5c-.58-.04-1.18-.05-1.76-.05l-.77-.02a7.58 7.58 0 0 0-1.8.2c-.74.16-1.14.79-1.13 1.29v2.52c0 .35-.05.68-.1.97a14.9 14.9 0 0 1-1.35 4.06c-.3.62-.57 1.06-.9 1.43-.4.43-.88.7-1.45.82a.53.53 0 0 1-.26-.02c-.1-.03-.22-.09-.24-.21a2.43 2.43 0 0 1-.08-.55l.01-.83.01-.9c0-.82-.02-1.65-.03-2.45v-.32c0-.1-.04-.21-.05-.32-.01-.82-.05-1.22-.1-2.28-.03-.7-.04-1.35-.13-1.85-.14-.81-.58-1.27-1.4-1.43a11.16 11.16 0 0 0-2.84-.2c-.65.03-1.32.13-1.97.23l-.36.05c-.34.05-.67.17-.89.26a.83.83 0 0 0-.54.64c-.07.31-.1.64-.09 1.07v1.3c0 .85 0 1.7.03 2.42.02.34 0 .91 0 .91l.04 2.36.03.8v8.23l-.03.8.03 2.9c0 .95.01 1.61-.03 2.46-.04.91-.02 1.81.04 2.66.03.4.13.8.24 1.24a.9.9 0 0 0 .24.44c.57.5 1.09.77 1.67.85.67.1 1.36.14 2.08.12l1.35-.02h1c.51-.06.87-.24 1.1-.55a2 2 0 0 0 .41-.94c.08-.64.15-1.26.16-1.88.02-1.55.08-2.97.17-4.34.04-.65.22-1.17.55-1.65l.03-.03c.24-.2.7-.28 1.08-.31l.18-.01M30.63 18.82c-.46 0-.94.02-1.58.06-1.02.05-1.14.13-2.04.7a2 2 0 0 0-.83.97l-.3.79-.08.19c-.2.53-.32 1.04-.36 1.57-.05.54-.07.98-.08 1.39l-.01.47a56.84 56.84 0 0 0-.02 3.2c.02.56.02 1.11.01 1.65v.7c-.05.75-.1 1.74-.05 2.74l.04 1.82c0 .45.02.9.03 1.34l.05 1.05.05 1.06.04 1.53a93.34 93.34 0 0 1 .04 2.48c0 1.05.01 2.13.12 3.18.06.56.11 1.14.35 1.65.32.72.82 1.1 1.51 1.18l.52.06c.48.06.98.13 1.47.13l.5-.01 1.88-.02c.39 0 .73-.1 1.05-.22a.66.66 0 0 0 .37-.31c.15-.27.26-.58.3-.94a23.68 23.68 0 0 0 .22-3.47c0-.24-.01-.48.02-.73.1-.83.1-1.66.08-2.43v-.21c-.01-.4-.02-.8-.01-1.2 0-.27.03-.51.08-.73a.55.55 0 0 1 .33-.37l.25-.07c.38-.12.77-.24 1.19-.24a2.77 2.77 0 0 0 .83 0 10.08 10.08 0 0 1 1.35 0l.13.02c.37.03.76.06 1.15.06.28 0 .54-.02.78-.05a2.1 2.1 0 0 0 1.4-.9c.3-.4.45-.83.46-1.28 0-.2.03-.39.05-.57l.04-.4c.02-.25.02-.51.01-.78l-.03-.52-.03-.43a1.67 1.67 0 0 0-.5-1.15 9.2 9.2 0 0 1-.14-.15 2.22 2.22 0 0 0-.85-.6l-.25-.05h-.1a4.84 4.84 0 0 0-.55-.02 87.45 87.45 0 0 1-3.82-.01h-.06c-.19 0-.37-.02-.54-.04a.75.75 0 0 1-.55-.36 1.4 1.4 0 0 1-.2-.44 3.81 3.81 0 0 1-.11-1.45c.06-.71.1-.77.66-1.06l.1-.05c.33-.18.7-.26 1.13-.26a38.58 38.58 0 0 0 5.1.16h.66c.7 0 1.4-.2 2.27-.62.34-.17.58-.46.73-.88.2-.58.21-1.17.21-1.8v-.32c.01-.5-.04-1-.09-1.5l-.03-.32c-.04-.4-.1-.82-.19-1.38-.04-.26-.17-.5-.41-.73a1.7 1.7 0 0 0-.9-.48l-.3-.05c-.5-.1-1.03-.19-1.55-.19 0 0-1.27 0-1.87-.02-.67-.01-1.36-.03-2.03-.02l-.7.01a52.4 52.4 0 0 1-5.03-.26 11.6 11.6 0 0 0-1.37-.07m26.89.04c-1.07 0-2.17.18-3.27.52-.34.1-.68.23-1 .34l-.4.14a7.1 7.1 0 0 0-1.78.84c-.13.1-.27.18-.41.26l-.46.3-.67.59-.45.4c-.23.2-.4.45-.55.8a8.84 8.84 0 0 0-.65 2.76c-.03.29-.06.58-.11.87-.1.51-.15 1.05-.2 1.56l-.06.6c-.05.49-.06 1-.07 1.49-.01.43-.02.87-.06 1.3a62.08 62.08 0 0 0-.18 2.63c-.03.66-.07 1.34-.05 2l.1 2.7.05.5a1070.39 1070.39 0 0 0 .24 2.55v.02c.19.91.38 1.86.77 2.72l.02.04c.1.22.2.43.34.61A8.7 8.7 0 0 0 51.5 48a6 6 0 0 1 .54.33c.27.19.57.32.88.47l.27.12c.28.13.59.18.9.24l.42.09a25.95 25.95 0 0 0 4.9.24l.08-.02c.6-.11 1.2-.23 1.8-.38a7.63 7.63 0 0 0 2.47-1.15c1.19-.85 2-1.63 2.6-2.51.38-.56.63-1.06.8-1.6.31-.93.43-1.94.52-2.88.1-1.1.13-2.24.16-3.33l.01-.35c.01-.46-.02-1.27-.03-1.6h-.02v-.62c-.02-.3-.03-.6 0-.91.07-.7.05-1.44.03-2.16v-1.21c0-.25 0-.51-.02-.76 0-.24-.03-.48-.05-.71-.03-.35-.06-.7-.07-1.05 0-.58-.05-1.17-.13-1.82a9.35 9.35 0 0 0-.9-3.22 5.6 5.6 0 0 0-2.24-2.39c-.65-.37-1.38-.7-2.3-1.04a11.55 11.55 0 0 0-3.18-.82c-.47-.06-.94-.1-1.42-.1Zm.43 22.73a2.8 2.8 0 0 1-2.5-1.33 1.54 1.54 0 0 1-.25-.74 42.5 42.5 0 0 1-.08-4.57c.05-1.22.08-2.52.12-4.2 0-.6 0-1.2-.03-1.84-.02-.49.15-.91.55-1.3a3.22 3.22 0 0 1 1.9-.85c.17-.02.33-.02.48-.02h.41c.3-.02.57.09.83.33.32.3.52.63.59.98l.07.36c.14.68.3 1.37.28 2.1-.02.75 0 1.49.03 2.27l.02 1v.9l-.06 2.15a31.7 31.7 0 0 1-.15 2.1c-.05.67-.31 1.27-.56 1.85l-.05.12c-.18.41-.53.64-.98.65l-.28.02-.34.02ZM82.1 19.2a14.98 14.98 0 0 0-5.2.88c-.4.07-.79.21-1.28.46l-1.2.56c-.28.12-.5.29-.7.52l-.76.96c-.2.26-.38.56-.54.95-.34.78-.6 1.61-.77 2.48-.25 1.22-.5 2.5-.46 3.78l-.02.37-.03.33c-.02.23-.04.48-.04.71v1.22c0 .7 0 1.41-.03 2.12-.05 1.02-.02 2.05 0 3.05.02.58.04 1.18.04 1.77 0 .2.03.38.05.58.02.21.05.43.04.65 0 .52.06 1.05.12 1.56l.08.79c.04.44.19.87.47 1.31.46.74.99 1.48 1.57 2.2.12.14.28.33.47.48.68.56 1.39 1.08 2.1 1.55a4 4 0 0 0 1.4.57c.68.14 1.4.28 2.14.36.48.06.98.08 1.49.08 1.15 0 2.39-.13 3.88-.4l.32-.11c1.22-.36 2.4-.95 3.54-1.77.43-.3.76-.6 1.02-.9a7.92 7.92 0 0 0 1.66-3.45c.06-.25.07-.5.1-.76 0-.23.02-.48.07-.72.15-.7.15-1.44.14-2.15v-.43l-.01-.7c-.01-.5-.02-1.01.02-1.51.05-.54.03-1.07 0-1.58a19 19 0 0 1-.02-.88l-.02-.57-.07-2.21-.02-.71.01-.84c0-.5.02-1.02 0-1.53l-.03-.9-.04-.76a5.24 5.24 0 0 0-.6-2.29l-.28-.56a2.82 2.82 0 0 0-.69-.92 16.15 16.15 0 0 0-2.97-2.25 12 12 0 0 0-.84-.45 9.12 9.12 0 0 0-3.07-.91l-1.04-.03Zm-.37 22.97c-.25 0-.5-.05-.74-.17a5 5 0 0 1-1.08-.66c-.52-.42-.84-1-.97-1.74a9.64 9.64 0 0 1-.11-2.14v-.68a33.6 33.6 0 0 1 .07-4.13l.04-.71.03-.44c.03-.6.07-1.22.09-1.84.02-.48.17-.96.47-1.48.19-.32.5-.45.71-.52.35-.12.7-.18 1.1-.18.45 0 .93.08 1.5.26a1.94 1.94 0 0 1 1.37 1.89c0 1.13.04 3.36.06 3.95h.02l-.05 2v.44c.01 1.31-.1 2.6-.21 3.79-.08.84-.13.93-.74 1.55l-.4.37c-.37.3-.76.44-1.16.44Zm13.9-2.45v.17l-.02.55c0 .4 0 .8-.03 1.21l-.01.12c-.05.82-.1 1.66-.03 2.5l.06 1c.03.4.05.79.09 1.18a4 4 0 0 0 .17.82c.28.96.93 1.52 1.93 1.66 1.09.16 2 .2 2.85.13h1.1c.43.02.88.02 1.4.02.62 0 1.25-.02 1.86-.05l.64-.03a28.7 28.7 0 0 0 1.62-.12c.64-.05 1.31-.11 1.98-.12.1 0 .21-.02.32-.04a8.21 8.21 0 0 0 3.23-1.33c.65-.46 1.22-.96 1.76-1.53.26-.28.43-.54.53-.82l.2-.55a13.67 13.67 0 0 0 .96-4.24v-.1c.05-.62.1-1.27.11-1.9.02-.52.06-1.03.1-1.53.06-.9.13-1.83.07-2.75l-.01-.11c-.02-.2-.03-.4-.02-.6.03-.96-.01-1.92-.05-2.85l-.02-.48-.01-.51c0-.27 0-.54-.03-.8-.03-.38-.08-.76-.12-1.13-.05-.4-.1-.81-.13-1.22a1.29 1.29 0 0 0-.1-.38 9.84 9.84 0 0 0-1.68-2.8 9.88 9.88 0 0 0-4.48-2.8c-.3-.1-.63-.2-.94-.27l-.32-.09a17.69 17.69 0 0 0-3.06-.61c-.38-.03-.78-.05-1.3-.06l-.5-.01c-.7-.02-1.42-.04-2.13-.02-.49 0-.98.03-1.47.06a52.52 52.52 0 0 1-1.55.07 9 9 0 0 1-.77-.03c-.6-.05-1.05.17-1.4.7-.28.4-.45.8-.52 1.22l-.01.1a12 12 0 0 0-.24 2.3v.88l-.02.54.01 1.13a611 611 0 0 0 .13 4.74v.87l-.05 1.8c-.06 1.14-.21 1.8-.18 2.59l.08 3.52Zm9.48 1.33c-.1 0-.2 0-.3-.02-.19-.02-.37-.09-.54-.15l-.08-.04a.55.55 0 0 1-.35-.48 2.75 2.75 0 0 1 0-.56c.09-.68.14-1.42.15-2.34a203.46 203.46 0 0 0-.04-6.92c.02-.61.06-1.22.11-1.82l.07-.99c.03-.5.38-.8.9-.75.74.08 1.3-.07 1.75.57.66.9.91 2.4 1.05 3.35a8.72 8.72 0 0 1 .1 1.33c.04.68-.07 2.86-.07 2.88l-.1 1.5-.1 1.4c.04.56-.1 1.1-.23 1.6a1.7 1.7 0 0 1-.99 1.15c-.43.19-.88.29-1.33.29Zm-71.27 41.4h.58c.37 0 .67 0 .94-.02.74-.03 1.5-.06 2.26-.18.97-.16 1.91-.37 2.8-.63a6.13 6.13 0 0 0 1.04-.42c.3-.13.82-.65.82-.65.23-.22.44-.43.57-.71l.1-.2c.23-.51.47-1.04.73-1.55.14-.28.24-.57.28-.86l.14-.83c.08-.44.16-.89.22-1.34 0 0 .14-.99.1-1.44l-.03-.44c-.05-.68-.1-1.39-.24-2.07l-.14-.69c-.06-.36-.13-.74-.22-1.1a3.48 3.48 0 0 0-.55-1.28c-.35-.56-.67-1.08-1.25-1.38a.37.37 0 0 1-.09-.07h-.01c-.2-.17-.24-.39-.13-.6.1-.21.2-.42.32-.63l.51-1.02c.5-1 .8-1.85.95-2.67a11 11 0 0 0-.03-3.34l-.09-.3c-.2-.6-.4-1.23-.69-1.8a5.55 5.55 0 0 0-3.28-3.06 13.21 13.21 0 0 0-4.24-.78l-.9-.01h-1.29l-.17.02h-.52a44.55 44.55 0 0 0-1.14 0l-1.74.1-1.68.1c-.47.02-.9.14-1.41.3a1.4 1.4 0 0 0-.94.99c-.15.46-.3 1-.31 1.58 0 .46-.04.92-.07 1.37-.03.41-.06.84-.07 1.25v.68c0 .56 0 1.13-.08 1.71v1.22c-.02.7-.04 1.44.02 2.16.08.9.1 1.64.07 2.3-.03.58-.02 1.15-.02 1.71 0 .45.01.91 0 1.37-.02.62 0 1.27.02 1.89v.3c.04 1.3.01 2.61-.08 3.87-.03.35-.02 1.13-.02 1.13l.02.46c.02.27.03.55.02.86-.02.63-.01 1.25.04 1.9.05.74.43 1.33 1.1 1.7.76.42 1.52.7 2.25.81 1.08.18 2.28.27 3.65.29h1.88Zm.18-5.95h-.42l-.23-.01c-.28-.01-.46-.17-.52-.46a6.18 6.18 0 0 1-.1-.62v-1.76l.09-.95.03-.39c.02-.28.05-.5.1-.72.2-.81.73-1.34 1.53-1.53a2 2 0 0 1 2.06.66 5 5 0 0 1 .74 1.13s.06.13.08.26c.03.14.06.57.05.68-.06.4-.1.66-.21 1.15-.1.42-.3.78-.5 1.13l-.23.4c-.12.24-.5.47-.5.47a3.33 3.33 0 0 1-1.97.56Zm.75-13.3c-.17 0-.36-.02-.56-.05l-.13-.02c-1.09-.18-1.16-.26-1.25-1.3l-.03-.3v-.43l.04-.6.12-1.1c.02-.13.11-.4.11-.4.08-.21.3-.42.52-.42l.37-.03c1.01-.02 1.33.17 2.06.43.3.11.48.34.5.66.07.73 0 1.45-.09 2.13-.11.92-.9 1.42-1.62 1.43h-.04Zm22.45 11.95c.5 0 1 .08 1.48.24a.7.7 0 0 1 .46.46l.08.22.3.96.17.62.15.56.62 2.1c.08.25.17.55.28.82.12.3.34.52.63.64a7.8 7.8 0 0 0 2.61.37s1.05-.04 1.5-.02h.3c.58 0 1.2-.06 1.93-.2l.54-.12c.2 0 .34-.11.45-.35.2-.4.25-.82.17-1.26a19.98 19.98 0 0 0-.6-2.31l-.24-.81-.26-.99-.23-.88-.18-.66c-.1-.31-.19-.63-.27-.95-.32-1.29-.73-2.57-1.12-3.82l-.33-1.05-.14-.4a7.1 7.1 0 0 1-.25-.87l-.2-.83-.11-.44c-.1-.38-.22-.76-.33-1.13-.2-.63-.4-1.27-.48-1.94-.02-.15-.4-1.35-.48-1.96-.05-.38-.35-1.4-.4-1.55l-.14-.44-.23-.7a213.49 213.49 0 0 0-.97-2.84c-.16-.45-.26-.93-.44-1.39a2.02 2.02 0 0 0-.38-.67c-.14-.15-.3-.29-.44-.45-.35-.37-.79-.6-1.35-.7a7.23 7.23 0 0 0-1.62-.17h-1.11l-.76.03-1.3.04c-.85.02-1.4.4-1.67 1.14a86 86 0 0 1-.18.49c-.14.37-.26.76-.38 1.14-.17.56-.36 1.14-.6 1.69-.04.1-.28 1.01-.37 1.36l-.68 2.69-.34 1.33c-.29 1.12-.59 2.28-.87 3.43-.08.32-.14.65-.2.97a23.61 23.61 0 0 1-.78 3.31 79.01 79.01 0 0 1-.41 1.69l-.2.72c-.13.52-.27 1.05-.38 1.57 0 0-.19.99-.3 1.38l-.65 2.37c-.23.88-.45 1.74-.54 2.64-.05.53.13.9.58 1.14.51.29 1 .42 1.51.43 0 0 .98 0 1.42.04.38.04.78.06 1.2.05a190.7 190.7 0 0 0 2.08-.06.83.83 0 0 0 .33-.12c.34-.25.7-.58.92-1.05.44-1 .73-1.97.87-2.97.06-.43.13-.89.23-1.4.1-.56.43-.9.98-1.02.38-.08.76-.12 1.12-.12Zm.74-6.91h-.42l-.02-.01a5.26 5.26 0 0 0-.42-.02 4.4 4.4 0 0 1-.79-.06l-.1-.02c-.23-.03-.5-.08-.72-.17-.29-.12-.28-.56-.28-.64 0-.13.01-.26.05-.39.3-1.13.62-2.25.94-3.38.13-.47.42-.85.85-1.12a.39.39 0 0 1 .2-.05c.13 0 .28.04.36.16l.08.13a7.5 7.5 0 0 1 .62 1.43c.21.78.44 1.61.72 2.7.05.17.06.34.07.5v.06c.03.32-.13.58-.44.72a1.59 1.59 0 0 1-.7.16Z"/></g></svg>