<svg xmlns="http://www.w3.org/2000/svg" baseProfile="tiny" version="1.2" viewBox="0 0 100 100"><g fill="#4DAEE2"><path d="M37.51 65.73c0-2.37.01-4.73-.01-7.1-.01-.62.23-.89.84-.88.59.01 1.17.01 1.76 0 1.1 0 1.04-.04 1.04 1.06v.79c.2-.13.49-.31.67-.45 2.24-1.74 4.73-2.2 7.39-1.25 1.69.6 2.43 2.05 2.51 3.74.12 2.4.1 4.81.13 7.22.01 1.32-.02 2.64 0 3.96.01.62-.18.94-.86.92-.65-.02-1.3.02-1.94.06-.63.04-.84-.25-.84-.86.01-2.99 0-5.99-.01-8.98-.01-2.79-1.91-4.09-4.57-3.08-.54.21-1.05.52-1.54.84-.64.43-.96.99-.95 1.84.05 3.03-.01 6.07.02 9.11.01.76-.19 1.14-1.02 1.07-.6-.05-1.21-.03-1.81 0-.6.03-.8-.23-.8-.82 0-2.42-.01-4.8-.01-7.19zM68.55 65.82c0-1.36-.02-2.72.01-4.08.01-.57-.18-.78-.75-.77-2.02.01-1.78.19-1.79-1.84-.01-1.39 0-1.44 1.43-1.37.87.04 1.21-.2 1.12-1.11-.08-.79 0-1.59-.01-2.39-.01-.55.21-.82.78-.8.71.02 1.42.02 2.14 0 .51-.01.72.2.72.7-.01.98.01 1.97 0 2.95-.01.46.18.64.64.63.61-.01 1.21.01 1.82.02.48.01.69.21.71.73.06 2.45.07 2.47-2.36 2.47-.65 0-.82.24-.81.85.03 2.37 0 4.73.01 7.1.01 1.78.94 2.37 2.59 1.71.14-.06.49.1.56.24.2.41.28.88.46 1.3.32.74.06 1.16-.63 1.5-1.72.84-4.45.49-5.64-.78-.78-.84-.94-1.9-.97-2.98-.04-1.36-.01-2.72-.01-4.08h-.02zM6.72 65.7c0-2.36.01-4.73-.01-7.09 0-.61.21-.89.84-.86.63.03 1.26.03 1.88 0 .62-.03.89.25.89.85 0 .27.02.54.02.82 0 4.25 0 8.5-.01 12.74 0 1.54-.02 1.55-1.54 1.61-.52.02-1.06.03-1.56-.1-.22-.06-.49-.48-.49-.74-.03-2.42-.02-4.83-.02-7.23zM61.63 65.8c0 2.36-.01 4.73.01 7.09.01.59-.18.84-.79.81-.69-.04-1.38-.02-2.07 0-.46.01-.69-.15-.69-.65.01-4.85.01-9.7 0-14.55 0-.47.18-.69.66-.69.67 0 1.34-.04 2.01-.06.62-.02.9.24.89.9-.04 2.38-.02 4.77-.02 7.15zM62 53.85c-.01 1.27-.89 2.12-2.19 2.11-1.23-.01-2.19-.92-2.19-2.1 0-1.24.99-2.21 2.24-2.2 1.26.01 2.15.92 2.14 2.19zM8.45 55.96c-1.23 0-2.19-.95-2.21-2.16-.02-1.15 1.03-2.14 2.26-2.13 1.21.01 2.22 1 2.2 2.18-.02 1.18-1.01 2.11-2.25 2.11zM28.87 57.75c-1.24 0-1.26.03-1.28 1.25 0 .16-.04.33-.06.49-.14-.1-.31-.18-.43-.3-3-2.81-7.9-2.26-10.14 1.18-1.63 2.5-1.71 5.28-1.02 8.05 1.07 4.3 4.99 6.38 9.01 4.86 1.61-.64 2.69-1.75 2.69-1.76.01.19.02.41.02.58-.01.46-.06.92-.08 1.38-.06 1.55-.84 2.62-2.23 3.2-1.98.82-3.93.61-5.81-.37-.56-.29-1.24-.99-1.62-.85-.51.19-.79 1.01-1.17 1.56-.19.38-.09.81.06 1.06.13.23.44.37.68.54 2.21 1.53 4.72 1.7 7.24 1.39 4.02-.49 6.63-2.87 6.5-7.3-.06-2.15-.01-4.31-.01-6.47h.02c0-2.07.03-4.15-.01-6.22-.05-2.49.58-2.26-2.36-2.27zM26.5 69.73c-3 2.08-6.68.48-7.18-3.12-.19-1.41-.05-2.78.66-4.08 1.45-2.64 5.78-2.58 7.54-.08.14.2.17.51.17.78.02.79.01 1.59.01 2.39 0 .61-.06 1.22.01 1.82.14 1.07-.42 1.74-1.21 2.29zM95.17 64.3c-.72-5.41-5.45-8.09-10.51-6.41-4.55 1.52-6.31 6.63-4.76 10.97 2.29 6.42 10.14 6.17 13.69 3.46.54-.41.66-.8.16-1.33-.3-.32-.52-.71-.76-1.08-.25-.38-.52-.42-.88-.14-1.38 1.06-2.95 1.4-4.67 1.28-1.95-.13-3.66-1.49-4.16-3.37-.14-.54.01-.71.56-.71 1.78.02 9.73-.07 10.79-.07.34 0 .52.02.59-.5.06-.46.03-1.44-.05-2.1zm-4.24.08h-3.51c-1.23 0-2.47-.01-3.7 0-.45 0-.66-.14-.56-.64.38-1.8 2.04-3.31 3.74-3.38 2.53-.11 4.16.9 4.77 2.97.27.89.16 1.05-.74 1.05z"/></g><path fill="#4DAEE2" d="M14.78 44.78c-3.41 0-6.83.01-10.24-.02-.3 0-.9-.11-.9-.36s.44-.48.71-.58c5.91-2.23 11.83-4.45 17.75-6.66.47-.18.92-.42 1.41-.54.72-.18.59-.5.27-.97-3.68-5.4-7.34-10.8-11.01-16.21-.08-.12-.7-.93-.31-1.61.18-.26.82-.38 1.19-.28 2.77.72 5.53 1.51 8.29 2.28 3.67 1.02 7.34 2.04 11 3.09.68.2.91.01.93-.67.07-2.74.15-5.48.25-8.22.15-3.85.32-7.69.49-11.54.01-.15.01-1.06.7-1.32.28-.09.79.12 1.01.37 1.08 1.25 2.11 2.55 3.15 3.83 3.06 3.79 6.12 7.59 9.19 11.38.85 1.05.87 1.05 1.69.02 3.46-4.34 6.91-8.68 10.36-13.02.57-.72 1.13-1.47 1.78-2.11.28-.27.85-.49 1.19-.39.27.08.55.66.56 1.03.22 4.45.38 8.91.57 13.36.1 2.26.23 4.51.33 6.77.02.5.23.61.69.48 4.94-1.36 9.89-2.72 14.83-4.07 1.43-.39 2.87-.78 4.31-1.16.2-.05 1.19-.32 1.66.4.15.24 0 .78-.19 1.07-1.36 2.09-2.77 4.14-4.16 6.21-2.29 3.41-4.57 6.82-6.86 10.22-.34.5-.38.79.3 1.05 5.18 1.93 10.34 3.89 15.51 5.85 1.17.45 2.34.91 3.5 1.4.18.08.45.3.41.53-.03.23-.4.32-.6.33-.77.05-1.55.03-2.32.03-5.8.01-11.6 0-17.4.04-1.05.01-1.96-.27-2.87-.75-1.88-1-3.79-1.96-5.7-2.92-1.43-.71-1.64-1.26-.88-2.67 1.25-2.35 2.54-4.67 3.79-7.01.1-.18.19-.56.16-.63-.04-.07-.41-.03-.6.01-2.88.55-5.75 1.12-8.63 1.68-1.24.24-1.62.02-1.78-1.24-.37-2.86-.69-5.73-1.04-8.59-.03-.22-.07-.6-.19-.64-.12-.05-.41.24-.57.41-1.92 1.99-3.82 3.99-5.74 5.98-1 1.04-1.37 1.06-2.36.01-1.88-1.99-3.73-4.02-5.59-6.03-.14-.15-.31-.41-.48-.38-.17.03-.22.39-.26.59-.43 2.71-.84 5.42-1.28 8.12-.26 1.57-.45 1.72-2.02 1.46-2.79-.46-5.57-.96-8.35-1.44-.23-.04-.64-.1-.71.04-.07.14.16.41.27.61 1.4 2.6 2.82 5.19 4.22 7.79.36.66.24 1.21-.48 1.56-2.63 1.29-5.26 2.59-7.9 3.87-.27.13-.61.13-.92.13-3.39.01-10.13.02-10.13.03zM5.32 90.47c0-1.4.02-2.81-.01-4.21-.01-.57.21-.73.78-.76.6-.03 1.51-.15 1.51.75.92-.75 1.88-.89 3.03-.98 1.15-.09 1.87.28 2.51 1.14.09.12.58.11.71-.02.92-.85 1.98-1.2 3.22-1.13 1.36.08 2.4 1.04 2.43 2.4.05 2.37.03 4.73-.01 7.1 0 .22-.37.5-.63.62-.22.11-.53.01-.81.03-.57.03-.78-.25-.78-.8.01-1.82 0-3.64-.02-5.47-.01-1.38-.41-1.81-1.6-1.79-1.28.02-2.05.74-2.07 1.91-.02 1.78-.07 3.56-.07 5.34 0 .59-.21.89-.81.81-.54-.08-1.37.37-1.39-.72-.03-1.9-.05-3.81-.08-5.71-.02-1.18-.43-1.62-1.5-1.62-1.21 0-2.14.74-2.16 1.71-.03 1.86-.07 3.72-.09 5.59-.01 1.08-.82.68-1.37.76-.58.08-.83-.19-.81-.8.03-1.39.02-2.77.02-4.15zM75.06 90.38c0-1.36.02-2.72-.01-4.08-.01-.59.19-.89.8-.8.59.08 1.45-.35 1.49.78.17-.03.37-.01.5-.09 1.22-.85 2.55-1.15 4-.78 1.22.31 1.98 1.17 2.02 2.42.08 2.32.09 4.65.07 6.97 0 .21-.39.59-.63.61-1.57.14-1.67.04-1.68-1.53-.02-1.57 0-3.14-.02-4.71-.02-1.36-.68-1.94-2.03-1.81-1.7.17-2.26.78-2.26 2.49 0 1.59-.03 3.18 0 4.77.02.89-.56.82-1.14.82-.58 0-1.15.06-1.13-.83.05-1.42.02-2.83.02-4.23zM33.48 90.38c0-1.36.02-2.72-.01-4.08-.01-.59.19-.86.8-.8.31.03.63-.02.94.03.18.03.47.18.47.29.06.94.47.49.84.24.98-.67 2.06-.9 3.23-.78 1.62.17 2.56 1.14 2.62 2.96.07 2.15.02 4.31.02 6.47 0 .51-.25.72-.74.71-.15 0-.3-.02-.44.01-.85.12-1.14-.23-1.11-1.09.06-1.61.01-3.22.01-4.84-.01-1.47-.61-2.21-1.8-2.21-1.57-.01-2.55.86-2.56 2.26-.01 1.68-.03 3.35 0 5.03.01.62-.2.85-.84.85-1.43-.01-1.44.01-1.45-1.4.01-1.22.01-2.44.02-3.65-.01 0-.01 0 0 0zM48 95.46c-1.83-.06-2.56-.64-2.57-2.48-.01-1.55-.03-3.39-.01-4.94.01-.61-.08-.69-.62-.69-.43 0-.92-.01-.98-.06-.05-.05-.07-.55-.07-.92-.01-.32-.02-.81.04-.87.05-.06.45-.02.83-.01.35-.01.63-.04.72-.12.08-.08.13-.41.09-.72-.01-.08 0-.17 0-.25 0-.76-.04-1.31.02-1.53.22-.1 1.11-.06 1.11-.06s.85-.04 1.04.08c.02.25.02.92.03 1.18-.01.3-.01 1.25.06 1.33.06.09.6.04.77.04.78 0 .9.04.99.18.1.13.09.59.08.71-.03.45.07.87-.03.98s-.97.06-1.27.08c-.56 0-.55-.01-.55.71 0 1.13-.01 3.37-.01 4.43s.79 1.09 1.62.9c.42-.09.54.83.56 1.25s-.85.81-1.85.78zM63.11 85.57c.03-.06.09-.07.09-.07h1.85s.07-.02.11.04c.04.05.03.04.04.13 0 .22-.02.67-.02.99.26-.24 1.54-1.39 3.09-1.37.06-.01.16 0 .18.14.06.37 0 1.19 0 1.73-.02.09-.12.2-.3.2-.41-.02-1.99-.15-2.85 1.24-.07.07-.06 1.28-.06 1.28s.01 5.26.01 5.29c0 .03.01.04-.03.08-.04.03-.13.02-.1.02h-.99s-.73-.02-.85-.02c-.12-.01-.15-.02-.18-.05s-.02-.05-.02-.16.01-8.52.01-9.28c0-.07-.01-.13.02-.19zM72.45 94.54c.01.64-.19.9-.86.89-1.41-.03-1.41 0-1.41-1.4 0-2.55.02-5.11-.01-7.66-.01-.64.19-.9.86-.89 1.42.02 1.42-.01 1.43 1.4-.01 1.19-.04 6.3-.01 7.66zM71.23 84.38c-.78-.01-1.33-.59-1.32-1.37.01-.77.59-1.31 1.39-1.3.8.02 1.39.62 1.36 1.41-.02.73-.63 1.27-1.43 1.26zM29.16 85.92c-2.1-1.25-4.74-.8-6.34 1-1.52 1.71-1.66 4.82-.3 6.67 1.54 2.1 4.77 2.7 7.27 1.35 1.09-.59 1.12-.75.44-1.73-.27-.39-.51-.44-.93-.21-.55.29-1.13.57-1.73.7-1.42.31-2.92-.54-3.38-1.78-.19-.52-.06-.76.5-.75 1.03.01 2.05 0 3.08 0v-.01c1.05 0 2.09.03 3.14-.02.23-.01.64-.34.64-.51-.06-1.94-.63-3.66-2.39-4.71zm-.48 3.7c-.69-.01-1.38 0-2.07 0-.73 0-1.47.03-2.19-.03-.16-.01-.43-.37-.4-.53.21-1.15 1.31-1.98 2.61-2.03 1.1-.04 2.26.79 2.58 1.83.16.51.04.78-.53.76zM55.87 85.26c-2.92 0-5.03 2.16-5.03 5.17-.01 3.06 2.05 5.14 5.08 5.15 3.13 0 5.16-2.03 5.18-5.2.02-2.97-2.17-5.12-5.23-5.12zm2.61 6.63c-.76 1.81-2.3 2.11-3.78 1.44-1.13-.51-1.57-1.62-1.51-2.88 0-1.49.64-2.57 1.63-3.01.6-.26 1.32-.29 2.11-.04 1.52.48 2.3 2.71 1.55 4.49zM94.21 85.29c-.77 0-.78.02-.8.78 0 .1-.02.2-.03.31-.09-.06-.19-.11-.27-.19-1.87-1.76-4.93-1.41-6.33.74-1.02 1.56-1.07 3.29-.64 5.03.67 2.68 3.11 3.98 5.62 3.03 1-.4 1.68-1.09 1.68-1.1.01.12.01.26.01.36 0 .29-.04.57-.05.86-.04.96-.52 1.64-1.39 2-1.24.51-2.45.38-3.63-.23-.35-.18-.77-.62-1.01-.53-.32.12-.49.63-.73.98-.12.24-.05.5.04.66.08.15.28.23.43.34 1.38.96 2.94 1.06 4.52.87 2.51-.3 4.14-1.79 4.06-4.56-.04-1.34-.01-2.69-.01-4.04h.01c0-1.29.02-2.59 0-3.88-.04-1.57.36-1.43-1.48-1.43zm-1.48 7.47c-1.88 1.3-4.17.3-4.48-1.95-.12-.88-.03-1.74.41-2.54.91-1.65 3.61-1.61 4.71-.05.09.13.1.32.11.48.01.5 0 .99 0 1.49 0 .38-.04.76.01 1.14.09.68-.26 1.09-.76 1.43z"/></svg>