<?xml version="1.0" encoding="utf-8"?>
<!-- Generator: Adobe Illustrator 24.0.0, SVG Export Plug-In . SVG Version: 6.00 Build 0)  -->
<svg version="1.2" baseProfile="tiny" id="Layer_1" xmlns="http://www.w3.org/2000/svg" xmlns:xlink="http://www.w3.org/1999/xlink"
	 x="0px" y="0px" viewBox="0 0 100 100" xml:space="preserve">
<g id="ignite">
	<path fill="#4DAEE2" d="M37.51,65.73c0-2.37,0.01-4.73-0.01-7.1c-0.01-0.62,0.23-0.89,0.84-0.88c0.59,0.01,1.17,0.01,1.76,0
		c1.1,0,1.04-0.04,1.04,1.06c0,0.71,0,0,0,0.79c0.2-0.13,0.49-0.31,0.67-0.45c2.24-1.74,4.73-2.2,7.39-1.25
		c1.69,0.6,2.43,2.05,2.51,3.74c0.12,2.4,0.1,4.81,0.13,7.22c0.01,1.32-0.02,2.64,0,3.96c0.01,0.62-0.18,0.94-0.86,0.92
		c-0.65-0.02-1.3,0.02-1.94,0.06c-0.63,0.04-0.84-0.25-0.84-0.86c0.01-2.99,0-5.99-0.01-8.98c-0.01-2.79-1.91-4.09-4.57-3.08
		c-0.54,0.21-1.05,0.52-1.54,0.84c-0.64,0.43-0.96,0.99-0.95,1.84c0.05,3.03-0.01,6.07,0.02,9.11c0.01,0.76-0.19,1.14-1.02,1.07
		c-0.6-0.05-1.21-0.03-1.81,0c-0.6,0.03-0.8-0.23-0.8-0.82C37.52,70.5,37.51,68.12,37.51,65.73C37.51,65.73,37.51,65.73,37.51,65.73
		z"/>
	<path fill="#4DAEE2" d="M68.55,65.82c0-1.36-0.02-2.72,0.01-4.08c0.01-0.57-0.18-0.78-0.75-0.77c-2.02,0.01-1.78,0.19-1.79-1.84
		c-0.01-1.39,0-1.44,1.43-1.37c0.87,0.04,1.21-0.2,1.12-1.11c-0.08-0.79,0-1.59-0.01-2.39c-0.01-0.55,0.21-0.82,0.78-0.8
		c0.71,0.02,1.42,0.02,2.14,0c0.51-0.01,0.72,0.2,0.72,0.7c-0.01,0.98,0.01,1.97,0,2.95c-0.01,0.46,0.18,0.64,0.64,0.63
		c0.61-0.01,1.21,0.01,1.82,0.02c0.48,0.01,0.69,0.21,0.71,0.73c0.06,2.45,0.07,2.47-2.36,2.47c-0.65,0-0.82,0.24-0.81,0.85
		c0.03,2.37,0,4.73,0.01,7.1c0.01,1.78,0.94,2.37,2.59,1.71c0.14-0.06,0.49,0.1,0.56,0.24c0.2,0.41,0.28,0.88,0.46,1.3
		c0.32,0.74,0.06,1.16-0.63,1.5c-1.72,0.84-4.45,0.49-5.64-0.78c-0.78-0.84-0.94-1.9-0.97-2.98c-0.04-1.36-0.01-2.72-0.01-4.08
		C68.56,65.82,68.55,65.82,68.55,65.82z"/>
	<path fill="#4DAEE2" d="M6.72,65.7c0-2.36,0.01-4.73-0.01-7.09c0-0.61,0.21-0.89,0.84-0.86c0.63,0.03,1.26,0.03,1.88,0
		c0.62-0.03,0.89,0.25,0.89,0.85c0,0.27,0.02,0.54,0.02,0.82c0,4.25,0,8.5-0.01,12.74c0,1.54-0.02,1.55-1.54,1.61
		c-0.52,0.02-1.06,0.03-1.56-0.1c-0.22-0.06-0.49-0.48-0.49-0.74C6.71,70.51,6.72,68.1,6.72,65.7z"/>
	<path fill="#4DAEE2" d="M61.63,65.8c0,2.36-0.01,4.73,0.01,7.09c0.01,0.59-0.18,0.84-0.79,0.81c-0.69-0.04-1.38-0.02-2.07,0
		c-0.46,0.01-0.69-0.15-0.69-0.65c0.01-4.85,0.01-9.7,0-14.55c0-0.47,0.18-0.69,0.66-0.69c0.67,0,1.34-0.04,2.01-0.06
		c0.62-0.02,0.9,0.24,0.89,0.9C61.61,61.03,61.63,63.42,61.63,65.8z"/>
	<path fill="#4DAEE2" d="M62,53.85c-0.01,1.27-0.89,2.12-2.19,2.11c-1.23-0.01-2.19-0.92-2.19-2.1c0-1.24,0.99-2.21,2.24-2.2
		C61.12,51.67,62.01,52.58,62,53.85z"/>
	<path fill="#4DAEE2" d="M8.45,55.96c-1.23,0-2.19-0.95-2.21-2.16c-0.02-1.15,1.03-2.14,2.26-2.13c1.21,0.01,2.22,1,2.2,2.18
		C10.68,55.03,9.69,55.96,8.45,55.96z"/>
	<path fill="#4DAEE2" d="M28.87,57.75c-1.24,0-1.26,0.03-1.28,1.25c0,0.16-0.04,0.33-0.06,0.49c-0.14-0.1-0.31-0.18-0.43-0.3
		c-3-2.81-7.9-2.26-10.14,1.18c-1.63,2.5-1.71,5.28-1.02,8.05c1.07,4.3,4.99,6.38,9.01,4.86c1.61-0.64,2.69-1.75,2.69-1.76
		c0.01,0.19,0.02,0.41,0.02,0.58c-0.01,0.46-0.06,0.92-0.08,1.38c-0.06,1.55-0.84,2.62-2.23,3.2c-1.98,0.82-3.93,0.61-5.81-0.37
		c-0.56-0.29-1.24-0.99-1.62-0.85c-0.51,0.19-0.79,1.01-1.17,1.56c-0.19,0.38-0.09,0.81,0.06,1.06c0.13,0.23,0.44,0.37,0.68,0.54
		c2.21,1.53,4.72,1.7,7.24,1.39c4.02-0.49,6.63-2.87,6.5-7.3c-0.06-2.15-0.01-4.31-0.01-6.47c0.01,0,0.01,0,0.02,0
		c0-2.07,0.03-4.15-0.01-6.22C31.18,57.53,31.81,57.76,28.87,57.75z M26.5,69.73c-3,2.08-6.68,0.48-7.18-3.12
		c-0.19-1.41-0.05-2.78,0.66-4.08c1.45-2.64,5.78-2.58,7.54-0.08c0.14,0.2,0.17,0.51,0.17,0.78c0.02,0.79,0.01,1.59,0.01,2.39
		c0,0.61-0.06,1.22,0.01,1.82C27.85,68.51,27.29,69.18,26.5,69.73z"/>
	<path fill="#4DAEE2" d="M95.17,64.3c-0.72-5.41-5.45-8.09-10.51-6.41c-4.55,1.52-6.31,6.63-4.76,10.97
		c2.29,6.42,10.14,6.17,13.69,3.46c0.54-0.41,0.66-0.8,0.16-1.33c-0.3-0.32-0.52-0.71-0.76-1.08c-0.25-0.38-0.52-0.42-0.88-0.14
		c-1.38,1.06-2.95,1.4-4.67,1.28c-1.95-0.13-3.66-1.49-4.16-3.37c-0.14-0.54,0.01-0.71,0.56-0.71c1.78,0.02,9.73-0.07,10.79-0.07
		c0.34,0,0.52,0.02,0.59-0.5C95.28,65.94,95.25,64.96,95.17,64.3z M90.93,64.38c-1.17,0-2.34,0-3.51,0c-1.23,0-2.47-0.01-3.7,0
		c-0.45,0-0.66-0.14-0.56-0.64c0.38-1.8,2.04-3.31,3.74-3.38c2.53-0.11,4.16,0.9,4.77,2.97C91.94,64.22,91.83,64.38,90.93,64.38z"/>
</g>
<path id="Logo" fill="#4DAEE2" d="M14.78,44.78c-3.41,0-6.83,0.01-10.24-0.02c-0.3,0-0.9-0.11-0.9-0.36s0.44-0.48,0.71-0.58
	c5.91-2.23,11.83-4.45,17.75-6.66c0.47-0.18,0.92-0.42,1.41-0.54c0.72-0.18,0.59-0.5,0.27-0.97c-3.68-5.4-7.34-10.8-11.01-16.21
	c-0.08-0.12-0.7-0.93-0.31-1.61c0.18-0.26,0.82-0.38,1.19-0.28c2.77,0.72,5.53,1.51,8.29,2.28c3.67,1.02,7.34,2.04,11,3.09
	c0.68,0.2,0.91,0.01,0.93-0.67c0.07-2.74,0.15-5.48,0.25-8.22c0.15-3.85,0.32-7.69,0.49-11.54c0.01-0.15,0.01-1.06,0.7-1.32
	c0.28-0.09,0.79,0.12,1.01,0.37c1.08,1.25,2.11,2.55,3.15,3.83c3.06,3.79,6.12,7.59,9.19,11.38c0.85,1.05,0.87,1.05,1.69,0.02
	c3.46-4.34,6.91-8.68,10.36-13.02c0.57-0.72,1.13-1.47,1.78-2.11c0.28-0.27,0.85-0.49,1.19-0.39c0.27,0.08,0.55,0.66,0.56,1.03
	c0.22,4.45,0.38,8.91,0.57,13.36c0.1,2.26,0.23,4.51,0.33,6.77c0.02,0.5,0.23,0.61,0.69,0.48c4.94-1.36,9.89-2.72,14.83-4.07
	c1.43-0.39,2.87-0.78,4.31-1.16c0.2-0.05,1.19-0.32,1.66,0.4c0.15,0.24,0,0.78-0.19,1.07c-1.36,2.09-2.77,4.14-4.16,6.21
	c-2.29,3.41-4.57,6.82-6.86,10.22c-0.34,0.5-0.38,0.79,0.3,1.05c5.18,1.93,10.34,3.89,15.51,5.85c1.17,0.45,2.34,0.91,3.5,1.4
	c0.18,0.08,0.45,0.3,0.41,0.53c-0.03,0.23-0.4,0.32-0.6,0.33c-0.77,0.05-1.55,0.03-2.32,0.03c-5.8,0.01-11.6,0-17.4,0.04
	c-1.05,0.01-1.96-0.27-2.87-0.75c-1.88-1-3.79-1.96-5.7-2.92c-1.43-0.71-1.64-1.26-0.88-2.67c1.25-2.35,2.54-4.67,3.79-7.01
	c0.1-0.18,0.19-0.56,0.16-0.63c-0.04-0.07-0.41-0.03-0.6,0.01c-2.88,0.55-5.75,1.12-8.63,1.68c-1.24,0.24-1.62,0.02-1.78-1.24
	c-0.37-2.86-0.69-5.73-1.04-8.59c-0.03-0.22-0.07-0.6-0.19-0.64c-0.12-0.05-0.41,0.24-0.57,0.41c-1.92,1.99-3.82,3.99-5.74,5.98
	c-1,1.04-1.37,1.06-2.36,0.01c-1.88-1.99-3.73-4.02-5.59-6.03c-0.14-0.15-0.31-0.41-0.48-0.38c-0.17,0.03-0.22,0.39-0.26,0.59
	c-0.43,2.71-0.84,5.42-1.28,8.12c-0.26,1.57-0.45,1.72-2.02,1.46c-2.79-0.46-5.57-0.96-8.35-1.44c-0.23-0.04-0.64-0.1-0.71,0.04
	c-0.07,0.14,0.16,0.41,0.27,0.61c1.4,2.6,2.82,5.19,4.22,7.79c0.36,0.66,0.24,1.21-0.48,1.56c-2.63,1.29-5.26,2.59-7.9,3.87
	c-0.27,0.13-0.61,0.13-0.92,0.13C21.52,44.76,14.78,44.77,14.78,44.78z"/>
<path fill="#4DAEE2" d="M5.32,90.47c0-1.4,0.02-2.81-0.01-4.21c-0.01-0.57,0.21-0.73,0.78-0.76c0.6-0.03,1.51-0.15,1.51,0.75
	c0.92-0.75,1.88-0.89,3.03-0.98c1.15-0.09,1.87,0.28,2.51,1.14c0.09,0.12,0.58,0.11,0.71-0.02c0.92-0.85,1.98-1.2,3.22-1.13
	c1.36,0.08,2.4,1.04,2.43,2.4c0.05,2.37,0.03,4.73-0.01,7.1c0,0.22-0.37,0.5-0.63,0.62c-0.22,0.11-0.53,0.01-0.81,0.03
	c-0.57,0.03-0.78-0.25-0.78-0.8c0.01-1.82,0-3.64-0.02-5.47c-0.01-1.38-0.41-1.81-1.6-1.79c-1.28,0.02-2.05,0.74-2.07,1.91
	c-0.02,1.78-0.07,3.56-0.07,5.34c0,0.59-0.21,0.89-0.81,0.81c-0.54-0.08-1.37,0.37-1.39-0.72c-0.03-1.9-0.05-3.81-0.08-5.71
	c-0.02-1.18-0.43-1.62-1.5-1.62c-1.21,0-2.14,0.74-2.16,1.71c-0.03,1.86-0.07,3.72-0.09,5.59c-0.01,1.08-0.82,0.68-1.37,0.76
	c-0.58,0.08-0.83-0.19-0.81-0.8C5.33,93.23,5.32,91.85,5.32,90.47z"/>
<path fill="#4DAEE2" d="M75.06,90.38c0-1.36,0.02-2.72-0.01-4.08c-0.01-0.59,0.19-0.89,0.8-0.8c0.59,0.08,1.45-0.35,1.49,0.78
	c0.17-0.03,0.37-0.01,0.5-0.09c1.22-0.85,2.55-1.15,4-0.78c1.22,0.31,1.98,1.17,2.02,2.42c0.08,2.32,0.09,4.65,0.07,6.97
	c0,0.21-0.39,0.59-0.63,0.61c-1.57,0.14-1.67,0.04-1.68-1.53c-0.02-1.57,0-3.14-0.02-4.71c-0.02-1.36-0.68-1.94-2.03-1.81
	c-1.7,0.17-2.26,0.78-2.26,2.49c0,1.59-0.03,3.18,0,4.77c0.02,0.89-0.56,0.82-1.14,0.82c-0.58,0-1.15,0.06-1.13-0.83
	C75.09,93.19,75.06,91.78,75.06,90.38z"/>
<path fill="#4DAEE2" d="M33.48,90.38c0-1.36,0.02-2.72-0.01-4.08c-0.01-0.59,0.19-0.86,0.8-0.8c0.31,0.03,0.63-0.02,0.94,0.03
	c0.18,0.03,0.47,0.18,0.47,0.29c0.06,0.94,0.47,0.49,0.84,0.24c0.98-0.67,2.06-0.9,3.23-0.78c1.62,0.17,2.56,1.14,2.62,2.96
	c0.07,2.15,0.02,4.31,0.02,6.47c0,0.51-0.25,0.72-0.74,0.71c-0.15,0-0.3-0.02-0.44,0.01c-0.85,0.12-1.14-0.23-1.11-1.09
	c0.06-1.61,0.01-3.22,0.01-4.84c-0.01-1.47-0.61-2.21-1.8-2.21c-1.57-0.01-2.55,0.86-2.56,2.26c-0.01,1.68-0.03,3.35,0,5.03
	c0.01,0.62-0.2,0.85-0.84,0.85c-1.43-0.01-1.44,0.01-1.45-1.4C33.47,92.81,33.47,91.59,33.48,90.38
	C33.47,90.38,33.47,90.38,33.48,90.38z"/>
<path fill="#4DAEE2" d="M48,95.46c-1.83-0.06-2.56-0.64-2.57-2.48c-0.01-1.55-0.03-3.39-0.01-4.94c0.01-0.61-0.08-0.69-0.62-0.69
	c-0.43,0-0.92-0.01-0.98-0.06c-0.05-0.05-0.07-0.55-0.07-0.92c-0.01-0.32-0.02-0.81,0.04-0.87c0.05-0.06,0.45-0.02,0.83-0.01
	c0.35-0.01,0.63-0.04,0.72-0.12c0.08-0.08,0.13-0.41,0.09-0.72c-0.01-0.08,0-0.17,0-0.25c0-0.76-0.04-1.31,0.02-1.53
	c0.22-0.1,1.11-0.06,1.11-0.06s0.85-0.04,1.04,0.08c0.02,0.25,0.02,0.92,0.03,1.18c-0.01,0.3-0.01,1.25,0.06,1.33
	c0.06,0.09,0.6,0.04,0.77,0.04c0.78,0,0.9,0.04,0.99,0.18c0.1,0.13,0.09,0.59,0.08,0.71c-0.03,0.45,0.07,0.87-0.03,0.98
	s-0.97,0.06-1.27,0.08c-0.56,0-0.55-0.01-0.55,0.71c0,1.13-0.01,3.37-0.01,4.43s0.79,1.09,1.62,0.9c0.42-0.09,0.54,0.83,0.56,1.25
	S49,95.49,48,95.46z"/>
<path fill="#4DAEE2" d="M63.11,85.57c0.03-0.06,0.09-0.07,0.09-0.07l1.85,0c0,0,0.07-0.02,0.11,0.04c0.04,0.05,0.03,0.04,0.04,0.13
	c0,0.22-0.02,0.67-0.02,0.99c0.26-0.24,1.54-1.39,3.09-1.37c0.06-0.01,0.16,0,0.18,0.14c0.06,0.37,0,1.19,0,1.73
	c-0.02,0.09-0.12,0.2-0.3,0.2c-0.41-0.02-1.99-0.15-2.85,1.24c-0.07,0.07-0.06,1.28-0.06,1.28s0.01,5.26,0.01,5.29
	c0,0.03,0.01,0.04-0.03,0.08c-0.04,0.03-0.13,0.02-0.1,0.02c0.03,0-0.99,0-0.99,0s-0.73-0.02-0.85-0.02
	c-0.12-0.01-0.15-0.02-0.18-0.05s-0.02-0.05-0.02-0.16c0-0.11,0.01-8.52,0.01-9.28C63.09,85.69,63.08,85.63,63.11,85.57z"/>
<path fill="#4DAEE2" d="M72.45,94.54c0.01,0.64-0.19,0.9-0.86,0.89c-1.41-0.03-1.41,0-1.41-1.4c0-2.55,0.02-5.11-0.01-7.66
	c-0.01-0.64,0.19-0.9,0.86-0.89c1.42,0.02,1.42-0.01,1.43,1.4C72.45,88.07,72.42,93.18,72.45,94.54z"/>
<path fill="#4DAEE2" d="M71.23,84.38c-0.78-0.01-1.33-0.59-1.32-1.37c0.01-0.77,0.59-1.31,1.39-1.3c0.8,0.02,1.39,0.62,1.36,1.41
	C72.64,83.85,72.03,84.39,71.23,84.38z"/>
<path fill="#4DAEE2" d="M29.16,85.92c-2.1-1.25-4.74-0.8-6.34,1c-1.52,1.71-1.66,4.82-0.3,6.67c1.54,2.1,4.77,2.7,7.27,1.35
	c1.09-0.59,1.12-0.75,0.44-1.73c-0.27-0.39-0.51-0.44-0.93-0.21c-0.55,0.29-1.13,0.57-1.73,0.7c-1.42,0.31-2.92-0.54-3.38-1.78
	c-0.19-0.52-0.06-0.76,0.5-0.75c1.03,0.01,2.05,0,3.08,0c0,0,0,0,0-0.01c1.05,0,2.09,0.03,3.14-0.02c0.23-0.01,0.64-0.34,0.64-0.51
	C31.49,88.69,30.92,86.97,29.16,85.92z M28.68,89.62c-0.69-0.01-1.38,0-2.07,0c-0.73,0-1.47,0.03-2.19-0.03
	c-0.16-0.01-0.43-0.37-0.4-0.53c0.21-1.15,1.31-1.98,2.61-2.03c1.1-0.04,2.26,0.79,2.58,1.83C29.37,89.37,29.25,89.64,28.68,89.62z"
	/>
<path fill="#4DAEE2" d="M55.87,85.26c-2.92,0-5.03,2.16-5.03,5.17c-0.01,3.06,2.05,5.14,5.08,5.15c3.13,0,5.16-2.03,5.18-5.2
	C61.12,87.41,58.93,85.26,55.87,85.26z M58.48,91.89c-0.76,1.81-2.3,2.11-3.78,1.44c-1.13-0.51-1.57-1.62-1.51-2.88
	c0-1.49,0.64-2.57,1.63-3.01c0.6-0.26,1.32-0.29,2.11-0.04C58.45,87.88,59.23,90.11,58.48,91.89z"/>
<path fill="#4DAEE2" d="M94.21,85.29c-0.77,0-0.78,0.02-0.8,0.78c0,0.1-0.02,0.2-0.03,0.31c-0.09-0.06-0.19-0.11-0.27-0.19
	c-1.87-1.76-4.93-1.41-6.33,0.74c-1.02,1.56-1.07,3.29-0.64,5.03c0.67,2.68,3.11,3.98,5.62,3.03c1-0.4,1.68-1.09,1.68-1.1
	c0.01,0.12,0.01,0.26,0.01,0.36c0,0.29-0.04,0.57-0.05,0.86c-0.04,0.96-0.52,1.64-1.39,2c-1.24,0.51-2.45,0.38-3.63-0.23
	c-0.35-0.18-0.77-0.62-1.01-0.53c-0.32,0.12-0.49,0.63-0.73,0.98c-0.12,0.24-0.05,0.5,0.04,0.66c0.08,0.15,0.28,0.23,0.43,0.34
	c1.38,0.96,2.94,1.06,4.52,0.87c2.51-0.3,4.14-1.79,4.06-4.56c-0.04-1.34-0.01-2.69-0.01-4.04c0,0,0.01,0,0.01,0
	c0-1.29,0.02-2.59,0-3.88C95.65,85.15,96.05,85.29,94.21,85.29z M92.73,92.76c-1.88,1.3-4.17,0.3-4.48-1.95
	c-0.12-0.88-0.03-1.74,0.41-2.54c0.91-1.65,3.61-1.61,4.71-0.05c0.09,0.13,0.1,0.32,0.11,0.48c0.01,0.5,0,0.99,0,1.49
	c0,0.38-0.04,0.76,0.01,1.14C93.58,92.01,93.23,92.42,92.73,92.76z"/>
</svg>
