<svg width="760" height="372" viewBox="0 0 760 372" fill="none" xmlns="http://www.w3.org/2000/svg">
<mask id="mask0_1068_311" style="mask-type:luminance" maskUnits="userSpaceOnUse" x="6" y="183" width="259" height="183">
<path d="M6.66663 183.344H264.583V365.333H6.66663V183.344Z" fill="white"/>
</mask>
<g mask="url(#mask0_1068_311)">
<mask id="mask1_1068_311" style="mask-type:luminance" maskUnits="userSpaceOnUse" x="6" y="183" width="259" height="182">
<path d="M260.708 183.589H195.865C194.547 183.589 193.453 184.547 193.198 185.854C188.224 213.615 164.214 234.719 135.479 234.719C106.745 234.719 82.7604 213.599 77.7708 185.854C77.5469 184.547 76.4271 183.589 75.1042 183.589H10.2656C8.33333 183.589 6.77083 185.24 6.94791 187.172C12.9583 253.839 68.2917 306.24 135.479 306.24C144.557 306.24 153.411 305.255 161.958 303.437L171.505 362.146C172.016 365.292 176.24 366.052 177.786 363.255L250.641 234.359H250.599C257.828 219.958 262.521 204.042 264.052 187.187C264.224 185.255 262.667 183.599 260.734 183.599L260.708 183.589Z" fill="white"/>
</mask>
<g mask="url(#mask1_1068_311)">
<path d="M0 34.1198H270.932V371.729H0V34.1198Z" fill="#007D85"/>
</g>
</g>
<mask id="mask2_1068_311" style="mask-type:luminance" maskUnits="userSpaceOnUse" x="6" y="40" width="259" height="128">
<path d="M6.66663 40.4688H264.583V167.469H6.66663V40.4688Z" fill="white"/>
</mask>
<g mask="url(#mask2_1068_311)">
<mask id="mask3_1068_311" style="mask-type:luminance" maskUnits="userSpaceOnUse" x="6" y="40" width="259" height="127">
<path d="M74.599 166.786C75.9844 166.786 77.1042 165.734 77.2656 164.375C80.9479 135.078 105.641 112.344 135.469 112.344C136.521 112.344 137.573 112.385 138.625 112.427C138.958 112.427 139.292 112.495 139.641 112.505C140.333 112.547 141.052 112.615 141.745 112.677C142.146 112.719 142.547 112.786 142.922 112.828C143.547 112.906 144.188 113 144.812 113.104C145.214 113.172 145.615 113.255 146.026 113.318C146.641 113.427 147.24 113.547 147.854 113.677C148.255 113.76 148.651 113.865 149.026 113.948C149.641 114.094 150.224 114.24 150.839 114.411C151.214 114.521 151.599 114.625 151.974 114.745C152.589 114.932 153.188 115.12 153.786 115.307C154.146 115.438 154.479 115.531 154.839 115.667C155.469 115.891 156.078 116.135 156.708 116.359C157.026 116.479 157.333 116.615 157.625 116.734C158.281 117 158.948 117.292 159.589 117.599C159.839 117.719 160.094 117.828 160.349 117.958C161.078 118.318 161.802 118.677 162.505 119.052C162.682 119.135 162.828 119.224 162.984 119.307C167.479 121.745 171.641 124.771 175.349 128.266C175.359 128.292 175.385 128.307 175.427 128.333C176.12 129 176.813 129.677 177.495 130.385C177.557 130.469 177.641 130.531 177.708 130.615C178.318 131.266 178.922 131.932 179.521 132.615C187.068 141.333 192.146 152.292 193.667 164.359C193.839 165.719 194.974 166.771 196.359 166.771H260.932C262.839 166.771 264.385 165.172 264.255 163.266C262.281 132.547 249.839 104.693 230.521 83.3073C230.948 81.1198 231.172 78.8802 231.172 76.5469C231.172 56.8125 215.411 40.7865 195.974 40.7865H135.469C67.1615 40.8282 11.0937 95.0105 6.68229 163.281C6.54687 165.172 8.10416 166.786 9.99999 166.786H74.599Z" fill="white"/>
</mask>
<g mask="url(#mask3_1068_311)">
<path d="M0 34.1199H270.932V371.729H0V34.1199Z" fill="#007D85"/>
</g>
</g>
<mask id="mask4_1068_311" style="mask-type:luminance" maskUnits="userSpaceOnUse" x="135" y="86" width="97" height="48">
<path d="M135.469 86.6666H231.776V133.333H135.469V86.6666Z" fill="white"/>
</mask>
<g mask="url(#mask4_1068_311)">
<mask id="mask5_1068_311" style="mask-type:luminance" maskUnits="userSpaceOnUse" x="135" y="86" width="97" height="47">
<path d="M229.734 86.7083C225.437 101.469 212.292 112.213 198 112.213H135.495C153.104 112.213 168.906 120.135 179.667 132.641H197.984C215.427 132.641 231.198 116.641 231.198 96.8801C231.198 93.3333 230.667 89.9062 229.734 86.6926" fill="white"/>
</mask>
<g mask="url(#mask5_1068_311)">
<path d="M0 34.1198H270.932V371.729H0V34.1198Z" fill="#0A223F"/>
</g>
</g>
<mask id="mask6_1068_311" style="mask-type:luminance" maskUnits="userSpaceOnUse" x="161" y="276" width="51" height="55">
<path d="M161.927 276H211.667V330.453H161.927V276Z" fill="white"/>
</mask>
<g mask="url(#mask6_1068_311)">
<mask id="mask7_1068_311" style="mask-type:luminance" maskUnits="userSpaceOnUse" x="161" y="276" width="50" height="54">
<path d="M161.974 303.453C161.974 303.453 191.813 295.307 210.771 276.052C170.188 325.198 166.214 329.599 166.214 329.599L161.974 303.453Z" fill="white"/>
</mask>
<g mask="url(#mask7_1068_311)">
<path d="M0 34.1199H270.932V371.729H0V34.1199Z" fill="#0A223F"/>
</g>
</g>
<mask id="mask8_1068_311" style="mask-type:luminance" maskUnits="userSpaceOnUse" x="99" y="132" width="73" height="87">
<path d="M99.4844 132.547H171.448V218.271H99.4844V132.547Z" fill="white"/>
</mask>
<g mask="url(#mask8_1068_311)">
<mask id="mask9_1068_311" style="mask-type:luminance" maskUnits="userSpaceOnUse" x="99" y="132" width="73" height="86">
<path d="M136.359 208.839C136.453 208.359 135.719 207.922 134.734 207.88C133.745 207.839 133.521 208.266 133.427 208.745C133.333 209.224 133.292 209.958 134.281 210C135.266 210.042 136.266 209.318 136.359 208.839ZM131.88 212.641C131.854 213.214 133.161 214.495 134.161 213.651C135.24 212.734 136.76 212.625 136.802 212.052C136.838 211.479 135.734 211.068 134.375 211.12C133.016 211.172 131.922 212.068 131.891 212.625M121.854 192.078C121.802 192.385 122.052 192.891 122.667 192.922C123.281 192.948 124.052 192.479 124.104 192.188C124.161 191.891 123.708 191.615 123.078 191.573C122.453 191.531 121.906 191.771 121.838 192.078M113.531 183.12C115.146 178.974 116.068 175.906 118.12 172.76C121.104 168.198 124.651 164.625 129.682 165.12C132.224 165.375 136.479 168.224 140.588 168.01C142.187 167.932 142.641 167.266 142.042 166.984C141.094 166.547 140.521 166.161 140.198 165.667C139.802 165.068 140.292 164.479 141.333 164.255C144.948 163.469 155.854 165.641 158.802 173.385C161.573 180.693 156.016 184.12 151.255 187.266C147.349 189.839 140.625 190.094 139.906 185.385C139.479 182.589 134.318 183 135.026 186.479C135.891 190.745 142.948 194.521 152.318 187.948C155.266 185.88 156.453 187.495 155.547 189.734C152.734 196.719 146.411 194.375 144.854 196.188C143.771 197.438 145.479 198.104 145.161 199.292C144.625 201.224 135.865 206.01 124.505 201.104C122.708 200.333 120.625 201.786 122.359 203.469C124.359 205.401 132.734 209.547 151.588 199.495C153.828 198.292 156.292 200.786 152.974 204.026C150.547 206.401 147.161 206.589 145.146 207.135C143.187 207.667 143.854 209.161 145.427 208.76C147 208.359 150.547 206.854 152.359 206.786C154.812 206.708 155.734 208.599 154.266 210.281C152.958 211.771 150.104 213.839 148.042 214.865C145.974 215.891 147.547 218.615 150.146 217.01C180.615 198.344 178.172 150.932 143.307 139.625C142.719 139.438 140.557 138.318 143.865 135.865C145.224 134.854 145.052 133.292 142.958 132.76C139.104 131.76 131.333 135.974 124.094 136.677C121.359 137.094 118.521 137.854 115.557 138.958C96.3333 146.359 96.7083 163.094 105.224 171.521C107.042 173.307 108.802 176.224 107.865 181.599C107.172 185.625 112.469 185.828 113.531 183.078M126.891 191.214C127.891 193.052 131.745 194.469 135.734 192.615C134.104 192.479 131.255 191.76 129.693 189.734C128.469 188.135 126.026 189.589 126.891 191.214ZM141.135 214.094C143.026 213.802 145.531 212.495 146.76 210.531C145.12 211.266 143.042 211.12 140.771 211.318C137.708 211.599 138.385 214.505 141.135 214.078" fill="white"/>
</mask>
<g mask="url(#mask9_1068_311)">
<path d="M0 34.1199H270.932V371.729H0V34.1199Z" fill="#007D85"/>
</g>
</g>
<path d="M358.559 115.457C358.559 129.457 355.017 140.468 347.934 148.478C340.861 156.478 331.028 160.478 318.434 160.478C305.559 160.478 295.621 156.551 288.621 148.687C281.632 140.812 278.142 129.697 278.142 115.332C278.142 101.114 281.647 90.0824 288.663 82.249C295.673 74.4157 305.642 70.499 318.559 70.499C331.111 70.499 340.918 74.4886 347.975 82.4574C355.028 90.4313 358.559 101.431 358.559 115.457ZM288.892 115.457C288.892 127.306 291.413 136.291 296.455 142.416C301.507 148.53 308.835 151.582 318.434 151.582C328.126 151.582 335.439 148.535 340.371 142.437C345.314 136.327 347.788 127.332 347.788 115.457C347.788 103.707 345.33 94.7907 340.413 88.7074C335.496 82.624 328.21 79.5824 318.559 79.5824C308.876 79.5824 301.507 82.6449 296.455 88.7699C291.413 94.8844 288.892 103.78 288.892 115.457Z" fill="#0A223F"/>
<path d="M419.163 79.7074C409.548 79.7074 401.96 82.9105 396.392 89.3115C390.835 95.7022 388.059 104.457 388.059 115.582C388.059 127.03 390.736 135.869 396.1 142.103C401.46 148.343 409.106 151.457 419.038 151.457C425.132 151.457 432.09 150.364 439.913 148.166V157.082C433.84 159.343 426.361 160.478 417.475 160.478C404.6 160.478 394.663 156.577 387.663 148.77C380.673 140.952 377.184 129.848 377.184 115.457C377.184 106.457 378.861 98.5719 382.225 91.7907C385.6 85.0146 390.46 79.7907 396.809 76.124C403.168 72.4574 410.652 70.624 419.267 70.624C428.434 70.624 436.444 72.3011 443.309 75.6449L438.996 84.374C432.382 81.2646 425.772 79.7074 419.163 79.7074Z" fill="#0A223F"/>
<path d="M511.379 159.291H462.65V71.874H511.379V80.8949H472.817V109.062H509.046V118.041H472.817V150.207H511.379V159.291Z" fill="#0A223F"/>
<path d="M589.385 159.291L578.489 131.478H543.448L532.698 159.291H522.406L556.968 71.5199H565.51L599.906 159.291H589.385ZM575.323 122.332L565.156 95.2491C563.833 91.822 562.479 87.6189 561.093 82.6449C560.218 86.4678 558.958 90.6657 557.323 95.2491L547.031 122.332H575.323Z" fill="#0A223F"/>
<path d="M683.882 159.291H672.278L624.507 85.9157H624.028C624.663 94.5303 624.986 102.426 624.986 109.603V159.291H615.591V71.874H627.07L674.716 144.937H675.195C675.122 143.869 674.945 140.416 674.653 134.582C674.372 128.739 674.278 124.556 674.361 122.041V71.874H683.882V159.291Z" fill="#0A223F"/>
<path d="M304.934 220.582L328.246 176.874H339.246L310.059 230.395V264.291H299.788V230.874L270.663 176.874H281.788L304.934 220.582Z" fill="#0A223F"/>
<path d="M430.814 220.457C430.814 234.457 427.272 245.468 420.189 253.478C413.116 261.478 403.283 265.478 390.689 265.478C377.814 265.478 367.876 261.551 360.876 253.687C353.887 245.812 350.397 234.697 350.397 220.332C350.397 206.114 353.902 195.082 360.918 187.249C367.928 179.416 377.897 175.499 390.814 175.499C403.366 175.499 413.173 179.489 420.23 187.457C427.283 195.431 430.814 206.431 430.814 220.457ZM361.147 220.457C361.147 232.306 363.668 241.291 368.71 247.416C373.762 253.53 381.09 256.582 390.689 256.582C400.381 256.582 407.694 253.535 412.626 247.437C417.569 241.327 420.043 232.332 420.043 220.457C420.043 208.707 417.585 199.791 412.668 193.707C407.751 187.624 400.465 184.582 390.814 184.582C381.131 184.582 373.762 187.645 368.71 193.77C363.668 199.884 361.147 208.78 361.147 220.457Z" fill="#0A223F"/>
<path d="M520.001 176.874V233.437C520.001 243.41 516.986 251.244 510.959 256.937C504.944 262.634 496.673 265.478 486.147 265.478C475.616 265.478 467.47 262.614 461.709 256.874C455.959 251.14 453.084 243.249 453.084 233.207V176.874H463.251V233.916C463.251 241.207 465.241 246.812 469.23 250.728C473.215 254.634 479.074 256.582 486.814 256.582C494.189 256.582 499.866 254.619 503.855 250.687C507.84 246.759 509.834 241.124 509.834 233.791V176.874H520.001Z" fill="#0A223F"/>
<path d="M573.699 264.291H563.554V185.895H535.866V176.874H601.387V185.895H573.699V264.291Z" fill="#0A223F"/>
<path d="M684.596 264.291H674.43V223.145H628.388V264.291H618.221V176.874H628.388V214.062H674.43V176.874H684.596V264.291Z" fill="#0A223F"/>
</svg>
