<?xml version="1.0" encoding="utf-8"?>
<!-- Generator: Adobe Illustrator 24.0.0, SVG Export Plug-In . SVG Version: 6.00 Build 0)  -->
<svg version="1.2" baseProfile="tiny" id="Layer_1" xmlns="http://www.w3.org/2000/svg" xmlns:xlink="http://www.w3.org/1999/xlink"
	 x="0px" y="0px" viewBox="0 0 100 48.31" xml:space="preserve">
<g id="RUGBYWORKS">
	<path fill="#010000" d="M24.36,47.07c-0.15-0.06-0.32-0.06-0.48-0.09c-0.91-0.2-1.66-0.66-2.27-1.37
		c-0.64-0.75-1.03-1.63-1.26-2.58c-0.22-0.92-0.28-1.86-0.25-2.81c0.03-0.83,0.11-1.64,0.32-2.44c0.22-0.85,0.55-1.64,1.08-2.35
		c0.67-0.9,1.57-1.43,2.68-1.61c0.85-0.14,1.69-0.11,2.52,0.13c1.16,0.34,1.93,1.1,2.4,2.2c0.26,0.61,0.4,1.26,0.49,1.91
		c0.01,0.1-0.01,0.13-0.11,0.14c-0.76,0.12-1.51,0.25-2.27,0.37c-0.02,0-0.04,0-0.06,0.01c-0.08,0.02-0.12,0-0.13-0.1
		c-0.04-0.31-0.09-0.62-0.18-0.92c-0.08-0.27-0.18-0.52-0.33-0.76c-0.56-0.93-1.69-0.89-2.3-0.42c-0.34,0.26-0.58,0.61-0.73,1.01
		c-0.17,0.45-0.25,0.92-0.3,1.4c-0.09,0.81-0.1,1.62-0.07,2.43c0.02,0.69,0.09,1.37,0.3,2.03c0.12,0.4,0.31,0.75,0.62,1.04
		c0.5,0.48,1.37,0.63,2,0.33c0.3-0.14,0.51-0.37,0.66-0.65c0.17-0.32,0.25-0.67,0.3-1.02c0.03-0.2,0.05-0.4,0.04-0.6
		c0-0.13,0-0.13-0.14-0.13c-0.53,0-1.06,0-1.58,0c-0.04,0-0.09,0-0.13,0c-0.06,0-0.08-0.02-0.08-0.08c0-0.03,0-0.06,0-0.09
		c0-0.63,0-1.26,0-1.89c0-0.19-0.01-0.17,0.18-0.17c1.38,0,2.75,0,4.13,0c0.03,0,0.05,0,0.08,0c0.08-0.01,0.12,0.02,0.11,0.1
		c0,0.03,0,0.06,0,0.09c0,2.17,0,4.34,0,6.51c0,0.01,0,0.03,0,0.04c0,0.17,0.01,0.16-0.16,0.16c-0.3,0-0.6-0.01-0.91,0
		c-0.11,0-0.15-0.04-0.18-0.14c-0.1-0.41-0.2-0.82-0.3-1.22c-0.01-0.02,0-0.05-0.03-0.06c-0.06,0.02-0.08,0.08-0.11,0.12
		c-0.58,0.84-1.37,1.33-2.38,1.46c-0.03,0-0.06,0-0.08,0.03C25.09,47.07,24.72,47.07,24.36,47.07z"/>
	<path fill="#010000" d="M14.06,47.04c-0.73-0.07-1.42-0.25-2.03-0.68c-0.7-0.5-1.12-1.18-1.29-2.01c-0.17-0.8-0.22-1.61-0.22-2.42
		c-0.01-2.6,0-5.21-0.01-7.81c0-0.03,0-0.06,0-0.09c0-0.05,0.02-0.08,0.08-0.08c0.04,0,0.08,0,0.11,0c0.82,0,1.65,0,2.47,0
		c0.19,0,0.18-0.03,0.18,0.18c0,2.33,0,4.67,0,7c0,0.62,0.01,1.24,0.07,1.87c0.02,0.24,0.05,0.48,0.13,0.7
		c0.2,0.59,0.62,0.91,1.21,1.03c0.32,0.07,0.65,0.06,0.97-0.02c0.6-0.16,0.96-0.55,1.08-1.15c0.08-0.39,0.08-0.79,0.09-1.18
		c0.01-0.32,0.02-0.64,0.02-0.96c0-2.4,0-4.81,0-7.21c0-0.04,0-0.09,0-0.13c-0.01-0.1,0.03-0.12,0.13-0.12c0.7,0,1.41,0,2.11,0
		c0.14,0,0.14,0,0.14,0.13c0,0.13,0,0.25,0,0.38c0,2.27,0,4.54,0,6.81c0,0.81-0.03,1.61-0.12,2.41c-0.03,0.3-0.08,0.6-0.16,0.89
		c-0.11,0.41-0.3,0.78-0.58,1.11c-0.57,0.69-1.3,1.11-2.18,1.28c-0.17,0.03-0.34,0.07-0.52,0.08c-0.13-0.01-0.25,0-0.37,0.04
		c-0.3,0-0.6,0-0.91,0C14.33,47.04,14.19,47.03,14.06,47.04z"/>
	<path fill="#010000" d="M93.54,47.04c-1.32-0.14-2.37-0.75-3.09-1.88c-0.29-0.46-0.51-0.98-0.69-1.63
		c0.82-0.24,1.65-0.47,2.48-0.71c0.04,0.14,0.08,0.27,0.13,0.4c0.07,0.2,0.15,0.4,0.26,0.58c0.43,0.75,1.14,1.03,1.94,0.95
		c0.28-0.03,0.55-0.11,0.8-0.26c0.82-0.51,0.8-1.67,0.05-2.18c-0.32-0.21-0.66-0.36-1.01-0.5c-0.6-0.22-1.2-0.44-1.78-0.71
		c-0.14-0.06-0.27-0.13-0.41-0.2c-1.28-0.7-1.92-1.78-1.92-3.24c0-0.66,0.12-1.3,0.44-1.89c0.54-1,1.37-1.65,2.47-1.91
		c0.97-0.23,1.95-0.19,2.91,0.11c1.09,0.34,1.83,1.07,2.26,2.12c0.09,0.21,0.16,0.42,0.22,0.64c-0.04,0.05-0.1,0.06-0.15,0.08
		c-0.69,0.26-1.37,0.53-2.06,0.79c-0.13,0.05-0.14,0.05-0.18-0.08c-0.1-0.29-0.23-0.56-0.41-0.8c-0.48-0.63-1.24-0.78-1.87-0.6
		c-0.62,0.18-0.98,0.8-0.82,1.41c0.06,0.25,0.21,0.44,0.42,0.59c0.18,0.13,0.38,0.24,0.59,0.34c0.47,0.23,0.96,0.41,1.44,0.6
		c0.52,0.2,1.03,0.42,1.52,0.7c0.98,0.57,1.59,1.41,1.74,2.53c0.16,1.23-0.06,2.38-0.92,3.34c-0.63,0.7-1.42,1.12-2.34,1.31
		c-0.17,0.04-0.34,0.07-0.52,0.08c-0.11-0.01-0.23,0.01-0.34,0.03c-0.24,0-0.48,0-0.72,0C93.82,47.06,93.68,47.03,93.54,47.04z"/>
	<path fill="#010000" d="M55.1,38.06c-0.05,0.03-0.05,0.07-0.06,0.11c-0.38,1.95-0.76,3.9-1.14,5.84c-0.18,0.94-0.37,1.87-0.55,2.81
		c-0.02,0.1-0.05,0.13-0.16,0.13c-0.75,0-1.51,0-2.26,0c-0.1,0-0.14-0.03-0.16-0.13c-0.32-1.51-0.65-3.02-0.98-4.53
		c-0.42-1.96-0.85-3.92-1.27-5.87c-0.11-0.5-0.21-0.99-0.32-1.49c-0.01-0.03-0.01-0.06-0.05-0.09c-0.04,0.02-0.05,0.06-0.06,0.1
		c-1.02,2.12-2.04,4.23-3.06,6.35c-0.05,0.1-0.06,0.2-0.06,0.31c0,1.69,0,3.37,0,5.06c0,0.23,0,0.23-0.23,0.23
		c-0.81,0-1.62,0-2.43,0c-0.2,0-0.18,0.02-0.18-0.18c0-1.7,0-3.4,0-5.09c0-0.13-0.02-0.24-0.07-0.36c-1.03-2.36-2.06-4.72-3.08-7.08
		c-0.03-0.07-0.08-0.13-0.07-0.21c0.05-0.02,0.1-0.01,0.15-0.01c0.93,0,1.86,0,2.79,0c0.2,0,0.16-0.02,0.24,0.17
		c0.56,1.44,1.11,2.88,1.67,4.32c0.02,0.06,0.03,0.14,0.1,0.19c0.19-0.46,0.38-0.92,0.57-1.38c0.43-1.04,0.86-2.09,1.3-3.13
		c0.08-0.2,0.04-0.17,0.26-0.17c1.58,0,3.16,0,4.74,0c0.03,0,0.05,0,0.08,0c0.08-0.01,0.12,0.02,0.13,0.11
		c0.03,0.25,0.07,0.5,0.11,0.75c0.13,0.88,0.27,1.76,0.4,2.65c0.13,0.87,0.26,1.74,0.39,2.61c0.13,0.86,0.26,1.71,0.39,2.57
		c0.01,0.06,0.02,0.11,0.05,0.21c0.07-0.38,0.14-0.72,0.2-1.06c0.25-1.3,0.49-2.6,0.74-3.91c0.23-1.23,0.46-2.46,0.7-3.68
		c0.06-0.3-0.01-0.24,0.29-0.24c0.73,0,1.46,0,2.19,0c0.18,0,0.18,0,0.21,0.17c0.37,2.1,0.75,4.19,1.12,6.29
		c0.14,0.79,0.28,1.58,0.42,2.37c0,0.02,0.01,0.03,0.02,0.07c0.07-0.21,0.09-0.42,0.13-0.62c0.2-1.12,0.4-2.24,0.59-3.36
		c0.19-1.1,0.39-2.2,0.58-3.3c0.09-0.49,0.17-0.99,0.26-1.48c0.02-0.14,0.02-0.14,0.16-0.14c0.64,0,1.27,0,1.91,0
		c0.11,0,0.23-0.01,0.35,0.01c-0.08,0.38-0.16,0.76-0.24,1.14c-0.38,1.8-0.77,3.6-1.15,5.4c-0.37,1.74-0.75,3.49-1.12,5.23
		c-0.08,0.37-0.16,0.74-0.23,1.11c-0.02,0.11-0.07,0.12-0.17,0.12c-0.76,0-1.52,0-2.28,0c-0.1,0-0.14-0.03-0.16-0.13
		c-0.12-0.67-0.25-1.33-0.38-2c-0.26-1.35-0.52-2.7-0.78-4.05C55.45,39.87,55.28,38.97,55.1,38.06z"/>
	<path fill="#010000" d="M84.32,39.29c0.28-0.48,0.54-0.93,0.81-1.39c0.74-1.27,1.48-2.53,2.21-3.8c0.07-0.12,0.14-0.17,0.28-0.16
		c0.89,0.01,1.77,0,2.67,0c0.01,0.08-0.05,0.13-0.09,0.18c-1,1.47-2,2.94-3.01,4.41c-0.09,0.13-0.1,0.23-0.03,0.37
		c1.12,2.59,2.24,5.19,3.36,7.78c0.02,0.06,0.04,0.11,0.07,0.18c-0.06,0.03-0.12,0.02-0.17,0.02c-0.86,0-1.72,0-2.59,0
		c-0.18,0-0.18,0-0.24-0.16c-0.72-1.87-1.43-3.74-2.15-5.61c-0.02-0.05-0.04-0.09-0.05-0.14c-0.06,0.01-0.08,0.06-0.1,0.1
		c-0.3,0.43-0.59,0.86-0.89,1.29c-0.06,0.09-0.09,0.18-0.09,0.3c0,1.33,0,2.67,0,4c0,0.04,0,0.08,0,0.11
		c0.01,0.09-0.02,0.13-0.11,0.12c-0.11-0.01-0.21,0-0.32,0c-0.74,0-1.48,0-2.23,0c-0.2,0-0.19,0.03-0.19-0.19c0-0.78,0-1.56,0-2.34
		c0-3.39,0-6.78,0-10.17c0-0.24,0-0.24,0.24-0.24c0.8,0,1.6,0,2.4,0c0.04,0,0.09,0,0.13,0c0.06,0,0.08,0.02,0.08,0.08
		c0,0.05,0,0.1,0,0.15c0,1.65,0,3.3,0,4.94C84.29,39.16,84.28,39.21,84.32,39.29z"/>
	<path fill="#010000" d="M10.19,46.71c-0.58-1.38-1.16-2.77-1.74-4.15c-0.17-0.41-0.34-0.81-0.51-1.21C7.9,41.26,7.91,41.21,8,41.17
		c0.02-0.01,0.04-0.02,0.06-0.04c0.71-0.43,1.19-1.05,1.44-1.84c0.2-0.65,0.24-1.31,0.18-1.98c-0.05-0.59-0.2-1.15-0.5-1.67
		c-0.55-0.95-1.35-1.51-2.46-1.63c-0.49-0.05-0.98-0.07-1.47-0.07c-1.37,0-2.74,0-4.11,0c0,4.32,0,8.63,0,12.95
		c0.72,0,1.45,0,2.17,0c0.2,0,0.4,0,0.6,0c0.07,0,0.1-0.02,0.1-0.1c0-0.14,0-0.28,0-0.42c0-1.48,0-2.96,0-4.43
		c0-0.17-0.02-0.18,0.17-0.18c0.35,0,0.7,0,1.06,0c0.22,0,0.18-0.02,0.25,0.17c0.54,1.59,1.08,3.19,1.62,4.78
		c0.06,0.17,0.06,0.17,0.23,0.17c0.91,0,1.82,0,2.74,0c0.05,0,0.11,0.01,0.16-0.02C10.25,46.8,10.21,46.76,10.19,46.71z M6.75,38.83
		c-0.2,0.49-0.59,0.73-1.1,0.81c-0.3,0.05-0.6,0.03-0.9,0.03c-0.2,0-0.4,0-0.6,0c-0.1,0-0.13-0.03-0.13-0.13c0-0.57,0-1.13,0-1.7
		c0-0.55,0-1.11,0-1.66c0-0.13,0-0.14,0.13-0.14c0.42,0,0.83,0,1.25,0c0.15,0,0.3,0.02,0.45,0.05c0.49,0.1,0.79,0.44,0.95,0.88
		C7.01,37.6,6.99,38.22,6.75,38.83z"/>
	<path fill="#010000" d="M71.02,40.14c-0.01-0.81-0.07-1.61-0.24-2.4c-0.15-0.71-0.38-1.39-0.75-2.02c-0.58-0.95-1.4-1.59-2.49-1.84
		c-0.84-0.2-1.68-0.19-2.52,0.02c-0.97,0.24-1.73,0.78-2.28,1.61c-0.35,0.53-0.58,1.11-0.75,1.72c-0.23,0.87-0.32,1.75-0.35,2.65
		c-0.03,1.07,0.02,2.14,0.24,3.19c0.16,0.78,0.42,1.52,0.86,2.2c0.68,1.05,1.65,1.63,2.88,1.78c0.11-0.01,0.23,0.01,0.34,0.04
		c0.23,0,0.45,0,0.68,0c0.13-0.02,0.25-0.04,0.38-0.03c1.38-0.15,2.42-0.82,3.1-2.03c0.49-0.88,0.71-1.85,0.83-2.84
		C71.01,41.5,71.03,40.82,71.02,40.14z M67.98,41.87c-0.03,0.55-0.09,1.09-0.23,1.62c-0.07,0.26-0.18,0.51-0.34,0.73
		c-0.51,0.72-1.71,0.75-2.22-0.05c-0.21-0.32-0.31-0.67-0.38-1.04c-0.15-0.79-0.18-1.59-0.19-2.38c0-0.12,0-0.24,0-0.36
		c0-0.57,0.01-1.13,0.06-1.7c0.02-0.19,0.03-0.38,0.06-0.56c0.04-0.35,0.1-0.7,0.22-1.03c0.05-0.15,0.13-0.3,0.22-0.44
		c0.51-0.82,1.77-0.8,2.28-0.01c0.2,0.31,0.3,0.65,0.37,1c0.14,0.74,0.17,1.5,0.19,2.25C68.03,40.57,68.03,41.22,67.98,41.87z"/>
	<path fill="#010000" d="M39.61,42.18c-0.18-0.68-0.57-1.21-1.15-1.6c-0.26-0.18-0.54-0.31-0.85-0.43c0.07-0.06,0.14-0.07,0.2-0.1
		c0.8-0.34,1.31-0.93,1.5-1.79c0.17-0.76,0.13-1.51-0.09-2.25c-0.13-0.43-0.35-0.81-0.65-1.14c-0.31-0.35-0.69-0.6-1.15-0.71
		c-0.59-0.15-1.19-0.2-1.79-0.21c-0.88-0.01-1.76-0.01-2.64-0.01c-0.69,0-1.37,0-2.06,0c-0.15,0-0.15,0-0.15,0.14
		c0,0.02,0,0.04,0,0.06c0,4.18,0,8.36,0,12.55c0,0.22-0.03,0.2,0.2,0.2c1.35,0,2.69,0,4.04,0c0.55,0,1.09-0.01,1.64-0.08
		c0.41-0.05,0.82-0.12,1.21-0.28c0.82-0.35,1.36-0.98,1.66-1.81C39.83,43.89,39.84,43.03,39.61,42.18z M33.66,36.05
		c0.41,0,0.82,0,1.23,0c0.18,0,0.36,0.03,0.54,0.06c0.58,0.1,0.9,0.47,1.04,1.01c0.12,0.49,0.04,0.96-0.21,1.4
		c-0.13,0.23-0.32,0.38-0.57,0.47s-0.51,0.13-0.77,0.15c-0.42,0.03-0.84,0.02-1.26,0.02c-0.14,0-0.14,0-0.14-0.15
		c0-0.47,0-0.94,0-1.41s0-0.93,0-1.4C33.51,36.04,33.5,36.05,33.66,36.05z M36.8,43.5c-0.14,0.6-0.55,0.94-1.14,1.08
		c-0.23,0.05-0.46,0.08-0.69,0.08c-0.44,0-0.88,0-1.32,0c-0.14,0-0.14,0-0.14-0.14c0-0.52,0-1.04,0-1.57c0-0.51,0-1.02,0-1.53
		c0-0.16,0-0.16,0.15-0.16c0.47,0,0.93-0.01,1.4,0c0.33,0.01,0.66,0.06,0.98,0.18c0.39,0.16,0.65,0.44,0.75,0.86
		C36.88,42.71,36.89,43.11,36.8,43.5z"/>
	<path fill="#010000" d="M80.94,46.71c-0.6-1.43-1.2-2.86-1.8-4.29c-0.15-0.35-0.3-0.71-0.44-1.06c-0.05-0.13-0.05-0.13,0.07-0.2
		c0.02-0.01,0.03-0.02,0.05-0.03c0.69-0.42,1.16-1.01,1.42-1.77c0.21-0.63,0.25-1.28,0.21-1.94c-0.04-0.62-0.19-1.22-0.5-1.76
		c-0.46-0.83-1.14-1.36-2.06-1.58c-0.46-0.11-0.94-0.12-1.41-0.12c-1.47-0.01-2.93,0-4.4-0.01c-0.16,0-0.16,0-0.16,0.16
		c0,0.03,0,0.05,0,0.08c0,4.16,0,8.31,0,12.47c0,0.05,0,0.1,0,0.15s0.02,0.08,0.08,0.08c0.04,0,0.09,0,0.13,0c0.81,0,1.62,0,2.43,0
		c0.24,0,0.21,0.03,0.21-0.21c0-1.56,0-3.12,0-4.68c0-0.04,0-0.09,0-0.13c0-0.07,0.02-0.1,0.1-0.1c0.41,0,0.82,0,1.23,0
		c0.07,0,0.1,0.03,0.12,0.09c0.01,0.04,0.02,0.07,0.04,0.11c0.54,1.59,1.07,3.17,1.61,4.76c0.05,0.16,0.06,0.16,0.22,0.16
		c0.69,0,1.37,0,2.06,0c0.28,0,0.57,0,0.86,0C81,46.8,80.97,46.76,80.94,46.71z M77.67,38.17c-0.02,0.18-0.05,0.36-0.11,0.53
		c-0.19,0.55-0.58,0.84-1.15,0.93c-0.25,0.04-0.5,0.03-0.75,0.03s-0.5,0-0.75,0c-0.1,0-0.13-0.04-0.13-0.13c0-0.57,0-1.13,0-1.7
		c0-0.55,0-1.09,0-1.64c0-0.16-0.02-0.16,0.15-0.16c0.41,0,0.82,0,1.23,0c0.15,0,0.3,0.02,0.45,0.05c0.52,0.11,0.8,0.47,0.97,0.93
		C77.71,37.4,77.71,37.79,77.67,38.17z"/>
</g>
<g id="p2s">
	<path fill="#010000" d="M86.36,17.56C83.24,12.88,80.11,8.19,77,3.5c-0.08-0.12-0.16-0.17-0.31-0.17c-6.47,0-12.93,0-19.4,0
		c-0.06,0-0.12,0-0.18,0c0,0,0,0,0,0.01c-3.6,0.01-13.25,0.06-13.21,0C43.13,3.3,13.75,3.32,13.59,3.36
		c0.03,0.05,0.06,0.11,0.1,0.16c3.08,4.69,6.16,9.38,9.25,14.07c0.08,0.12,0.08,0.2,0,0.33c-1.61,2.53-3.22,5.06-4.83,7.58
		c-1.37,2.15-2.73,4.29-4.1,6.44c-0.03,0.05-0.09,0.1-0.08,0.18c1.08-0.04,2.14-0.03,3.21-0.04c2.65,0,5.3,0,7.94,0
		c2.96,0,5.92,0.01,8.89,0.02c0.69,0,1.37,0.01,2.06,0.01c0.26,0,0.53,0,0.79,0c0.07,0,14.92-0.02,20.05-0.07v0.06h6.21
		c0,0,9.16,0,13.74,0c0.15,0,0.23-0.04,0.32-0.17c3.08-4.69,6.16-9.39,9.24-14.07C86.44,17.76,86.44,17.68,86.36,17.56z"/>
	<path fill="#C22032" d="M62.48,8.96c1.1-0.75,2.33-1.17,3.63-1.39c0.48-0.08,0.97-0.13,1.46-0.17c0.57-0.04,1.14-0.05,1.72-0.02
		c1.33,0.06,2.62,0.28,3.84,0.84c1.96,0.89,3.2,2.39,3.73,4.47c0.07,0.29,0.14,0.59,0.17,0.88c-0.04,0.05-0.1,0.03-0.14,0.03
		c-1.94,0-3.87,0-5.81,0c-0.15,0-0.16,0-0.19-0.16c-0.15-0.67-0.57-1.09-1.2-1.32c-0.33-0.12-0.68-0.17-1.03-0.2
		c-0.46-0.04-0.92,0-1.37,0.09c-0.15,0.03-0.29,0.08-0.43,0.15c-0.73,0.33-0.69,1.16-0.29,1.58c0.19,0.2,0.41,0.35,0.65,0.47
		c0.5,0.25,1.02,0.42,1.56,0.56c0.89,0.23,1.79,0.45,2.68,0.68c1.05,0.27,2.08,0.6,3.04,1.1c0.56,0.29,1.09,0.63,1.55,1.06
		c0.8,0.75,1.29,1.66,1.45,2.75c0.17,1.13,0.07,2.24-0.33,3.32c-0.44,1.19-1.23,2.11-2.29,2.8c-0.88,0.58-1.85,0.95-2.87,1.2
		c-0.76,0.18-1.54,0.3-2.32,0.35c-0.45,0.03-0.9,0.06-1.35,0.05c-1.46-0.02-2.88-0.24-4.23-0.81c-0.35-0.15-0.69-0.31-1.01-0.5
		c-0.08-0.04-0.15-0.08-0.23-0.13c-0.1-0.07-1.05-0.8-1.13-0.86c-0.22-0.23-0.45-0.45-0.66-0.7c-0.53-0.65-0.93-1.36-1.17-2.16
		c-0.12-0.41-0.2-0.83-0.23-1.26c-0.01-0.18-0.02-0.18,0.15-0.18c0.03,0,0.05,0,0.08,0c1.9,0,3.8,0,5.7,0c0.03,0,0.06,0,0.09,0
		c0.11-0.02,0.16,0.03,0.18,0.14c0.03,0.14,0.08,0.28,0.14,0.41c0.28,0.65,0.8,1.04,1.44,1.27c0.84,0.31,1.7,0.28,2.56,0.09
		c0.36-0.08,0.69-0.22,0.98-0.46c0.52-0.44,0.54-1.2,0.03-1.65c-0.12-0.11-0.25-0.2-0.4-0.28c-0.27-0.16-0.57-0.27-0.86-0.37
		c-0.69-0.23-1.4-0.4-2.11-0.56c-1.01-0.24-2.03-0.48-3.01-0.83c-1.24-0.44-2.4-1.02-3.3-2.01C61.35,17.14,62.47,9.01,62.48,8.96z"
		/>
	<path fill="#C22032" d="M37.78,14.92c-0.06,0-0.11,0.01-0.17,0.01c-0.03,0.34-0.12,0.65-0.3,0.94c-0.26,0.42-0.65,0.67-1.12,0.82
		c-0.33,0.1-0.67,0.15-1.02,0.15c-0.87,0.01-1.74,0-2.6,0c-0.03,0-0.06,0-0.09,0c-0.06,0-0.09-0.03-0.09-0.09c0-0.04,0-0.08,0-0.11
		c0-1.31,0-2.62,0-3.92c0-0.03,0-0.05,0-0.08c0-0.14,0-0.14,0.13-0.14c0.8,0,1.61-0.03,2.41,0.02c0.52,0.03,1.03,0.12,1.52,0.33
		c0.47,0.2,0.84,0.5,1.05,0.98c0.01-0.03,1.25-5.41,1.28-5.54c-0.04-0.01-0.08-0.03-0.13-0.04c-0.93-0.22-1.87-0.34-2.82-0.34
		c-3.23,0-6.45,0-9.68,0c-0.25,0-0.23-0.02-0.23,0.24c0,6.4,0,12.79,0,19.19c0,0.26-0.02,0.23,0.23,0.23c1.99,0,3.98,0,5.96,0
		c0.28,0,0.26,0.03,0.26-0.25c0-1.87,0-3.75,0-5.62c0-0.27-0.03-0.24,0.24-0.24c1.26-0.02,2.53,0.03,3.79-0.03
		c0.6-0.03,1.19-0.09,1.78-0.2c0.81-0.15,1.59-0.38,2.32-0.76c0.95-0.49,1.73-1.16,2.3-2.07c0.66-1.06,0.91-2.23,0.97-3.46
		C43.73,14.92,39.73,14.92,37.78,14.92z"/>
	<path id="_x32_" fill="#FEFEFE" d="M49.08,25.73c0.85-0.55,1.74-1.06,2.62-1.56c2.04-1.15,4.04-2.37,6-3.65
		c0.92-0.6,1.78-1.26,2.57-2.03c0.35-0.34,0.68-0.71,0.98-1.1c0.04-0.05,0.07-0.11,0.12-0.14c0.01-0.07,0.07-0.12,0.11-0.18
		c0.79-1.13,1.27-2.38,1.42-3.75c0.16-1.43,0.04-2.84-0.36-4.22c-0.01-0.05-0.04-0.09-0.03-0.15c-0.11-0.28-0.21-0.56-0.32-0.83
		c-0.68-1.57-1.76-2.8-3.17-3.76c-0.55-0.37-1.13-0.69-1.74-0.96c-0.06-0.03-0.07-0.05-0.21-0.12c0,0-1.95-1.73-6.39-1.73
		s-6.99,1.74-6.99,1.74c-1.13,0.51-2.18,1.29-3.06,2.17c-0.76,0.76-1.36,1.64-1.84,2.61c-0.03,0.07-0.07,0.13-0.1,0.2
		c-0.03,0.13-0.1,0.25-0.15,0.37c-0.42,1-0.71,2.05-0.89,3.12c-0.11,0.66-0.19,1.32-0.23,1.99c0,0.03-0.04,0.73-0.05,1.05
		c0,0.13-0.01,0.12,0.14,0.14c0.06,0,0.12,0,0.17,0c1.95,0,3.91,0,5.86,0c0.06,0,0.11,0.01,0.17,0.01c0.42,0,0.85-0.01,1.27-0.01
		c0.16,0,0.33,0,0.49,0c0.06,0,0.16-0.01,0.18-0.06c0.03-0.04,0.03-0.27,0.03-0.41c0.01-0.92,0.12-1.83,0.42-2.7
		c0.11-0.32,0.25-0.63,0.42-0.93c0.46-0.79,1.12-1.33,1.99-1.6c1.18-0.37,2.35-0.33,3.49,0.2c0.49,0.23,0.91,0.55,1.23,0.98
		c0.48,0.62,0.63,1.34,0.55,2.11c-0.09,0.92-0.46,1.72-1,2.46c-0.54,0.73-1.2,1.35-1.9,1.92c-0.99,0.8-2.05,1.5-3.11,2.2
		c-1.26,0.83-2.53,1.65-3.75,2.54c-1.29,0.94-2.52,1.97-3.62,3.14c-0.94,1.01-1.77,2.11-2.43,3.33c-0.62,1.15-1,2.37-1.14,3.66
		c-0.01,0.11-0.03,0.23-0.03,0.34c0,0.08-0.03,0.46-0.03,0.46h15.16c0,0,10.84,0,10.86,0s0.06-0.38,0.06-0.47c0-0.03,0-0.06,0-0.09
		c0-1.69-0.09-5.92-0.08-6.09c0-0.06-0.06-0.05-0.11-0.05c-0.22,0-0.44,0-0.66,0c-0.09,0-0.4,0-0.45,0c-4.18,0-8.35,0-12.53,0
		c-0.04,0-0.08,0-0.13,0C48.96,25.78,49.03,25.76,49.08,25.73z"/>
</g>
</svg>
