<svg xmlns="http://www.w3.org/2000/svg" baseProfile="tiny" version="1.2" viewBox="0 0 100 48.31"><g fill="#010000"><path d="M24.36 47.07c-.15-.06-.32-.06-.48-.09-.91-.2-1.66-.66-2.27-1.37-.64-.75-1.03-1.63-1.26-2.58-.22-.92-.28-1.86-.25-2.81.03-.83.11-1.64.32-2.44.22-.85.55-1.64 1.08-2.35.67-.9 1.57-1.43 2.68-1.61.85-.14 1.69-.11 2.52.13 1.16.34 1.93 1.1 2.4 2.2.26.61.4 1.26.49 1.91.01.1-.01.13-.11.14-.76.12-1.51.25-2.27.37-.02 0-.04 0-.06.01-.08.02-.12 0-.13-.1-.04-.31-.09-.62-.18-.92-.08-.27-.18-.52-.33-.76-.56-.93-1.69-.89-2.3-.42-.34.26-.58.61-.73 1.01-.17.45-.25.92-.3 1.4-.09.81-.1 1.62-.07 2.43.02.69.09 1.37.3 2.03.12.4.31.75.62 1.04.5.48 1.37.63 2 .33.3-.14.51-.37.66-.65.17-.32.25-.67.3-1.02.03-.2.05-.4.04-.6 0-.13 0-.13-.14-.13h-1.71c-.06 0-.08-.02-.08-.08v-.09-1.89c0-.19-.01-.17.18-.17h4.21c.08-.01.12.02.11.1v6.64c0 .17.01.16-.16.16-.3 0-.6-.01-.91 0-.11 0-.15-.04-.18-.14-.1-.41-.2-.82-.3-1.22-.01-.02 0-.05-.03-.06-.06.02-.08.08-.11.12-.58.84-1.37 1.33-2.38 1.46-.03 0-.06 0-.08.03-.36-.01-.73-.01-1.09-.01zM14.06 47.04c-.73-.07-1.42-.25-2.03-.68-.7-.5-1.12-1.18-1.29-2.01-.17-.8-.22-1.61-.22-2.42-.01-2.6 0-5.21-.01-7.81v-.09c0-.05.02-.08.08-.08h2.58c.19 0 .18-.03.18.18v7c0 .62.01 1.24.07 1.87.02.24.05.48.13.7.2.59.62.91 1.21 1.03.32.07.65.06.97-.02.6-.16.96-.55 1.08-1.15.08-.39.08-.79.09-1.18.01-.32.02-.64.02-.96v-7.21-.13c-.01-.1.03-.12.13-.12h2.11c.14 0 .14 0 .14.13V41.28c0 .81-.03 1.61-.12 2.41-.03.3-.08.6-.16.89-.11.41-.3.78-.58 1.11-.57.69-1.3 1.11-2.18 1.28-.17.03-.34.07-.52.08-.13-.01-.25 0-.37.04h-.91c-.13-.05-.27-.06-.4-.05zM93.54 47.04c-1.32-.14-2.37-.75-3.09-1.88-.29-.46-.51-.98-.69-1.63.82-.24 1.65-.47 2.48-.71.04.14.08.27.13.4.07.2.15.4.26.58.43.75 1.14 1.03 1.94.95.28-.03.55-.11.8-.26.82-.51.8-1.67.05-2.18-.32-.21-.66-.36-1.01-.5-.6-.22-1.2-.44-1.78-.71-.14-.06-.27-.13-.41-.2-1.28-.7-1.92-1.78-1.92-3.24 0-.66.12-1.3.44-1.89.54-1 1.37-1.65 2.47-1.91.97-.23 1.95-.19 2.91.11 1.09.34 1.83 1.07 2.26 2.12.09.21.16.42.22.64-.04.05-.1.06-.15.08-.69.26-1.37.53-2.06.79-.13.05-.14.05-.18-.08-.1-.29-.23-.56-.41-.8-.48-.63-1.24-.78-1.87-.6-.62.18-.98.8-.82 1.41.06.25.21.44.42.59.18.13.38.24.59.34.47.23.96.41 1.44.6.52.2 1.03.42 1.52.7.98.57 1.59 1.41 1.74 2.53.16 1.23-.06 2.38-.92 3.34-.63.7-1.42 1.12-2.34 1.31-.17.04-.34.07-.52.08-.11-.01-.23.01-.34.03h-.72c-.16.01-.3-.02-.44-.01zM55.1 38.06c-.05.03-.05.07-.06.11-.38 1.95-.76 3.9-1.14 5.84-.18.94-.37 1.87-.55 2.81-.02.1-.05.13-.16.13h-2.26c-.1 0-.14-.03-.16-.13-.32-1.51-.65-3.02-.98-4.53-.42-1.96-.85-3.92-1.27-5.87-.11-.5-.21-.99-.32-1.49-.01-.03-.01-.06-.05-.09-.04.02-.05.06-.06.1-1.02 2.12-2.04 4.23-3.06 6.35-.05.1-.06.2-.06.31v5.06c0 .23 0 .23-.23.23h-2.43c-.2 0-.18.02-.18-.18v-5.09c0-.13-.02-.24-.07-.36-1.03-2.36-2.06-4.72-3.08-7.08-.03-.07-.08-.13-.07-.21.05-.02.1-.01.15-.01h2.79c.2 0 .16-.02.24.17.56 1.44 1.11 2.88 1.67 4.32.02.06.03.14.1.19l.57-1.38c.43-1.04.86-2.09 1.3-3.13.08-.2.04-.17.26-.17h4.82c.08-.01.12.02.13.11.03.25.07.5.11.75.13.88.27 1.76.4 2.65l.39 2.61c.13.86.26 1.71.39 2.57.01.06.02.11.05.21.07-.38.14-.72.2-1.06.25-1.3.49-2.6.74-3.91.23-1.23.46-2.46.7-3.68.06-.3-.01-.24.29-.24h2.19c.18 0 .18 0 .21.17.37 2.1.75 4.19 1.12 6.29l.42 2.37c0 .02.01.03.02.07.07-.21.09-.42.13-.62.2-1.12.4-2.24.59-3.36.19-1.1.39-2.2.58-3.3.09-.49.17-.99.26-1.48.02-.14.02-.14.16-.14h1.91c.11 0 .23-.01.35.01l-.24 1.14c-.38 1.8-.77 3.6-1.15 5.4-.37 1.74-.75 3.49-1.12 5.23-.08.37-.16.74-.23 1.11-.02.11-.07.12-.17.12h-2.28c-.1 0-.14-.03-.16-.13-.12-.67-.25-1.33-.38-2l-.78-4.05c-.19-.93-.36-1.83-.54-2.74z"/><path d="M84.32 39.29c.28-.48.54-.93.81-1.39.74-1.27 1.48-2.53 2.21-3.8.07-.12.14-.17.28-.16.89.01 1.77 0 2.67 0 .01.08-.05.13-.09.18-1 1.47-2 2.94-3.01 4.41-.09.13-.1.23-.03.37 1.12 2.59 2.24 5.19 3.36 7.78.02.06.04.11.07.18-.06.03-.12.02-.17.02h-2.59c-.18 0-.18 0-.24-.16-.72-1.87-1.43-3.74-2.15-5.61-.02-.05-.04-.09-.05-.14-.06.01-.08.06-.1.1-.3.43-.59.86-.89 1.29-.06.09-.09.18-.09.3v4.11c.01.09-.02.13-.11.12-.11-.01-.21 0-.32 0h-2.23c-.2 0-.19.03-.19-.19v-2.34-10.17c0-.24 0-.24.24-.24h2.53c.06 0 .08.02.08.08V39.12c-.02.04-.03.09.01.17zM10.19 46.71c-.58-1.38-1.16-2.77-1.74-4.15-.17-.41-.34-.81-.51-1.21-.04-.09-.03-.14.06-.18.02-.01.04-.02.06-.04.71-.43 1.19-1.05 1.44-1.84.2-.65.24-1.31.18-1.98-.05-.59-.2-1.15-.5-1.67-.55-.95-1.35-1.51-2.46-1.63-.49-.05-.98-.07-1.47-.07H1.14v12.95h2.77c.07 0 .1-.02.1-.1v-.42-4.43c0-.17-.02-.18.17-.18h1.06c.22 0 .18-.02.25.17.54 1.59 1.08 3.19 1.62 4.78.06.17.06.17.23.17h2.74c.05 0 .11.01.16-.02.01-.06-.03-.1-.05-.15zm-3.44-7.88c-.2.49-.59.73-1.1.81-.3.05-.6.03-.9.03h-.6c-.1 0-.13-.03-.13-.13v-1.7-1.66c0-.13 0-.14.13-.14H5.4c.15 0 .3.02.45.05.49.1.79.44.95.88.21.63.19 1.25-.05 1.86zM71.02 40.14c-.01-.81-.07-1.61-.24-2.4-.15-.71-.38-1.39-.75-2.02-.58-.95-1.4-1.59-2.49-1.84-.84-.2-1.68-.19-2.52.02-.97.24-1.73.78-2.28 1.61-.35.53-.58 1.11-.75 1.72-.23.87-.32 1.75-.35 2.65-.03 1.07.02 2.14.24 3.19.16.78.42 1.52.86 2.2.68 1.05 1.65 1.63 2.88 1.78.11-.01.23.01.34.04h.68c.13-.02.25-.04.38-.03 1.38-.15 2.42-.82 3.1-2.03.49-.88.71-1.85.83-2.84.06-.69.08-1.37.07-2.05zm-3.04 1.73c-.03.55-.09 1.09-.23 1.62-.07.26-.18.51-.34.73-.51.72-1.71.75-2.22-.05-.21-.32-.31-.67-.38-1.04-.15-.79-.18-1.59-.19-2.38v-.36c0-.57.01-1.13.06-1.7.02-.19.03-.38.06-.56.04-.35.1-.7.22-1.03.05-.15.13-.3.22-.44.51-.82 1.77-.8 2.28-.01.2.31.3.65.37 1 .14.74.17 1.5.19 2.25.01.67.01 1.32-.04 1.97zM39.61 42.18c-.18-.68-.57-1.21-1.15-1.6-.26-.18-.54-.31-.85-.43.07-.06.14-.07.2-.1.8-.34 1.31-.93 1.5-1.79.17-.76.13-1.51-.09-2.25-.13-.43-.35-.81-.65-1.14-.31-.35-.69-.6-1.15-.71-.59-.15-1.19-.2-1.79-.21-.88-.01-1.76-.01-2.64-.01h-2.06c-.15 0-.15 0-.15.14V46.69c0 .22-.03.2.2.2h4.04c.55 0 1.09-.01 1.64-.08.41-.05.82-.12 1.21-.28.82-.35 1.36-.98 1.66-1.81.3-.83.31-1.69.08-2.54zm-5.95-6.13h1.23c.18 0 .36.03.54.06.58.1.9.47 1.04 1.01.12.49.04.96-.21 1.4-.13.23-.32.38-.57.47s-.51.13-.77.15c-.42.03-.84.02-1.26.02-.14 0-.14 0-.14-.15V37.6v-1.4c-.01-.16-.02-.15.14-.15zm3.14 7.45c-.14.6-.55.94-1.14 1.08-.23.05-.46.08-.69.08h-1.32c-.14 0-.14 0-.14-.14v-1.57-1.53c0-.16 0-.16.15-.16.47 0 .93-.01 1.4 0 .33.01.66.06.98.18.39.16.65.44.75.86.09.41.1.81.01 1.2zM80.94 46.71l-1.8-4.29c-.15-.35-.3-.71-.44-1.06-.05-.13-.05-.13.07-.2.02-.01.03-.02.05-.03.69-.42 1.16-1.01 1.42-1.77.21-.63.25-1.28.21-1.94-.04-.62-.19-1.22-.5-1.76-.46-.83-1.14-1.36-2.06-1.58-.46-.11-.94-.12-1.41-.12-1.47-.01-2.93 0-4.4-.01-.16 0-.16 0-.16.16V46.81c0 .05.02.08.08.08h2.56c.24 0 .21.03.21-.21V42v-.13c0-.07.02-.1.1-.1h1.23c.07 0 .1.03.12.09.01.04.02.07.04.11.54 1.59 1.07 3.17 1.61 4.76.05.16.06.16.22.16h2.92c-.01-.09-.04-.13-.07-.18zm-3.27-8.54c-.02.18-.05.36-.11.53-.19.55-.58.84-1.15.93-.25.04-.5.03-.75.03h-.75c-.1 0-.13-.04-.13-.13v-1.7-1.64c0-.16-.02-.16.15-.16h1.23c.15 0 .3.02.45.05.52.11.8.47.97.93.13.39.13.78.09 1.16z"/></g><path fill="#010000" d="M86.36 17.56C83.24 12.88 80.11 8.19 77 3.5c-.08-.12-.16-.17-.31-.17H57.11v.01c-3.6.01-13.25.06-13.21 0-.77-.04-30.15-.02-30.31.02.03.05.06.11.1.16 3.08 4.69 6.16 9.38 9.25 14.07.08.12.08.2 0 .33-1.61 2.53-3.22 5.06-4.83 7.58-1.37 2.15-2.73 4.29-4.1 6.44-.03.05-.09.1-.08.18 1.08-.04 2.14-.03 3.21-.04h7.94c2.96 0 5.92.01 8.89.02.69 0 1.37.01 2.06.01h.79c.07 0 14.92-.02 20.05-.07v.06h19.95c.15 0 .23-.04.32-.17 3.08-4.69 6.16-9.39 9.24-14.07.06-.1.06-.18-.02-.3z"/><path fill="#C22032" d="M62.48 8.96c1.1-.75 2.33-1.17 3.63-1.39.48-.08.97-.13 1.46-.17.57-.04 1.14-.05 1.72-.02 1.33.06 2.62.28 3.84.84 1.96.89 3.2 2.39 3.73 4.47.07.29.14.59.17.88-.04.05-.1.03-.14.03h-5.81c-.15 0-.16 0-.19-.16-.15-.67-.57-1.09-1.2-1.32-.33-.12-.68-.17-1.03-.2-.46-.04-.92 0-1.37.09-.15.03-.29.08-.43.15-.73.33-.69 1.16-.29 1.58.19.2.41.35.65.47.5.25 1.02.42 1.56.56.89.23 1.79.45 2.68.68 1.05.27 2.08.6 3.04 1.1.56.29 1.09.63 1.55 1.06.8.75 1.29 1.66 1.45 2.75.17 1.13.07 2.24-.33 3.32-.44 1.19-1.23 2.11-2.29 2.8-.88.58-1.85.95-2.87 1.2-.76.18-1.54.3-2.32.35-.45.03-.9.06-1.35.05-1.46-.02-2.88-.24-4.23-.81-.35-.15-.69-.31-1.01-.5-.08-.04-.15-.08-.23-.13-.1-.07-1.05-.8-1.13-.86-.22-.23-.45-.45-.66-.7-.53-.65-.93-1.36-1.17-2.16-.12-.41-.2-.83-.23-1.26-.01-.18-.02-.18.15-.18h5.87c.11-.02.16.03.18.14.03.14.08.28.14.41.28.65.8 1.04 1.44 1.27.84.31 1.7.28 2.56.09.36-.08.69-.22.98-.46.52-.44.54-1.2.03-1.65-.12-.11-.25-.2-.4-.28-.27-.16-.57-.27-.86-.37-.69-.23-1.4-.4-2.11-.56-1.01-.24-2.03-.48-3.01-.83-1.24-.44-2.4-1.02-3.3-2.01 0-.09 1.12-8.22 1.13-8.27zM37.78 14.92c-.06 0-.11.01-.17.01-.03.34-.12.65-.3.94-.26.42-.65.67-1.12.82-.33.1-.67.15-1.02.15-.87.01-1.74 0-2.6 0h-.09c-.06 0-.09-.03-.09-.09v-.11-3.92-.08c0-.14 0-.14.13-.14.8 0 1.61-.03 2.41.02.52.03 1.03.12 1.52.33.47.2.84.5 1.05.98.01-.03 1.25-5.41 1.28-5.54-.04-.01-.08-.03-.13-.04-.93-.22-1.87-.34-2.82-.34h-9.68c-.25 0-.23-.02-.23.24v19.19c0 .26-.02.23.23.23h5.96c.28 0 .26.03.26-.25V21.7c0-.27-.03-.24.24-.24 1.26-.02 2.53.03 3.79-.03.6-.03 1.19-.09 1.78-.2.81-.15 1.59-.38 2.32-.76.95-.49 1.73-1.16 2.3-2.07.66-1.06.91-2.23.97-3.46-.04-.02-4.04-.02-5.99-.02z"/><path fill="#FEFEFE" d="M49.08 25.73c.85-.55 1.74-1.06 2.62-1.56 2.04-1.15 4.04-2.37 6-3.65.92-.6 1.78-1.26 2.57-2.03.35-.34.68-.71.98-1.1.04-.05.07-.11.12-.14.01-.07.07-.12.11-.18.79-1.13 1.27-2.38 1.42-3.75.16-1.43.04-2.84-.36-4.22-.01-.05-.04-.09-.03-.15-.11-.28-.21-.56-.32-.83-.68-1.57-1.76-2.8-3.17-3.76-.55-.37-1.13-.69-1.74-.96-.06-.03-.07-.05-.21-.12 0 0-1.95-1.73-6.39-1.73s-6.99 1.74-6.99 1.74c-1.13.51-2.18 1.29-3.06 2.17-.76.76-1.36 1.64-1.84 2.61-.03.07-.07.13-.1.2-.03.13-.1.25-.15.37-.42 1-.71 2.05-.89 3.12-.11.66-.19 1.32-.23 1.99 0 .03-.04.73-.05 1.05 0 .13-.01.12.14.14h6.03c.06 0 .11.01.17.01.42 0 .85-.01 1.27-.01h.49c.06 0 .16-.01.18-.06.03-.04.03-.27.03-.41.01-.92.12-1.83.42-2.7.11-.32.25-.63.42-.93.46-.79 1.12-1.33 1.99-1.6 1.18-.37 2.35-.33 3.49.2.49.23.91.55 1.23.98.48.62.63 1.34.55 2.11-.09.92-.46 1.72-1 2.46-.54.73-1.2 1.35-1.9 1.92-.99.8-2.05 1.5-3.11 2.2-1.26.83-2.53 1.65-3.75 2.54-1.29.94-2.52 1.97-3.62 3.14-.94 1.01-1.77 2.11-2.43 3.33-.62 1.15-1 2.37-1.14 3.66-.01.11-.03.23-.03.34 0 .08-.03.46-.03.46h26.02c.02 0 .06-.38.06-.47v-.09c0-1.69-.09-5.92-.08-6.09 0-.06-.06-.05-.11-.05H48.89c.07-.1.14-.12.19-.15z"/></svg>