<?xml version="1.0" standalone="no"?>
<!DOCTYPE svg PUBLIC "-//W3C//DTD SVG 20010904//EN"
 "http://www.w3.org/TR/2001/REC-SVG-20010904/DTD/svg10.dtd">
<svg version="1.0" xmlns="http://www.w3.org/2000/svg"
 width="1109.000000pt" height="1109.000000pt" viewBox="0 0 1109.000000 1109.000000"
 preserveAspectRatio="xMidYMid meet">

<g transform="translate(0.000000,1109.000000) scale(0.100000,-0.100000)"
fill="#000000" stroke="none">
<path d="M5220 11080 c-1114 -73 -2129 -447 -3009 -1110 -228 -172 -361 -289
-586 -514 -450 -451 -780 -915 -1061 -1490 -677 -1390 -738 -3028 -164 -4466
219 -548 519 -1049 910 -1521 134 -160 509 -535 669 -669 1058 -879 2336
-1328 3691 -1297 1293 30 2482 483 3480 1326 156 132 474 449 603 601 286 340
523 691 715 1060 618 1188 780 2577 456 3890 -305 1231 -1044 2342 -2064 3100
-826 614 -1772 977 -2800 1075 -199 19 -654 27 -840 15z m1598 -2876 c27 -19
27 -35 3 -132 -42 -165 -36 -314 16 -421 33 -69 150 -192 267 -281 151 -115
239 -143 347 -109 101 30 329 60 509 66 191 6 345 -10 530 -57 213 -53 381
-83 434 -76 68 8 140 45 216 112 36 31 89 67 118 81 51 25 105 77 161 155 29
41 45 46 79 22 20 -14 22 -23 20 -76 l-3 -60 48 -19 c70 -28 115 -66 142 -118
12 -25 41 -63 64 -83 23 -20 41 -43 41 -52 0 -46 -64 -137 -109 -155 -14 -5
-54 -10 -88 -9 -52 1 -67 -3 -95 -24 -18 -14 -52 -35 -75 -47 -70 -35 -75 -51
-63 -177 5 -60 10 -137 10 -171 0 -82 26 -150 141 -366 134 -251 191 -327 248
-327 32 0 71 -37 71 -67 0 -16 -8 -27 -27 -34 -95 -37 -173 -14 -238 72 -66
85 -420 423 -499 476 -88 59 -140 67 -212 30 -64 -33 -86 -58 -129 -146 -46
-94 -80 -196 -96 -289 l-12 -73 29 -25 29 -24 -105 3 -105 2 -1 305 c0 168 -1
310 -2 317 -3 15 -27 19 -192 38 -74 9 -155 18 -180 21 -57 8 -65 -2 -110
-116 -19 -47 -54 -119 -79 -160 -33 -56 -46 -88 -49 -125 -3 -46 0 -56 48
-128 47 -71 55 -78 79 -74 14 3 38 -1 53 -9 26 -13 58 -50 58 -66 0 -5 -34 -8
-75 -8 -68 0 -75 -2 -75 -20 0 -15 -7 -20 -29 -20 -23 0 -41 14 -87 63 -76 82
-133 160 -174 239 l-34 65 14 100 c11 89 11 108 -5 179 -9 43 -21 83 -25 88
-12 12 -91 -34 -220 -130 -63 -47 -153 -108 -199 -136 -132 -78 -147 -93 -191
-182 -42 -84 -49 -125 -35 -204 l8 -44 -69 7 c-111 10 -111 10 -119 54 -5 30
1 62 28 143 76 224 115 310 173 383 64 79 68 87 169 355 40 108 87 227 104
264 17 38 30 70 29 71 -2 0 -35 13 -75 29 -184 70 -442 283 -517 425 -54 103
-77 204 -78 336 -2 252 88 411 190 339z m-3698 -314 c23 -23 25 -45 5 -80 -20
-35 -18 -77 6 -167 21 -76 21 -79 4 -130 -13 -39 -15 -56 -7 -66 7 -9 10 -64
9 -161 -3 -145 -2 -148 20 -163 32 -21 29 -38 -12 -62 -19 -11 -35 -25 -35
-30 0 -5 18 -33 40 -62 56 -74 57 -93 19 -202 -30 -84 -33 -102 -33 -207 0
-152 24 -241 119 -440 40 -85 80 -179 89 -209 16 -55 22 -196 9 -189 -5 2 -32
15 -60 31 -108 56 -137 59 -645 64 l-468 5 0 -946 0 -946 250 0 250 0 0 350 0
350 188 0 c216 0 292 13 397 64 38 19 71 33 73 31 6 -5 -27 -218 -50 -330 -30
-142 -33 -217 -13 -291 22 -84 62 -128 150 -170 126 -60 186 -135 154 -193
-15 -26 -70 -41 -210 -57 l-56 -7 -32 47 c-40 58 -71 79 -104 71 -24 -6 -27
-3 -46 62 -61 206 -140 530 -157 643 -10 68 -20 78 -28 29 -11 -74 -57 -206
-90 -261 -17 -28 -51 -66 -75 -83 -57 -40 -63 -55 -19 -55 90 0 158 -44 177
-113 38 -133 -27 -162 -306 -137 -168 16 -173 14 -173 -61 0 -60 -14 -69 -107
-69 -94 0 -282 19 -303 30 -10 5 -21 25 -24 45 -10 50 -38 65 -101 55 -27 -5
-83 -9 -123 -9 -88 -1 -106 -9 -132 -62 -13 -25 -34 -46 -55 -56 -32 -15 -42
-15 -126 -1 -87 16 -136 36 -144 61 -2 7 -11 38 -20 70 l-16 57 -52 0 c-58 0
-57 0 -294 -214 -155 -141 -304 -246 -348 -246 -28 0 -55 38 -55 78 0 61 119
271 200 352 60 61 79 72 227 139 89 41 178 87 199 104 53 44 74 96 74 191 0
102 25 265 56 374 27 93 100 256 161 355 l37 61 9 -34 8 -33 24 24 c13 13 44
65 68 114 87 177 242 585 234 616 -3 10 1 23 9 30 8 6 11 15 8 20 -3 5 6 9 21
9 23 0 24 2 15 20 -8 15 -5 33 16 82 21 50 27 80 28 148 1 76 5 91 33 140 17
30 36 81 42 113 13 72 4 234 -15 265 -16 25 -49 29 -89 10 -42 -19 -50 -1 -31
80 9 39 16 96 16 126 0 48 -4 60 -31 91 -17 19 -43 38 -58 41 -40 10 -52 23
-41 44 8 14 4 25 -15 48 -14 17 -25 33 -25 37 0 4 -14 23 -30 42 -26 29 -30
41 -30 93 0 52 -3 62 -24 75 -14 10 -34 13 -48 10 -30 -8 -63 24 -54 52 12 38
72 56 216 63 74 3 145 12 157 18 33 18 69 14 123 -13 27 -14 60 -25 72 -25 40
-1 91 -25 156 -73 81 -60 121 -68 180 -37 51 28 132 120 207 236 50 77 111
134 143 134 32 0 103 49 183 126 48 46 92 84 98 84 6 0 20 -9 31 -20z m-152
-2490 c92 -52 122 -204 59 -299 -43 -65 -91 -84 -229 -89 l-118 -4 0 212 0
212 123 -4 c107 -3 127 -6 165 -28z m1091 -2141 c35 -12 36 -17 19 -54 -9 -21
-17 -25 -36 -20 -73 18 -80 18 -106 -8 -22 -22 -26 -35 -26 -87 l0 -60 60 0
c33 0 60 -4 60 -9 0 -5 -3 -23 -6 -40 -6 -30 -8 -31 -60 -31 l-54 0 0 -250 0
-250 -45 0 -45 0 0 250 0 250 -40 0 -40 0 0 40 0 40 40 0 40 0 0 68 c0 81 21
127 71 154 38 20 119 24 168 7z m1011 -358 c0 -385 2 -401 43 -386 10 4 18 -4
26 -26 6 -18 11 -33 11 -35 0 -1 -14 -7 -30 -13 -44 -15 -86 -3 -115 31 l-25
30 0 378 c0 410 -3 388 58 389 l32 1 0 -369z m534 363 c14 -5 16 -51 16 -410
l0 -404 -40 0 c-38 0 -40 1 -40 32 l0 32 -33 -32 c-43 -42 -89 -55 -141 -41
-53 14 -89 48 -118 113 -20 45 -23 66 -23 181 0 115 3 136 24 183 25 56 76
108 117 118 39 10 100 -2 134 -26 l30 -21 0 140 0 141 29 0 c16 0 36 -3 45 -6z
m-941 -55 c47 -13 112 -70 138 -121 37 -73 51 -164 46 -293 -9 -218 -72 -324
-211 -355 -105 -23 -208 24 -259 118 -91 168 -67 495 45 599 58 55 156 76 241
52z m-3062 -31 c84 -39 119 -100 119 -212 0 -43 -7 -76 -24 -112 -37 -79 -98
-113 -218 -121 l-78 -6 0 -138 0 -139 -45 0 -45 0 0 381 0 381 118 -4 c99 -3
126 -8 173 -30z m5514 17 c118 -31 165 -95 165 -225 0 -52 -6 -88 -19 -117
-35 -76 -129 -123 -246 -123 l-45 0 0 -140 0 -140 -50 0 -50 0 0 380 0 380 93
0 c51 0 119 -7 152 -15z m-4725 -95 l0 -70 55 0 c30 0 55 -4 55 -9 0 -5 -3
-23 -6 -40 -6 -30 -9 -31 -55 -31 l-49 0 0 -202 c0 -112 4 -209 9 -217 10 -15
54 -19 86 -8 16 5 25 1 38 -23 l18 -29 -32 -17 c-47 -24 -123 -23 -157 2 -56
42 -62 69 -62 291 l0 202 -37 3 c-36 3 -38 5 -38 38 0 33 2 35 38 38 l37 3 0
64 c0 69 2 72 68 74 l32 1 0 -70z m-347 -74 c74 -30 117 -124 117 -253 l0 -73
-150 0 -150 0 0 -37 c0 -42 28 -111 53 -131 38 -32 99 -24 188 25 3 2 14 -8
23 -22 21 -31 12 -47 -43 -74 -80 -40 -177 -32 -236 20 -98 87 -115 352 -30
481 46 69 148 98 228 64z m788 2 c19 -6 46 -20 62 -30 l27 -20 -20 -28 -20
-27 -46 23 c-72 36 -130 27 -153 -23 -27 -59 1 -100 96 -138 86 -34 117 -56
137 -99 20 -42 21 -118 1 -155 -56 -110 -251 -129 -338 -34 -16 19 -16 20 6
42 l24 22 44 -26 c59 -33 118 -34 156 -1 23 20 28 32 28 69 0 58 -19 78 -103
112 -36 15 -79 36 -94 47 -94 66 -69 222 42 267 34 13 110 13 151 -1z m726 -8
c103 -46 152 -233 108 -405 -35 -132 -130 -200 -245 -174 -104 24 -160 110
-168 263 -5 110 9 188 47 248 52 82 164 111 258 68z m2470 9 c79 -30 123 -115
126 -246 l2 -78 -154 -3 -153 -3 7 -47 c4 -26 14 -62 23 -81 29 -63 114 -76
189 -30 l31 19 21 -26 c26 -32 19 -44 -46 -75 -67 -32 -147 -31 -206 4 -37 22
-52 40 -79 94 -30 62 -32 73 -32 172 0 77 5 121 18 159 21 62 67 119 111 138
37 16 104 18 142 3z m513 -11 c0 -53 -11 -68 -47 -68 -25 0 -43 -8 -63 -28
-47 -47 -60 -113 -60 -304 l0 -168 -45 0 -45 0 0 290 0 290 40 0 c36 0 40 -3
40 -24 0 -51 11 -58 34 -24 27 40 60 58 109 58 32 0 37 -3 37 -22z m1088 -5
c65 -48 92 -117 92 -235 l0 -78 -151 0 -152 0 6 -49 c8 -70 32 -110 74 -128
42 -17 93 -11 140 18 l31 20 21 -29 21 -30 -38 -25 c-87 -60 -204 -55 -272 13
-45 45 -69 110 -77 207 -13 157 44 293 137 332 40 17 136 8 168 -16z m482 13
c0 -7 -3 -28 -6 -45 -6 -28 -10 -31 -44 -31 -27 0 -45 -7 -64 -26 -44 -45 -56
-108 -56 -301 l0 -173 -45 0 -45 0 0 290 0 290 40 0 40 0 1 -47 c0 -42 2 -45
12 -28 7 11 26 34 44 52 26 28 38 33 77 33 32 0 46 -4 46 -14z m318 -12 c57
-28 60 -33 36 -69 l-15 -24 -47 25 c-83 45 -162 16 -162 -60 0 -42 25 -65 120
-108 112 -51 148 -102 137 -194 -16 -148 -211 -198 -352 -90 -20 15 -20 15 6
42 l27 26 32 -23 c25 -19 44 -24 92 -24 74 0 98 22 98 92 0 51 -28 85 -88 104
-61 19 -122 59 -143 92 -26 43 -25 119 1 162 46 74 163 96 258 49z m462 4 c79
-40 120 -132 120 -269 0 -105 -15 -170 -53 -226 -40 -58 -92 -86 -160 -86
-144 0 -227 129 -214 333 3 47 12 105 21 130 19 52 67 106 111 126 47 21 124
17 175 -8z m550 7 c17 -9 39 -33 50 -55 18 -36 20 -59 20 -280 l0 -240 -45 0
-45 0 0 224 c0 124 -4 236 -10 250 -24 64 -89 54 -147 -22 l-33 -44 0 -204 0
-204 -45 0 -45 0 0 290 0 290 39 0 c37 0 39 -2 46 -36 l6 -37 32 30 c18 17 41
35 52 41 29 16 91 14 125 -3z m466 -6 c61 -29 68 -41 44 -71 l-20 -26 -46 24
c-77 39 -135 27 -154 -32 -16 -49 3 -82 65 -111 144 -67 169 -89 185 -156 17
-77 -22 -156 -94 -194 -67 -35 -210 -11 -258 44 -17 19 -17 20 5 41 l23 21 49
-24 c27 -14 66 -25 87 -25 78 0 125 87 82 149 -9 13 -51 39 -93 58 -82 37
-115 62 -137 105 -26 50 -11 132 32 170 59 52 155 64 230 27z"/>
<path d="M5383 2950 c-24 -14 -36 -32 -47 -71 -19 -62 -21 -210 -5 -274 27
-106 122 -127 180 -39 16 25 19 48 19 180 0 147 -1 152 -25 178 -21 23 -63 46
-83 46 -4 0 -21 -9 -39 -20z"/>
<path d="M4520 3122 c-71 -39 -108 -176 -96 -350 8 -110 35 -191 77 -227 37
-31 114 -35 160 -8 118 70 121 502 4 579 -40 26 -104 28 -145 6z"/>
<path d="M1400 2970 l0 -160 58 0 c109 0 162 52 162 158 0 108 -56 161 -167
162 l-53 0 0 -160z"/>
<path d="M6970 2970 l0 -160 50 0 c111 0 160 49 160 161 0 110 -48 157 -162
158 l-48 1 0 -160z"/>
<path d="M1935 2961 c-42 -18 -75 -82 -75 -147 l0 -34 106 0 107 0 -6 59 c-6
65 -25 102 -63 119 -29 14 -41 14 -69 3z"/>
<path d="M3396 2935 c-32 -34 -46 -96 -46 -202 0 -103 12 -152 45 -190 19 -23
32 -28 68 -28 57 0 82 22 102 88 17 59 20 185 4 256 -15 71 -46 101 -104 101
-36 0 -51 -5 -69 -25z"/>
<path d="M5920 2958 c-31 -16 -58 -69 -66 -131 l-7 -47 112 0 112 0 -7 53 c-7
55 -24 96 -47 115 -22 19 -70 24 -97 10z"/>
<path d="M7491 2958 c-35 -18 -61 -67 -68 -127 l-6 -51 107 0 106 0 0 45 c0
50 -18 103 -42 122 -23 20 -71 25 -97 11z"/>
<path d="M8727 2934 c-35 -34 -50 -114 -45 -228 6 -142 52 -207 133 -192 67
13 94 76 95 221 0 166 -29 225 -113 225 -34 0 -50 -6 -70 -26z"/>
</g>
</svg>
