<?xml version="1.0" standalone="no"?>
<!DOCTYPE svg PUBLIC "-//W3C//DTD SVG 20010904//EN"
 "http://www.w3.org/TR/2001/REC-SVG-20010904/DTD/svg10.dtd">
<svg version="1.0" xmlns="http://www.w3.org/2000/svg"
 width="1122.000000pt" height="1121.000000pt" viewBox="0 0 1122.000000 1121.000000"
 preserveAspectRatio="xMidYMid meet">

<g transform="translate(0.000000,1121.000000) scale(0.100000,-0.100000)"
fill="#000000" stroke="none">
<path d="M5276 11199 c-742 -42 -1494 -243 -2159 -575 -182 -91 -203 -102
-372 -202 -621 -369 -1187 -877 -1623 -1461 -1006 -1346 -1352 -3067 -947
-4706 236 -957 723 -1833 1415 -2548 678 -701 1545 -1219 2488 -1487 309 -88
631 -150 978 -187 213 -22 844 -25 1054 -5 703 69 1328 242 1936 536 1735 841
2909 2496 3129 4411 62 546 39 1154 -66 1695 -190 979 -626 1872 -1283 2624
-132 152 -395 415 -546 546 -158 137 -381 306 -573 434 -1014 674 -2206 995
-3431 925z m759 -130 c1028 -81 2020 -453 2844 -1067 1013 -756 1736 -1837
2041 -3055 117 -465 164 -849 164 -1337 -1 -487 -47 -874 -160 -1328 -202
-812 -589 -1566 -1142 -2222 -140 -165 -463 -488 -632 -630 -622 -524 -1337
-900 -2107 -1109 -1438 -391 -2983 -175 -4261 596 -405 244 -753 522 -1098
875 -408 419 -714 849 -978 1378 -591 1185 -731 2538 -396 3826 311 1191 1021
2247 2015 2994 1063 799 2384 1183 3710 1079z"/>
<path d="M6655 8717 c-54 -54 -80 -153 -80 -312 0 -149 15 -218 71 -335 76
-157 359 -385 557 -449 20 -7 37 -15 37 -19 0 -3 -20 -54 -45 -112 -24 -58
-74 -186 -111 -285 -70 -193 -89 -229 -159 -315 -60 -75 -175 -371 -183 -471
l-4 -66 -112 -12 c-250 -25 -453 -118 -621 -285 -268 -266 -351 -652 -215
-1005 143 -370 507 -612 920 -612 287 0 521 98 720 301 452 461 312 1216 -278
1503 -51 25 -124 54 -162 63 -69 18 -70 19 -70 52 0 18 -4 42 -10 52 -6 12 -5
36 5 74 34 128 84 190 222 272 50 30 142 93 205 139 117 87 212 144 223 133
13 -13 34 -125 35 -184 0 -33 -5 -86 -11 -118 -9 -52 -8 -61 15 -112 59 -128
221 -324 269 -324 l27 0 0 -925 0 -925 250 0 250 0 0 348 0 349 198 6 c289 10
398 43 509 154 112 114 158 262 150 493 -5 167 -28 253 -93 348 -88 127 -231
192 -426 192 -71 0 -94 4 -123 21 -36 21 -36 23 -30 70 17 126 99 347 152 410
13 15 53 43 89 60 59 29 68 31 103 21 94 -29 247 -161 529 -457 117 -123 139
-142 184 -156 l50 -15 -51 -33 c-154 -99 -239 -276 -228 -476 16 -276 168
-420 567 -539 209 -63 269 -108 278 -211 2 -30 2 -65 -2 -79 -9 -36 -65 -96
-103 -112 -49 -21 -156 -18 -201 5 -79 41 -137 131 -149 231 l-6 50 -51 0
c-67 -1 -386 -27 -392 -32 -7 -8 24 -170 45 -231 94 -272 258 -382 592 -394
218 -8 345 20 471 103 155 104 250 298 250 514 1 247 -109 417 -334 519 -58
26 -213 78 -395 130 -98 29 -143 71 -143 132 0 91 60 141 167 141 110 -1 176
-54 209 -171 9 -31 17 -57 19 -59 2 -2 429 28 431 31 1 1 -5 36 -12 78 -50
286 -214 433 -514 458 -91 8 -231 2 -314 -14 -28 -6 -37 -5 -32 3 8 13 -10 52
-33 69 -9 7 -29 13 -45 13 -60 0 -138 116 -303 448 l-76 152 -8 153 c-5 83
-11 166 -13 182 -10 57 13 80 168 166 32 17 49 20 88 15 58 -8 80 2 130 57 36
40 54 90 42 120 -3 9 -21 28 -40 42 -19 14 -45 48 -59 75 -28 56 -72 93 -135
115 -55 20 -61 28 -54 90 6 57 -1 71 -37 80 -22 5 -30 0 -54 -32 -53 -71 -120
-134 -175 -164 -31 -16 -85 -55 -120 -86 -118 -102 -184 -117 -366 -83 -66 12
-171 35 -235 51 -210 52 -297 63 -514 62 -216 0 -422 -24 -558 -64 -78 -23
-132 -17 -222 25 -115 53 -351 272 -398 368 -52 108 -57 286 -12 435 21 68 19
99 -7 117 -35 25 -67 19 -103 -17z m1598 -1722 c76 -8 147 -20 158 -25 19 -11
20 -21 17 -326 l-3 -314 -187 0 c-155 0 -188 2 -188 14 0 27 -59 66 -99 66
-35 0 -40 4 -84 71 -26 39 -50 82 -53 95 -10 40 4 87 48 160 23 38 57 107 75
153 18 47 40 96 49 109 18 28 -6 28 267 -3z m377 -1056 c94 -20 150 -94 150
-199 0 -32 -8 -71 -19 -95 -40 -87 -103 -115 -257 -115 l-104 0 0 210 0 210
90 0 c49 0 112 -5 140 -11z m-1840 -18 c179 -30 335 -157 406 -331 20 -50 28
-88 32 -163 9 -172 -33 -289 -145 -408 -204 -215 -525 -220 -733 -10 -136 138
-189 322 -145 509 46 193 208 356 398 397 76 16 115 18 187 6z"/>
<path d="M2927 8348 c-76 -76 -103 -94 -193 -127 -45 -17 -76 -51 -147 -158
-70 -106 -168 -208 -211 -219 -44 -11 -92 5 -154 50 -76 57 -95 66 -129 66
-15 0 -57 14 -91 30 -70 33 -92 36 -125 18 -12 -6 -83 -15 -158 -18 -108 -5
-143 -10 -175 -26 -32 -17 -39 -26 -39 -50 0 -27 3 -29 49 -35 62 -7 76 -26
76 -101 0 -49 4 -62 30 -91 16 -19 30 -38 30 -43 0 -4 10 -18 22 -31 19 -20
20 -27 10 -43 -10 -16 -9 -21 7 -30 11 -5 27 -10 36 -10 29 0 83 -63 91 -105
4 -25 0 -73 -11 -133 -11 -59 -14 -97 -8 -103 6 -6 24 -4 47 6 34 14 40 15 61
1 30 -20 39 -72 33 -208 -3 -96 -6 -109 -43 -182 -35 -72 -39 -86 -37 -147 2
-54 -3 -82 -23 -132 -28 -71 -30 -88 -13 -105 9 -9 6 -12 -14 -12 -25 0 -42
-25 -39 -56 3 -31 -176 -488 -250 -635 -52 -105 -75 -132 -90 -108 -5 8 -9 23
-9 33 0 26 -46 -46 -106 -166 -91 -181 -144 -390 -144 -568 0 -115 -13 -154
-68 -211 -39 -40 -73 -60 -197 -115 -82 -36 -171 -82 -198 -101 -57 -42 -117
-124 -185 -253 -63 -119 -71 -156 -42 -193 12 -15 29 -27 39 -27 47 0 219 128
441 329 l145 131 53 0 c58 0 59 -1 83 -93 15 -58 35 -71 148 -91 103 -18 139
-10 168 34 50 78 43 74 149 81 55 4 118 10 140 14 35 6 45 4 63 -14 12 -12 21
-32 21 -44 0 -44 26 -54 169 -66 193 -16 227 -15 250 8 15 15 19 28 14 55 -10
64 4 70 132 60 60 -5 151 -9 202 -9 77 0 96 3 120 21 49 37 41 133 -16 188
-23 22 -45 31 -100 39 -39 6 -71 15 -71 19 0 4 12 15 26 25 96 67 137 139 182
319 l26 105 17 -103 c19 -107 112 -488 152 -618 22 -71 24 -75 50 -72 34 4 57
-12 102 -71 41 -53 55 -56 145 -32 30 8 74 15 98 15 37 0 44 3 53 27 19 50 3
89 -53 134 -29 22 -79 53 -112 68 -71 33 -97 58 -127 126 -31 68 -31 195 -2
324 12 51 30 150 39 219 17 119 19 126 51 155 114 104 186 329 169 532 -14
170 -55 279 -137 369 -48 53 -49 55 -49 120 0 97 -14 143 -95 316 -142 301
-164 457 -95 661 42 121 41 129 -27 218 -18 24 -33 48 -33 53 0 5 16 18 35 29
41 24 44 41 12 62 -22 14 -23 18 -20 158 2 95 -1 152 -9 167 -9 18 -8 29 5 57
22 46 21 65 -3 150 -24 83 -25 111 -5 149 28 54 14 96 -32 96 -16 0 -50 -27
-106 -82z"/>
<path d="M4475 6339 c-626 -78 -1014 -692 -805 -1272 124 -342 458 -592 836
-626 703 -62 1241 584 1032 1239 -114 356 -441 615 -833 660 -102 11 -131 11
-230 -1z m226 -423 c192 -41 358 -204 404 -397 44 -188 -8 -372 -145 -510
-207 -209 -530 -205 -733 10 -113 120 -153 233 -145 405 6 122 28 184 98 284
119 169 322 250 521 208z"/>
<path d="M3829 3777 c-47 -31 -59 -61 -59 -144 l0 -73 -40 0 c-39 0 -40 -1
-40 -34 0 -33 2 -35 38 -38 l37 -3 3 -252 2 -253 40 0 40 0 2 253 3 252 50 3
c52 3 65 13 65 50 0 20 -4 22 -61 22 l-61 0 4 66 c3 56 8 70 28 86 24 20 68
21 111 4 10 -5 19 1 27 19 18 38 15 43 -25 54 -64 18 -126 13 -164 -12z"/>
<path d="M4943 3793 l-23 -4 0 -365 c0 -388 3 -419 48 -443 25 -13 91 -14 111
-2 20 13 0 67 -23 63 -45 -8 -46 -1 -46 389 l0 369 -22 -1 c-13 -1 -33 -4 -45
-6z"/>
<path d="M5480 3653 l0 -146 -22 21 c-80 74 -201 45 -252 -60 -76 -156 -45
-414 57 -477 23 -14 51 -21 86 -21 44 0 56 5 90 35 l38 35 6 -30 c6 -27 10
-30 47 -30 l40 0 0 404 0 404 -31 6 c-62 12 -59 19 -59 -141z m-32 -198 l32
-35 0 -149 0 -150 -38 -41 c-51 -52 -97 -56 -136 -9 -36 42 -41 67 -41 199 0
93 4 124 19 158 36 79 104 91 164 27z"/>
<path d="M4451 3736 c-84 -28 -148 -115 -171 -233 -19 -97 -9 -294 20 -367 46
-120 124 -171 248 -164 55 3 78 9 111 31 95 63 136 188 129 390 -6 134 -21
194 -69 264 -51 74 -172 110 -268 79z m175 -109 c49 -53 68 -128 67 -272 0
-136 -18 -215 -59 -264 -51 -62 -157 -62 -208 0 -42 50 -60 128 -60 264 0 136
18 214 61 265 35 42 58 51 117 46 42 -3 55 -9 82 -39z"/>
<path d="M1258 3735 c-5 -5 -8 -176 -8 -382 l0 -373 45 0 45 0 0 139 0 138 69
6 c100 8 150 26 193 69 43 43 58 89 58 178 -1 156 -76 216 -282 227 -62 3
-116 2 -120 -2z m225 -89 c44 -18 67 -47 78 -97 15 -65 2 -127 -36 -168 -31
-34 -37 -36 -109 -39 l-76 -4 0 161 0 161 55 0 c31 0 70 -6 88 -14z"/>
<path d="M6820 3362 l0 -382 45 0 45 0 0 140 0 140 38 0 c69 1 159 25 197 55
53 40 77 100 77 190 -1 86 -23 140 -74 178 -50 37 -92 47 -215 54 l-113 6 0
-381z m247 272 c46 -33 65 -81 60 -145 -9 -109 -53 -149 -162 -149 l-55 0 0
161 0 161 65 -4 c44 -3 74 -10 92 -24z"/>
<path d="M2263 3693 c-21 -4 -23 -10 -23 -69 l0 -64 -40 0 c-39 0 -40 -1 -40
-34 0 -33 2 -35 38 -38 l37 -3 5 -220 c3 -152 9 -227 18 -242 28 -50 130 -70
192 -38 35 18 36 22 11 54 -15 20 -21 22 -39 12 -30 -16 -57 -14 -75 7 -15 16
-17 47 -17 225 l0 207 49 0 c51 0 61 9 61 51 0 16 -7 19 -55 19 l-55 0 0 70
c0 76 0 76 -67 63z"/>
<path d="M1835 3556 c-36 -16 -82 -67 -102 -114 -22 -54 -33 -170 -22 -251 18
-148 89 -221 213 -221 50 0 71 6 114 31 l53 30 -20 28 -21 28 -46 -23 c-110
-56 -188 -8 -201 122 l-6 54 152 0 151 0 0 68 c0 124 -44 218 -117 248 -41 17
-109 17 -148 0z m135 -83 c22 -21 33 -43 41 -85 18 -87 17 -88 -106 -88 l-105
0 0 33 c0 131 94 209 170 140z"/>
<path d="M2610 3548 c-34 -17 -51 -35 -68 -70 -47 -93 -5 -174 116 -224 93
-39 122 -67 122 -120 0 -87 -96 -122 -189 -68 l-45 25 -20 -21 c-26 -26 -15
-45 40 -74 56 -30 190 -30 231 0 51 38 73 81 73 143 0 92 -38 134 -162 181
-97 36 -124 96 -69 151 36 36 76 38 139 7 l45 -21 19 24 c20 23 20 23 -7 45
-60 48 -155 57 -225 22z"/>
<path d="M3325 3551 c-88 -40 -129 -129 -129 -281 0 -112 21 -184 67 -237 39
-45 82 -63 147 -63 143 0 219 123 208 335 -5 92 -29 166 -66 209 -47 53 -154
70 -227 37z m151 -82 c43 -40 64 -173 44 -289 -10 -62 -18 -80 -45 -107 -63
-63 -142 -35 -170 59 -19 64 -19 219 -1 271 33 91 112 122 172 66z"/>
<path d="M5823 3551 c-78 -36 -123 -139 -123 -285 0 -114 24 -190 76 -243 47
-47 84 -58 169 -51 69 6 141 49 126 76 -26 44 -26 44 -72 17 -96 -54 -175 -16
-199 98 -6 31 -9 61 -5 67 4 6 65 10 156 10 l149 0 0 43 c0 71 -20 159 -46
204 -44 75 -144 103 -231 64z m122 -61 c34 -13 64 -80 65 -143 l0 -48 -107 3
-108 3 3 50 c5 108 68 165 147 135z"/>
<path d="M6375 3548 c-15 -12 -35 -35 -45 -51 l-18 -30 -7 47 c-7 46 -8 46
-46 46 l-39 0 0 -290 0 -290 45 0 45 0 0 168 c0 191 13 257 60 304 20 20 38
28 63 28 36 0 47 15 47 68 0 19 -5 22 -39 22 -24 0 -48 -8 -66 -22z"/>
<path d="M7390 3548 c-82 -42 -120 -132 -120 -283 0 -53 6 -113 15 -143 18
-60 66 -119 112 -138 49 -21 139 -18 189 7 61 29 68 41 44 71 l-20 26 -46 -24
c-110 -55 -185 -8 -201 126 l-6 49 154 3 154 3 -2 69 c-2 38 -9 92 -18 120
-34 118 -147 168 -255 114z m129 -62 c35 -18 52 -56 58 -128 l6 -58 -112 0
-111 0 0 28 c0 16 7 51 15 80 24 81 79 111 144 78z"/>
<path d="M7949 3555 c-14 -7 -34 -30 -44 -49 -22 -40 -35 -32 -35 22 0 31 -2
32 -40 32 l-40 0 0 -290 0 -290 45 0 45 0 0 175 c0 149 3 182 20 226 27 72 55
99 100 99 34 0 38 3 44 31 11 55 9 59 -31 59 -21 -1 -49 -7 -64 -15z"/>
<path d="M8180 3548 c-52 -27 -78 -60 -86 -110 -14 -83 26 -135 142 -188 45
-21 89 -48 98 -61 26 -38 21 -86 -14 -121 -28 -28 -35 -30 -84 -26 -34 3 -65
13 -85 28 l-33 23 -25 -26 -26 -25 43 -31 c50 -36 89 -45 169 -39 99 7 161 72
161 169 0 84 -42 130 -163 178 -94 38 -125 104 -72 156 31 32 82 33 142 3 l45
-22 19 24 c17 24 17 26 1 39 -67 53 -161 65 -232 29z"/>
<path d="M8654 3551 c-85 -39 -124 -126 -124 -281 0 -117 18 -182 65 -237 43
-50 88 -67 165 -61 119 9 181 98 188 272 5 120 -9 190 -49 246 -54 74 -158
100 -245 61z m158 -90 c51 -56 64 -248 23 -349 -37 -92 -142 -96 -187 -8 -42
82 -34 291 14 351 42 53 104 55 150 6z"/>
<path d="M9255 3555 c-16 -9 -42 -29 -56 -46 l-26 -30 -7 41 c-6 38 -8 40 -41
40 l-35 0 0 -290 0 -290 40 0 40 0 0 203 0 204 29 40 c53 74 102 92 141 53 19
-19 20 -33 20 -260 l0 -240 45 0 45 0 0 241 c0 204 -3 246 -17 276 -31 66
-111 91 -178 58z"/>
<path d="M9663 3549 c-56 -27 -83 -72 -83 -136 0 -69 29 -110 105 -146 116
-54 130 -63 141 -98 36 -106 -74 -168 -184 -103 l-45 27 -18 -24 c-10 -13 -17
-28 -15 -34 1 -5 26 -22 55 -37 99 -52 234 -30 279 45 41 68 35 157 -14 208
-15 16 -59 41 -97 56 -92 37 -117 61 -117 112 0 74 70 101 159 60 l45 -20 20
21 21 21 -30 25 c-59 48 -153 57 -222 23z"/>
</g>
</svg>
