<?xml version="1.0" encoding="utf-8"?>
<!-- Generator: Adobe Illustrator 24.0.0, SVG Export Plug-In . SVG Version: 6.00 Build 0)  -->
<svg version="1.2" baseProfile="tiny" id="Layer_1" xmlns="http://www.w3.org/2000/svg" xmlns:xlink="http://www.w3.org/1999/xlink"
	 x="0px" y="0px" viewBox="0 0 97.05 87.1" xml:space="preserve">
<path fill="#A5CB3F" d="M56.45,15.44c-2.54,1.36-5.01,2.84-7.42,4.41c-2.98,1.94-5.9,3.97-8.55,6.36c-1.02,0.92-1.99,1.89-2.79,3.02
	c-0.25,0.35-0.36,0.32-0.54-0.05c-1.53-3.04-1.89-6.24-1.32-9.56c0.75-4.35,2.83-8.01,5.99-11.06c1.77-1.7,3.94-2.7,6.25-3.43
	c2.84-0.89,5.76-1.34,8.71-1.62c3.52-0.34,7.04-0.67,10.46-1.69c1.46-0.43,2.9-0.91,4.28-1.56c0.37-0.17,0.41-0.07,0.38,0.28
	c-0.67,6.77-1.65,13.48-3.65,20.01c-0.85,2.77-1.86,5.48-3.48,7.92c-1.88,2.82-4.54,4.73-7.54,6.18c-2.42,1.17-4.99,1.77-7.67,1.77
	c-2.83,0-5.51-0.68-7.89-2.28c-0.39-0.26-0.57-0.17-0.84,0.13c-1.78,2.04-3.23,4.32-4.57,6.65c-0.22,0.38-0.41,0.46-0.82,0.33
	c-0.92-0.28-1.85-0.51-2.78-0.74c-0.36-0.09-0.42-0.2-0.19-0.52c2.51-3.55,5.12-7.03,7.97-10.32c4.27-4.92,9.14-9.18,14.37-13.04
	C55.36,16.23,55.9,15.84,56.45,15.44z"/>
<path fill="#A5CB3F" d="M96.46,75.02c0,2.5,0,4.99,0.01,7.49c0,0.31-0.08,0.47-0.38,0.6c-3,1.29-6.07,2.38-9.29,2.93
	c-3.18,0.55-6.35,0.45-9.51-0.22c-2.82-0.6-5.43-1.66-7.68-3.51c-2.88-2.37-4.63-5.45-5.46-9.05c-1.06-4.65-1.07-9.3,0.53-13.84
	c1.92-5.43,5.74-8.98,11.26-10.55c6.19-1.76,12.24-1.02,18.15,1.35c0.66,0.27,1.3,0.58,1.96,0.85c0.3,0.12,0.42,0.29,0.41,0.63
	c-0.02,1.64-0.01,3.27-0.01,4.91c0,0.16,0.11,0.39-0.13,0.48c-0.2,0.07-0.38-0.02-0.55-0.14c-0.93-0.7-1.88-1.35-2.88-1.94
	c-2.79-1.68-5.82-2.56-9.05-2.8c-2.18-0.16-4.33-0.05-6.43,0.61c-3.06,0.96-5.31,2.9-6.87,5.66c-1.29,2.3-1.81,4.8-1.91,7.42
	c-0.1,2.45,0.06,4.86,0.83,7.2c1.65,4.98,5.08,7.95,10.26,8.79c3.92,0.64,7.74,0.05,11.46-1.27c0.35-0.13,0.43-0.32,0.43-0.66
	c-0.01-2.68-0.02-5.36,0-8.04c0-0.43-0.09-0.56-0.54-0.56c-2.94,0.02-5.89,0-8.83,0.02c-0.46,0-0.58-0.13-0.57-0.58
	c0.03-1.12,0.02-2.25,0-3.37c-0.01-0.33,0.11-0.42,0.43-0.42c4.65,0.01,9.3,0.01,13.94,0c0.36,0,0.44,0.13,0.44,0.46
	C96.45,69.99,96.46,72.51,96.46,75.02z"/>
<path fill="#A5CB3F" d="M19,69.3c0,5.28-0.01,10.55,0.01,15.83c0,0.43-0.09,0.57-0.54,0.56c-1.27-0.03-2.55-0.03-3.82,0
	c-0.48,0.01-0.6-0.12-0.6-0.6c0.01-10.42,0.01-20.84,0.01-31.26c0-0.83,0-0.83-0.85-0.83c-3.95,0-7.91-0.01-11.86,0.01
	c-0.43,0-0.57-0.1-0.56-0.55c0.03-1.11,0.03-2.22,0-3.32c-0.01-0.44,0.12-0.55,0.56-0.55c9.48,0.01,18.95,0.01,28.43,0.01
	c0.69,0,1.39,0.01,2.08,0c0.28-0.01,0.37,0.09,0.37,0.37c-0.01,1.22-0.02,2.45,0,3.67c0.01,0.44-0.27,0.37-0.52,0.37
	c-3.97,0-7.94,0-11.91,0C19,53,19,53,19,53.82C19,58.98,19,64.14,19,69.3z"/>
<path fill="#A5CB3F" d="M37.19,67.12c0-5.99,0.01-11.97-0.01-17.96c0-0.46,0.12-0.59,0.58-0.58c1.22,0.03,2.45,0.01,3.67,0.01
	c0.7,0,0.7,0,0.7,0.68c0,10.45,0,20.9,0,31.35c0,0.74-0.08,0.67,0.66,0.67c5.75,0,11.51,0.01,17.26-0.01c0.44,0,0.6,0.09,0.59,0.56
	c-0.04,1.09-0.03,2.18,0,3.27c0.01,0.43-0.09,0.56-0.54,0.56c-3.01-0.02-6.02-0.01-9.03-0.01c-4.45,0-8.9-0.01-13.35,0.01
	c-0.45,0-0.55-0.12-0.54-0.55C37.2,79.13,37.19,73.12,37.19,67.12z"/>
</svg>
