<svg xmlns="http://www.w3.org/2000/svg" baseProfile="tiny" version="1.2" viewBox="0 0 97.05 87.1"><path fill="#A5CB3F" d="M56.45 15.44c-2.54 1.36-5.01 2.84-7.42 4.41-2.98 1.94-5.9 3.97-8.55 6.36-1.02.92-1.99 1.89-2.79 3.02-.25.35-.36.32-.54-.05-1.53-3.04-1.89-6.24-1.32-9.56.75-4.35 2.83-8.01 5.99-11.06 1.77-1.7 3.94-2.7 6.25-3.43 2.84-.89 5.76-1.34 8.71-1.62 3.52-.34 7.04-.67 10.46-1.69 1.46-.43 2.9-.91 4.28-1.56.37-.17.41-.07.38.28-.67 6.77-1.65 13.48-3.65 20.01-.85 2.77-1.86 5.48-3.48 7.92-1.88 2.82-4.54 4.73-7.54 6.18-2.42 1.17-4.99 1.77-7.67 1.77-2.83 0-5.51-.68-7.89-2.28-.39-.26-.57-.17-.84.13-1.78 2.04-3.23 4.32-4.57 6.65-.22.38-.41.46-.82.33-.92-.28-1.85-.51-2.78-.74-.36-.09-.42-.2-.19-.52 2.51-3.55 5.12-7.03 7.97-10.32 4.27-4.92 9.14-9.18 14.37-13.04.55-.4 1.09-.79 1.64-1.19zM96.46 75.02c0 2.5 0 4.99.01 7.49 0 .31-.08.47-.38.6-3 1.29-6.07 2.38-9.29 2.93-3.18.55-6.35.45-9.51-.22-2.82-.6-5.43-1.66-7.68-3.51-2.88-2.37-4.63-5.45-5.46-9.05-1.06-4.65-1.07-9.3.53-13.84 1.92-5.43 5.74-8.98 11.26-10.55 6.19-1.76 12.24-1.02 18.15 1.35.66.27 1.3.58 1.96.85.3.12.42.29.41.63-.02 1.64-.01 3.27-.01 4.91 0 .16.11.39-.13.48-.2.07-.38-.02-.55-.14-.93-.7-1.88-1.35-2.88-1.94-2.79-1.68-5.82-2.56-9.05-2.8-2.18-.16-4.33-.05-6.43.61-3.06.96-5.31 2.9-6.87 5.66-1.29 2.3-1.81 4.8-1.91 7.42-.1 2.45.06 4.86.83 7.2 1.65 4.98 5.08 7.95 10.26 8.79 3.92.64 7.74.05 11.46-1.27.35-.13.43-.32.43-.66-.01-2.68-.02-5.36 0-8.04 0-.43-.09-.56-.54-.56-2.94.02-5.89 0-8.83.02-.46 0-.58-.13-.57-.58.03-1.12.02-2.25 0-3.37-.01-.33.11-.42.43-.42 4.65.01 9.3.01 13.94 0 .36 0 .44.13.44.46-.03 2.52-.02 5.04-.02 7.55zM19 69.3c0 5.28-.01 10.55.01 15.83 0 .43-.09.57-.54.56-1.27-.03-2.55-.03-3.82 0-.48.01-.6-.12-.6-.6.01-10.42.01-20.84.01-31.26 0-.83 0-.83-.85-.83-3.95 0-7.91-.01-11.86.01-.43 0-.57-.1-.56-.55.03-1.11.03-2.22 0-3.32-.01-.44.12-.55.56-.55 9.48.01 18.95.01 28.43.01.69 0 1.39.01 2.08 0 .28-.01.37.09.37.37-.01 1.22-.02 2.45 0 3.67.01.44-.27.37-.52.37H19.8c-.8-.01-.8-.01-.8.81V69.3zM37.19 67.12c0-5.99.01-11.97-.01-17.96 0-.46.12-.59.58-.58 1.22.03 2.45.01 3.67.01.7 0 .7 0 .7.68v31.35c0 .74-.08.67.66.67 5.75 0 11.51.01 17.26-.01.44 0 .6.09.59.56-.04 1.09-.03 2.18 0 3.27.01.43-.09.56-.54.56-3.01-.02-6.02-.01-9.03-.01-4.45 0-8.9-.01-13.35.01-.45 0-.55-.12-.54-.55.02-5.99.01-12 .01-18z"/></svg>