<?xml version="1.0" standalone="no"?>
<!DOCTYPE svg PUBLIC "-//W3C//DTD SVG 20010904//EN"
 "http://www.w3.org/TR/2001/REC-SVG-20010904/DTD/svg10.dtd">
<svg version="1.0" xmlns="http://www.w3.org/2000/svg"
 width="600.000000pt" height="600.000000pt" viewBox="0 0 600.000000 600.000000"
 preserveAspectRatio="xMidYMid meet">

<g transform="translate(0.000000,600.000000) scale(0.100000,-0.100000)"
fill="#000000" stroke="none">
<path d="M707 5109 c-165 -109 -407 -580 -492 -956 -54 -240 -76 -549 -56
-785 47 -560 231 -900 546 -1010 l80 -28 2210 0 c1951 0 2218 2 2269 15 201
52 373 225 467 468 162 422 164 1062 2 1552 -109 332 -324 689 -454 756 l-37
18 -11 -52 c-6 -29 -18 -205 -26 -392 -21 -485 -39 -659 -76 -761 -26 -70 -54
-93 -133 -109 -77 -16 -122 -48 -184 -127 -61 -80 -152 -238 -258 -451 -153
-305 -254 -420 -460 -524 -303 -154 -507 -172 -570 -51 -42 80 -26 251 40 446
52 153 68 183 179 330 314 418 497 774 544 1063 44 266 -56 447 -292 532 -106
37 -205 51 -370 51 -133 0 -156 -3 -200 -23 -104 -46 -154 -122 -155 -232 0
-54 -5 -73 -29 -110 -30 -48 -127 -168 -167 -207 -28 -27 -29 -35 -9 -52 12
-10 43 2 172 67 349 175 547 195 616 63 15 -29 18 -53 14 -145 -3 -91 -9 -124
-35 -192 -65 -175 -184 -340 -461 -637 -136 -146 -251 -281 -313 -367 l-55
-77 -59 82 c-69 96 -138 177 -330 386 -246 268 -336 388 -409 544 -54 115 -69
178 -70 291 0 75 4 96 22 125 76 122 264 100 610 -72 89 -44 167 -77 172 -73
22 13 9 37 -58 116 -117 135 -138 172 -143 259 -6 89 -31 144 -85 189 -65 54
-118 66 -293 65 -264 -2 -417 -49 -530 -163 -84 -85 -110 -147 -117 -281 -9
-165 45 -356 167 -600 101 -200 262 -450 413 -640 32 -41 71 -100 87 -130 29
-58 90 -238 111 -330 20 -81 17 -227 -3 -266 -69 -127 -233 -122 -532 16 -235
108 -338 220 -501 545 -139 278 -216 404 -300 491 -70 73 -110 94 -176 94 -34
0 -84 53 -104 110 -35 99 -58 347 -75 798 -9 250 -23 386 -40 397 -4 2 -28 -9
-53 -26z m1849 -275 c7 -27 13 -51 14 -53 0 -2 -9 4 -20 14 -11 10 -32 19 -46
20 -45 2 -60 53 -22 79 32 23 58 2 74 -60z m965 66 c23 -13 26 -62 5 -80 -8
-6 -24 -10 -34 -8 -11 2 -29 -8 -42 -22 -18 -21 -20 -21 -14 -5 4 11 12 39 19
63 6 24 18 48 26 53 18 11 17 11 40 -1z m-797 -214 c25 -38 45 -71 43 -72 -2
-2 -43 14 -92 36 -87 38 -103 53 -104 95 -1 18 4 20 53 15 l54 -5 46 -69z
m704 39 c-3 -34 -6 -37 -83 -70 -121 -53 -119 -53 -69 20 24 37 44 71 44 76 0
5 25 9 56 9 l55 0 -3 -35z m-2824 -340 c30 -166 83 -330 190 -590 36 -88 66
-166 66 -172 0 -22 -35 -14 -73 15 -35 26 -201 231 -277 342 -20 30 -54 88
-74 128 -34 68 -36 76 -25 110 40 126 145 340 159 325 4 -4 20 -75 34 -158z
m4900 53 c57 -115 96 -216 96 -250 0 -32 -75 -170 -141 -258 -177 -239 -251
-320 -294 -320 l-24 0 19 54 c10 29 42 109 70 177 106 251 145 381 185 612 9
53 20 97 25 97 4 0 33 -51 64 -112z m-5005 -623 c66 -88 116 -136 252 -243 86
-67 97 -81 78 -93 -58 -37 -287 44 -438 156 l-64 47 6 107 c4 58 10 128 13
155 l7 50 40 -45 c21 -24 69 -84 106 -134z m5171 18 c6 -73 8 -139 3 -147 -15
-27 -116 -97 -198 -136 -145 -70 -254 -96 -294 -71 -20 13 -8 26 89 104 103
82 196 173 232 227 51 74 140 172 149 163 4 -4 13 -67 19 -140z m-5212 -347
c60 -42 110 -61 300 -116 39 -11 72 -25 72 -31 0 -6 -20 -19 -45 -30 -73 -33
-336 -25 -406 12 -16 8 -39 132 -39 207 l0 33 28 -16 c15 -9 55 -35 90 -59z
m5212 52 c0 -30 -27 -208 -32 -213 -18 -18 -140 -36 -250 -36 -128 0 -178 10
-205 43 -14 17 1 23 137 59 104 27 207 74 280 128 64 47 70 49 70 19z m-4840
-377 c0 -54 -233 -171 -340 -171 l-37 0 -22 73 c-11 39 -21 75 -21 78 0 4 51
4 113 2 77 -3 132 0 177 10 75 17 130 21 130 8z m4471 -7 c61 -12 114 -15 192
-11 98 5 107 4 103 -11 -3 -9 -14 -44 -24 -77 -16 -56 -20 -60 -50 -63 -87 -9
-308 94 -343 161 -13 22 10 22 122 1z m-2257 -115 c28 -22 33 -48 16 -80 -10
-17 -7 -19 20 -19 17 0 42 -7 56 -17 24 -15 64 -80 64 -103 0 -6 -64 -10 -185
-10 -128 0 -185 3 -185 11 0 23 33 80 58 99 13 11 35 20 49 20 20 0 22 3 13
19 -16 30 -12 50 15 76 29 30 45 31 79 4z m164 -276 l3 -23 -195 0 -196 0 0
25 0 25 193 -2 c191 -3 192 -3 195 -25z m2 -59 c0 -33 33 -83 71 -108 68 -46
55 -56 -72 -56 l-110 0 -26 -30 c-18 -22 -34 -30 -57 -30 -36 0 -76 24 -76 46
0 11 -22 14 -120 14 -139 0 -150 9 -70 58 42 26 51 38 61 76 l11 46 194 0
c171 0 194 -2 194 -16z"/>
<path d="M2484 4869 c-3 -6 0 -17 8 -25 13 -13 16 -13 27 0 7 8 10 20 6 26 -8
13 -32 13 -41 -1z"/>
<path d="M3480 4861 c0 -19 23 -35 34 -24 14 15 5 43 -14 43 -13 0 -20 -7 -20
-19z"/>
<path d="M2982 3018 c-30 -30 3 -77 40 -57 22 12 24 55 2 63 -22 8 -28 8 -42
-6z"/>
<path d="M2783 2148 c-5 -7 -92 -197 -193 -423 -102 -225 -195 -427 -207 -448
-13 -21 -36 -45 -52 -55 -15 -9 -30 -20 -32 -25 -2 -4 56 -9 129 -11 102 -3
132 -1 132 9 0 7 -16 16 -35 19 -46 9 -69 43 -60 88 13 57 84 212 106 231 18
15 44 17 184 17 124 0 165 -3 174 -13 6 -8 28 -61 50 -118 57 -151 57 -182 4
-204 -20 -9 -32 -19 -27 -23 13 -10 324 -3 324 8 0 5 -19 14 -42 21 -24 6 -49
16 -56 22 -24 19 -57 97 -212 497 -84 217 -159 401 -165 408 -10 11 -14 11
-22 0z m47 -342 c34 -85 60 -163 58 -173 -3 -16 -17 -18 -136 -21 -113 -2
-133 0 -138 13 -4 9 16 66 44 128 28 62 60 133 72 160 11 26 25 47 29 47 5 0
37 -69 71 -154z"/>
<path d="M3545 2128 c-49 -5 -123 -7 -162 -4 -54 3 -73 1 -73 -8 0 -7 16 -17
37 -22 21 -5 45 -21 57 -37 20 -27 21 -41 24 -397 3 -413 1 -432 -57 -445 -17
-4 -31 -12 -31 -18 0 -18 489 -15 550 2 73 21 140 60 198 114 100 95 142 199
142 352 0 267 -153 428 -440 464 -95 12 -117 12 -245 -1z m335 -74 c154 -73
250 -241 250 -439 0 -180 -68 -298 -210 -364 -48 -23 -68 -26 -155 -26 -113 1
-208 24 -225 55 -11 20 -15 727 -4 766 10 36 41 44 164 41 105 -2 121 -5 180
-33z"/>
<path d="M954 2121 c-11 -12 0 -21 35 -31 50 -13 90 -58 124 -141 15 -35 94
-226 177 -423 82 -198 156 -367 165 -375 9 -9 18 -12 24 -6 5 6 46 100 92 210
45 110 85 203 89 208 4 4 46 -85 95 -199 48 -113 94 -208 102 -211 8 -3 19 -1
24 4 10 10 150 326 274 618 105 248 132 303 159 321 15 9 26 20 26 25 0 5 -56
9 -125 9 -105 0 -125 -2 -125 -15 0 -9 12 -18 29 -21 17 -4 38 -15 47 -25 16
-17 15 -24 -16 -116 -66 -201 -240 -613 -259 -613 -9 0 -164 354 -164 376 0 6
33 89 73 184 64 150 78 175 107 192 18 11 33 24 33 29 0 6 -49 8 -117 7 -109
-3 -140 -11 -102 -29 50 -22 54 -27 53 -65 -1 -35 -63 -207 -81 -225 -13 -13
-105 228 -98 252 4 11 18 25 31 31 51 24 18 32 -131 32 -107 1 -150 -3 -152
-11 -3 -7 8 -15 24 -18 87 -20 85 -17 207 -305 l57 -135 -64 -150 c-35 -83
-68 -149 -73 -149 -20 4 -298 671 -292 701 2 10 14 23 28 30 56 28 29 36 -123
37 -82 1 -151 -1 -153 -3z"/>
<path d="M4350 2114 c0 -6 15 -15 33 -18 19 -3 45 -18 58 -32 l24 -26 0 -381
c0 -282 -3 -388 -12 -403 -7 -12 -28 -29 -48 -38 -19 -9 -35 -20 -35 -24 0
-10 530 -8 560 2 64 21 130 102 130 158 0 21 -3 20 -35 -14 -43 -44 -86 -65
-173 -83 -89 -19 -232 -20 -258 -1 -18 14 -19 31 -22 375 -3 424 -2 433 65
462 25 11 43 22 40 26 -4 3 -78 6 -167 7 -117 1 -160 -1 -160 -10z"/>
<path d="M2729 911 c20 -13 21 -23 21 -157 0 -126 -2 -144 -17 -153 -14 -8 -2
-10 47 -11 59 0 63 1 40 13 -25 12 -25 15 -28 149 -2 111 0 139 13 151 8 9 15
17 15 19 0 2 -25 3 -56 3 -50 0 -53 -1 -35 -14z"/>
<path d="M2896 786 c-22 -10 -25 -14 -12 -19 13 -5 16 -21 16 -80 0 -43 -5
-78 -12 -85 -9 -9 0 -12 42 -11 43 0 50 2 33 9 -21 8 -23 16 -23 78 0 78 11
95 57 90 17 -2 32 -12 40 -28 16 -32 17 -122 1 -138 -9 -9 -1 -12 38 -11 39 0
45 2 27 9 -21 8 -23 16 -23 73 0 85 -25 121 -79 115 -20 -3 -44 -8 -54 -12
-13 -6 -16 -5 -11 8 7 19 0 19 -40 2z"/>
<path d="M3197 779 c-25 -15 -47 -63 -47 -104 0 -40 32 -80 73 -90 28 -8 97
18 97 36 0 10 -3 10 -12 1 -19 -19 -76 -14 -98 8 -43 43 -36 127 13 144 22 8
33 6 58 -13 l31 -23 -4 24 c-3 20 -9 23 -48 25 -25 2 -53 -2 -63 -8z"/>
<path d="M1390 730 c0 -7 177 -10 510 -10 333 0 510 3 510 10 0 7 -177 10
-510 10 -333 0 -510 -3 -510 -10z"/>
<path d="M3590 730 c0 -7 177 -10 510 -10 333 0 510 3 510 10 0 7 -177 10
-510 10 -333 0 -510 -3 -510 -10z"/>
<path d="M3376 631 c-15 -16 -15 -19 -1 -31 13 -11 19 -11 32 3 14 14 14 17 1
31 -14 14 -17 13 -32 -3z"/>
</g>
</svg>
