<svg xmlns="http://www.w3.org/2000/svg" xml:space="preserve" viewBox="0 0 144 40.32"><path fill="#379345" d="M100.24 10.29c-3.41 0-5.58-1.65-5.55-4.22.05-3.52 2.26-5.55 6.05-5.55 3.27 0 5.43 1.71 5.41 4.27-.03 3.51-2.16 5.5-5.9 5.5zm-.49-.5c3.12-.01 5.07-1.73 4.89-4.6-.17-2.74-2.16-3.45-4.56-3.45-3.04 0-5.03 1.81-4.82 4.67.2 2.66 2.13 3.4 4.5 3.38z"/><path fill="#e9bc05" d="M99.75 9.79c-2.36.01-4.28-.72-4.49-3.38-.21-2.86 1.78-4.68 4.82-4.67 2.4 0 4.39.7 4.56 3.45.18 2.87-1.77 4.59-4.89 4.6z"/><path fill="#000000" d="M10.9 33h5.73l4.4-14.55.9-2.96c1.05-3.45 2.62-4.42 6.25-3.85 2.34.36 3.59 2.34 2.9 4.65-1.66 5.52-3.34 11.02-5.04 16.65h6.21l5.52-18.21c.96-3.16 5.6-4.49 7.94-2.11.73.73 1.25 2.31.99 3.26a398.15 398.15 0 0 1-6.52 21.44 4.4 4.4 0 0 1-3.74 2.58c-10.65.21-21.32.14-31.98.1-2.9 0-4.41-2.23-3.57-5.02l6.06-20.1c.96-3.18 5.14-4.7 7.67-2.48.9.78 1.48 2.73 1.19 3.9-1.28 5.08-2.94 10.07-4.45 15.09-.15.48-.28.97-.46 1.62zm65.73-10.83 1.11-3.66H55.72c-2.78 0-4.51-1.4-4.48-3.55.03-2.1 1.73-3.4 4.49-3.4h27.66c3.76 0 5.23 2 4.16 5.55-1.96 6.5-3.95 13-5.87 19.52-.7 2.36-2.1 3.42-4.62 3.42l-23.12.01c-5.82 0-9.74-6.27-8.3-11.04a9.32 9.32 0 0 1 9.03-6.84c7.3-.02 14.6 0 21.96 0zm-21.91 10.8h18.66l1.06-3.57h-18.6l-1.12 3.57zm75 .08 1.15-3.7h-17.24c-4.9 0-8.43-3.2-8.7-7.9-.3-4.99 3.21-9.61 8-9.74 9.14-.24 18.28-.15 27.43-.07 2.06.02 3.39 1.46 3.28 3.53-.12 2.2-1.65 3.3-3.82 3.3-7.63.03-23.8.02-24.39.02l-1.14 3.68c5.85 0 11.55-.1 17.24-.1 6.15 0 10.26 6.58 8.18 11.88a9.39 9.39 0 0 1-8.67 6.06c-8.5.03-17.01.02-25.52 0-2.37 0-4-1.48-4-3.52.01-2.02 1.57-3.43 3.94-3.44 7.58-.02 23.7 0 24.26 0zm-39.07 6.97c-3.67 0-5.17-1.98-4.13-5.45l5.9-19.5c.82-2.68 3.39-3.8 6.52-2.88 2.23.66 2.98 2.46 2.17 5.18-1.93 6.4-3.9 12.77-5.76 19.17-.7 2.46-2.22 3.56-4.7 3.48z"/></svg>