<svg width="515" height="516" viewBox="0 0 515 516" fill="none" xmlns="http://www.w3.org/2000/svg">
<g clip-path="url(#clip0_1026_1352)">
<path d="M5.13574 259.896L259.136 5.89587L513.636 259.896L430.636 342.896C452.161 380.636 452.923 400.828 425.636 434.396C391.124 451.089 373.269 450.925 345.136 426.896L258.636 514.396L5.13574 259.896Z" fill="white" stroke="white"/>
<path d="M259 4.00004C223.963 39.5157 224.239 96.6823 259.62 131.859C295 167.037 352.166 166.984 387.479 131.74" stroke="#A9A9A9" stroke-width="2.66667" stroke-miterlimit="10" stroke-linejoin="round"/>
<path fill-rule="evenodd" clip-rule="evenodd" d="M131 388C82.5204 339.516 65.5881 267.802 87.2704 202.755C108.953 137.708 165.526 90.4948 233.401 80.7969V80.8021C236.166 100.161 245.13 118.104 258.942 131.943L258.973 334.49C210.843 334.5 164.687 353.62 130.656 387.651" fill="#FFD700"/>
<path d="M259 516L3 260L259 3.99998L515 260L259 516Z" stroke="#A9A9A9" stroke-width="2.66667" stroke-miterlimit="10" stroke-linejoin="round"/>
<path d="M440.021 260C440.021 160.026 358.979 78.9792 259 78.9792C159.026 78.9792 77.9844 160.026 77.9844 260C77.9844 359.974 159.026 441.021 259 441.021C358.979 441.021 440.021 359.974 440.021 260Z" stroke="#A9A9A9" stroke-width="2.66667" stroke-miterlimit="10" stroke-linejoin="round"/>
<path d="M447.641 387.563C447.641 354.24 420.625 327.224 387.302 327.224C353.979 327.224 326.964 354.24 326.964 387.563C326.964 420.885 353.979 447.901 387.302 447.901C420.625 447.901 447.641 420.885 447.641 387.563Z" stroke="#A9A9A9" stroke-width="2.66667" stroke-miterlimit="10" stroke-linejoin="round"/>
<path d="M233.703 80.3647C238.552 114.302 262.156 142.589 294.682 153.427C327.203 164.271 363.063 155.802 387.302 131.563" stroke="black" stroke-width="6.66667" stroke-miterlimit="10" stroke-linejoin="round"/>
<path d="M387.302 131.563C428.761 173.021 447.599 231.974 437.865 289.792C428.131 347.609 391.026 397.141 338.276 422.74" stroke="black" stroke-width="6.66667" stroke-miterlimit="10" stroke-linejoin="round"/>
<path d="M422.261 436.745C395.183 455.99 357.641 449.729 338.276 422.74" stroke="black" stroke-width="6.66667" stroke-miterlimit="10" stroke-linejoin="round"/>
<path d="M422.26 436.745C396.739 383.984 347.26 346.844 289.474 337.073C231.682 327.307 172.744 346.12 131.302 387.563" stroke="black" stroke-width="6.66667" stroke-miterlimit="10" stroke-linejoin="round"/>
<path d="M130.656 387.651C82.3381 339.104 65.5621 267.448 87.3069 202.495C109.052 137.547 165.588 90.4324 233.395 80.7553" stroke="black" stroke-width="6.66667" stroke-miterlimit="10" stroke-linejoin="round"/>
<path d="M259.724 131.979L257.964 334.547" stroke="black" stroke-width="6.66667" stroke-miterlimit="10" stroke-linejoin="round"/>
<path d="M178.459 229.851C179.042 228.372 179.209 227.872 186.146 227.872V224.309C182.021 224.476 181.854 224.476 177.146 224.476C174.75 224.476 168.709 224.476 166.729 224.309V227.872C167.729 227.872 175 227.872 175 229.018C175 229.101 175 229.268 174.667 230.018L160.792 266.872L146 227.872H153.854V224.309C151.209 224.476 143.521 224.476 140.375 224.476C137.813 224.476 129.792 224.476 127.813 224.309V227.872H134.75L138.146 236.788L126.834 266.872L112.125 227.872H119.896V224.309C117.5 224.476 109.396 224.476 106.417 224.476C103.771 224.476 95.917 224.476 93.8545 224.309V227.872H100.792L120.459 279.768C120.959 281.163 121.209 281.747 123.021 281.747C124.854 281.747 125.084 281.163 125.584 279.83L139.959 241.747L154.417 279.83C154.917 281.163 155.167 281.747 156.979 281.747C158.563 281.747 158.959 281.413 159.542 279.83L178.459 229.851Z" fill="black"/>
<path d="M215.556 225.059C214.994 223.58 214.827 223.163 212.848 223.163C210.765 223.163 210.598 223.58 210.035 225.059L189.535 275.455C188.952 276.788 188.952 276.955 186.64 277.205C184.577 277.434 184.244 277.434 182.431 277.434H180.952V280.997C183.098 280.83 188.056 280.83 190.452 280.83C192.681 280.83 198.702 280.83 200.619 280.997V277.434C198.785 277.434 195.66 277.434 193.348 276.538C193.577 275.788 193.577 275.622 193.744 275.288L198.14 264.559H220.265L225.473 277.434H217.723V280.997C220.348 280.83 228.369 280.83 231.515 280.83C234.16 280.83 242.577 280.83 244.64 280.997V277.434H236.806L215.556 225.059ZM209.202 237.205L218.785 260.997H199.535L209.202 237.205Z" fill="black"/>
<path d="M314.875 227.872H321.479V224.309C319.417 224.476 310.917 224.476 308.271 224.476C303.979 224.476 297.042 224.476 292.979 224.309V227.872H304.375V268.684C304.375 276.455 300.584 279.268 296.292 279.268C295.709 279.268 291.917 279.268 288.688 277.205C291.667 276.455 293.063 274.059 293.063 271.58C293.063 267.538 289.834 265.705 287.292 265.705C284.313 265.705 281.417 267.768 281.417 271.58C281.417 277.768 287.771 281.997 296.709 281.997C307.271 281.997 314.875 277.205 314.875 268.684V227.872Z" fill="black"/>
<path d="M391.463 252.913C391.463 235.392 380.067 223.33 361.733 223.33C343.296 223.33 331.983 235.476 331.983 252.913C331.983 270.33 343.546 281.997 361.733 281.997C379.9 281.997 391.463 270.33 391.463 252.913ZM361.733 278.851C356.358 278.851 351.15 276.288 348.004 271.58C344.046 265.538 343.629 257.788 343.629 251.747C343.629 246.705 343.879 239.767 347.275 234.142C350.9 228.372 356.858 226.309 361.733 226.309C368.421 226.309 373.379 229.851 375.775 233.58C378.838 238.372 379.817 243.476 379.817 251.747C379.817 259.934 378.921 266.788 374.775 272.497C372.713 275.288 368.171 278.851 361.733 278.851Z" fill="black"/>
<path fill-rule="evenodd" clip-rule="evenodd" d="M237.854 80.7344C237.854 75.401 229.854 75.401 229.854 80.7344C229.854 86.0677 237.854 86.0677 237.854 80.7344Z" fill="black"/>
<path fill-rule="evenodd" clip-rule="evenodd" d="M391.479 131.74C391.479 126.406 383.479 126.406 383.479 131.74C383.479 137.073 391.479 137.073 391.479 131.74Z" fill="black"/>
<path fill-rule="evenodd" clip-rule="evenodd" d="M135.349 388.349C135.349 383.016 127.349 383.016 127.349 388.349C127.349 393.682 135.349 393.682 135.349 388.349Z" fill="black"/>
<path fill-rule="evenodd" clip-rule="evenodd" d="M342.276 422.74C342.276 417.406 334.276 417.406 334.276 422.74C334.276 428.073 342.276 428.073 342.276 422.74Z" fill="black"/>
<path fill-rule="evenodd" clip-rule="evenodd" d="M426.656 436.458C426.656 431.125 418.656 431.125 418.656 436.458C418.656 441.792 426.656 441.792 426.656 436.458Z" fill="black"/>
</g>
<defs>
<clipPath id="clip0_1026_1352">
<rect width="514.667" height="516" fill="white"/>
</clipPath>
</defs>
</svg>
