<svg xmlns="http://www.w3.org/2000/svg" viewBox="0 0 550 550" version="1.2" baseProfile="tiny-ps"><title>Coders for Causes</title><path d="M20.1 18.1h509.8v509.8H20.1z"/><path fill="#fff" d="M138.2 349.2c-8.5.1-16.9-1.4-24.8-4.4-7.1-2.8-13.4-7.1-18.6-12.6-5.3-5.7-9.3-12.5-11.8-19.9-5.5-17-5.5-35.4 0-52.4 2.5-7.4 6.4-14.1 11.7-19.9 5.2-5.5 11.5-9.8 18.5-12.6 7.9-3.1 16.2-4.6 24.7-4.4 12.8 0 23.1 2.6 30.9 7.9 7.7 5.2 13.9 12.5 17.8 21l-23.2 12.6c-2-4.9-5.2-9.2-9.2-12.5-4-3.2-9.4-4.8-16.3-4.8-8.9 0-15.7 2.6-20.5 7.7-4.8 5.1-7.1 12.1-7.1 21V296c0 8.8 2.4 15.7 7.1 20.9s11.7 7.8 20.9 7.9c7.2 0 12.9-1.6 17.2-4.9 4.5-3.5 8-8 10.4-13.1l22.5 13.4c-4 8.6-10.4 15.8-18.4 20.9-8.1 5.4-18.8 8.1-31.8 8.1zm82.9-23.7H258v-73.9h-39.3v-23.4H258v-19.6c-.1-4.5.6-8.9 2-13.2 1.3-3.8 3.4-7.4 6.2-10.3 3-3 6.6-5.3 10.6-6.8 4.8-1.7 9.9-2.6 15.1-2.5h40.7v23.4H288v29h44.6v23.4H288v73.9h39.3v23.4H221.1v-23.4zm197.7 23.7c-8.5.1-16.9-1.4-24.8-4.4-7.1-2.8-13.4-7.1-18.6-12.6-5.2-5.7-9.2-12.5-11.7-19.9-5.5-17-5.5-35.4 0-52.4 2.5-7.4 6.5-14.1 11.7-19.9 5.2-5.5 11.5-9.8 18.5-12.6 7.9-3.1 16.2-4.6 24.7-4.4 12.8 0 23.1 2.6 30.9 7.9 7.7 5.2 13.9 12.5 17.8 21L444 264.5c-2-4.9-5.2-9.2-9.2-12.5-4-3.2-9.4-4.8-16.3-4.8-8.9 0-15.7 2.6-20.5 7.7-4.8 5.1-7.1 12.1-7.1 21V296c0 8.8 2.4 15.7 7.1 20.9 4.8 5.2 11.7 7.8 20.9 7.9 7.2 0 12.9-1.6 17.2-4.9 4.5-3.5 8-8 10.4-13.1l22.4 13.4c-4 8.6-10.4 15.8-18.4 20.9-8 5.4-18.6 8.1-31.7 8.1z"/></svg>