<svg version="1.1" id="b0d651d0-f243-47a4-8ca9-0f2d2e811958" xmlns="http://www.w3.org/2000/svg" x="0" y="0" viewBox="0 0 425 134.8" xml:space="preserve"><style>.st0{fill:#fff}</style><path d="M425 67.4v67.4H0V0h269.7v67.4z"/><path class="st0" d="M26.9 57.1c-2.6 0-5.2-.4-7.7-1.4-2.2-.9-4.1-2.2-5.8-3.9-1.6-1.8-2.8-3.9-3.6-6.1-1.7-5.3-1.7-10.9 0-16.2.8-2.3 2-4.3 3.6-6.1 1.6-1.7 3.5-3 5.7-3.9 2.4-1 5-1.4 7.6-1.4 3.9 0 7.1.8 9.5 2.4s4.3 3.9 5.5 6.5l-7 4c-.6-1.5-1.6-2.8-2.9-3.9-1.4-1.1-3.2-1.6-5-1.5-2.4-.2-4.7.7-6.3 2.4-1.5 1.8-2.3 4.1-2.2 6.5v6.2c-.1 2.4.7 4.7 2.2 6.5 1.5 1.6 3.6 2.4 6.5 2.4 1.9.1 3.8-.4 5.3-1.5 1.4-1.1 2.5-2.4 3.2-4l6.9 4.1c-1.3 2.6-3.2 4.9-5.7 6.5-2.9 1.8-6.4 2.6-9.8 2.4zM68.8 57.1c-2.6 0-5.2-.4-7.6-1.4-2.2-.9-4.1-2.2-5.7-3.9-1.6-1.8-2.8-3.9-3.6-6.1-1.7-5.3-1.7-10.9 0-16.2.8-2.3 2-4.3 3.6-6.1 1.6-1.7 3.5-3 5.7-3.9 4.9-1.8 10.3-1.8 15.2 0 2.2.9 4.1 2.2 5.7 3.9 1.6 1.8 2.8 3.9 3.6 6.1 1.7 5.3 1.7 10.9 0 16.2-.8 2.3-2 4.4-3.6 6.1-1.6 1.7-3.6 3-5.7 3.9-2.5 1-5 1.5-7.6 1.4zm0-7.1c2.3.1 4.6-.8 6.3-2.4 1.5-1.6 2.3-4 2.3-7.1v-5.8c0-3.1-.8-5.5-2.3-7.1-3.6-3.2-9-3.2-12.6 0-1.6 1.6-2.3 4-2.3 7.1v5.8c0 3.1.8 5.5 2.3 7.1 1.6 1.7 3.9 2.5 6.3 2.4zM119.6 49.7h-.5c-.9 2.1-2.3 4-4.1 5.4-2 1.4-4.5 2.1-7 2-2 0-4-.4-5.8-1.2s-3.3-2.1-4.5-3.6c-1.4-1.8-2.3-3.9-2.9-6.1-.7-2.8-1-5.7-1-8.6 0-6.6 1.3-11.4 3.9-14.7 2.5-3.2 6.3-5 10.3-4.8 2.5-.1 5 .6 7 2 1.8 1.4 3.2 3.3 4.1 5.4h.5V2.8h9.2v53.5h-9.2v-6.6zm-7.8 0c1 0 2-.1 3-.4.9-.2 1.7-.6 2.5-1.2.7-.5 1.3-1.2 1.7-1.9.4-.9.6-1.8.6-2.8V31.8c0-1-.2-1.9-.6-2.8-.4-.8-1-1.5-1.7-2s-1.6-.9-2.5-1.2c-1-.3-2-.4-3-.4-2.3-.1-4.6.8-6.2 2.5-1.6 1.9-2.3 4.3-2.2 6.7v5.9c-.1 2.4.7 4.8 2.2 6.7 1.6 1.8 3.9 2.7 6.2 2.5zM156.3 57.1c-2.7.1-5.4-.4-7.9-1.4-2.2-.8-4.2-2.2-5.8-3.9-1.6-1.8-2.8-3.8-3.6-6.1-1.7-5.3-1.7-10.9 0-16.2.8-2.3 2-4.3 3.6-6.1 1.6-1.7 3.5-3 5.6-3.9 4.7-1.8 10-1.8 14.7 0 2.1.8 4 2.1 5.5 3.8 1.6 1.7 2.8 3.8 3.5 6 .8 2.5 1.2 5.1 1.2 7.7v3H147v.9c-.1 2.4.8 4.8 2.5 6.5 1.9 1.7 4.5 2.6 7.1 2.5 2.1.1 4.2-.4 6-1.4 1.6-.9 3.1-2.2 4.2-3.7l5.3 5.2c-1.5 2.1-3.6 3.8-5.9 5-3.1 1.6-6.5 2.3-9.9 2.1zm-.6-32.2c-2.3-.1-4.6.8-6.3 2.5-1.6 1.8-2.5 4.1-2.4 6.6v.5h16.9v-.6c.1-2.4-.7-4.7-2.2-6.5-1.6-1.8-3.8-2.6-6-2.5zM182.5 49h9.2V26.2h-9.2V19H201v8.9h.5c.4-1.2.9-2.3 1.6-3.4.6-1.1 1.4-2 2.4-2.8 1-.9 2.1-1.5 3.3-2 1.4-.5 2.9-.8 4.4-.7h4.4v8.7h-7.9c-2.2-.1-4.4.4-6.4 1.6-1.6 1-2.5 2.8-2.4 4.6V49h13v7.2h-31.5l.1-7.2zM242 57.1c-3.6.1-7.2-.6-10.6-1.9-2.7-1.1-5.1-2.9-7-5.2l5.4-4.9c1.5 1.6 3.3 3 5.3 3.9 2.2 1 4.6 1.4 7 1.4 1.9.1 3.8-.3 5.6-1.2 1.3-.7 2.2-2 2.1-3.5.1-1.1-.4-2.2-1.4-2.7-1.2-.6-2.4-.9-3.7-1.1l-6-.9c-1.5-.2-3-.6-4.5-1-1.4-.4-2.7-1.1-3.9-1.9-1.1-.8-2.1-1.9-2.7-3.1-.7-1.4-1.1-3-1-4.7-.2-3.6 1.5-7 4.4-9 2.9-2.1 6.9-3.1 12-3.1 3.1-.1 6.3.4 9.2 1.5 2.4.9 4.5 2.4 6.2 4.3l-4.8 5.4c-1.2-1.3-2.6-2.3-4.2-3.1-2.1-1-4.4-1.4-6.7-1.3-4.7 0-7.1 1.5-7.1 4.4-.1 1.1.5 2.2 1.5 2.8 1.2.6 2.5 1 3.8 1.1l5.9.9c1.6.2 3.1.6 4.6 1.1 1.4.4 2.7 1.1 3.9 1.9 1.1.8 2.1 1.9 2.7 3.1.7 1.4 1.1 3 1 4.6.1 3.6-1.5 7-4.5 9.1-3.1 2-7.2 3.1-12.5 3.1zM182.2 124.5c-2.6 0-5.2-.4-7.7-1.4-2.2-.9-4.1-2.2-5.7-3.9-1.6-1.8-2.9-3.9-3.6-6.1-1.7-5.3-1.7-10.9 0-16.2.8-2.3 2-4.4 3.6-6.1s3.5-3 5.7-3.9c2.4-.9 5-1.4 7.6-1.4 3.9 0 7.1.8 9.5 2.5 2.4 1.6 4.3 3.9 5.5 6.5l-7.1 4c-.6-1.5-1.6-2.8-2.9-3.9-1.4-1.1-3.2-1.6-5-1.5-2.4-.1-4.7.7-6.3 2.4-1.5 1.8-2.3 4.1-2.2 6.5v6.2c-.1 2.4.7 4.7 2.2 6.5 1.5 1.6 3.6 2.4 6.5 2.4 1.9.1 3.8-.4 5.3-1.5 1.4-1.1 2.5-2.5 3.2-4l6.9 4.1c-1.3 2.6-3.2 4.9-5.7 6.5-2.9 1.6-6.3 2.5-9.8 2.3zM237.8 123.7c-1.9.1-3.8-.5-5.2-1.7-1.3-1.3-2.1-2.9-2.2-4.7h-.4c-.6 2.2-2 4.1-4 5.4-2.2 1.3-4.7 2-7.3 1.9-3.8 0-6.8-1-9-3-2.3-2.1-3.5-5.1-3.3-8.2 0-7.5 5.5-11.3 16.5-11.3h6.6v-2.5c.1-1.9-.5-3.9-1.7-5.3-1.1-1.2-3-1.8-5.6-1.8-2-.1-4 .4-5.7 1.4-1.5.9-2.7 2.1-3.7 3.5l-5.3-4.5c1.3-2.2 3.3-4.1 5.6-5.2 3.1-1.5 6.5-2.3 10-2.1 4.9 0 8.8 1.1 11.5 3.4s4.1 5.7 4.1 10.2v17.6h4.4v6.9h-5.3zm-16-5.5c2 .1 3.9-.5 5.5-1.5 1.4-.9 2.2-2.5 2.2-4.2v-5h-6.4c-5.1 0-7.6 1.6-7.6 4.8v1.5c-.1 1.3.6 2.6 1.7 3.4 1.4.6 3 1.1 4.6 1zM274.4 117.1h-.4c-.8 2-2.1 3.8-3.8 5.2-2 1.6-4.6 2.4-7.1 2.2-3.4.1-6.6-1.2-8.9-3.6-2.3-2.4-3.4-5.9-3.4-10.4v-24h9.2v22.8c0 5.4 2.3 8.1 7 8.1.9 0 1.8-.1 2.7-.4.9-.2 1.7-.6 2.4-1.1.7-.5 1.2-1.1 1.7-1.9.4-.8.6-1.7.6-2.6v-25h9.2v37.3h-9.2v-6.6zM310.6 124.5c-3.6.1-7.2-.6-10.6-1.9-2.7-1.1-5.1-2.9-7-5.2l5.4-4.9c1.5 1.6 3.3 3 5.3 3.9 2.2 1 4.6 1.4 7 1.4 1.9.1 3.8-.3 5.6-1.2 1.3-.7 2.1-2.1 2.1-3.5.1-1.1-.4-2.2-1.4-2.7-1.2-.5-2.4-.9-3.7-1.1l-6-.9c-1.5-.2-3-.6-4.5-1-1.4-.4-2.7-1.1-3.9-1.9-1.1-.8-2.1-1.9-2.7-3.1-.7-1.4-1-3-1-4.7-.2-3.6 1.5-7 4.4-9 2.9-2.1 6.9-3.1 12-3.1 3.1-.1 6.3.4 9.2 1.5 2.4.9 4.5 2.4 6.2 4.3l-4.8 5.3c-2.8-3-6.8-4.6-10.9-4.4-4.7 0-7.1 1.5-7.1 4.4-.1 1.1.5 2.2 1.5 2.8 1.2.6 2.4 1 3.8 1.1l5.9.9c1.6.2 3.1.6 4.6 1 1.4.4 2.7 1.1 3.9 1.9 1.1.8 2.1 1.9 2.7 3.1.7 1.4 1.1 3 1 4.6.1 3.6-1.5 7-4.4 9.1-3.2 2.2-7.3 3.3-12.6 3.3zM355 124.5c-2.7 0-5.4-.4-7.9-1.4-2.2-.8-4.2-2.2-5.8-3.9-1.6-1.8-2.8-3.8-3.6-6.1-1.7-5.3-1.7-10.9 0-16.2.8-2.3 2-4.4 3.6-6.1s3.5-3 5.6-3.9c2.4-.9 4.9-1.4 7.4-1.4s5 .4 7.3 1.3c2.1.8 4 2.1 5.5 3.8 1.6 1.7 2.8 3.7 3.5 6 .8 2.5 1.3 5.1 1.2 7.7v3h-26.1v.9c-.1 2.4.8 4.8 2.5 6.5 1.9 1.7 4.5 2.6 7.1 2.5 2.1.1 4.2-.4 6-1.4 1.6-.9 3.1-2.2 4.2-3.7l5.3 5.2c-1.5 2.1-3.6 3.8-5.9 5-3.1 1.6-6.5 2.3-9.9 2.2zm-.6-32.2c-2.3-.1-4.6.8-6.3 2.5-1.6 1.8-2.5 4.1-2.4 6.5v.5h16.9v-.6c.1-2.4-.7-4.7-2.2-6.5-1.6-1.6-3.8-2.5-6-2.4zM397.3 124.5c-3.6.1-7.2-.6-10.6-1.9-2.7-1.1-5.1-2.9-7-5.2l5.4-4.9c1.5 1.6 3.3 3 5.3 3.9 2.2 1 4.6 1.4 7 1.4 1.9.1 3.8-.3 5.6-1.2 1.3-.7 2.2-2 2.1-3.5.1-1.1-.4-2.2-1.4-2.7-1.2-.5-2.4-.9-3.7-1.1l-6-.9c-1.5-.2-3-.6-4.5-1-1.4-.4-2.7-1.1-3.9-1.9-1.1-.8-2.1-1.9-2.7-3.1-.7-1.4-1.1-3-1-4.7-.2-3.6 1.5-7 4.4-9 2.9-2.1 6.9-3.1 12-3.1 3.1-.1 6.3.4 9.2 1.5 2.4.9 4.5 2.4 6.2 4.3l-4.8 5.3c-2.8-3-6.8-4.6-10.9-4.4-4.7 0-7.1 1.5-7.1 4.4-.1 1.1.5 2.2 1.5 2.8 1.2.6 2.4 1 3.8 1.1l5.9.9c1.6.2 3.1.6 4.6 1 1.4.4 2.7 1.1 3.9 1.9 1.1.8 2.1 1.9 2.7 3.1.7 1.4 1.1 3 1 4.6.1 3.6-1.5 7-4.5 9.1-3.1 2.2-7.2 3.3-12.5 3.3zM9.2 116.4h11.4V93.6H8.5v-7.2h12.1v-6.1c0-1.4.2-2.8.6-4.1.4-1.2 1-2.3 1.9-3.2.9-.9 2-1.6 3.3-2.1 1.5-.5 3.1-.8 4.7-.8h12.6v7.2H29.8v9h13.8v7.2H29.8v22.8H42v7.2H9.2v-7.1zM68.8 124.5c-2.6 0-5.2-.4-7.6-1.4-2.2-.9-4.1-2.2-5.7-3.9-1.6-1.8-2.8-3.9-3.6-6.1-1.7-5.3-1.7-10.9 0-16.2.8-2.3 2-4.4 3.6-6.1s3.5-3 5.7-3.9c4.9-1.8 10.3-1.8 15.2 0 2.2.9 4.1 2.2 5.7 3.9 1.6 1.8 2.8 3.9 3.6 6.1 1.7 5.3 1.7 10.9 0 16.2-.8 2.3-2 4.4-3.6 6.1s-3.6 3-5.7 3.9c-2.5 1-5 1.5-7.6 1.4zm0-7.1c2.3.1 4.6-.8 6.3-2.4 1.5-1.6 2.3-4 2.3-7.1v-5.8c0-3.1-.8-5.5-2.3-7.1-3.6-3.2-9-3.2-12.6 0-1.6 1.6-2.3 4-2.3 7.1v5.8c0 3.1.8 5.5 2.3 7.1 1.7 1.7 3.9 2.5 6.3 2.4zM95.9 116.4h9.2V93.6h-9.2v-7.2h18.5v8.9h.5c.4-1.2.9-2.3 1.6-3.4.6-1.1 1.5-2 2.4-2.8 1-.9 2.1-1.5 3.3-2 1.4-.5 2.9-.8 4.4-.7h4.4v8.7h-7.9c-2.2-.1-4.4.4-6.4 1.6-1.6 1-2.5 2.8-2.4 4.6v15.1h12.9v7.2H95.9v-7.2z"/></svg>