<svg data-name="Layer 1" xmlns="http://www.w3.org/2000/svg" viewBox="0 0 445.64 200.91"><path d="M67.64 200.91a75 75 0 01-28.32-5.08 58.26 58.26 0 01-21.25-14.43 63.65 63.65 0 01-13.43-22.7 98 98 0 010-59.85 63.79 63.79 0 0113.35-22.71 58.82 58.82 0 0121.15-14.43 74.06 74.06 0 0128.19-5.07q21.9 0 35.27 9.08a58.13 58.13 0 0120.3 24l-26.45 14.43A36.07 36.07 0 0085.9 89.86q-6.81-5.48-18.57-5.48-15.22 0-23.38 8.82t-8.15 24v23q0 15 8.15 23.91t23.91 9q12.28 0 19.64-5.61a40.84 40.84 0 0011.89-15l25.65 15.28a57.73 57.73 0 01-21 23.91q-14.01 9.23-36.4 9.22zM162.44 170.99h42.2V86.58h-44.87V59.84h44.87V37.4a47.71 47.71 0 012.27-15.1A30.56 30.56 0 01214 10.58a33.27 33.27 0 0112.16-7.75 48.22 48.22 0 0117.23-2.8h46.49v26.71h-51v33.13h51v26.71h-51v84.43h44.86v26.71h-121.3zM388.2 200.91a75 75 0 01-28.32-5.08 58.26 58.26 0 01-21.24-14.43 63.82 63.82 0 01-13.36-22.7 98.21 98.21 0 010-59.85 64 64 0 0113.36-22.71 58.82 58.82 0 0121.11-14.43 74.06 74.06 0 0128.19-5.07q21.9 0 35.26 9.08a58.08 58.08 0 0120.31 24l-26.45 14.43a36.07 36.07 0 00-10.55-14.29q-6.81-5.48-18.57-5.48-15.23 0-23.38 8.82t-8.15 24v23q0 15 8.15 23.91t23.91 9q12.29 0 19.64-5.61a40.84 40.84 0 0011.89-15l25.64 15.28a57.69 57.69 0 01-21 23.91q-14 9.23-36.44 9.22z"/></svg>