<?xml version="1.0" encoding="utf-8"?>
<!-- Generator: Adobe Illustrator 24.0.0, SVG Export Plug-In . SVG Version: 6.00 Build 0)  -->
<svg version="1.1" id="eb20d0a3-6b0d-4fe1-a0c5-c9b5784fd889"
	 xmlns="http://www.w3.org/2000/svg" xmlns:xlink="http://www.w3.org/1999/xlink" x="0px" y="0px" viewBox="0 0 550 550"
	 style="enable-background:new 0 0 550 550;" xml:space="preserve">
<style type="text/css">
	.st0{fill:#FFFFFF;}
</style>
<title>logo</title>
<circle cx="275" cy="275.1" r="270"/>
<path class="st0" d="M138.2,349.2c-8.5,0.1-16.9-1.4-24.8-4.4c-7.1-2.8-13.4-7.1-18.6-12.6c-5.3-5.7-9.3-12.5-11.8-19.9
	c-5.5-17-5.5-35.4,0-52.4c2.5-7.4,6.4-14.1,11.7-19.9c5.2-5.5,11.5-9.8,18.5-12.6c7.9-3.1,16.2-4.6,24.7-4.4
	c12.8,0,23.1,2.6,30.9,7.9c7.7,5.2,13.9,12.5,17.8,21l-23.2,12.6c-2-4.9-5.2-9.2-9.2-12.5c-4-3.2-9.4-4.8-16.3-4.8
	c-8.9,0-15.7,2.6-20.5,7.7c-4.8,5.1-7.1,12.1-7.1,21V296c0,8.8,2.4,15.7,7.1,20.9s11.7,7.8,20.9,7.9c7.2,0,12.9-1.6,17.2-4.9
	c4.5-3.5,8-8,10.4-13.1l22.5,13.4c-4,8.6-10.4,15.8-18.4,20.9C161.9,346.5,151.2,349.2,138.2,349.2z"/>
<path class="st0" d="M221.1,325.5H258v-73.9h-39.3v-23.4H258v-19.6c-0.1-4.5,0.6-8.9,2-13.2c1.3-3.8,3.4-7.4,6.2-10.3
	c3-3,6.6-5.3,10.6-6.8c4.8-1.7,9.9-2.6,15.1-2.5h40.7v23.4H288v29h44.6v23.4H288v73.9h39.3v23.4H221.1V325.5z"/>
<path class="st0" d="M418.8,349.2c-8.5,0.1-16.9-1.4-24.8-4.4c-7.1-2.8-13.4-7.1-18.6-12.6c-5.2-5.7-9.2-12.5-11.7-19.9
	c-5.5-17-5.5-35.4,0-52.4c2.5-7.4,6.5-14.1,11.7-19.9c5.2-5.5,11.5-9.8,18.5-12.6c7.9-3.1,16.2-4.6,24.7-4.4
	c12.8,0,23.1,2.6,30.9,7.9c7.7,5.2,13.9,12.5,17.8,21L444,264.5c-2-4.9-5.2-9.2-9.2-12.5c-4-3.2-9.4-4.8-16.3-4.8
	c-8.9,0-15.7,2.6-20.5,7.7c-4.8,5.1-7.1,12.1-7.1,21V296c0,8.8,2.4,15.7,7.1,20.9c4.8,5.2,11.7,7.8,20.9,7.9
	c7.2,0,12.9-1.6,17.2-4.9c4.5-3.5,8-8,10.4-13.1l22.4,13.4c-4,8.6-10.4,15.8-18.4,20.9C442.5,346.5,431.9,349.2,418.8,349.2z"/>
</svg>
