<svg id="b0d651d0-f243-47a4-8ca9-0f2d2e811958" data-name="Layer 1" xmlns="http://www.w3.org/2000/svg" viewBox="0 0 425 134.84"><defs><style>.e0c4c07a-e463-4af1-a34e-171289d7ec07{fill:#fff}</style></defs><path class="e0c4c07a-e463-4af1-a34e-171289d7ec07" d="M0 0h269.69v134.84H0z"/><path d="M63.87 238.68a20.14 20.14 0 01-7.65-1.37 15.69 15.69 0 01-5.75-3.9 17.24 17.24 0 01-3.61-6.14 26.6 26.6 0 010-16.18 17.33 17.33 0 013.61-6.09 15.78 15.78 0 015.71-3.9 19.91 19.91 0 017.62-1.37q5.92 0 9.54 2.45a15.87 15.87 0 015.49 6.5l-7.15 3.9a9.77 9.77 0 00-2.86-3.86 7.78 7.78 0 00-5-1.48 8.18 8.18 0 00-6.32 2.38 9.21 9.21 0 00-2.2 6.5v6.22a9.22 9.22 0 002.2 6.46c1.47 1.62 3.62 2.42 6.47 2.42a8.5 8.5 0 005.31-1.52 11 11 0 003.21-4l6.94 4.12a15.64 15.64 0 01-5.68 6.46 17.64 17.64 0 01-9.88 2.4zm41.9 0a19.91 19.91 0 01-7.62-1.37 15.78 15.78 0 01-5.71-3.9 17.24 17.24 0 01-3.61-6.14 26.6 26.6 0 010-16.18 17.33 17.33 0 013.61-6.09 15.78 15.78 0 015.71-3.9 21.79 21.79 0 0115.21 0 15.73 15.73 0 015.74 3.9 17.33 17.33 0 013.61 6.14 26.4 26.4 0 010 16.18 17.24 17.24 0 01-3.61 6.14 15.73 15.73 0 01-5.74 3.9 20 20 0 01-7.59 1.32zm0-7.08a8.31 8.31 0 006.29-2.41q2.31-2.43 2.31-7.12v-5.78q0-4.69-2.31-7.12a9.37 9.37 0 00-12.57 0c-1.55 1.62-2.31 4-2.31 7.12v5.78c0 3.13.76 5.5 2.31 7.12a8.27 8.27 0 006.28 2.41zm50.78-.36h-.5a13.75 13.75 0 01-4.15 5.42 11.17 11.17 0 01-7 2 13.85 13.85 0 01-5.81-1.19 11.88 11.88 0 01-4.52-3.61 17.47 17.47 0 01-2.89-6.1 32.85 32.85 0 01-1-8.6q0-9.83 3.9-14.66a12.61 12.61 0 0110.33-4.84 11.17 11.17 0 017 2 13.75 13.75 0 014.15 5.42h.5v-22.72h9.25v53.46h-9.25zm-7.73.08a11.21 11.21 0 003-.4 7.77 7.77 0 002.46-1.16 5.34 5.34 0 001.66-1.95 6 6 0 00.61-2.78v-11.7a6 6 0 00-.61-2.78 5.34 5.34 0 00-1.66-2 7.77 7.77 0 00-2.46-1.16 11.21 11.21 0 00-3-.4 7.93 7.93 0 00-6.24 2.46 9.7 9.7 0 00-2.21 6.72v5.92a9.7 9.7 0 002.21 6.72 7.93 7.93 0 006.24 2.51zm44.5 7.36a21.35 21.35 0 01-7.94-1.37 15.55 15.55 0 01-5.82-3.9 16.82 16.82 0 01-3.57-6.1 27 27 0 010-16.22 17.57 17.57 0 013.61-6.09 15.45 15.45 0 015.6-3.9 20.61 20.61 0 0114.7 0 15.36 15.36 0 015.52 3.8 16.94 16.94 0 013.51 6 23.13 23.13 0 011.22 7.68v3H184v.94a8.79 8.79 0 002.53 6.54 9.67 9.67 0 007.08 2.49 11.92 11.92 0 006-1.41 12.91 12.91 0 004.16-3.72l5.27 5.24a16.32 16.32 0 01-5.89 5 20.49 20.49 0 01-9.83 2.02zm-.65-32.21a8.31 8.31 0 00-6.28 2.47 9 9 0 00-2.39 6.55v.51h16.91v-.65a9.21 9.21 0 00-2.21-6.48 7.78 7.78 0 00-6.03-2.4zm26.87 24.12h9.25v-22.82h-9.25v-7.23H238v8.89h.5a16.43 16.43 0 011.56-3.35 12 12 0 012.38-2.84 10.86 10.86 0 013.32-2 12.62 12.62 0 014.45-.73h4.4v8.67h-7.87a11.22 11.22 0 00-6.36 1.6 5.22 5.22 0 00-2.38 4.63v15.15h13v7.23h-31.46zm59.46 8.09a26.8 26.8 0 01-10.62-1.91 17.18 17.18 0 01-7-5.17l5.42-4.91a16.23 16.23 0 005.31 3.9 16.48 16.48 0 007 1.38 11.52 11.52 0 005.56-1.16 3.78 3.78 0 002.1-3.54 2.78 2.78 0 00-1.41-2.74 12.22 12.22 0 00-3.72-1.09l-6-.94a32.12 32.12 0 01-4.51-1 13.58 13.58 0 01-3.91-1.92 8.93 8.93 0 01-2.7-3.14 9.81 9.81 0 01-1-4.66 10.33 10.33 0 014.37-9q4.38-3.1 12-3.1a24.88 24.88 0 019.21 1.51 16.5 16.5 0 016.25 4.26l-4.84 5.35a14.61 14.61 0 00-4.22-3.07 14.78 14.78 0 00-6.69-1.34q-7.08 0-7.08 4.41a2.84 2.84 0 001.45 2.78 12 12 0 003.76 1.12l5.92.94a30.68 30.68 0 014.59 1.05 13.63 13.63 0 013.9 1.91 9.24 9.24 0 012.71 3.11 9.68 9.68 0 011 4.62 10.64 10.64 0 01-4.45 9.07q-4.46 3.29-12.4 3.28z" transform="translate(-37 -181.58)"/><path class="e0c4c07a-e463-4af1-a34e-171289d7ec07" d="M155.31 67.42H425v67.42H155.31z"/><path d="M219.19 306.11a20.15 20.15 0 01-7.66-1.38 15.57 15.57 0 01-5.74-3.9 17.26 17.26 0 01-3.62-6.14 26.6 26.6 0 010-16.18 17.35 17.35 0 013.62-6.14 15.91 15.91 0 015.7-3.9 20.1 20.1 0 017.62-1.37q5.92 0 9.54 2.45a15.72 15.72 0 015.49 6.5L227 280a9.81 9.81 0 00-2.86-3.87 7.76 7.76 0 00-5-1.48 8.22 8.22 0 00-6.32 2.38 9.21 9.21 0 00-2.2 6.51v6.21a9.2 9.2 0 002.2 6.46c1.47 1.62 3.63 2.42 6.47 2.42a8.56 8.56 0 005.31-1.51 11.07 11.07 0 003.21-4.05l6.94 4.12a15.69 15.69 0 01-5.67 6.46 17.61 17.61 0 01-9.89 2.46zm55.62-.87a7.46 7.46 0 01-5.24-1.7 7.34 7.34 0 01-2.2-4.73H267a9.28 9.28 0 01-4 5.38 13.11 13.11 0 01-7.29 1.92q-5.64 0-9-3a10.43 10.43 0 01-3.32-8.23q0-11.27 16.54-11.27h6.57v-2.46a7.41 7.41 0 00-1.73-5.34Q263.1 274 259.2 274a10.46 10.46 0 00-5.7 1.38 12.91 12.91 0 00-3.69 3.53l-5.27-4.47a13.8 13.8 0 015.6-5.24 20.6 20.6 0 0110-2.13q7.38 0 11.53 3.43t4.15 10.22v17.58h4.41v6.94zm-16-5.49a9.4 9.4 0 005.53-1.55 4.91 4.91 0 002.2-4.23v-5h-6.35q-7.59 0-7.59 4.76v1.45a3.86 3.86 0 001.66 3.39 7.88 7.88 0 004.58 1.18zm52.62-1.08h-.36a13.52 13.52 0 01-3.79 5.23 10.57 10.57 0 01-7.12 2.21 11.7 11.7 0 01-8.92-3.65q-3.44-3.65-3.43-10.44V268h9.25v22.81q0 8.12 7 8.11a10.35 10.35 0 002.71-.36 7.2 7.2 0 002.39-1.12 5.86 5.86 0 001.66-1.85 5.18 5.18 0 00.61-2.6V268h9.25v37.28h-9.25zm36.19 7.44a26.86 26.86 0 01-10.62-1.92 17.19 17.19 0 01-7-5.16l5.41-4.92a16.4 16.4 0 005.31 3.91 16.67 16.67 0 007 1.37 11.53 11.53 0 005.57-1.16 3.79 3.79 0 002.09-3.54 2.78 2.78 0 00-1.41-2.74 12.81 12.81 0 00-3.72-1.09l-6-.94a30.91 30.91 0 01-4.52-1 13.39 13.39 0 01-3.9-1.92 9.06 9.06 0 01-2.71-3.14 9.93 9.93 0 01-1-4.66 10.34 10.34 0 014.37-9q4.37-3.1 12-3.1a24.88 24.88 0 019.21 1.51 16.52 16.52 0 016.25 4.27l-4.84 5.34a14.07 14.07 0 00-10.91-4.4q-7.08 0-7.08 4.4a2.84 2.84 0 001.45 2.78 12 12 0 003.75 1.12l5.93.94a30.83 30.83 0 014.58 1.05 13.63 13.63 0 013.9 1.91 9.13 9.13 0 012.71 3.11 9.57 9.57 0 011 4.62 10.65 10.65 0 01-4.44 9.07q-4.43 3.29-12.38 3.29zm44.38 0a21.35 21.35 0 01-7.94-1.38 15.63 15.63 0 01-5.82-3.9 17 17 0 01-3.57-6.1 27 27 0 010-16.22 17.73 17.73 0 013.58-6.14 15.78 15.78 0 015.6-3.9 19.14 19.14 0 017.4-1.37 18.88 18.88 0 017.3 1.34 15.27 15.27 0 015.52 3.8 17 17 0 013.51 5.95 22.91 22.91 0 011.23 7.68v3h-26.15v.94a8.79 8.79 0 002.52 6.54 9.67 9.67 0 007.08 2.49 11.89 11.89 0 006-1.41 12.91 12.91 0 004.16-3.72l5.27 5.25a16.3 16.3 0 01-5.89 5 20.46 20.46 0 01-9.8 2.15zm-.65-32.22a8.31 8.31 0 00-6.28 2.47 9 9 0 00-2.38 6.55v.51h16.9v-.65a9.2 9.2 0 00-2.2-6.48 7.79 7.79 0 00-6.07-2.4zm42.96 32.22a26.79 26.79 0 01-10.62-1.92 17.16 17.16 0 01-7-5.16l5.42-4.92a16.4 16.4 0 005.31 3.91 16.64 16.64 0 007 1.37 11.52 11.52 0 005.56-1.16 3.78 3.78 0 002.1-3.54 2.78 2.78 0 00-1.41-2.74 12.81 12.81 0 00-3.72-1.09l-6-.94a30.77 30.77 0 01-4.51-1 13.58 13.58 0 01-3.91-1.92 8.93 8.93 0 01-2.7-3.14 9.81 9.81 0 01-1-4.66 10.34 10.34 0 014.37-9q4.38-3.1 12-3.1a24.88 24.88 0 019.21 1.51 16.52 16.52 0 016.25 4.27l-4.84 5.34a14 14 0 00-10.91-4.4q-7.08 0-7.08 4.4a2.84 2.84 0 001.45 2.78 12 12 0 003.75 1.12l5.93.94a30.68 30.68 0 014.59 1.05 13.89 13.89 0 013.9 1.91 9.24 9.24 0 012.71 3.11 9.68 9.68 0 011 4.62 10.64 10.64 0 01-4.45 9.07q-4.46 3.29-12.4 3.29z" transform="translate(-37 -181.58)"/><path class="e0c4c07a-e463-4af1-a34e-171289d7ec07" d="M0 67.42h155.31v67.42H0z"/><path d="M46.18 298h11.41v-22.81H45.45V268h12.14v-6.1a12.76 12.76 0 01.61-4.08 8.18 8.18 0 011.92-3.18 9 9 0 013.28-2.1 13.19 13.19 0 014.66-.76h12.57V259H66.84v9h13.79v7.23H66.84V298H79v7.22H46.18zm59.59 8.11a19.91 19.91 0 01-7.62-1.38 15.78 15.78 0 01-5.71-3.9 17.24 17.24 0 01-3.61-6.14 26.6 26.6 0 010-16.18 17.33 17.33 0 013.61-6.14 16 16 0 015.71-3.9 21.79 21.79 0 0115.21 0 16 16 0 015.74 3.9 17.33 17.33 0 013.61 6.14 26.4 26.4 0 010 16.18 17.24 17.24 0 01-3.61 6.14 15.73 15.73 0 01-5.74 3.9 20 20 0 01-7.59 1.38zm0-7.08a8.32 8.32 0 006.29-2.42q2.31-2.43 2.31-7.12v-5.78q0-4.69-2.31-7.11a9.37 9.37 0 00-12.57 0c-1.55 1.61-2.31 4-2.31 7.11v5.78c0 3.13.76 5.5 2.31 7.12a8.28 8.28 0 006.28 2.39zm27.09-1.03h9.25v-22.81h-9.25V268h18.49v8.89h.51a15.88 15.88 0 011.55-3.35 12.27 12.27 0 012.39-2.84 10.63 10.63 0 013.32-2 12.56 12.56 0 014.44-.73H168v8.67h-7.88a11.27 11.27 0 00-6.35 1.6 5.23 5.23 0 00-2.39 4.64V298h12.93v7.22h-31.45z" transform="translate(-37 -181.58)"/></svg>