<svg width="195" height="32" viewBox="0 0 195 32" fill="none" xmlns="http://www.w3.org/2000/svg">
<g id="horizontal-logo-gradient-neutral-atlassian">
<g id="Group">
<g id="Group_2">
<g id="Group_3">
<path id="Vector" d="M7.05795 11.0258C6.69765 10.6294 6.15719 10.6655 5.90497 11.1339L0.0680731 22.8437C-0.148109 23.3121 0.176147 23.8526 0.680572 23.8526H8.82345C9.07566 23.8526 9.32788 23.7085 9.43597 23.4563C11.2375 19.8172 10.1566 14.3045 7.05795 11.0258Z" fill="url(#paint0_linear)"/>
<path id="Vector_2" d="M11.3456 0.360786C8.06688 5.54916 8.28307 11.278 10.4449 15.6016C12.6067 19.9253 14.2641 23.204 14.3722 23.4562C14.4803 23.7085 14.7325 23.8526 14.9847 23.8526H23.1276C23.632 23.8526 23.9923 23.3121 23.7401 22.8437C23.7401 22.8437 12.7869 0.937272 12.4986 0.396816C12.3185 -0.107609 11.6699 -0.143639 11.3456 0.360786Z" fill="#7A869A"/>
</g>
</g>
<g id="Group_4">
<g id="Group_5">
<g id="Group_6">
<g id="Group_7">
<path id="Vector_3" d="M122.031 18.0517C122.031 14.6288 120.193 13.0074 115.077 11.8905C112.231 11.278 111.546 10.6294 111.546 9.72868C111.546 8.61174 112.555 8.10732 114.429 8.10732C116.699 8.10732 118.932 8.7919 121.058 9.76472V5.26092C119.581 4.50428 117.275 3.9278 114.573 3.9278C109.492 3.9278 106.862 6.12565 106.862 9.76472C106.862 12.6471 108.195 14.9531 113.456 15.9619C116.59 16.6105 117.239 17.1149 117.239 18.1598C117.239 19.1686 116.59 19.8172 114.357 19.8172C111.798 19.8172 108.736 18.9525 106.754 17.7635V22.4834C108.339 23.2761 110.429 24.1408 114.321 24.1408C119.833 24.1408 122.031 21.6908 122.031 18.0517Z" fill="#7A869A"/>
<path id="Vector_4" d="M177.446 4.21603V23.8526H181.625V8.89998L183.391 12.8633L189.3 23.8526H194.56V4.21603H190.38V16.8987L188.795 13.2236L184.039 4.21603H177.446Z" fill="#7A869A"/>
<path id="Vector_5" d="M150.891 4.21603H146.315V23.8166H150.891V4.21603Z" fill="#7A869A"/>
<path id="Vector_6" d="M141.019 18.0517C141.019 14.6288 139.181 13.0074 134.065 11.8905C131.219 11.278 130.534 10.6294 130.534 9.72868C130.534 8.61174 131.543 8.10732 133.417 8.10732C135.686 8.10732 137.92 8.7919 140.046 9.76472V5.26092C138.569 4.50428 136.263 3.9278 133.561 3.9278C128.48 3.9278 125.85 6.12565 125.85 9.76472C125.85 12.6471 127.183 14.9531 132.444 15.9619C135.578 16.6105 136.227 17.1149 136.227 18.1598C136.227 19.1686 135.578 19.8172 133.344 19.8172C130.786 19.8172 127.724 18.9525 125.742 17.7635V22.4834C127.327 23.2761 129.417 24.1408 133.308 24.1408C138.857 24.1408 141.019 21.6908 141.019 18.0517Z" fill="#7A869A"/>
<path id="Vector_7" d="M71.4083 4.21603V23.8526H80.7762L82.2535 19.601H75.9842V4.21603H71.4083Z" fill="#7A869A"/>
<path id="Vector_8" d="M52.8527 4.21603V8.46762H57.9329V23.8526H62.5088V8.46762H67.9494V4.21603H52.8527Z" fill="#7A869A"/>
</g>
</g>
<path id="Vector_9" d="M46.187 4.21603H40.1699L33.3242 23.8166H38.5486L39.5214 20.5018C40.6744 20.826 41.8994 21.0422 43.1965 21.0422C44.4575 21.0422 45.6826 20.8621 46.8716 20.5018L47.8444 23.8166H53.0688L46.187 4.21603ZM43.1604 17.0068C42.2957 17.0068 41.431 16.8627 40.6383 16.6465L43.1604 8.07128L45.6826 16.6465C44.8899 16.8627 44.0612 17.0068 43.1604 17.0068Z" fill="#7A869A"/>
<path id="Vector_10" d="M96.9898 4.21603H90.9727L84.127 23.8166H89.3514L90.3242 20.5018C91.4771 20.826 92.7022 21.0422 93.9993 21.0422C95.2603 21.0422 96.4854 20.8621 97.6744 20.5018L98.6472 23.8166H103.872L96.9898 4.21603ZM93.9632 17.0068C93.0985 17.0068 92.2338 16.8627 91.4411 16.6465L93.9632 8.07128L96.4854 16.6465C95.6927 16.8627 94.828 17.0068 93.9632 17.0068Z" fill="#7A869A"/>
<path id="Vector_11" d="M167.321 4.21603H161.304L154.458 23.8166H159.683L160.655 20.5018C161.808 20.826 163.033 21.0422 164.331 21.0422C165.592 21.0422 166.817 20.8621 168.006 20.5018L168.978 23.8166H174.203L167.321 4.21603ZM164.331 17.0068C163.466 17.0068 162.601 16.8627 161.808 16.6465L164.331 8.07128L166.853 16.6465C166.024 16.8627 165.195 17.0068 164.331 17.0068Z" fill="#7A869A"/>
</g>
</g>
</g>
</g>
<defs>
<linearGradient id="paint0_linear" x1="10.2781" y1="12.8168" x2="4.1056" y2="23.5079" gradientUnits="userSpaceOnUse">
<stop stop-color="#344563"/>
<stop offset="0.9228" stop-color="#7A869A"/>
</linearGradient>
</defs>
</svg>
