<svg xmlns="http://www.w3.org/2000/svg" viewBox="0 0 47.089347 17.96987"><path fill="#e35302" stroke-width=".11904761" d="M.033789 17.80884c-.03125-.0818-.04296-4.11309-.02603-8.95833L.038549.04099 4.26474.00929c4.558013-.0341 4.981118.005 6.167836.56589 3.10509 1.46848 3.837759 5.33238 1.433242 7.55854-.382973.35456-.696316.69855-.696316.76441 0 .0659.200893.21489.446428.33118.608761.28833 1.429486 1.13282 1.703951 1.7533.371002.83871.487433 2.02351.291079 2.96198-.407109 1.94578-1.756445 3.27311-3.910349 3.8466-.85274.22705-9.580793.24295-9.666825.0176zm8.273831-3.85542c.74457-.43983 1.029844-1.71249.5331-2.37827-.573312-.76841-.739666-.81988-2.649799-.81988H4.443314l-.03303 1.69643-.03303 1.69643h1.800377c1.452927 0 1.863988-.0376 2.129989-.19471zm-.311689-6.9476c.537485-.47192.71677-.93769.645687-1.67746-.06734-.70078-.359429-1.15468-.932957-1.4498-.335615-.17269-.662239-.20445-1.836775-.17857l-1.428572.0315-.03286 1.81548-.03286 1.81548h3.212202zm7.532581 10.76622c-.110414-.28774-.08448-17.46959.02663-17.64467.07333-.11554.590823-.14392 2.170797-.11904l2.074514.0327.05952 3.57143.05952 3.57143 3.063727.0318 3.063727.0318.03151-3.6032.03151-3.60319h4.285714v17.85714h-4.285714l-.03175-3.20849c-.0236-2.38476-.06945-3.23243-.178572-3.30175-.08075-.0513-1.412582-.0941-2.959625-.0951-2.199175-.001-2.841514.0328-2.944412.15676-.08691.10472-.142402 1.22672-.163387 3.30357l-.03178 3.14499-2.099326.0325c-1.836152.0284-2.108513.009-2.172619-.15854zm17.719563.0368c-.03125-.0818-.04296-4.11309-.02603-8.95833l.03079-8.80952 4.345238-.0316c2.796361-.0204 4.568556.0146 4.971736.098 2.888844.59797 4.950143 3.57428 4.442547 6.41461-.383157 2.14402-1.722867 3.74492-3.74955 4.48057-.735434.26695-.961932.28843-3.041364.28843-1.235714 0-2.331491.0325-2.435061.0723-.164982.0633-.188308.45288-.188308 3.14502 0 1.69002-.03252 3.15751-.07226 3.26108-.06207.16174-.364892.1883-2.146592.1883-1.5498 0-2.0887-.0376-2.131148-.14881zm8.397681-10.71428c1.14858-.78401 1.092128-2.34196-.114319-3.15499-.384306-.25898-.499707-.27197-2.140024-.24092l-1.733813.0328-.03286 1.81548-.03286 1.81548h1.830733c1.702904 0 1.858135-.0187 2.223148-.26786z"/></svg>