<?xml version="1.0" standalone="no"?>
<!DOCTYPE svg PUBLIC "-//W3C//DTD SVG 1.1//EN" "http://www.w3.org/Graphics/SVG/1.1/DTD/svg11.dtd">
<svg xmlns="http://www.w3.org/2000/svg" viewBox="0 0 24 4.36" fill="#fff" width="24" height="4.360000133514404"><path d="M20.1829 3.54551V1.81057C20.1829 1.44781 20.1426 1.19145 19.9714 0.968415C19.7561 0.688338 19.4946 0.58387 19.153 0.58387C18.6723 0.58387 18.2807 0.874201 18.0256 1.21452C17.9944 1.12679 17.9494 1.04459 17.8923 0.970978C17.677 0.690901 17.4155 0.586433 17.0745 0.586433C16.6432 0.586433 16.2836 0.821006 16.0298 1.11454V0.649242H14.9807V0.751788H15.0448C15.1864 0.751788 15.2768 0.837669 15.2768 1.00815C15.2768 1.06455 15.2768 3.49552 15.2768 3.54679C15.2768 3.71791 15.1864 3.80315 15.0448 3.80315H14.9807V3.90954H16.3266V3.80187H16.2625C16.1209 3.80187 16.0305 3.71663 16.0305 3.54551C16.0305 3.5109 16.0305 2.37136 16.0305 1.49845C16.199 1.27413 16.4823 1.0261 16.7829 1.0261C16.8708 1.02108 16.9586 1.03788 17.0384 1.075C17.1183 1.11213 17.1877 1.16843 17.2405 1.23888C17.3215 1.3625 17.3596 1.50934 17.3488 1.65675V3.54551C17.3488 3.71599 17.2591 3.80187 17.1175 3.80187H17.0534V3.9057H18.3993V3.80123H18.3352C18.1935 3.80123 18.1032 3.71599 18.1032 3.54487C18.1032 3.48847 18.1032 2.12333 18.1032 1.80993C18.104 1.71343 18.0999 1.61696 18.091 1.52088C18.2583 1.29143 18.5499 1.0261 18.8601 1.0261C18.948 1.02095 19.0357 1.03762 19.1156 1.07464C19.1954 1.11166 19.2649 1.16786 19.3177 1.23824C19.3992 1.36166 19.4375 1.5086 19.4267 1.65611V3.54551C19.4267 3.71599 19.3363 3.80187 19.1946 3.80187H19.1306V3.9057H20.4765V3.80123H20.4124C20.2707 3.80123 20.1804 3.71599 20.1804 3.54487"/> <path d="M13.0924 0.75307H13.1565C13.2981 0.75307 13.3885 0.83831 13.3885 1.00943C13.3885 1.06583 13.3885 3.4686 13.3885 3.52051C13.3885 3.69099 13.2987 3.80379 13.1565 3.80379H13.0924V3.90954H14.4383V3.807H14.3742C14.2325 3.807 14.1428 3.72176 14.1428 3.55063C14.1428 3.49359 14.1428 1.0684 14.1428 1.012C14.1428 0.841515 14.2325 0.755633 14.3748 0.755633H14.4389V0.649242H13.093L13.0924 0.75307Z"/> <path d="M23.8417 3.06611C23.7256 3.24837 23.5641 3.39735 23.3731 3.49846C23.1821 3.59958 22.9682 3.64935 22.7521 3.64293C22.2503 3.62626 21.81 3.21544 21.6133 2.53159C21.3697 1.68623 21.5786 1.10877 22.126 0.856897C22.5496 0.66142 23.0386 0.867151 23.1816 1.07096C22.9893 1.16453 22.9553 1.40359 22.9989 1.54844C23.0201 1.61375 23.0568 1.67297 23.1058 1.72105C23.1548 1.76914 23.2147 1.80467 23.2804 1.82462C23.3461 1.84457 23.4157 1.84835 23.4832 1.83564C23.5507 1.82293 23.6141 1.7941 23.668 1.7516C23.8135 1.63945 23.8539 1.45935 23.8135 1.27926C23.7699 1.08698 23.6097 0.932524 23.4219 0.814597C23.1529 0.647035 22.8416 0.559866 22.5246 0.563361C21.6389 0.555029 20.8179 1.29976 20.8179 2.32009C20.8179 3.37118 21.728 4.0076 22.5105 4.0076C22.8111 4.01293 23.1077 3.93786 23.3696 3.79014C23.6314 3.64241 23.8491 3.42741 24 3.16737C23.9891 3.15968 23.8577 3.07893 23.8436 3.06547"/> <path d="M2.17913 1.12995e-06C2.03547 0.000381192 1.89514 0.0433295 1.77587 0.123421C1.65661 0.203512 1.56375 0.317154 1.50904 0.44999C1.45432 0.582827 1.4402 0.728899 1.46846 0.869756C1.49673 1.01061 1.5661 1.13993 1.66782 1.24139C1.76954 1.34284 1.89904 1.41187 2.03997 1.43975C2.1809 1.46764 2.32694 1.45314 2.45963 1.39807C2.59232 1.34301 2.70571 1.24985 2.78549 1.13037C2.86527 1.0109 2.90784 0.870455 2.90785 0.726791C2.90776 0.63121 2.88884 0.536582 2.85217 0.448316C2.81549 0.36005 2.76178 0.279878 2.69411 0.212381C2.62643 0.144883 2.54612 0.0913853 2.45775 0.054944C2.36939 0.0185027 2.27471 -0.000167333 2.17913 1.12995e-06ZM2.17913 1.0293C2.11912 1.02943 2.06042 1.01174 2.01047 0.978477C1.96052 0.945215 1.92156 0.897876 1.89854 0.842457C1.87552 0.787037 1.86946 0.726031 1.88114 0.667166C1.89281 0.608301 1.9217 0.554227 1.96413 0.511792C2.00657 0.469357 2.06064 0.440472 2.11951 0.428795C2.17837 0.417118 2.23938 0.423176 2.2948 0.4462C2.35022 0.469224 2.39756 0.508179 2.43082 0.558129C2.46408 0.60808 2.48177 0.666779 2.48164 0.726791C2.48164 0.766517 2.47382 0.805854 2.45861 0.842556C2.44341 0.879258 2.42113 0.912607 2.39304 0.940697C2.36495 0.968788 2.3316 0.99107 2.2949 1.00627C2.2582 1.02148 2.21886 1.0293 2.17913 1.0293Z"/> <path d="M5.08824 1.45358C4.94446 1.45371 4.80396 1.49648 4.6845 1.57647C4.56503 1.65646 4.47198 1.77009 4.41711 1.90298C4.36223 2.03587 4.34801 2.18205 4.37623 2.32303C4.40445 2.464 4.47384 2.59344 4.57564 2.69497C4.67744 2.7965 4.80706 2.86555 4.94811 2.8934C5.08916 2.92125 5.2353 2.90663 5.36805 2.85141C5.50079 2.79618 5.61417 2.70283 5.69385 2.58316C5.77353 2.46348 5.81592 2.32286 5.81567 2.17909C5.81533 1.98645 5.73852 1.80182 5.60212 1.66577C5.46572 1.52973 5.28088 1.45341 5.08824 1.45358ZM5.08824 2.48288C5.02831 2.48288 4.96972 2.46512 4.91988 2.43184C4.87004 2.39855 4.83119 2.35125 4.80823 2.29589C4.78526 2.24053 4.77922 2.17961 4.79087 2.12083C4.80251 2.06204 4.83132 2.00802 4.87365 1.9656C4.91598 1.92318 4.96994 1.89426 5.0287 1.88249C5.08747 1.87072 5.1484 1.87663 5.2038 1.89947C5.25921 1.92232 5.3066 1.96108 5.33999 2.01085C5.37337 2.06061 5.39126 2.11916 5.39139 2.17909C5.39139 2.21887 5.38354 2.25826 5.3683 2.295C5.35306 2.33175 5.33072 2.36513 5.30256 2.39322C5.2744 2.42132 5.24097 2.44359 5.2042 2.45876C5.16742 2.47392 5.12802 2.48168 5.08824 2.4816"/> <path d="M5.08824 2.11363e-06C4.94452 0.000128849 4.80407 0.042862 4.68463 0.1228C4.56519 0.202737 4.47214 0.316291 4.41723 0.449105C4.36232 0.58192 4.34802 0.728033 4.37613 0.868974C4.40425 1.00992 4.47352 1.13936 4.57519 1.24094C4.67686 1.34252 4.80636 1.41167 4.94733 1.43966C5.08829 1.46766 5.23439 1.45322 5.36716 1.3982C5.49992 1.34317 5.6134 1.25001 5.69323 1.13051C5.77306 1.011 5.81567 0.87051 5.81567 0.726792C5.81567 0.631295 5.79685 0.536734 5.76028 0.448513C5.72372 0.360293 5.67013 0.280144 5.60257 0.212647C5.53501 0.14515 5.45482 0.0916286 5.36657 0.0551417C5.27831 0.0186547 5.18374 -8.20992e-05 5.08824 2.11363e-06ZM5.08824 1.0293C5.02825 1.0293 4.96962 1.01151 4.91975 0.978166C4.86988 0.944827 4.83103 0.897444 4.8081 0.842013C4.78518 0.786582 4.77921 0.725596 4.79096 0.666774C4.80271 0.607951 4.83165 0.553936 4.87411 0.511565C4.91657 0.469195 4.97064 0.440373 5.02949 0.428749C5.08834 0.417124 5.14931 0.423219 5.20469 0.446262C5.26008 0.469305 5.30738 0.50826 5.34061 0.558197C5.37384 0.608134 5.39152 0.666808 5.39139 0.726792C5.39139 0.766572 5.38354 0.805962 5.3683 0.842705C5.35306 0.879449 5.33072 0.912826 5.30256 0.940925C5.2744 0.969024 5.24098 0.991293 5.2042 1.00646C5.16742 1.02162 5.12802 1.02939 5.08824 1.0293Z"/> <path d="M3.63459 1.45358C3.49079 1.45358 3.35022 1.49624 3.23068 1.57616C3.11113 1.65608 3.01798 1.76966 2.963 1.90254C2.90803 2.03542 2.89371 2.18162 2.92186 2.32263C2.95001 2.46365 3.01936 2.59315 3.12113 2.69474C3.2229 2.79634 3.35252 2.86545 3.49359 2.89335C3.63466 2.92125 3.78083 2.90668 3.91361 2.85147C4.04639 2.79626 4.15981 2.70291 4.23952 2.58322C4.31923 2.46353 4.36164 2.32289 4.36138 2.17909C4.36104 1.98656 4.28432 1.80202 4.14806 1.666C4.01179 1.52998 3.82713 1.45358 3.63459 1.45358ZM3.63459 2.48288C3.57466 2.48288 3.51608 2.46512 3.46624 2.43184C3.4164 2.39855 3.37754 2.35125 3.35458 2.29589C3.33162 2.24053 3.32558 2.17961 3.33722 2.12083C3.34887 2.06204 3.37768 2.00802 3.42001 1.9656C3.46234 1.92318 3.5163 1.89425 3.57506 1.88249C3.63382 1.87072 3.69475 1.87663 3.75016 1.89947C3.80556 1.92232 3.85295 1.96108 3.88634 2.01084C3.91973 2.06061 3.93761 2.11916 3.93774 2.17909C3.93757 2.25938 3.90556 2.33632 3.84872 2.39304C3.79189 2.44975 3.71488 2.4816 3.63459 2.4816"/> <path d="M3.63459 1.83101e-06C3.49085 1.83101e-06 3.35033 0.0426273 3.23081 0.122488C3.11129 0.202349 3.01813 0.315858 2.96313 0.448661C2.90812 0.581465 2.89372 0.727598 2.92177 0.868582C2.94981 1.00957 3.01903 1.13907 3.12067 1.24071C3.22232 1.34235 3.35182 1.41157 3.4928 1.43962C3.63379 1.46766 3.77992 1.45327 3.91272 1.39826C4.04553 1.34325 4.15904 1.25009 4.2389 1.13057C4.31876 1.01105 4.36138 0.870537 4.36138 0.726792C4.36138 0.534035 4.28481 0.349173 4.14851 0.212874C4.01221 0.0765741 3.82735 1.83101e-06 3.63459 1.83101e-06ZM3.63459 1.0293C3.57461 1.0293 3.51597 1.0115 3.4661 0.978166C3.41624 0.944827 3.37738 0.897444 3.35446 0.842013C3.33153 0.786582 3.32557 0.725596 3.33732 0.666773C3.34906 0.607951 3.378 0.553936 3.42046 0.511565C3.46292 0.469194 3.517 0.440373 3.57584 0.428748C3.63469 0.417124 3.69566 0.423219 3.75105 0.446262C3.80643 0.469305 3.85373 0.50826 3.88696 0.558197C3.9202 0.608134 3.93787 0.666807 3.93774 0.726792C3.93774 0.766572 3.9299 0.805961 3.91465 0.842705C3.89941 0.879449 3.87707 0.912826 3.84891 0.940925C3.82075 0.969024 3.78733 0.991293 3.75055 1.00646C3.71378 1.02162 3.67437 1.02938 3.63459 1.0293Z"/> <path d="M3.63459 2.90652C3.49085 2.90652 3.35033 2.94915 3.23081 3.02901C3.11129 3.10887 3.01813 3.22238 2.96313 3.35518C2.90812 3.48798 2.89372 3.63412 2.92177 3.7751C2.94981 3.91608 3.01903 4.04559 3.12067 4.14723C3.22232 4.24887 3.35182 4.31809 3.4928 4.34614C3.63379 4.37418 3.77992 4.35979 3.91272 4.30478C4.04553 4.24977 4.15904 4.15661 4.2389 4.03709C4.31876 3.91757 4.36138 3.77706 4.36138 3.63331C4.36138 3.44055 4.28481 3.25569 4.14851 3.11939C4.01221 2.98309 3.82735 2.90652 3.63459 2.90652ZM3.63459 3.93646C3.57463 3.93646 3.51602 3.91868 3.46617 3.88537C3.41632 3.85206 3.37746 3.80472 3.35452 3.74932C3.33157 3.69393 3.32557 3.63298 3.33727 3.57417C3.34896 3.51536 3.37784 3.46135 3.42023 3.41895C3.46263 3.37656 3.51665 3.34768 3.57545 3.33599C3.63426 3.32429 3.69521 3.33029 3.7506 3.35324C3.806 3.37618 3.85334 3.41504 3.88665 3.46489C3.91996 3.51474 3.93774 3.57335 3.93774 3.63331C3.93774 3.71371 3.9058 3.79082 3.84895 3.84767C3.7921 3.90452 3.71499 3.93646 3.63459 3.93646Z"/> <path d="M2.17913 2.90652C2.03547 2.9069 1.89514 2.94985 1.77587 3.02994C1.65661 3.11003 1.56375 3.22367 1.50904 3.35651C1.45432 3.48935 1.4402 3.63542 1.46846 3.77628C1.49673 3.91713 1.5661 4.04645 1.66782 4.1479C1.76954 4.24936 1.89904 4.31838 2.03997 4.34627C2.1809 4.37416 2.32694 4.35966 2.45963 4.30459C2.59232 4.24953 2.70571 4.15637 2.78549 4.03689C2.86527 3.91741 2.90784 3.77697 2.90785 3.63331C2.90776 3.53773 2.88884 3.4431 2.85217 3.35483C2.81549 3.26657 2.76178 3.1864 2.69411 3.1189C2.62643 3.0514 2.54612 2.9979 2.45775 2.96146C2.36939 2.92502 2.27471 2.90635 2.17913 2.90652ZM2.17913 3.93646C2.11915 3.93659 2.06047 3.91891 2.01054 3.88568C1.9606 3.85245 1.92164 3.80515 1.8986 3.74977C1.87556 3.69438 1.86946 3.63341 1.88109 3.57456C1.89271 3.51572 1.92153 3.46164 1.96391 3.41918C2.00628 3.37672 2.06029 3.34778 2.11911 3.33603C2.17794 3.32428 2.23892 3.33025 2.29435 3.35318C2.34978 3.3761 2.39717 3.41496 2.43051 3.46482C2.46384 3.51469 2.48164 3.57333 2.48164 3.63331C2.48164 3.7136 2.44979 3.79061 2.39308 3.84744C2.33636 3.90428 2.25942 3.93629 2.17913 3.93646Z"/> <path d="M6.54244 1.45358C6.39864 1.45358 6.25807 1.49624 6.13852 1.57616C6.01898 1.65607 5.92582 1.76966 5.87085 1.90254C5.81588 2.03542 5.80156 2.18161 5.82971 2.32263C5.85786 2.46365 5.9272 2.59315 6.02898 2.69474C6.13075 2.79633 6.26037 2.86545 6.40144 2.89335C6.5425 2.92125 6.68868 2.90667 6.82146 2.85147C6.95424 2.79626 7.06766 2.70291 7.14737 2.58322C7.22707 2.46353 7.26948 2.32289 7.26923 2.17909C7.26931 2.08362 7.25057 1.98908 7.21408 1.90086C7.17758 1.81264 7.12405 1.73249 7.05654 1.66498C6.98904 1.59748 6.90888 1.54395 6.82067 1.50745C6.73245 1.47096 6.63791 1.45222 6.54244 1.4523M6.54244 2.4816C6.48243 2.48172 6.42373 2.46404 6.37378 2.43078C6.32383 2.39751 6.28487 2.35017 6.26185 2.29476C6.23882 2.23934 6.23277 2.17833 6.24444 2.11946C6.25612 2.0606 6.285 2.00652 6.32744 1.96409C6.36987 1.92166 6.42395 1.89277 6.48281 1.88109C6.54168 1.86942 6.60268 1.87547 6.6581 1.8985C6.71352 1.92152 6.76086 1.96048 6.79413 2.01043C6.82739 2.06038 6.84507 2.11908 6.84495 2.17909C6.84478 2.25927 6.81285 2.33611 6.75616 2.39281C6.69946 2.4495 6.62262 2.48143 6.54244 2.4816Z"/> <path d="M7.99597 1.45358C7.85217 1.45358 7.71161 1.49624 7.59206 1.57616C7.47251 1.65608 7.37936 1.76966 7.32439 1.90254C7.26941 2.03542 7.2551 2.18162 7.28324 2.32263C7.31139 2.46365 7.38074 2.59315 7.48251 2.69474C7.58428 2.79634 7.7139 2.86545 7.85497 2.89335C7.99604 2.92125 8.14221 2.90668 8.27499 2.85147C8.40778 2.79626 8.5212 2.70291 8.6009 2.58322C8.68061 2.46353 8.72302 2.32289 8.72276 2.17909C8.72276 1.98633 8.64619 1.80147 8.50989 1.66517C8.37359 1.52887 8.18873 1.4523 7.99597 1.4523M7.99597 2.4816C7.93599 2.4816 7.87735 2.4638 7.82749 2.43046C7.77762 2.39713 7.73877 2.34974 7.71584 2.29431C7.69291 2.23888 7.68695 2.17789 7.6987 2.11907C7.71045 2.06025 7.73938 2.00623 7.78184 1.96386C7.8243 1.92149 7.87838 1.89267 7.93723 1.88105C7.99607 1.86942 8.05705 1.87552 8.11243 1.89856C8.16781 1.9216 8.21511 1.96056 8.24835 2.0105C8.28158 2.06043 8.29925 2.11911 8.29912 2.17909C8.29912 2.21887 8.29128 2.25826 8.27604 2.295C8.26079 2.33175 8.23845 2.36512 8.21029 2.39322C8.18214 2.42132 8.14871 2.44359 8.11194 2.45876C8.07516 2.47392 8.03575 2.48168 7.99597 2.4816Z"/> <path d="M9.45026 1.45358C9.30646 1.45358 9.1659 1.49624 9.04635 1.57616C8.9268 1.65608 8.83365 1.76966 8.77868 1.90254C8.7237 2.03542 8.70939 2.18162 8.73753 2.32263C8.76568 2.46365 8.83503 2.59315 8.9368 2.69474C9.03857 2.79634 9.16819 2.86546 9.30926 2.89335C9.45033 2.92125 9.5965 2.90668 9.72928 2.85147C9.86207 2.79626 9.97549 2.70291 10.0552 2.58322C10.1349 2.46353 10.1773 2.32289 10.1771 2.17909C10.1771 1.98633 10.1005 1.80147 9.96418 1.66517C9.82788 1.52887 9.64302 1.4523 9.45026 1.4523M9.45026 2.4816C9.39025 2.48173 9.33155 2.46404 9.2816 2.43078C9.23165 2.39752 9.1927 2.35018 9.16967 2.29476C9.14665 2.23934 9.14059 2.17833 9.15227 2.11947C9.16395 2.0606 9.19283 2.00653 9.23526 1.96409C9.2777 1.92166 9.33177 1.89277 9.39064 1.88109C9.4495 1.86942 9.51051 1.87548 9.56593 1.8985C9.62135 1.92152 9.66869 1.96048 9.70195 2.01043C9.73521 2.06038 9.7529 2.11908 9.75277 2.17909C9.7526 2.25927 9.72068 2.33612 9.66398 2.39281C9.60729 2.4495 9.53044 2.48143 9.45026 2.4816Z"/> <path d="M0.726791 1.83101e-06C0.583045 1.83101e-06 0.442528 0.0426273 0.323008 0.122488C0.203488 0.202349 0.110333 0.315858 0.0553243 0.448661C0.000315238 0.581465 -0.0140776 0.727598 0.0139657 0.868582C0.0420091 1.00957 0.111229 1.13907 0.212873 1.24071C0.314516 1.34235 0.444018 1.41157 0.585001 1.43962C0.725985 1.46766 0.872118 1.45327 1.00492 1.39826C1.13772 1.34325 1.25123 1.25009 1.33109 1.13057C1.41096 1.01105 1.45358 0.870537 1.45358 0.726792C1.45358 0.534035 1.37701 0.349173 1.24071 0.212874C1.10441 0.0765741 0.919547 1.83101e-06 0.726791 1.83101e-06ZM0.726791 1.0293C0.666806 1.0293 0.60817 1.0115 0.558303 0.978166C0.508437 0.944827 0.469582 0.897444 0.446656 0.842013C0.42373 0.786582 0.417765 0.725596 0.429514 0.666773C0.441263 0.607951 0.470199 0.553936 0.512659 0.511565C0.55512 0.469194 0.609196 0.440373 0.668043 0.428748C0.72689 0.417124 0.787864 0.423219 0.843246 0.446262C0.898628 0.469305 0.945929 0.50826 0.979162 0.558197C1.0124 0.608134 1.03007 0.666807 1.02994 0.726792C1.02994 0.766572 1.02209 0.805961 1.00685 0.842705C0.99161 0.879449 0.96927 0.912826 0.941111 0.940925C0.912953 0.969024 0.879529 0.991293 0.842753 1.00646C0.805977 1.02162 0.766571 1.02938 0.726791 1.0293Z"/> <path d="M5.08824 2.90652C4.94452 2.90665 4.80407 2.94938 4.68463 3.02932C4.56519 3.10926 4.47214 3.22281 4.41723 3.35562C4.36232 3.48844 4.34802 3.63455 4.37613 3.77549C4.40425 3.91643 4.47352 4.04588 4.57519 4.14746C4.67686 4.24903 4.80636 4.31819 4.94733 4.34618C5.08829 4.37417 5.23439 4.35974 5.36716 4.30472C5.49992 4.24969 5.6134 4.15653 5.69323 4.03703C5.77306 3.91752 5.81567 3.77703 5.81567 3.63331C5.81567 3.53781 5.79685 3.44325 5.76028 3.35503C5.72372 3.26681 5.67013 3.18666 5.60257 3.11917C5.53501 3.05167 5.45482 2.99815 5.36657 2.96166C5.27831 2.92517 5.18374 2.90644 5.08824 2.90652ZM5.08824 3.93646C5.02828 3.93646 4.96967 3.91868 4.91982 3.88537C4.86996 3.85206 4.83111 3.80471 4.80817 3.74932C4.78522 3.69393 4.77922 3.63297 4.79091 3.57417C4.80261 3.51536 4.83148 3.46135 4.87388 3.41895C4.91628 3.37656 4.97029 3.34768 5.0291 3.33599C5.0879 3.32429 5.14886 3.33029 5.20425 3.35324C5.25964 3.37618 5.30699 3.41504 5.3403 3.46489C5.37361 3.51474 5.39139 3.57335 5.39139 3.63331C5.39147 3.67314 5.38369 3.7126 5.36848 3.74942C5.35328 3.78624 5.33095 3.81969 5.30279 3.84786C5.27462 3.87603 5.24117 3.89835 5.20435 3.91356C5.16753 3.92876 5.12807 3.93654 5.08824 3.93646Z"/> <path d="M6.54244 1.83101e-06C6.39869 1.83101e-06 6.25818 0.0426273 6.13866 0.122488C6.01914 0.202349 5.92598 0.315858 5.87097 0.448661C5.81596 0.581465 5.80157 0.727598 5.82961 0.868582C5.85766 1.00957 5.92688 1.13907 6.02852 1.24071C6.13016 1.34235 6.25967 1.41157 6.40065 1.43962C6.54163 1.46766 6.68777 1.45327 6.82057 1.39826C6.95337 1.34325 7.06688 1.25009 7.14674 1.13057C7.2266 1.01105 7.26923 0.870537 7.26923 0.726792C7.26923 0.631349 7.25043 0.53684 7.21391 0.448661C7.17738 0.360483 7.12385 0.280362 7.05636 0.212874C6.98887 0.145385 6.90875 0.0918501 6.82057 0.0553254C6.73239 0.0188008 6.63788 1.83101e-06 6.54244 1.83101e-06ZM6.54244 1.0293C6.48243 1.02943 6.42373 1.01174 6.37378 0.978478C6.32383 0.945216 6.28487 0.897877 6.26185 0.842458C6.23882 0.787038 6.23277 0.726032 6.24444 0.667167C6.25612 0.608302 6.28501 0.554227 6.32744 0.511792C6.36988 0.469358 6.42395 0.440472 6.48282 0.428796C6.54168 0.417119 6.60269 0.423177 6.65811 0.446201C6.71353 0.469225 6.76086 0.508179 6.79413 0.55813C6.82739 0.608081 6.84508 0.66678 6.84495 0.726792C6.84495 0.807022 6.81308 0.883966 6.75635 0.940698C6.69961 0.997429 6.62267 1.0293 6.54244 1.0293Z"/> <path d="M7.99597 1.83101e-06C7.85223 1.83101e-06 7.71171 0.0426273 7.59219 0.122488C7.47267 0.202349 7.37952 0.315858 7.32451 0.448661C7.2695 0.581465 7.2551 0.727598 7.28315 0.868582C7.31119 1.00957 7.38041 1.13907 7.48206 1.24071C7.5837 1.34235 7.7132 1.41157 7.85418 1.43962C7.99517 1.46766 8.1413 1.45327 8.2741 1.39826C8.40691 1.34325 8.52042 1.25009 8.60028 1.13057C8.68014 1.01105 8.72276 0.870537 8.72276 0.726792C8.72276 0.534035 8.64619 0.349173 8.50989 0.212874C8.37359 0.0765741 8.18873 1.83101e-06 7.99597 1.83101e-06ZM7.99597 1.0293C7.93599 1.0293 7.87735 1.0115 7.82749 0.978166C7.77762 0.944827 7.73876 0.897444 7.71584 0.842013C7.69291 0.786582 7.68695 0.725596 7.6987 0.666773C7.71045 0.607951 7.73938 0.553936 7.78184 0.511565C7.8243 0.469194 7.87838 0.440373 7.93723 0.428748C7.99607 0.417124 8.05705 0.423219 8.11243 0.446262C8.16781 0.469305 8.21511 0.50826 8.24835 0.558197C8.28158 0.608134 8.29925 0.666807 8.29912 0.726792C8.29912 0.766572 8.29128 0.805961 8.27603 0.842705C8.26079 0.879449 8.23845 0.912826 8.21029 0.940925C8.18214 0.969024 8.14871 0.991293 8.11194 1.00646C8.07516 1.02162 8.03575 1.02938 7.99597 1.0293Z"/> <path d="M10.9038 1.83101e-06C10.7601 1.83101e-06 10.6196 0.0426273 10.5 0.122488C10.3805 0.202349 10.2874 0.315858 10.2324 0.448661C10.1774 0.581465 10.163 0.727598 10.191 0.868582C10.219 1.00957 10.2883 1.13907 10.3899 1.24071C10.4916 1.34235 10.6211 1.41157 10.762 1.43962C10.903 1.46766 11.0492 1.45327 11.182 1.39826C11.3148 1.34325 11.4283 1.25009 11.5081 1.13057C11.588 1.01105 11.6306 0.870537 11.6306 0.726792C11.6306 0.631349 11.6118 0.53684 11.5753 0.448661C11.5388 0.360483 11.4852 0.280362 11.4177 0.212874C11.3503 0.145385 11.2701 0.0918501 11.182 0.0553254C11.0938 0.0188008 10.9993 1.83101e-06 10.9038 1.83101e-06ZM10.9038 1.0293C10.8438 1.0293 10.7852 1.0115 10.7353 0.978166C10.6855 0.944827 10.6466 0.897444 10.6237 0.842013C10.6008 0.786582 10.5948 0.725596 10.6065 0.666773C10.6183 0.607951 10.6472 0.553936 10.6897 0.511565C10.7322 0.469194 10.7862 0.440373 10.8451 0.428748C10.9039 0.417124 10.9649 0.423219 11.0203 0.446262C11.0757 0.469305 11.123 0.50826 11.1562 0.558197C11.1894 0.608134 11.2071 0.666807 11.207 0.726792C11.207 0.766572 11.1991 0.805961 11.1839 0.842705C11.1686 0.879449 11.1463 0.912826 11.1181 0.940925C11.09 0.969024 11.0566 0.991293 11.0198 1.00646C10.983 1.02162 10.9436 1.02938 10.9038 1.0293Z"/> <path d="M10.9038 2.90652C10.7601 2.90652 10.6196 2.94915 10.5 3.02901C10.3805 3.10887 10.2874 3.22238 10.2324 3.35518C10.1774 3.48798 10.163 3.63412 10.191 3.7751C10.219 3.91608 10.2883 4.04559 10.3899 4.14723C10.4916 4.24887 10.6211 4.31809 10.762 4.34614C10.903 4.37418 11.0492 4.35979 11.182 4.30478C11.3148 4.24977 11.4283 4.15661 11.5081 4.03709C11.588 3.91757 11.6306 3.77706 11.6306 3.63331C11.6306 3.53787 11.6118 3.44336 11.5753 3.35518C11.5388 3.267 11.4852 3.18688 11.4177 3.11939C11.3503 3.0519 11.2701 2.99837 11.182 2.96184C11.0938 2.92532 10.9993 2.90652 10.9038 2.90652ZM10.9038 3.93646C10.8439 3.93646 10.7853 3.91868 10.7354 3.88537C10.6856 3.85206 10.6467 3.80471 10.6238 3.74932C10.6008 3.69393 10.5948 3.63297 10.6065 3.57417C10.6182 3.51536 10.6471 3.46135 10.6895 3.41895C10.7319 3.37656 10.7859 3.34768 10.8447 3.33599C10.9035 3.32429 10.9644 3.33029 11.0198 3.35324C11.0752 3.37618 11.1226 3.41504 11.1559 3.46489C11.1892 3.51474 11.207 3.57335 11.207 3.63331C11.207 3.71371 11.175 3.79082 11.1182 3.84767C11.0613 3.90452 10.9842 3.93646 10.9038 3.93646Z"/> <path d="M9.45026 1.83101e-06C9.30652 1.83101e-06 9.166 0.0426273 9.04648 0.122488C8.92696 0.202349 8.83381 0.315858 8.7788 0.448661C8.72379 0.581465 8.7094 0.727598 8.73744 0.868582C8.76548 1.00957 8.8347 1.13907 8.93635 1.24071C9.03799 1.34235 9.16749 1.41157 9.30848 1.43962C9.44946 1.46766 9.59559 1.45327 9.7284 1.39826C9.8612 1.34325 9.97471 1.25009 10.0546 1.13057C10.1344 1.01105 10.1771 0.870537 10.1771 0.726792C10.1769 0.534087 10.1003 0.349324 9.964 0.213061C9.82773 0.0767983 9.64297 0.00017154 9.45026 1.83101e-06ZM9.45026 1.0293C9.39025 1.02943 9.33155 1.01174 9.2816 0.978478C9.23165 0.945216 9.1927 0.897877 9.16967 0.842458C9.14665 0.787038 9.14059 0.726032 9.15227 0.667167C9.16395 0.608302 9.19283 0.554227 9.23527 0.511792C9.2777 0.469358 9.33178 0.440472 9.39064 0.428796C9.44951 0.417119 9.51051 0.423177 9.56593 0.446201C9.62135 0.469225 9.66869 0.508179 9.70195 0.55813C9.73521 0.608081 9.7529 0.66678 9.75277 0.726792C9.75277 0.807022 9.7209 0.883966 9.66417 0.940698C9.60744 0.997429 9.5305 1.0293 9.45026 1.0293Z"/> <path d="M9.45026 2.90652C9.30652 2.90652 9.166 2.94915 9.04648 3.02901C8.92696 3.10887 8.83381 3.22238 8.7788 3.35518C8.72379 3.48798 8.7094 3.63412 8.73744 3.7751C8.76548 3.91608 8.8347 4.04559 8.93635 4.14723C9.03799 4.24887 9.16749 4.31809 9.30848 4.34614C9.44946 4.37418 9.59559 4.35979 9.7284 4.30478C9.8612 4.24977 9.97471 4.15661 10.0546 4.03709C10.1344 3.91757 10.1771 3.77706 10.1771 3.63331C10.1769 3.44061 10.1003 3.25584 9.964 3.11958C9.82773 2.98332 9.64297 2.90669 9.45026 2.90652ZM9.45026 3.93646C9.39028 3.93659 9.33161 3.91892 9.28167 3.88568C9.23173 3.85245 9.19278 3.80515 9.16973 3.74977C9.14669 3.69438 9.1406 3.63341 9.15222 3.57456C9.16385 3.51572 9.19267 3.46164 9.23504 3.41918C9.27741 3.37672 9.33142 3.34778 9.39025 3.33603C9.44907 3.32429 9.51006 3.33025 9.56549 3.35318C9.62092 3.3761 9.6683 3.41496 9.70164 3.46482C9.73498 3.51469 9.75277 3.57333 9.75277 3.63331C9.75277 3.7136 9.72092 3.79061 9.66421 3.84744C9.6075 3.90428 9.53055 3.93629 9.45026 3.93646Z"/> <path d="M7.99597 2.90652C7.85223 2.90652 7.71171 2.94915 7.59219 3.02901C7.47267 3.10887 7.37952 3.22238 7.32451 3.35518C7.2695 3.48798 7.2551 3.63412 7.28315 3.7751C7.31119 3.91608 7.38041 4.04559 7.48206 4.14723C7.5837 4.24887 7.7132 4.31809 7.85418 4.34614C7.99517 4.37418 8.1413 4.35979 8.2741 4.30478C8.40691 4.24977 8.52042 4.15661 8.60028 4.03709C8.68014 3.91757 8.72276 3.77706 8.72276 3.63331C8.72276 3.44055 8.64619 3.25569 8.50989 3.11939C8.37359 2.98309 8.18873 2.90652 7.99597 2.90652ZM7.99597 3.93646C7.93602 3.93646 7.87741 3.91868 7.82755 3.88537C7.7777 3.85206 7.73884 3.80472 7.7159 3.74932C7.69296 3.69393 7.68695 3.63298 7.69865 3.57417C7.71035 3.51536 7.73922 3.46135 7.78161 3.41895C7.82401 3.37656 7.87803 3.34768 7.93683 3.33599C7.99564 3.32429 8.05659 3.33029 8.11198 3.35324C8.16738 3.37618 8.21472 3.41504 8.24803 3.46489C8.28134 3.51474 8.29912 3.57335 8.29912 3.63331C8.29921 3.67315 8.29142 3.7126 8.27622 3.74942C8.26101 3.78624 8.23869 3.81969 8.21052 3.84786C8.18235 3.87603 8.1489 3.89835 8.11208 3.91356C8.07527 3.92876 8.03581 3.93655 7.99597 3.93646Z"/> <path d="M6.54244 2.90652C6.39869 2.90652 6.25818 2.94915 6.13866 3.02901C6.01914 3.10887 5.92598 3.22238 5.87097 3.35518C5.81596 3.48798 5.80157 3.63412 5.82961 3.7751C5.85766 3.91608 5.92688 4.04559 6.02852 4.14723C6.13016 4.24887 6.25967 4.31809 6.40065 4.34614C6.54163 4.37418 6.68777 4.35979 6.82057 4.30478C6.95337 4.24977 7.06688 4.15661 7.14674 4.03709C7.2266 3.91757 7.26923 3.77706 7.26923 3.63331C7.26923 3.53787 7.25043 3.44336 7.21391 3.35518C7.17738 3.267 7.12385 3.18688 7.05636 3.11939C6.98887 3.0519 6.90875 2.99837 6.82057 2.96184C6.73239 2.92532 6.63788 2.90652 6.54244 2.90652ZM6.54244 3.93646C6.48246 3.93659 6.42378 3.91892 6.37384 3.88568C6.32391 3.85245 6.28495 3.80515 6.26191 3.74977C6.23887 3.69438 6.23277 3.63341 6.2444 3.57456C6.25602 3.51572 6.28484 3.46164 6.32721 3.41918C6.36958 3.37672 6.4236 3.34778 6.48242 3.33603C6.54124 3.32429 6.60223 3.33025 6.65766 3.35318C6.71309 3.3761 6.76047 3.41496 6.79381 3.46482C6.82715 3.51469 6.84495 3.57333 6.84495 3.63331C6.84495 3.7136 6.8131 3.79061 6.75639 3.84744C6.69967 3.90428 6.62273 3.93629 6.54244 3.93646Z"/> <path d="M0.72679 1.45358C0.58299 1.45358 0.442422 1.49624 0.322875 1.57616C0.203327 1.65608 0.110173 1.76966 0.0552022 1.90254C0.000231013 2.03542 -0.0140868 2.18162 0.0140606 2.32263C0.042208 2.46365 0.111555 2.59315 0.213327 2.69474C0.315099 2.79634 0.44472 2.86545 0.585788 2.89335C0.726856 2.92125 0.873029 2.90668 1.00581 2.85147C1.13859 2.79626 1.25201 2.70291 1.33172 2.58322C1.41142 2.46353 1.45383 2.32289 1.45358 2.17909C1.45324 1.98656 1.37652 1.80202 1.24026 1.666C1.10399 1.52998 0.919325 1.45358 0.72679 1.45358ZM0.72679 2.48288C0.66686 2.48288 0.608275 2.46512 0.558436 2.43184C0.508598 2.39855 0.469742 2.35125 0.446779 2.29589C0.423815 2.24053 0.417774 2.17961 0.42942 2.12083C0.441065 2.06204 0.469874 2.00802 0.512206 1.9656C0.554538 1.92318 0.608494 1.89425 0.667257 1.88249C0.72602 1.87072 0.786953 1.87663 0.842357 1.89947C0.897762 1.92232 0.945152 1.96108 0.978539 2.01084C1.01193 2.06061 1.02981 2.11916 1.02994 2.17909C1.02994 2.21887 1.02209 2.25826 1.00685 2.295C0.991609 2.33175 0.969269 2.36512 0.941111 2.39322C0.912952 2.42132 0.879528 2.44359 0.842752 2.45876C0.805976 2.47392 0.76657 2.48168 0.72679 2.4816"/> <path d="M2.17913 1.45358C2.03541 1.45396 1.89503 1.49694 1.77574 1.57709C1.65645 1.65724 1.56359 1.77096 1.50892 1.90387C1.45424 2.03678 1.4402 2.18292 1.46856 2.32381C1.49692 2.4647 1.56642 2.59402 1.66827 2.69542C1.77012 2.79682 1.89974 2.86575 2.04076 2.89349C2.18177 2.92123 2.32785 2.90654 2.46052 2.85128C2.59318 2.79602 2.70649 2.70267 2.78611 2.58302C2.86573 2.46337 2.9081 2.32281 2.90784 2.17909C2.90768 2.08359 2.88869 1.98906 2.85197 1.90091C2.81525 1.81275 2.76152 1.7327 2.69384 1.66532C2.62616 1.59794 2.54587 1.54456 2.45756 1.50823C2.36924 1.4719 2.27463 1.45333 2.17913 1.45358ZM2.17913 2.48288C2.11926 2.48263 2.0608 2.46465 2.01113 2.43121C1.96146 2.39778 1.9228 2.35038 1.90003 2.295C1.87727 2.23963 1.87141 2.17875 1.8832 2.12004C1.89499 2.06134 1.9239 2.00744 1.96628 1.96515C2.00866 1.92285 2.06262 1.89406 2.12135 1.88239C2.18008 1.87073 2.24094 1.87671 2.29627 1.8996C2.3516 1.92248 2.39892 1.96124 2.43225 2.01098C2.46558 2.06072 2.48344 2.11921 2.48356 2.17909C2.48365 2.21906 2.47583 2.25866 2.46055 2.29559C2.44527 2.33253 2.42284 2.36608 2.39455 2.39432C2.36625 2.42255 2.33265 2.44491 2.29568 2.46011C2.25871 2.47531 2.2191 2.48305 2.17913 2.48288Z"/> <path d="M0.72679 2.90652C0.583045 2.90652 0.442528 2.94915 0.323007 3.02901C0.203487 3.10887 0.110333 3.22238 0.0553239 3.35518C0.00031491 3.48798 -0.014078 3.63412 0.0139654 3.7751C0.0420088 3.91608 0.111229 4.04559 0.212872 4.14723C0.314516 4.24887 0.444017 4.31809 0.585001 4.34614C0.725984 4.37418 0.872117 4.35979 1.00492 4.30478C1.13772 4.24977 1.25123 4.15661 1.33109 4.03709C1.41096 3.91757 1.45358 3.77706 1.45358 3.63331C1.45358 3.44055 1.37701 3.25569 1.24071 3.11939C1.10441 2.98309 0.919547 2.90652 0.72679 2.90652ZM0.72679 3.93646C0.666833 3.93646 0.608222 3.91868 0.558369 3.88537C0.508517 3.85206 0.469661 3.80472 0.446717 3.74932C0.423772 3.69393 0.417769 3.63298 0.429466 3.57417C0.441163 3.51536 0.470035 3.46135 0.512431 3.41895C0.554828 3.37656 0.608844 3.34768 0.667649 3.33599C0.726454 3.32429 0.787407 3.33029 0.842801 3.35324C0.898194 3.37618 0.94554 3.41504 0.97885 3.46489C1.01216 3.51474 1.02994 3.57335 1.02994 3.63331C1.03002 3.67315 1.02224 3.7126 1.00704 3.74942C0.991832 3.78624 0.969505 3.81969 0.941338 3.84786C0.913171 3.87603 0.879719 3.89835 0.842901 3.91356C0.806083 3.92876 0.766624 3.93655 0.72679 3.93646Z"/> <path d="M10.9038 1.45358C10.76 1.45358 10.6195 1.49624 10.4999 1.57616C10.3804 1.65608 10.2872 1.76966 10.2322 1.90254C10.1773 2.03542 10.1629 2.18162 10.1911 2.32263C10.2192 2.46365 10.2886 2.59315 10.3904 2.69474C10.4921 2.79634 10.6218 2.86546 10.7628 2.89335C10.9039 2.92125 11.0501 2.90668 11.1828 2.85147C11.3156 2.79626 11.429 2.70291 11.5088 2.58322C11.5885 2.46353 11.6309 2.32289 11.6306 2.17909C11.6306 2.08365 11.6118 1.98914 11.5753 1.90096C11.5388 1.81278 11.4852 1.73266 11.4177 1.66517C11.3503 1.59768 11.2701 1.54415 11.182 1.50762C11.0938 1.4711 10.9993 1.4523 10.9038 1.4523M10.9038 2.4816C10.8438 2.4816 10.7852 2.4638 10.7353 2.43046C10.6855 2.39713 10.6466 2.34974 10.6237 2.29431C10.6008 2.23888 10.5948 2.1779 10.6065 2.11907C10.6183 2.06025 10.6472 2.00623 10.6897 1.96386C10.7322 1.92149 10.7862 1.89267 10.8451 1.88105C10.9039 1.86942 10.9649 1.87552 11.0203 1.89856C11.0757 1.9216 11.123 1.96056 11.1562 2.0105C11.1894 2.06043 11.2071 2.11911 11.207 2.17909C11.2068 2.25938 11.1748 2.33632 11.118 2.39304C11.0611 2.44975 10.9841 2.4816 10.9038 2.4816Z"/> </svg>