<svg xmlns="http://www.w3.org/2000/svg" viewBox="0 0 172 97"><g stroke-width=".264583"><path fill="#241e20" d="M59.906419.70847853c-8.013536.01688-14.437857 1.95502997-19.829798 5.96811367C32.925307 11.999121 28.459897 20.325802 26.281598 32.400599c-.642893 3.563681-.693962 4.410239-.71365 11.906253-.02291 8.727384.21178 11.197694 1.607653 16.923501 4.00058 16.410158 14.154822 25.541205 29.690176 26.698612 4.483063.33399 9.413306-.0491 13.33097-1.035587l1.223698-.308 4.006472 3.136247c2.203622 1.72493 4.856322 3.820847 5.895252 4.657587 1.03892.83675 2.13916 1.52136 2.44481 1.52136.552 0 2.042587-1.53459 5.081857-5.232757 2.067727-2.51602 2.037967-2.61191-1.82521-5.912297-1.76773-1.51019-3.523897-3.002747-3.902607-3.317107l-.68884-.57154 1.8681-1.942c7.392954-7.686054 11.173261-20.921798 10.605544-37.131559-.66522-18.993947-7.280277-32.1237407-19.065495-37.8416188C71.228334 1.7140725 67.648823.90810953 61.530609.73070153c-.548526-.0159-1.089954-.02334-1.62419-.02222zM11.77189 1.1797675c-6.8608377 0-10.1946487.09068-10.3120317.280604-.0954.154371-.238723 1.9365727-.318844 3.9604817l-.145727 3.6798774.71727.272851c.394689.1500717 1.365049.2728517 2.155938.2728517H5.306651V78.967241H3.7692773c-2.396332 0-2.465338.10997-2.630329 4.178037-.10518 2.59325-.05605 3.58463.19327 3.88504.289256.34853 1.710373.40359 10.4603417.40359 8.262339 0 10.150967-.0658 10.262941-.3576.07545-.19668.222919-1.966.32711-3.93206.15377-2.901647.120689-3.618897-.175184-3.809587-.200474-.12921-1.197755-.29462-2.216401-.36742l-1.852083-.13229V9.7787253l1.809707-.155546c1.050656-.09022 1.899357-.2999477 2.023134-.5002267.117271-.1897507.298379-1.8776754.402558-3.7506744.141762-2.5486807.107024-3.5041437-.137459-3.7987337-.278772-.335912-1.81312-.393777-10.464993-.393777zm48.568094 9.9616675c6.248233.03679 10.933895 2.121733 14.488522 6.446633 1.76231 2.144199 4.015536 6.745722 4.921143 10.050031 2.82087 10.292482 2.59324 25.592957-.519347 34.924991-2.63417 7.897717-7.145993 12.617584-13.625007 14.253904-5.345504 1.350047-11.289424.635897-15.531351-1.86604-2.093735-1.23491-4.873461-4.120027-6.278171-6.516397-3.50203-5.974297-4.995359-13.235961-4.989358-24.259995.0038-6.902036.37692-10.528508 1.577681-15.321549 2.959679-11.81408 9.672963-17.772179 19.955888-17.711578z"/><path fill="#3ac3d6" d="M157.03484 1.1456675c-5.10456-.0085-10.17201.110466-10.37301.364833-.37533.475012-.67355 6.7053087-.34985 7.3101494.2005.3746307.70389.5343067 2.12545.6743774l1.86294.183451-.72864.9751327c-.40082.53618-1.11731 1.511294-1.59215 2.166794-.47483.655489-.9606 1.313659-1.07952 1.462961-.11892.14928-.44111.625551-.71572 1.058333-.27461.43276-1.46339 2.096717-2.6417 3.697446-1.1783 1.600732-3.23393 4.458232-4.5682 6.35-1.33428 1.891771-2.61595 3.677711-2.8484 3.96875-.23244.291042-.97882 1.334463-1.6583 2.318724-.73471 1.064278-1.39592 1.760307-1.63194 1.717207-.21829-.03989-1.23032-1.295924-2.24896-2.791045-1.93912-2.846149-2.73778-4.004061-7.244-10.505302-1.51298-2.18281-3.74154-5.415606-4.95267-7.184057l-2.20245-3.2153067 1.8309-.18397c1.00678-.1011077 1.94875-.3264317 2.09341-.5007417.14466-.1743097.34538-1.8758844.44597-3.7811654.17589-3.3316697.16186-3.4754477-.36691-3.7584267-.83011-.44427-20.53637-.40966-20.89122.03669-.14461.181902-.34472 1.8879897-.44442 3.7915007-.1415 2.701451-.10497 3.5241807.16485 3.7480924.19012.157768 1.18363.369316 2.20813.4702537 1.7904.176411 1.88435.221157 2.42259 1.1472177.30799.52991 1.19648 1.824704 1.97404 2.877343.77757 1.05264 1.92364 2.659976 2.54713 3.571875 2.78514 4.07347 6.45632 9.365192 6.74842 9.727571.17602.21835 1.12851 1.587568 2.11667 3.042708.98816 1.455142 2.39178 3.479279 3.11919 4.497917 2.93591 4.11136 5.31265 7.842702 5.18832 8.145752-.0724.17656-.94693 1.40271-1.94304 2.7249-5.25662 6.977384-7.92557 10.537254-11.27011 15.031121-1.4191 1.906747-2.98871 4.002737-3.48764 4.657587-4.39989 5.774837-6.70492 8.967494-6.57118 9.101244.0876.0875.031.15916-.12557.15916-.15653 0-1.03941 1.06113-1.96215 2.358l-1.67794 2.357997-1.91099.18603c-1.0511.1023-2.034907.33523-2.186427.5178-.15152.18257-.3528 1.85331-.447 3.712437-.15707 3.09915-.1301 3.40962.31936 3.73827.73588.53807 20.821847.52681 21.268977-.0119.43092-.51923.92813-6.618817.58911-7.226947-.19127-.3431-.80576-.54473-2.24534-.73691l-1.98179-.26458 1.8588-2.513537c1.02237-1.38245 1.94088-2.57303 2.04122-2.64583.10034-.0728.46896-.54901.81907-1.05834.67187-.977417 7.04728-9.640504 7.59385-10.318734.31655-.39282 1.31879-1.746717 6.12624-8.275464 1.36172-1.84927 2.58017-3.297797 2.70785-3.21892.12768.0789.79518.94113 1.48363 1.91616.68846.97503 1.32325 1.83251 1.41025 1.90531.14765.12345 1.4843 1.969547 5.65237 7.805204.93543 1.30968 1.97942 2.76342 2.31975 3.23081.34032.46738 1.27341 1.751027 2.07378 2.852017.80036 1.101 2.22911 3.05197 3.175 4.335647 1.97985 2.68688 2.32254 3.16747 3.41478 4.795057l.79891 1.19062-.98236.18345c-.54021.10074-1.36463.19044-1.83245.19844-.5318.01-.93971.18852-1.08831.47801-.13072.25466-.31302 1.83698-.40462 3.516057-.13745 2.5207-.095 3.15488.24339 3.63802l.41031.58498h20.51761l.28991-.59531c.41695-.85622.68713-6.408427.34313-7.051247-.22568-.42167-.67722-.55368-2.40451-.70435-1.79118-.15624-2.17249-.27425-2.41949-.74621-.27647-.52834-2.78471-4.093337-6.44353-9.159124-1.44731-2.00385-5.58867-7.858954-7.57938-10.715614-.40564-.58209-1.33051-1.89177-2.05517-2.910417-.72468-1.01865-2.06088-2.92365-2.96933-4.23333-.90846-1.309687-1.79431-2.526697-1.96835-2.704737-.17406-.17805-.5921-.77336-.92915-1.32292-.33706-.54956-.71204-1.11849-.83302-1.26401-.12098-.14552-.8628-1.157547-1.649-2.248957-1.20595-1.67418-1.37993-2.05517-1.11156-2.43706.17494-.24895 1.74656-2.427274 3.49281-4.841044 1.74625-2.413781 4.69358-6.496812 6.54947-9.07283 1.85589-2.57601 4.35621-6.038331 5.55625-7.694623 1.20005-1.656281 2.65854-3.687056 3.24063-4.512384.58208-.825331 1.70991-2.401705 2.50683-3.503147l1.449-2.0024617 1.96371-.16588c1.07989-.09129 2.11121-.2888137 2.29185-.4387317.37675-.3126817.6247-2.1185844.7028-5.1164834.0462-1.7741897-.0198-2.1357667-.44597-2.4473957-.34912-.255275-5.49065-.391477-10.59522-.399976z"/></g></svg>