<?xml version="1.0" encoding="UTF-8" standalone="no"?>
<!-- Created with Inkscape (http://www.inkscape.org/) -->
<svg
   xmlns:svg="http://www.w3.org/2000/svg"
   xmlns="http://www.w3.org/2000/svg"
   version="1.0"
   width="134"
   height="29"
   viewBox="0 0 130.395 26.824"
   id="Layer_1"
   xml:space="preserve"><defs
   id="defs26" />
<g
   transform="matrix(0.982609,0,0,0.982609,1.1014418,0.2332481)"
   id="g3">
	<path
   d="M 41.968,6.986 C 36.778,6.986 32.963,10.774 32.963,15.934 C 32.963,21.091 36.777,24.88 41.968,24.88 C 47.159,24.88 50.975,21.091 50.975,15.934 C 50.974,10.774 47.159,6.986 41.968,6.986 M 43.171,22.783 C 40.54,23.253 38.508,20.775 37.771,16.648 C 37.042,12.575 38.135,9.481 40.711,9.022 C 43.342,8.552 45.384,11.084 46.112,15.157 C 46.851,19.283 45.802,22.313 43.171,22.783"
   id="path5"
   style="fill:#ee333e" />
	<path
   d="M 121.389,6.986 C 116.198,6.986 112.382,10.774 112.382,15.934 C 112.382,21.091 116.197,24.88 121.389,24.88 C 126.578,24.88 130.394,21.091 130.394,15.934 C 130.394,10.774 126.579,6.986 121.389,6.986 M 122.591,22.783 C 119.961,23.253 117.93,20.775 117.192,16.648 C 116.463,12.575 117.556,9.481 120.131,9.022 C 122.763,8.552 124.805,11.084 125.533,15.157 C 126.27,19.283 125.223,22.313 122.591,22.783"
   id="path7"
   style="fill:#ee333e" />
	<path
   d="M 93.98,11.479 C 94.181,12.033 94.27,12.724 94.27,13.565 C 94.27,14.878 94.27,22.164 94.27,24.525 L 100.832,24.525 C 100.832,24.525 100.832,23.461 100.832,23.318 C 99.895,23.318 98.709,22.859 98.709,20.714 C 98.709,20.286 98.709,15.72 98.709,12.503 C 98.709,8.009 95.035,6.972 93.072,6.972 C 89.916,6.972 88.206,8.841 87.634,10.008 C 87.634,10.008 87.573,7.785 87.573,7.371 L 81.256,7.371 L 81.256,8.559 C 82.17,8.559 83.38,9.016 83.38,11.14 C 83.38,12.453 83.38,18.364 83.38,20.726 C 83.38,22.849 82.167,23.318 81.256,23.318 C 81.256,23.523 81.256,24.525 81.256,24.525 L 89.942,24.525 C 89.942,24.525 89.942,23.461 89.942,23.318 C 89.005,23.318 87.818,22.859 87.818,20.714 C 87.818,20.328 87.818,17.399 87.818,14.508 C 87.818,13.288 88.004,12.305 88.4,11.552 C 89.072,10.277 90.293,9.66 91.317,9.66 C 92.551,9.66 93.518,10.212 93.98,11.479"
   id="path9"
   style="fill:#ee333e" />
	<path
   d="M 110.41,24.525 C 110.41,24.525 110.41,23.461 110.41,23.318 C 109.472,23.318 108.286,22.859 108.286,20.714 C 108.286,20.286 108.289,9.192 108.289,9.192 L 110.764,9.192 L 110.764,7.392 L 108.289,7.392 L 108.289,3.487 C 108.289,3.487 106.352,3.487 105.976,3.487 C 105.976,6.084 103.538,7.973 101.568,7.973 L 101.568,9.175 L 103.848,9.184 C 103.848,10.497 103.848,18.43 103.848,20.792 C 103.848,23.459 104.862,24.525 107.773,24.525 C 109.003,24.525 110.41,24.525 110.41,24.525"
   id="path11"
   style="fill:#ee333e" />
	<path
   d="M 64.624,2.44 C 64.624,2.44 64.624,19.659 64.624,20.523 C 64.624,22.669 65.812,23.127 66.747,23.127 C 66.747,23.272 66.747,24.525 66.747,24.525 L 57.837,24.525 C 57.837,24.525 57.837,23.208 57.837,23.127 C 58.751,23.127 59.961,22.67 59.961,20.52 C 59.961,16.751 59.961,3.352 59.961,2.435 C 59.479,2.436 58.732,2.435 57.786,2.435 C 55.199,2.435 54.248,3.101 54.248,5.057 C 53.992,5.057 52.717,5.057 52.717,5.057 L 52.718,0 L 71.675,0 L 71.672,5.056 L 70.214,5.056 C 70.214,3.071 69.294,2.438 66.707,2.438 C 65.944,2.438 64.624,2.44 64.624,2.44"
   id="path13"
   style="fill:#ee333e" />
	<path
   d="M 6.786,2.433 C 6.786,3.814 6.786,4.932 6.786,7.882 L 6.786,13.528 C 6.786,17.186 6.786,20.166 6.786,20.526 C 6.786,22.67 7.974,23.129 8.91,23.129 C 8.91,23.273 8.91,24.526 8.91,24.526 L 0,24.526 C 0,24.526 0,23.209 0,23.129 C 0.915,23.129 2.124,22.672 2.124,20.521 C 2.124,19.14 2.124,16.656 2.124,13.705 L 2.124,8.058 C 2.124,4.399 2.124,4.359 2.124,4.001 C 2.124,1.857 0.936,1.398 0,1.398 C 0,1.255 0,0 0,0 L 11.084,0 C 17.853,0 19.442,3.579 19.442,6.377 C 19.442,9.553 17.166,11.675 13.993,12.26 C 17.36,12.474 19.326,21.063 21.78,24.215 C 22.109,24.639 22.966,25.408 23.894,25.408 C 23.913,25.409 23.981,25.409 24,25.409 C 24,25.683 24,26.824 24,26.824 L 21.37,26.824 C 19.437,26.824 17.478,25.972 16.61,24.795 C 13.725,20.879 12.615,12.813 9.1,12.558 C 9.043,12.554 8.845,12.552 8.787,12.552 C 8.787,12.179 8.787,11.087 8.787,11.087 C 8.841,11.087 9.037,11.086 9.089,11.085 C 13.458,11.024 14.246,8.693 14.246,6.743 C 14.246,4.488 13.438,2.427 9.452,2.427 C 8.819,2.427 6.786,2.433 6.786,2.433"
   id="path15"
   style="fill:#ee333e" />
	<path
   d="M 77.771,3.659 C 77.771,4.79 76.696,5.706 75.369,5.706 C 74.043,5.706 72.966,4.79 72.966,3.659 C 72.966,2.529 74.043,1.612 75.369,1.612 C 76.696,1.612 77.771,2.529 77.771,3.659"
   id="path17"
   style="fill:#ee333e" />
	<path
   d="M 79.929,24.525 C 79.929,24.525 79.929,23.461 79.929,23.318 C 78.992,23.318 77.806,22.859 77.806,20.714 C 77.806,19.85 77.806,7.371 77.806,7.371 L 71.243,7.371 L 71.243,8.559 C 72.158,8.559 73.367,9.016 73.367,11.14 C 73.367,12.057 73.367,16.941 73.367,20.71 C 73.367,22.861 72.157,23.318 71.243,23.318 C 71.243,23.398 71.243,24.525 71.243,24.525 L 79.929,24.525"
   id="path19"
   style="fill:#ee333e" />
	<path
   d="M 24.527,24.525 C 24.527,22.164 24.527,12.453 24.527,11.14 C 24.527,9.016 23.318,8.559 22.403,8.559 L 22.403,7.371 L 28.965,7.371 C 28.965,7.371 28.965,19.85 28.965,20.714 C 28.965,22.86 30.153,23.318 31.089,23.318 C 31.089,23.461 31.089,24.525 31.089,24.525 L 24.527,24.525"
   id="path21"
   style="fill:#ee333e" />
	<path
   d="M 29.012,3.659 C 29.012,4.79 27.936,5.706 26.609,5.706 C 25.283,5.706 24.207,4.79 24.207,3.659 C 24.207,2.529 25.283,1.612 26.609,1.612 C 27.936,1.612 29.012,2.529 29.012,3.659"
   id="path23"
   style="fill:#ee333e" />
</g>
</svg>