<svg xmlns="http://www.w3.org/2000/svg" version="1.0" viewBox="0 0 130.395 26.824"><g fill="#ee333e"><path d="M42.33957631 7.09775457c-5.0997407 0-8.84839404 3.7221229-8.84839404 8.79238534 0 5.0673146 3.74767072 8.79042011 8.84839404 8.79042011s8.85035927-3.7231055 8.85035927-8.79042011c-.00098261-5.07026244-3.74963595-8.79238534-8.85035927-8.79238534m1.18207863 15.52227438c-2.58524428.46182623-4.58190577-1.97307887-5.3060886-6.02830622-.71632196-4.00216646.35766968-7.0423587 2.88887046-7.49337623 2.58524428-.46182623 4.59173186 2.02613976 5.3070712 6.02830621.72614806 4.05424474-.30460878 7.03155-2.88985306 7.49337624M120.3793657 7.09775457c-5.10072332 0-8.85035926 3.7221229-8.85035926 8.79238534 0 5.0673146 3.74865333 8.79042011 8.85035926 8.79042011 5.0987581 0 8.84839405-3.7231055 8.84839405-8.79042011 0-5.07026244-3.74865334-8.79238534-8.84839405-8.79238534m1.18109602 15.52227438c-2.58426167.46182623-4.57994055-1.97307887-5.305106-6.02830622-.71632195-4.00216646.35766968-7.0423587 2.88788786-7.49337623 2.58622689-.46182623 4.59271446 2.02613976 5.30805382 6.02830621.72418283 4.05424474-.3046088 7.03155-2.89083568 7.49337624M93.44703562 11.51261681c.1975044.54436539.28495661 1.2233482.28495661 2.04972237v10.76939464h6.44788026v-1.18600906c-.92070463 0-2.0860789-.45101753-2.0860789-2.55871383v-8.0682025c0-4.41584485-3.61010547-5.43481038-5.53896694-5.43481038-3.101114 0-4.7813754 1.83649622-5.34342774 2.98320092 0 0-.05993915-2.1843398-.05993915-2.59113993H80.9443187v1.1673395c.89810463 0 2.08706152.4490523 2.08706152 2.53611382v9.41928987c0 2.08607891-1.19190472 2.54692253-2.08706152 2.54692253v1.18600906h8.53494178v-1.18600906c-.92070463 0-2.08706152-.45101753-2.08706152-2.55871383v-6.09807146c0-1.19878298.18276528-2.16468763.57187844-2.9045922.66031325-1.25282648 1.86007884-1.85909623 2.86627045-1.85909623 1.2125395 0 2.16272241.54240017 2.61668777 1.78736577M109.59130149 24.33173382v-1.18600906c-.92168724 0-2.08706152-.45101753-2.08706152-2.55871383 0-.42055666.00294783-11.3216209.00294783-11.3216209h2.43195728v-1.7686962h-2.43195728V3.65960568h-2.27277462c0 2.55183558-2.39560074 4.40798398-4.33134047 4.40798398v1.18109602l2.24034852.00884348v11.40612527c0 2.6206182.99636553 3.6680794 3.85674033 3.6680794h2.59113993M64.60156582 2.63081406v17.76851855c0 2.10867891 1.16733949 2.55871383 2.0860789 2.55871383v1.37368738h-8.75504619v-1.37368738c.89810463 0 2.08706152-.44905231 2.08706152-2.56166166V2.62590101c-.47361754.00098261-1.20762646 0-2.13717458 0-2.54200948 0-3.47647064.6544176-3.47647064 2.5764008h-1.50437438L52.90262306.2332481h18.62731881l-.00294782 4.9680711h-1.43264392c0-1.95047886-.90400028-2.57247036-3.44600977-2.57247036-.74973066 0-2.04677454.00196522-2.04677454.00196522M7.76942647 2.6239358v17.77834463c0 2.1067137 1.1673395 2.55773123 2.08706152 2.55773123v1.37270477H1.1014418v-1.37270477c.89908723 0 2.08706152-.44905231 2.08706152-2.56264427V8.15111142 4.16466671c0-2.1067137-1.1673395-2.55773123-2.08706152-2.55773123V.2332481h10.89123816c6.65128032 0 8.21264602 3.51675761 8.21264602 6.2660976 0 3.12076618-2.23641809 5.20586247-5.35423644 5.78068874 3.3084445.21027833 5.2402538 8.64990703 7.65157628 11.7470906.32327836.41662621 1.16537427 1.17225253 2.07723543 1.17225253.01866957.00098261.08548698.00098261.10415655.00098261v1.39039174h-2.58426167c-1.8993832 0-3.82431423-.83718287-4.67721884-1.99371367-2.83482697-3.84789684-3.92552296-11.77362103-7.37939359-12.02418633-.05600871-.00393043-.2505653-.00589565-.30755662-.00589565v-1.43952219c.05306089 0 .24565225-.0009826.29674792-.00196522 4.29301872-.05993914 5.06731461-2.35040072 5.06731461-4.26648827 0-2.2157833-.79394807-4.24094045-4.71062754-4.24094045-.6219915 0-2.6196356.00589566-2.6196356.00589566M77.51992634 3.82861443c0 1.11133078-1.05630468 2.01140062-2.36022682 2.01140062-1.30293953 0-2.36120943-.90006984-2.36120943-2.01140062 0-1.11034817 1.0582699-2.01140062 2.36120943-2.01140062 1.30392214 0 2.36022682.90105245 2.36022682 2.01140062M79.64039656 24.33173382v-1.18600906c-.92070463 0-2.0860789-.45101753-2.0860789-2.55871383V7.47605903h-6.44886287v1.1673395c.89908723 0 2.08706151.44905231 2.08706151 2.53611383v9.40356813c0 2.11359196-1.18895689 2.56264427-2.08706151 2.56264427v1.18600906h8.53494177M25.20189274 24.33173382V11.17951236c0-2.08706152-1.18797428-2.53611383-2.08706151-2.53611383v-1.1673395h6.44788025v13.1109519c0 2.10867891 1.1673395 2.55871383 2.08706152 2.55871383v1.18600906h-6.44788026M29.6088941 3.82861443c0 1.11133078-1.05728728 2.01140062-2.36120942 2.01140062-1.30293953 0-2.36022682-.90006984-2.36022682-2.01140062 0-1.11034817 1.05728729-2.01140062 2.36022682-2.01140062 1.30392214 0 2.36120943.90105245 2.36120943 2.01140062"/></g></svg>