<svg xmlns="http://www.w3.org/2000/svg" viewBox="0 0 310.8 114.46"><g id="Layer_2" data-name="Layer 2"><g id="Layer_1-2" data-name="Layer 1"><rect y="1.08" width="85.03" height="14.17"/><rect x="28.37" y="100.28" width="85.03" height="14.17"/><rect x="0.01" y="100.27" width="14.17" height="14.2" transform="translate(-100.27 114.47) rotate(-90)"/><rect x="99.21" y="1.08" width="14.18" height="14.18"/><path d="M99.21,29.42a42.52,42.52,0,1,1-85,0H0a56.69,56.69,0,0,0,113.38,0Z"/><path d="M140,0h26V4.85h-10.2V32.07h-5.61V4.85H140Z"/><path d="M170.54,0h5.12V11.9h.09a8.14,8.14,0,0,1,7-3.68c5.07,0,8.22,2.65,8.22,7.91V32.07h-5.12V17.47c-.14-3.63-1.48-5.21-4.54-5.21-3.41,0-5.62,2.7-5.62,6.11v13.7h-5.12Z"/><path d="M200.33,21.79c0,3.64,2,6.87,6.24,6.87,3,0,4.77-1.3,5.66-3.86h4.86c-1.08,5.07-5.49,7.9-10.52,7.9-7.32,0-11.36-5-11.36-12.22,0-6.6,4.31-12.26,11.23-12.26,7.32,0,11.81,6.6,11,13.57Zm11.95-3.37c-.23-3.24-2.34-6.16-5.84-6.16a6.07,6.07,0,0,0-6.11,6.16Z"/><path d="M140,40.2h5.62V58.89c0,4.31.27,9.29,7.55,9.29s7.54-5,7.54-9.29V40.2h5.62V60.73C166.29,69,161,73,153.13,73S140,69,140,60.73Z"/><path d="M213.24,72.27h-3.6l-.85-3.77c-3,3.41-5.75,4.54-9.66,4.54-9.57,0-15.36-7.6-15.36-16.81s5.79-16.8,15.36-16.8c7,0,12.89,3.73,13.75,11H207.4c-.59-4.17-4.18-6.37-8.27-6.37-6.87,0-9.75,6.06-9.75,12.21s2.88,12.22,9.75,12.22c5.79.14,8.85-3.37,9-8.8h-8.53V55.38h13.66Z"/><path d="M218.63,49.05h4.8v4.49h.09a7.56,7.56,0,0,1,6.79-5.12,13.06,13.06,0,0,1,1.93.13v4.94a12.62,12.62,0,0,0-2.2-.22c-3.46,0-6.29,2.78-6.29,7.95v11h-5.12Z"/><path d="M234.16,60.64c0-7.06,4.31-12.22,11.72-12.22s11.73,5.16,11.73,12.22S253.3,72.9,245.88,72.9,234.16,67.78,234.16,60.64Zm18.33,0c0-4-2-8.18-6.61-8.18s-6.6,4.18-6.6,8.18,2,8.22,6.6,8.22S252.49,64.68,252.49,60.64Z"/><path d="M282.27,72.27h-5V69h-.09a7.8,7.8,0,0,1-6.6,3.86c-6.11,0-8.67-3-8.67-9.12V49.05H267V63.29c0,4.09,1.62,5.57,4.45,5.57,4.26,0,5.7-2.74,5.7-6.34V49.05h5.12Z"/><path d="M287.8,49.05h4.85v3.14h.09c1.44-2.69,4.18-3.77,7.19-3.77,7.32,0,10.87,5.52,10.87,12.35,0,6.29-3.19,12.13-10,12.13-3,0-6.2-1.08-7.77-3.64h-.09V80.85H287.8Zm11.45,3.41c-4.31,0-6.51,3.24-6.51,8.22,0,4.67,2.38,8.18,6.51,8.18,4.68,0,6.43-4.13,6.43-8.18S303.48,52.46,299.25,52.46Z"/><path d="M159.06,110.1a10.78,10.78,0,0,1-9,4.22c-5.93,0-10.11-3.55-10.11-9.52,0-4.54,3.64-7.37,7.37-9.3-1.66-2.16-3.23-4.18-3.23-7,0-4.63,3.5-7.64,7.86-7.64,4.13,0,8,2.52,8,7.69,0,3.81-2.69,6.46-5.79,8.13l5,6a17.42,17.42,0,0,0,1-4.32h4.5a18.76,18.76,0,0,1-2.52,7.87l6.15,7.45H162Zm-9-11.23c-1.89,1.17-4.95,2.2-4.95,6,0,3.46,2.16,5.39,5.17,5.39,3.73,0,5.12-2.29,6.07-3.6Zm-1.35-10.65c0,2.11,1.7,3.77,2.92,5.35,1.93-1.31,3.77-2.65,3.77-5.21,0-2.12-1.3-3.69-3.28-3.69A3.34,3.34,0,0,0,148.68,88.22Z"/><path d="M205.19,91.81c-.94-3.72-3.32-6.37-8-6.37-6.88,0-9.75,6.06-9.75,12.21s2.87,12.22,9.75,12.22c5,0,7.68-3.72,8.17-8.4h5.48c-.49,7.69-5.88,13-13.65,13-9.57,0-15.37-7.6-15.37-16.81s5.8-16.8,15.37-16.8c7.27,0,12.89,4.05,13.61,11Z"/><path d="M214.18,102.06c0-7.06,4.31-12.22,11.73-12.22s11.72,5.16,11.72,12.22-4.31,12.26-11.72,12.26S214.18,109.2,214.18,102.06Zm18.33,0c0-4-2-8.18-6.6-8.18s-6.61,4.18-6.61,8.18,2,8.22,6.61,8.22S232.51,106.1,232.51,102.06Z"/></g></g></svg>