<svg xmlns="http://www.w3.org/2000/svg" viewBox="0 0 1000 1003"><style>.st3{fill:#6ccfd0}.st5{fill:#595959}</style><g id="Layer_1"><path fill="#a8aaad" d="M237 236L496 88l259 148-104 59-155-90-155 90z"/><path fill="#585a5c" d="M237 236l104 59v179l155 89v121L237 535z"/><path d="M763 423l-103 59V318l103-58z" class="st3"/><path fill="#45c4c5" d="M763 417l1 123-240 144V563z"/><path d="M660 480v123l-136 81V563z" class="st3"/><g><path d="M104 807h17l39 91 40-91h17l-48 111h-17l-48-111zM240 863c0 6 1 12 3 17a45 45 0 0024 24c6 2 11 3 17 3 9 0 17-2 23-6 7-4 13-10 16-17h18a61 61 0 01-33 34 58 58 0 01-47 0 61 61 0 0124-117 58 58 0 0142 18 63 63 0 0118 43H240zm44-46a43 43 0 00-26 8 46 46 0 00-16 22h84c-3-9-8-16-16-22-7-5-16-8-26-8zM455 815a49 49 0 0115 36v67h-16v-67l-2-14a36 36 0 00-19-18c-4-2-8-3-13-3s-9 1-13 3a35 35 0 00-18 18c-2 4-3 9-3 14v67h-15V807h13v13l2-3c5-6 10-9 16-12s12-4 18-4a49 49 0 0135 14zM478 822v-15h29v-45h16v45h29v15h-29v96h-16v-96h-29zM593 908a49 49 0 01-15-35v-66h15v66c0 5 1 9 3 13s4 8 8 11l10 7c4 2 9 3 14 3 4 0 9-1 13-3a35 35 0 0021-31v-66h15v66a50 50 0 01-84 35zM764 823l-11-2c-5 0-9 1-13 3a35 35 0 00-18 18c-2 4-3 9-3 14v62h-15V807h12l1 14 3-3a48 48 0 0139-12l5 1v16zM793 863c0 6 1 12 4 17a45 45 0 0024 24c5 2 11 3 17 3 8 0 16-2 23-6s12-10 16-17h17a61 61 0 01-33 34 58 58 0 01-46 0 61 61 0 0123-117 58 58 0 0142 18 63 63 0 0118 43H793zm45-46a43 43 0 00-26 8 46 46 0 00-16 22h84c-3-9-9-16-16-22-8-5-16-8-26-8z" class="st5"/></g></g></svg>